<?xml version="1.0" standalone="no"?>
<!DOCTYPE svg PUBLIC "-//W3C//DTD SVG 1.1//EN" "http://www.w3.org/Graphics/SVG/1.1/DTD/svg11.dtd" >
<svg>
<metadata>
Created by FontForge 20110222 at Sat Mar 23 11:22:15 2013
 By Orthosie Webmaster
Part of the digitally encoded machine readable outline data for producing the Typefaces provided is copyrighted (c) 2006 Linotype GmbH, www.linotype.com. All rights reserved. This software is the property of Linotype GmbH, and may not be reproduced, modified, disclosed or transferred without the express written approval of Linotype GmbH.  Copyright (c) 1988, 1990, 1993 Adobe Systems Incorporated. All Rights Reserved. Helvetica is a trademark of Heidelberger Druckmaschinen AG, exclusively licensed through Linotype GmbH, and may be registered in certain jurisdictions. This typeface is original artwork of Linotype Design Studio. The design may be protected in certain jurisdictions.
</metadata>
<defs>
<font id="HelveticaNeueLTCom73BoldExtendedOblique" horiz-adv-x="741" >
  <font-face 
    font-family="HelveticaNeueLTCom73BoldExtendedOblique"
    font-weight="700"
    font-style="oblique"
    font-stretch="expanded"
    units-per-em="1000"
    panose-1="2 11 8 7 4 5 2 3 2 4"
    ascent="714"
    descent="-286"
    x-height="536"
    cap-height="714"
    bbox="-149 -220 1299 1012"
    underline-thickness="50"
    underline-position="-50"
    slope="-12"
    unicode-range="U+0020-FB02"
  />
<missing-glyph horiz-adv-x="512" 
d="M222 117v67h56v-67h-56zM225 234l-2 17q0 55 13 81t46 59q32 31 41 47.5t9 35.5q0 36 -22.5 60.5t-53.5 24.5t-53.5 -22t-28.5 -73l-50 8q7 71 44 104t91 33q53 0 88.5 -36t35.5 -95q0 -32 -12.5 -58.5t-50.5 -61.5q-37 -33 -43 -52t-6 -72h-46zM462 50v617h-412v-617
h412zM512 718v-718h-512v718h512z" />
    <glyph glyph-name="IJ" unicode="IJ" horiz-adv-x="1038" 
d="M216 714h194l-148 -714h-194zM924 714h194l-91 -436q-6 -31 -14.5 -65t-24 -67t-39.5 -63t-61 -53t-89 -36.5t-122 -13.5q-62 0 -118 10t-95 37t-55.5 75t-0.5 124l10 45h194l-11 -50q-10 -51 11.5 -81t70.5 -30q37 0 62.5 10.5t41.5 30t25.5 45.5t15.5 58z" />
    <glyph glyph-name="ij" unicode="ij" horiz-adv-x="628" 
d="M210 726h176l-25 -124h-176zM171 536h176l-111 -536h-176zM542 726h176l-25 -124h-176zM503 536h176l-111 -532q-10 -48 -23.5 -85.5t-38.5 -64t-66.5 -40t-107.5 -13.5q-26 0 -47 1.5t-42 2.5l27 130q14 -2 25 -3t19 -1q21 0 34 4.5t22 14.5t14.5 26.5t10.5 41.5z" />
    <glyph glyph-name="napostrophe" unicode="&#x22;n" 
d="M568 304q23 110 -95 110q-31 0 -60 -8t-53.5 -26.5t-43 -48t-27.5 -72.5l-53 -259h-176l111 536h170l-16 -78h2q15 17 39.5 33.5t56 29.5t68 21t74.5 8q34 0 72.5 -8t68.5 -29.5t45.5 -59t3.5 -96.5l-74 -357h-176zM134 810h178l-13 -62q-7 -23 -15 -43.5t-25 -36
t-48 -24.5t-84 -9l9 43q32 4 44.5 11.5t18.5 24.5h-85z" />
    <glyph glyph-name="fi" unicode="fi" horiz-adv-x="722" 
d="M203 418h-111l25 118h111l6 27q11 54 27 87.5t43.5 52t69 25t103.5 6.5q18 0 48.5 -0.5t62.5 -1.5l-23 -110q-23 1 -44.5 1.5t-44.5 0.5t-40.5 -9t-24.5 -46l-7 -33h141l-25 -118h-141l-86 -418h-176zM636 726h176l-25 -124h-176zM597 536h176l-111 -536h-176z" />
    <glyph glyph-name="fl" unicode="fl" horiz-adv-x="722" 
d="M203 418h-111l25 118h111l6 27q11 54 27 87.5t43.5 52t69 25t103.5 6.5q18 0 48.5 -0.5t62.5 -1.5l-23 -110q-23 1 -44.5 1.5t-44.5 0.5t-40.5 -9t-24.5 -46l-7 -33h141l-25 -118h-141l-86 -418h-176zM636 726h176l-150 -726h-176z" />
    <glyph glyph-name=".notdef" horiz-adv-x="512" 
d="M222 117v67h56v-67h-56zM225 234l-2 17q0 55 13 81t46 59q32 31 41 47.5t9 35.5q0 36 -22.5 60.5t-53.5 24.5t-53.5 -22t-28.5 -73l-50 8q7 71 44 104t91 33q53 0 88.5 -36t35.5 -95q0 -32 -12.5 -58.5t-50.5 -61.5q-37 -33 -43 -52t-6 -72h-46zM462 50v617h-412v-617
h412zM512 718v-718h-512v718h512z" />
    <glyph glyph-name=".null" horiz-adv-x="500" 
 />
    <glyph glyph-name="nonmarkingreturn" horiz-adv-x="0" 
 />
    <glyph glyph-name="space" unicode=" " horiz-adv-x="370" 
 />
    <glyph glyph-name="exclam" unicode="!" horiz-adv-x="370" 
d="M123 170h194l-35 -170h-194zM236 714h194l-130 -483h-134z" />
    <glyph glyph-name="quotedbl" unicode="&#x22;" horiz-adv-x="592" 
d="M278 714h124l-73 -353h-124zM486 714h124l-73 -353h-124z" />
    <glyph glyph-name="numbersign" unicode="#" horiz-adv-x="816" 
d="M557 408h-112l-43 -122h112zM254 176h-84l23 110h99l43 122h-84l23 110h99l62 176h110l-62 -176h112l62 176h110l-62 -176h84l-23 -110h-99l-43 -122h84l-23 -110h-99l-61 -176h-110l61 176h-112l-61 -176h-110z" />
    <glyph glyph-name="dollar" unicode="$" horiz-adv-x="816" 
d="M437 285l-85 14q-32 5 -69 14t-67 29.5t-45.5 56.5t-3.5 95t46 100t82.5 67.5t108 39t122.5 13.5l17 83h74l-17 -83q50 -4 97.5 -16.5t83 -38t53.5 -66t9 -100.5h-200q2 43 -18 63.5t-52 27.5l-33 -159l99 -16q48 -8 83.5 -23t58 -38t30.5 -55t-1 -74q-10 -50 -34 -92
t-67 -74t-107.5 -51t-154.5 -22l-22 -107h-74l22 107q-84 4 -141.5 19.5t-90.5 44.5t-43.5 72.5t-1.5 102.5h206q-5 -29 1 -49.5t19.5 -34t33.5 -21t43 -10.5zM500 590q-21 0 -43.5 -3.5t-42.5 -12t-35 -23.5t-20 -38q-4 -20 0 -32t17 -20t35.5 -13t56.5 -11zM473 104
q57 6 87.5 30t38.5 61q4 20 -1 33t-17 21.5t-30.5 14t-42.5 10.5z" />
    <glyph glyph-name="percent" unicode="%" horiz-adv-x="1037" 
d="M844 714h98l-607 -734h-98zM745 174q-4 -18 -5 -37t5 -35t20.5 -26t42.5 -10t47 10t31.5 26t19.5 35t11 37t5 37t-5.5 35t-21.5 26t-42 10q-28 0 -47 -10t-31 -26t-19 -35t-11 -37zM627 174q18 89 77 141.5t167 52.5q54 0 89.5 -13.5t55 -39t24 -61t-4.5 -80.5
q-19 -89 -78 -141.5t-167 -52.5t-145 52.5t-18 141.5zM264 520q-4 -18 -5 -37t5 -35t20.5 -26t42.5 -10t47 10t31.5 26t19.5 35t11 37t5 37t-5.5 35t-21.5 26t-42 10q-28 0 -47 -10t-31 -26t-19 -35t-11 -37zM146 520q18 89 77 141.5t167 52.5q54 0 89.5 -13.5t55 -39
t24 -61t-4.5 -80.5q-19 -89 -78 -141.5t-167 -52.5t-145 52.5t-18 141.5z" />
    <glyph glyph-name="ampersand" unicode="&#x26;" horiz-adv-x="926" 
d="M465 555q-4 -17 0 -32t12 -26.5t17.5 -20.5t15.5 -14q16 6 33 14.5t32 19t26 24t15 31.5q3 15 -2 26t-14.5 18.5t-22 11t-24.5 3.5q-32 0 -57 -13t-31 -42zM647 68q-73 -46 -141.5 -67t-148.5 -21q-65 0 -118 13.5t-88 41t-49.5 70t-2.5 100.5q9 42 30.5 75.5t53 59.5
t71 44.5t84.5 29.5q-14 14 -24.5 27.5t-16.5 28.5t-7.5 33t3.5 41q10 48 37.5 81t65 52.5t81 28t84.5 8.5q51 0 94 -9.5t72.5 -29.5t42.5 -50t5 -70q-7 -34 -25.5 -60t-43.5 -45.5t-55.5 -33t-61.5 -22.5l125 -142q14 12 30.5 27.5t31.5 32t28.5 33t21.5 30.5l99 -53
q-15 -24 -29.5 -44t-30 -38t-33.5 -35t-40 -35l150 -170h-237zM412 337q-19 -6 -38.5 -17t-36.5 -26t-29.5 -33t-16.5 -37q-7 -32 1.5 -54.5t26.5 -37t42 -21.5t48 -7q45 0 86.5 11.5t79.5 38.5z" />
    <glyph glyph-name="quotesingle" unicode="'" horiz-adv-x="370" 
d="M271 714h124l-73 -353h-124z" />
    <glyph glyph-name="parenleft" unicode="(" horiz-adv-x="444" 
d="M230 -190q-36 44 -61 96.5t-38 110.5t-13.5 120t12.5 125t39.5 125t64 120t84 110.5t100.5 96.5h123q-91 -102 -150 -215.5t-85 -236.5t-13.5 -236.5t60.5 -215.5h-123z" />
    <glyph glyph-name="parenright" unicode=")" horiz-adv-x="444" 
d="M11 -190q91 102 150 215.5t85 236.5t13.5 236.5t-60.5 215.5h123q36 -44 61 -96.5t38 -110.5t13.5 -120t-12.5 -125t-39.5 -125t-64 -120t-84 -110.5t-100.5 -96.5h-123z" />
    <glyph glyph-name="asterisk" unicode="*" horiz-adv-x="464" 
d="M256 486l-123 43l55 98l115 -49l22 136h110l-34 -136l135 49l13 -98l-139 -43l70 -106l-94 -62l-66 110l-110 -110l-68 62z" />
    <glyph glyph-name="plus" unicode="+" horiz-adv-x="600" 
d="M277 191h-191l26 124h191l40 191h124l-40 -191h191l-26 -124h-191l-39 -191h-124z" />
    <glyph glyph-name="comma" unicode="," horiz-adv-x="370" 
d="M123 170h194l-27 -128q-20 -97 -79.5 -154.5t-161.5 -70.5l15 70q26 7 44.5 16t31.5 22t22 31t16 44h-90z" />
    <glyph glyph-name="hyphen" unicode="-" horiz-adv-x="481" 
d="M135 354h357l-28 -136h-357z" />
    <glyph glyph-name="period" unicode="." horiz-adv-x="370" 
d="M123 170h194l-35 -170h-194z" />
    <glyph glyph-name="slash" unicode="/" horiz-adv-x="426" 
d="M446 734h134l-452 -754h-134z" />
    <glyph glyph-name="zero" unicode="0" horiz-adv-x="816" 
d="M114 347q18 87 56.5 155t95 114.5t129.5 71t161 24.5q178 0 252 -94t38 -271q-17 -83 -54 -150t-92.5 -115t-130 -74t-165.5 -26q-178 0 -252.5 94t-37.5 271zM302 347q-10 -47 -9.5 -89.5t14.5 -75t44 -51.5t80 -19t88 19t65.5 51.5t45.5 75t28 89.5t9.5 89.5t-14.5 75
t-44.5 51.5t-79.5 19q-50 0 -88 -19t-65.5 -51.5t-45.5 -75t-28 -89.5z" />
    <glyph glyph-name="one" unicode="1" horiz-adv-x="556" 
d="M339 443h-210l25 124q58 1 100 5.5t73.5 17.5t56 37.5t48.5 66.5h141l-144 -694h-182z" />
    <glyph glyph-name="two" unicode="2" horiz-adv-x="816" 
d="M784 136l-28 -136h-714q26 104 79 168.5t119 104t136.5 61.5t130.5 41t102 42.5t51 66.5q9 45 -20 71.5t-92 26.5q-29 0 -59 -6.5t-56 -22t-47 -40.5t-33 -62h-200q19 75 59.5 125t96 80t122 43t137.5 13q94 0 155 -20.5t94.5 -53t42.5 -74t0 -83.5q-11 -52 -38.5 -87.5
t-71 -62.5t-104 -48t-136.5 -43l-86 -25q-35 -11 -74.5 -29.5t-68.5 -49.5h503z" />
    <glyph glyph-name="three" unicode="3" horiz-adv-x="816" 
d="M393 423h147q24 0 42.5 7t31 18t20.5 24.5t11 26.5q10 45 -25.5 67t-97.5 22q-54 0 -98 -23t-65 -72h-194q21 66 63.5 108.5t97.5 67t118 34t125 9.5q86 0 143.5 -15.5t90.5 -42.5t43.5 -63.5t1.5 -79.5q-11 -54 -48.5 -88.5t-92.5 -45.5l-1 -2q63 -13 92 -57t15 -107
q-9 -42 -34 -83.5t-73.5 -73.5t-125 -52t-188.5 -20q-79 0 -140.5 13t-101.5 42t-56.5 75.5t-4.5 114.5h194q-7 -34 4.5 -56t33.5 -35t51 -18.5t57 -5.5q76 0 122 25t56 73q5 25 -3 42t-24 27.5t-38 15t-44 4.5h-130z" />
    <glyph glyph-name="four" unicode="4" horiz-adv-x="816" 
d="M506 134h-439l28 131l477 429h221l-91 -436h127l-26 -124h-127l-27 -134h-170zM593 552l-321 -294h260z" />
    <glyph glyph-name="five" unicode="5" horiz-adv-x="816" 
d="M282 694h580l-27 -130h-453l-53 -136q21 11 48 19t55.5 13t55.5 7.5t48 2.5q55 0 111 -11.5t97.5 -38.5t62.5 -72t7 -112t-53.5 -115t-96 -79t-124.5 -45.5t-140 -14.5q-55 0 -115.5 9.5t-109 34t-75.5 68.5t-15 113h200q1 -28 11.5 -46t28.5 -29t43 -15.5t57 -4.5
q88 0 134.5 29.5t59.5 89.5q7 37 -6.5 61t-37 37t-52 18t-50.5 5q-36 0 -79.5 -11t-75.5 -37h-184z" />
    <glyph glyph-name="six" unicode="6" horiz-adv-x="816" 
d="M479 335q-75 0 -119.5 -29.5t-55.5 -83.5q-5 -20 -0.5 -40t21.5 -35.5t48.5 -25t79.5 -9.5q65 0 113 28.5t59 80.5q4 19 1 39t-18.5 36.5t-46 27.5t-82.5 11zM671 509q-4 24 -16 38.5t-29.5 22t-39 10t-43.5 2.5q-99 0 -150 -51t-71 -141q46 36 105 52.5t116 16.5
q55 0 110.5 -9.5t97.5 -35t63.5 -69.5t7.5 -114q-13 -62 -48 -108.5t-87 -77.5t-118.5 -47t-142.5 -16q-108 0 -175 28t-100.5 76.5t-38 115t11.5 143.5q15 72 46.5 138.5t86 117t135.5 81t194 30.5q51 0 103 -9t93 -32t64 -62.5t16 -99.5h-191z" />
    <glyph glyph-name="seven" unicode="7" horiz-adv-x="759" 
d="M167 694h704l-32 -153q-68 -57 -136.5 -117t-130.5 -126t-113 -140t-84 -158h-236q31 87 85.5 164t122.5 146t144.5 130.5t151.5 117.5h-504z" />
    <glyph glyph-name="eight" unicode="8" horiz-adv-x="816" 
d="M494 423q80 0 116 24t43 58q5 22 -4.5 36.5t-27.5 23.5t-43 13t-50 4q-76 0 -114.5 -20.5t-46.5 -56.5q-8 -37 20.5 -59.5t106.5 -22.5zM404 -18q-71 0 -134.5 11t-109.5 37t-67.5 69t-8.5 107q14 66 61.5 109t114.5 60l1 2q-51 20 -72.5 54t-11.5 91q13 60 54 97
t95.5 58t115.5 28t114 7t110.5 -7t103 -28t70 -58t11.5 -97q-10 -57 -45 -91t-95 -54l-1 -2q61 -17 90.5 -60t15.5 -109q-13 -64 -52.5 -107t-96 -69t-125 -37t-138.5 -11zM472 313q-74 0 -124.5 -23.5t-61.5 -76.5q-6 -27 2 -46t27 -31t48.5 -18t66.5 -6q75 0 126 24t62 77
q10 52 -30.5 76t-115.5 24z" />
    <glyph glyph-name="nine" unicode="9" horiz-adv-x="816" 
d="M480 359q75 0 120 29.5t56 83.5q4 20 -0.5 40t-21 35.5t-47.5 25t-80 9.5q-33 0 -62 -7.5t-51.5 -21.5t-38 -34t-21.5 -46q-4 -19 -1 -39t18.5 -36.5t46 -27.5t82.5 -11zM288 185q4 -24 16.5 -38.5t30 -22t39 -10t43.5 -2.5q99 0 150 51t71 141q-46 -36 -105.5 -52.5
t-116.5 -16.5q-54 0 -110 9.5t-98.5 35t-63.5 70t-6 113.5q13 61 48 108t87 78t118.5 47t142.5 16q108 0 175 -28t100 -76.5t37.5 -115t-11.5 -143.5q-15 -72 -46.5 -138.5t-86 -117t-135 -81t-193.5 -30.5q-51 0 -103 9t-93 32t-64.5 62.5t-16.5 99.5h191z" />
    <glyph glyph-name="colon" unicode=":" horiz-adv-x="370" 
d="M123 170h194l-35 -170h-194zM199 536h194l-35 -170h-194z" />
    <glyph glyph-name="semicolon" unicode=";" horiz-adv-x="370" 
d="M199 536h194l-35 -170h-194zM123 170h194l-27 -128q-20 -97 -79.5 -154.5t-161.5 -70.5l15 70q26 7 44.5 16t31.5 22t22 31t16 44h-90z" />
    <glyph glyph-name="less" unicode="&#x3c;" horiz-adv-x="600" 
d="M110 305l549 209l-25 -124l-368 -137l311 -137l-26 -124l-463 209z" />
    <glyph glyph-name="equal" unicode="=" horiz-adv-x="600" 
d="M89 206h506l-25 -124h-506zM135 424h506l-26 -124h-506z" />
    <glyph glyph-name="greater" unicode="&#x3e;" horiz-adv-x="600" 
d="M594 201l-549 -209l26 124l367 137l-310 137l25 124l463 -209z" />
    <glyph glyph-name="question" unicode="?" horiz-adv-x="759" 
d="M309 170h194l-35 -170h-194zM330 230q10 47 34 78t54.5 52.5t64 36.5t62.5 30.5t50.5 35t27.5 50.5q4 21 -3 37.5t-22.5 28t-38 17.5t-48.5 6q-59 0 -108 -30.5t-69 -97.5h-188q16 69 54.5 117t90 78t111 43.5t117.5 13.5q77 0 137 -13.5t99.5 -40.5t55.5 -68t5 -95
q-9 -45 -32.5 -75t-55 -52t-66 -38.5t-66 -32.5t-56 -35t-34.5 -46h-176z" />
    <glyph glyph-name="at" unicode="@" horiz-adv-x="800" 
d="M653 543h89l-111 -254q-8 -17 -10.5 -26.5t-4.5 -14.5q-5 -21 15 -21q17 0 38.5 12t42 35t37.5 56t25 74q12 55 0 99.5t-43 75t-77.5 47t-103.5 16.5q-64 0 -121 -22.5t-102.5 -61.5t-77 -91.5t-43.5 -111.5q-13 -62 -1.5 -114t43 -89.5t80 -58.5t110.5 -21
q69 0 128.5 19.5t107.5 48.5h90q-70 -78 -159 -119t-189 -41q-83 0 -149.5 28t-110 78.5t-60 119.5t0.5 151q16 81 61.5 150t109.5 119.5t142 79t160 28.5q69 0 129.5 -22t102 -62.5t60 -97t3.5 -126.5q-17 -81 -59 -136.5t-90.5 -90t-94 -49.5t-69.5 -15q-28 0 -42.5 13.5
t-10.5 40.5h-2q-25 -22 -59 -38t-74 -16q-27 0 -51.5 12t-41 34t-23 54t2.5 73q9 46 33.5 91t60.5 80.5t81 57t95 21.5q79 0 108 -68zM364 324q-8 -35 7 -60t49 -25q26 0 50.5 12.5t44.5 32t34 43.5t19 47q8 34 -10.5 57t-50.5 23q-24 0 -48 -12t-43.5 -31t-33.5 -42
t-18 -45z" />
    <glyph glyph-name="A" unicode="A" horiz-adv-x="834" 
d="M611 147h-328l-88 -147h-209l462 714h234l166 -714h-209zM533 560l-171 -283h224z" />
    <glyph glyph-name="B" unicode="B" horiz-adv-x="889" 
d="M351 430h270q34 0 57.5 18.5t31.5 58.5q3 17 1.5 31t-10.5 24.5t-27 16t-48 5.5h-243zM216 714h536q39 0 73.5 -9.5t58 -31t33 -56t-0.5 -83.5q-5 -21 -15 -43t-25.5 -41.5t-36.5 -35t-48 -23.5l-1 -2q30 -5 50 -22t31.5 -41t13.5 -53t-4 -57q-7 -36 -25 -74t-53 -69.5
t-90 -52t-136 -20.5h-509zM290 136h286q45 0 69 25t31 59q18 86 -85 86h-266z" />
    <glyph glyph-name="C" unicode="C" horiz-adv-x="907" 
d="M763 444q1 39 -11.5 67.5t-35.5 48t-55 29t-70 9.5q-69 0 -117.5 -24t-80.5 -60t-50 -78.5t-25 -78.5q-8 -36 -8 -78.5t17.5 -78.5t56 -60t107.5 -24q35 0 70.5 9t67 28t57 49t41.5 72h211q-25 -78 -72 -133.5t-110 -91.5t-139.5 -52.5t-161.5 -16.5q-98 0 -171.5 21.5
t-118.5 67.5t-59.5 117.5t6.5 170.5t65 170.5t108 117.5t146.5 67.5t180.5 21.5q65 0 132 -10.5t120.5 -42t84 -88.5t23.5 -149h-209z" />
    <glyph glyph-name="D" unicode="D" horiz-adv-x="907" 
d="M216 714h445q92 0 153 -25.5t93.5 -72.5t39.5 -112.5t-9 -146.5q-17 -81 -51.5 -146.5t-85.5 -112.5t-119 -72.5t-152 -25.5h-462zM290 136h216q97 0 153.5 56.5t79.5 171.5q10 49 7.5 89t-21 67.5t-54.5 42.5t-91 15h-198z" />
    <glyph glyph-name="E" unicode="E" horiz-adv-x="778" 
d="M216 714h667l-28 -136h-473l-31 -148h449l-27 -130h-449l-34 -164h477l-28 -136h-671z" />
    <glyph glyph-name="F" unicode="F" horiz-adv-x="722" 
d="M216 714h638l-28 -136h-444l-33 -156h416l-28 -136h-416l-59 -286h-194z" />
    <glyph glyph-name="G" unicode="G" horiz-adv-x="944" 
d="M602 398h364l-82 -398h-98l-9 83q-63 -55 -145.5 -79t-176.5 -24q-98 0 -171.5 21.5t-118.5 67.5t-59.5 117.5t6.5 170.5q17 82 59.5 151.5t106.5 119.5t148.5 78t185.5 28q74 0 141.5 -12t118 -41.5t80 -78.5t27.5 -122h-216q-4 34 -19.5 57t-37 36.5t-48 19t-52.5 5.5
q-66 0 -116 -22t-85.5 -57t-56.5 -77.5t-30 -84.5t-5.5 -84.5t24.5 -77.5t62 -57t107 -22q40 0 76.5 8t67.5 26.5t56 49t43 74.5h-173z" />
    <glyph glyph-name="H" unicode="H" horiz-adv-x="926" 
d="M216 714h194l-56 -268h402l56 268h194l-148 -714h-194l64 310h-402l-64 -310h-194z" />
    <glyph glyph-name="I" unicode="I" horiz-adv-x="330" 
d="M216 714h194l-148 -714h-194z" />
    <glyph glyph-name="J" unicode="J" horiz-adv-x="685" 
d="M571 714h194l-91 -436q-6 -31 -14.5 -65t-24 -67t-39.5 -63t-61 -53t-89 -36.5t-122 -13.5q-62 0 -118 10t-95 37t-55.5 75t-0.5 124l10 45h194l-11 -50q-10 -51 11.5 -81t70.5 -30q37 0 62.5 10.5t41.5 30t25.5 45.5t15.5 58z" />
    <glyph glyph-name="K" unicode="K" horiz-adv-x="870" 
d="M742 714h261l-388 -287l265 -427h-262l-179 309l-133 -97l-44 -212h-194l148 714h194l-64 -307z" />
    <glyph glyph-name="L" unicode="L" horiz-adv-x="722" 
d="M216 714h194l-119 -572h435l-29 -142h-629z" />
    <glyph glyph-name="M" unicode="M" horiz-adv-x="1130" 
d="M925 714h285l-148 -714h-188l118 572h-2l-344 -572h-162l-108 572h-2l-118 -572h-188l148 714h285l105 -514z" />
    <glyph glyph-name="N" unicode="N" horiz-adv-x="926" 
d="M818 714h188l-148 -714h-211l-286 498h-2l-103 -498h-188l148 714h225l271 -498h2z" />
    <glyph glyph-name="O" unicode="O" horiz-adv-x="944" 
d="M308 357q-9 -42 -5.5 -84.5t24.5 -77.5t62 -57t107 -22t116 22t85.5 57t56.5 77.5t30 84.5t5.5 84.5t-24.5 77.5t-62 57t-107 22t-116 -22t-85.5 -57t-56.5 -77.5t-30 -84.5zM102 357q8 37 23 79.5t41 84.5t64.5 80.5t94 68t129.5 47t170 17.5t162.5 -17.5t110 -47
t66.5 -68t31.5 -80.5t6 -84.5t-10.5 -79.5t-23 -79.5t-41 -84.5t-65 -80.5t-94.5 -68t-129.5 -47t-170 -17.5t-162.5 17.5t-109.5 47t-66 68t-31.5 80.5t-6 84.5t10.5 79.5z" />
    <glyph glyph-name="P" unicode="P" horiz-adv-x="833" 
d="M216 714h480q76 0 120.5 -20.5t66 -52t24.5 -70t-4 -74.5q-24 -115 -96.5 -178.5t-190.5 -63.5h-301l-53 -255h-194zM342 385h208q22 0 45.5 2t44 11t36.5 29t24 56q7 35 1.5 55t-19 30.5t-33 13t-40.5 2.5h-226z" />
    <glyph glyph-name="Q" unicode="Q" horiz-adv-x="944" 
d="M676 9q-92 -29 -209 -29q-96 0 -162.5 17.5t-109.5 47t-66 68t-31.5 80.5t-6 84.5t10.5 79.5t23 79.5t41 84.5t64.5 80.5t94 68t129.5 47t170 17.5t162.5 -17.5t110 -47t66.5 -68t31.5 -80.5t6 -84.5t-10.5 -79.5q-7 -33 -19.5 -70t-33 -74t-50.5 -72.5t-72 -65.5l82 -88
l-110 -98zM522 175l109 98l69 -74q35 35 55 75.5t29 82.5t5.5 84.5t-24.5 77.5t-62 57t-107 22t-116 -22t-85.5 -57t-56.5 -77.5t-30 -84.5t-5.5 -84.5t24.5 -77.5t62 -57t107 -22q37 0 72 9z" />
    <glyph glyph-name="R" unicode="R" horiz-adv-x="852" 
d="M216 714h519q74 0 115.5 -20t60 -49.5t20 -63.5t-4.5 -61q-14 -66 -50 -108t-102 -64l-1 -2q31 -5 46 -25.5t19.5 -48.5t1.5 -59.5t-8 -57.5q-3 -13 -6.5 -34t-4 -43.5t2.5 -43.5t13 -34h-212q-5 12 -6.5 24.5t0 28t5.5 36t10 48.5q8 37 5.5 61.5t-13.5 38.5t-29 19.5
t-40 5.5h-241l-54 -262h-194zM344 398h257q16 0 33.5 5t33.5 15.5t28 28t17 42.5q6 27 0 44t-19 27t-30.5 14t-34.5 4h-247z" />
    <glyph glyph-name="S" unicode="S" horiz-adv-x="815" 
d="M656 507q3 35 -10.5 55.5t-36.5 31t-52.5 13.5t-58.5 3q-60 0 -100.5 -24t-48.5 -60q-6 -29 13 -45t55 -22l235 -39q47 -8 86 -22t64.5 -37t36 -57.5t0.5 -83.5q-10 -50 -37.5 -93.5t-77.5 -76t-125.5 -51.5t-180.5 -19q-43 0 -89 2.5t-89 11.5t-79.5 25t-61 43.5t-34 67
t1.5 95.5h218q-7 -37 5.5 -59.5t36.5 -35t55.5 -16.5t62.5 -4q69 0 115.5 20.5t56.5 68.5q4 21 -1.5 34.5t-19 22.5t-34.5 14.5t-49 10.5l-171 27q-45 7 -86.5 19t-71.5 34.5t-43 58t-1 90.5q25 119 128.5 171.5t271.5 52.5q37 0 77.5 -3t79.5 -11t74 -23.5t59.5 -41t36 -62
t4.5 -86.5h-215z" />
    <glyph glyph-name="T" unicode="T" horiz-adv-x="722" 
d="M384 578h-265l28 136h724l-28 -136h-265l-120 -578h-194z" />
    <glyph glyph-name="U" unicode="U" horiz-adv-x="870" 
d="M208 714h194l-85 -410q-6 -26 -9.5 -59t8 -61.5t44.5 -48t99 -19.5q67 0 107.5 19.5t63.5 48t33 61.5t16 59l85 410h194l-95 -458q-4 -20 -12.5 -48t-26 -59t-47.5 -61t-76.5 -54t-113 -39t-157.5 -15t-151.5 15t-97 39t-53.5 54t-21.5 61t-1 59t7.5 48z" />
    <glyph glyph-name="V" unicode="V" horiz-adv-x="796" 
d="M126 714h213l94 -544l320 544h213l-465 -714h-206z" />
    <glyph glyph-name="W" unicode="W" horiz-adv-x="1148" 
d="M145 714h194l30 -520h2l254 520h194l38 -520h2l246 520h194l-374 -714h-200l-45 508h-2l-255 -508h-200z" />
    <glyph glyph-name="X" unicode="X" horiz-adv-x="796" 
d="M362 368l-206 346h233l111 -222l203 222h233l-350 -346l227 -368h-241l-124 241l-224 -241h-241z" />
    <glyph glyph-name="Y" unicode="Y" horiz-adv-x="778" 
d="M343 249l-219 465h228l120 -311l250 311h228l-413 -465l-51 -249h-194z" />
    <glyph glyph-name="Z" unicode="Z" horiz-adv-x="759" 
d="M41 124l567 454h-440l28 136h695l-26 -124l-566 -454h472l-28 -136h-727z" />
    <glyph glyph-name="bracketleft" unicode="[" horiz-adv-x="444" 
d="M229 714h330l-26 -124h-160l-136 -656h160l-26 -124h-330z" />
    <glyph glyph-name="backslash" unicode="\" horiz-adv-x="426" 
d="M150 734h134l139 -754h-135z" />
    <glyph glyph-name="bracketright" unicode="]" horiz-adv-x="444" 
d="M323 -190h-329l25 124h160l136 656h-160l26 124h330z" />
    <glyph glyph-name="asciicircum" unicode="^" horiz-adv-x="600" 
d="M120 309l267 385h114l107 -385h-124l-68 249l-172 -249h-124z" />
    <glyph glyph-name="underscore" unicode="_" horiz-adv-x="500" 
d="M-15 -75h499l-10 -50h-499z" />
    <glyph glyph-name="grave" unicode="`" horiz-adv-x="260" 
d="M87 741h215l60 -142h-160z" />
    <glyph glyph-name="a" unicode="a" 
d="M139 372q21 62 58.5 98.5t85.5 55.5t102.5 24.5t108.5 5.5q94 0 151 -14.5t85.5 -39t34 -58t-2.5 -70.5l-55 -266q-8 -35 -7.5 -61.5t5.5 -46.5h-176q-2 14 -2.5 28.5t1.5 28.5q-27 -23 -61 -38t-70 -23.5t-71.5 -12t-64.5 -3.5q-53 0 -94.5 9.5t-68.5 30.5t-37.5 54
t-0.5 80q10 49 36 80t61 49t76.5 25.5t82.5 10.5l190 13q40 3 58 13.5t25 42.5t-20.5 48t-104.5 16q-28 0 -50 -2t-40.5 -10t-34 -24t-30.5 -44h-170zM569 261q-28 -12 -55 -16.5t-54 -6.5l-104 -9q-48 -4 -73.5 -19t-33.5 -51t18 -55.5t77 -19.5q33 0 68.5 8t66 24.5
t52.5 41.5t29 59z" />
    <glyph glyph-name="b" unicode="b" horiz-adv-x="778" 
d="M210 726h176l-53 -256h2q33 36 90.5 58t132.5 22q64 0 114 -20.5t82.5 -58t44 -90.5t-1.5 -119q-15 -71 -50 -123.5t-84.5 -88t-110 -53t-125.5 -17.5q-28 0 -52.5 3.5t-47 13t-43 26.5t-39.5 44h-2l-13 -67h-170zM285 265q-8 -38 -1 -67t25.5 -48.5t46.5 -29.5t61 -10
t65.5 10t59.5 29.5t46.5 48.5t27.5 67t0.5 67t-26.5 48.5t-47 29.5t-61 10t-65 -10t-58.5 -29.5t-46 -48.5t-27.5 -67z" />
    <glyph glyph-name="c" unicode="c" 
d="M605 338q-5 53 -39.5 73.5t-87.5 20.5q-82 0 -135.5 -42.5t-70.5 -121.5t19.5 -121.5t118.5 -42.5q59 0 105.5 29t63.5 80h182q-27 -71 -67 -116.5t-90.5 -71.5t-109.5 -35.5t-125 -9.5q-76 0 -135 16.5t-96.5 51.5t-50.5 89.5t3 130.5t53 130.5t90.5 89.5t122 51.5
t148.5 16.5q51 0 102 -9t91.5 -33.5t65.5 -67t24 -108.5h-182z" />
    <glyph glyph-name="d" unicode="d" horiz-adv-x="778" 
d="M561 67h-2q-54 -52 -112 -69.5t-118 -17.5q-62 0 -113 18t-84 53t-45.5 88t2.5 123q13 65 47.5 118.5t82.5 91t107 58t122 20.5q75 0 123 -22t66 -58h2l53 256h176l-150 -726h-170zM272 265q-8 -38 -0.5 -67t26 -48.5t46.5 -29.5t61 -10t65 10t59 29.5t46.5 48.5t27.5 67
t0.5 67t-26 48.5t-46.5 29.5t-61 10t-65.5 -10t-59 -29.5t-46 -48.5t-27.5 -67z" />
    <glyph glyph-name="e" unicode="e" horiz-adv-x="758" 
d="M613 325v2q3 11 -1 31t-19 39.5t-44 34t-77 14.5q-52 0 -88.5 -17t-59.5 -38t-33.5 -40.5t-11.5 -23.5v-2h334zM751 160q-59 -96 -155 -138t-217 -42q-79 0 -141 16.5t-101.5 51.5t-53.5 89.5t2 130.5t53 130.5t90.5 89.5t122 51.5t148.5 16.5q87 0 147 -21.5t94.5 -62.5
t43.5 -100t-7 -135l-4 -16h-516v-2q-4 -19 1 -41.5t22 -42t47 -32.5t75 -13q109 0 161 70h188z" />
    <glyph glyph-name="f" unicode="f" horiz-adv-x="426" 
d="M203 418h-111l25 118h111l6 27q11 54 27 87.5t43.5 52t69 25t103.5 6.5q18 0 48.5 -0.5t62.5 -1.5l-23 -110q-23 1 -44.5 1.5t-44.5 0.5t-40.5 -9t-24.5 -46l-7 -33h141l-25 -118h-141l-86 -418h-176z" />
    <glyph glyph-name="g" unicode="g" horiz-adv-x="778" 
d="M671 536h170l-103 -493q-14 -69 -46.5 -118t-82.5 -79.5t-117 -44.5t-151 -14q-50 0 -104 5t-98 23t-70 53t-20 96h188q1 -17 7.5 -29.5t21.5 -20.5t40.5 -12.5t63.5 -4.5q33 0 63.5 5.5t56 22t45 46.5t29.5 79l9 43q-48 -42 -106 -60.5t-125 -18.5q-79 0 -131.5 22.5
t-82.5 60t-38 85.5t3 100q11 55 39.5 103.5t75 85t111.5 58t149 21.5q59 0 110 -18t77 -61h2zM275 279q-10 -47 -0.5 -75.5t30.5 -44.5t49.5 -21.5t57.5 -5.5q30 0 61 5.5t58.5 21.5t49 44.5t31.5 75.5q9 46 -0.5 75t-30.5 45t-50 21.5t-58 5.5t-60 -5.5t-59 -21.5t-49 -45
t-30 -75z" />
    <glyph glyph-name="h" unicode="h" 
d="M210 726h176l-55 -268h2q13 17 36.5 33.5t54 29.5t66.5 21t75 8q34 0 72.5 -8t68.5 -29.5t45.5 -59t3.5 -96.5l-74 -357h-176l63 304q23 110 -95 110q-31 0 -60 -8t-53.5 -26.5t-43 -48t-27.5 -72.5l-53 -259h-176z" />
    <glyph glyph-name="i" unicode="i" horiz-adv-x="296" 
d="M210 726h176l-25 -124h-176zM171 536h176l-111 -536h-176z" />
    <glyph glyph-name="j" unicode="j" horiz-adv-x="296" 
d="M210 726h176l-25 -124h-176zM171 536h176l-111 -532q-10 -48 -23.5 -85.5t-38.5 -64t-66.5 -40t-107.5 -13.5q-26 0 -47 1.5t-42 2.5l27 130q14 -2 25 -3t19 -1q21 0 34 4.5t22 14.5t14.5 26.5t10.5 41.5z" />
    <glyph glyph-name="k" unicode="k" horiz-adv-x="722" 
d="M210 726h176l-81 -390l275 200h245l-297 -204l202 -332h-233l-129 223l-100 -69l-32 -154h-176z" />
    <glyph glyph-name="l" unicode="l" horiz-adv-x="296" 
d="M210 726h176l-150 -726h-176z" />
    <glyph glyph-name="m" unicode="m" horiz-adv-x="1130" 
d="M960 322q6 27 0 44.5t-19 28t-31.5 15t-37.5 4.5q-55 0 -100.5 -30.5t-58.5 -93.5l-60 -290h-176l66 322q6 27 0 44.5t-19 28t-31 15t-36 4.5q-28 0 -54.5 -7.5t-48 -23t-37 -39t-21.5 -54.5l-60 -290h-176l111 536h170l-16 -78h2q15 17 39.5 33.5t56 29.5t68 21t74.5 8
q77 0 115 -27.5t49 -73.5q48 48 107.5 74.5t134.5 26.5q40 0 76.5 -9.5t62 -31t36 -57.5t-0.5 -89l-75 -363h-176z" />
    <glyph glyph-name="n" unicode="n" 
d="M568 304q23 110 -95 110q-31 0 -60 -8t-53.5 -26.5t-43 -48t-27.5 -72.5l-53 -259h-176l111 536h170l-16 -78h2q15 17 39.5 33.5t56 29.5t68 21t74.5 8q34 0 72.5 -8t68.5 -29.5t45.5 -59t3.5 -96.5l-74 -357h-176z" />
    <glyph glyph-name="o" unicode="o" horiz-adv-x="778" 
d="M272 268q-17 -79 19.5 -121.5t118.5 -42.5t135.5 42.5t70.5 121.5t-19.5 121.5t-118.5 42.5t-135.5 -42.5t-70.5 -121.5zM90 268q16 76 53 130.5t90.5 89.5t122 51.5t148.5 16.5q79 0 141 -16.5t101.5 -51.5t53.5 -89.5t-2 -130.5t-53 -130.5t-90.5 -89.5t-122 -51.5
t-148.5 -16.5q-79 0 -141 16.5t-101.5 51.5t-53.5 89.5t2 130.5z" />
    <glyph glyph-name="p" unicode="p" horiz-adv-x="778" 
d="M171 536h170l-15 -73h2q31 27 58.5 44t53.5 26.5t52 13t54 3.5q64 0 117.5 -18t88 -53t48 -88t-1.5 -123q-14 -65 -48 -118.5t-82 -91t-107 -58t-122 -20.5q-75 0 -123 22t-66 58h-2l-54 -259h-176zM285 265q-8 -38 -1 -67t25.5 -48.5t46.5 -29.5t61 -10t65.5 10
t59.5 29.5t46.5 48.5t27.5 67t0.5 67t-26.5 48.5t-47 29.5t-61 10t-65 -10t-58.5 -29.5t-46 -48.5t-27.5 -67z" />
    <glyph glyph-name="q" unicode="q" horiz-adv-x="778" 
d="M659 536h170l-153 -735h-176l54 259h-2q-33 -36 -90.5 -58t-132.5 -22q-63 0 -113.5 20.5t-83 58t-44.5 91t2 118.5q15 70 50 123t84.5 88.5t110 53t125.5 17.5q28 0 52.5 -3.5t46.5 -13t42.5 -26.5t40.5 -44h2zM272 265q-8 -38 -0.5 -67t26 -48.5t46.5 -29.5t61 -10
t65 10t59 29.5t46.5 48.5t27.5 67t0.5 67t-26 48.5t-46.5 29.5t-61 10t-65.5 -10t-59 -29.5t-46 -48.5t-27.5 -67z" />
    <glyph glyph-name="r" unicode="r" horiz-adv-x="519" 
d="M171 536h170l-22 -105h2q30 31 57 53.5t55 37t58.5 21.5t68.5 7q15 0 32 -1t31 -4l-34 -165q-23 7 -46 11.5t-48 4.5q-91 0 -143 -43.5t-68 -121.5l-48 -231h-176z" />
    <glyph glyph-name="s" unicode="s" horiz-adv-x="704" 
d="M257 166q-1 -18 4 -32t18.5 -23.5t36 -15t56.5 -5.5q60 0 96.5 14.5t42.5 43.5q7 23 -10.5 33.5t-78.5 20.5l-155 22q-41 6 -71.5 16t-49.5 27.5t-25 44t2 64.5q11 54 43.5 89t78 55.5t99.5 28t109 7.5q93 0 149 -14.5t86 -39t38.5 -57.5t5.5 -70h-194q1 21 -8 34.5
t-24 21.5t-34 11.5t-38 3.5q-17 0 -37.5 -1.5t-39 -7t-32.5 -17t-18 -31.5q-2 -9 0 -17t10 -14.5t24.5 -11t44.5 -7.5l119 -13q66 -7 108.5 -20.5t66 -34t29.5 -48t-1 -62.5q-12 -60 -50 -95.5t-89.5 -54.5t-112 -25t-117.5 -6q-154 0 -221.5 44.5t-54.5 141.5h194z" />
    <glyph glyph-name="t" unicode="t" horiz-adv-x="444" 
d="M262 702h176l-34 -166h142l-25 -118h-142l-52 -250q-6 -32 3.5 -44t44.5 -12q23 0 44 1t43 3l-25 -118q-13 -2 -31 -3.5t-37.5 -3t-38 -2.5t-33.5 -1q-62 0 -96.5 11t-49 32t-13.5 50.5t9 65.5l56 271h-111l25 118h111z" />
    <glyph glyph-name="u" unicode="u" 
d="M525 72h-2q-15 -17 -39.5 -33.5t-56 -29.5t-68 -21t-74.5 -8q-34 0 -72.5 8t-68.5 29.5t-45.5 59t-3.5 96.5l76 363h176l-65 -310q-23 -110 98 -110q72 0 118.5 38.5t61.5 113.5l56 268h176l-111 -536h-170z" />
    <glyph glyph-name="v" unicode="v" horiz-adv-x="668" 
d="M99 536h200l68 -376l224 376h200l-357 -536h-200z" />
    <glyph glyph-name="w" unicode="w" horiz-adv-x="1056" 
d="M111 536h194l47 -366h2l200 366h170l48 -366h2l199 366h194l-311 -536h-211l-45 346h-2l-187 -346h-211z" />
    <glyph glyph-name="x" unicode="x" horiz-adv-x="722" 
d="M598 536h219l-281 -258l189 -278h-229l-102 177l-172 -177h-225l301 278l-171 258h221l89 -164z" />
    <glyph glyph-name="y" unicode="y" horiz-adv-x="648" 
d="M775 536l-423 -624q-23 -34 -45 -55.5t-46.5 -34t-53.5 -17t-66 -4.5q-31 0 -61.5 1t-61.5 3l26 124q18 -2 37 -3t38 -1q32 0 53 13.5t41 41.5l26 39l-144 517h191l79 -354l222 354h188z" />
    <glyph glyph-name="z" unicode="z" horiz-adv-x="648" 
d="M48 110l401 296h-320l27 130h565l-23 -110l-400 -296h351l-27 -130h-596z" />
    <glyph glyph-name="braceleft" unicode="{" horiz-adv-x="444" 
d="M378 374q-9 -45 -42.5 -75t-79.5 -36v-2q49 -7 67 -37t7 -81l-31 -150q-3 -14 -3.5 -27.5t3.5 -23.5t13 -16t26 -6h40l-23 -110h-121q-66 0 -97.5 33t-17.5 102l38 184q8 38 -13.5 64t-60.5 26l18 86q18 0 36 6t33 17t26 26.5t15 33.5l40 191q14 66 57.5 100.5
t113.5 34.5h121l-23 -110h-40q-34 0 -48.5 -22t-20.5 -51z" />
    <glyph glyph-name="bar" unicode="|" horiz-adv-x="222" 
d="M201 734h124l-157 -754h-124z" />
    <glyph glyph-name="braceright" unicode="}" horiz-adv-x="444" 
d="M174 150q9 45 42.5 75t79.5 36v2q-49 7 -67 37t-7 81l31 150q6 29 -0.5 51t-38.5 22h-40l23 110h121q66 0 97.5 -33t17.5 -102l-38 -184q-8 -38 13.5 -64t60.5 -26l-18 -86q-18 0 -36 -6t-33 -17t-26 -26.5t-15 -33.5l-40 -191q-14 -66 -57.5 -100.5t-113.5 -34.5h-121
l23 110h40q34 0 48.5 22t20.5 51z" />
    <glyph glyph-name="asciitilde" unicode="~" horiz-adv-x="600" 
d="M581 243q-29 -38 -62.5 -62t-78.5 -24q-37 0 -62.5 10.5t-48.5 23.5q-22 13 -42.5 23.5t-45.5 10.5q-15 0 -30.5 -7t-30 -17.5t-26 -22.5t-17.5 -21l-14 106q29 38 62.5 62t78.5 24q37 0 63 -10.5t48 -23.5t42.5 -23.5t45.5 -10.5q15 0 30.5 7t29.5 17.5t26 22.5t18 21z
" />
    <glyph glyph-name="uni00A0" unicode="&#xa0;" horiz-adv-x="370" 
 />
    <glyph glyph-name="exclamdown" unicode="&#xa1;" horiz-adv-x="370" 
d="M199 536h194l-35 -170h-194zM181 305h134l-71 -483h-194z" />
    <glyph glyph-name="cent" unicode="&#xa2;" horiz-adv-x="816" 
d="M377 -20q-71 4 -125 23t-88 54t-45.5 87.5t3.5 123.5t48.5 123t82 87.5t110.5 54.5t134 23l18 85h62l-18 -85q49 -2 96 -13t84 -35.5t59 -65.5t21 -104h-182q-4 48 -31.5 69t-72.5 25l-68 -328q52 7 91 35.5t55 73.5h182q-26 -67 -63 -111.5t-83 -71t-98.5 -38
t-109.5 -12.5l-22 -106h-62zM471 432q-66 -10 -109.5 -52.5t-57.5 -111.5t11 -112t88 -52z" />
    <glyph glyph-name="sterling" unicode="&#xa3;" horiz-adv-x="816" 
d="M143 396h57q-7 24 -9 47t3 50q14 69 53.5 112t93 67t115.5 33t122 9q96 0 153 -22t86 -55.5t34.5 -72.5t-1.5 -73l-6 -28h-200q10 60 -16 87.5t-83 27.5q-35 0 -62 -8.5t-46 -22t-30.5 -32t-15.5 -37.5q-3 -14 -2 -34t5 -48h178l-19 -92h-164q-1 -6 -1.5 -12.5
t-2.5 -14.5q-9 -45 -37.5 -79t-70.5 -63l-1 -2q27 10 55 16.5t55 6.5q21 1 43 -2.5t46 -8.5t49.5 -8.5t54.5 -2.5q22 0 46 4t46.5 10.5t43 16t35.5 20.5l23 -138q-54 -35 -109.5 -51t-116.5 -16q-36 0 -67.5 6t-63.5 13.5t-66.5 14t-76.5 6.5t-77 -9t-76 -31l-46 127
q47 26 82.5 57.5t46.5 84.5q3 14 3.5 28t0.5 27h-83z" />
    <glyph glyph-name="currency" unicode="&#xa4;" horiz-adv-x="816" 
d="M229 198q-15 31 -19 69t5 80q17 84 76 149l-46 58l85 71l46 -58q37 22 77 33.5t82 11.5t77 -12t62 -33l70 58l57 -71l-70 -58q31 -65 14 -149q-18 -83 -77 -148l47 -59l-86 -71l-47 59q-73 -46 -157 -46q-42 0 -77 11.5t-62 34.5l-71 -59l-56 71zM510 494q-31 0 -59 -11
t-51 -30.5t-39 -46.5t-22 -59q-7 -32 -2.5 -59t19.5 -46.5t38.5 -30.5t54.5 -11t59 11t51 30.5t39 46.5t23 59q12 64 -18 105.5t-93 41.5z" />
    <glyph glyph-name="yen" unicode="&#xa5;" horiz-adv-x="816" 
d="M334 126h-200l19 92h200l8 41l-19 39h-173l20 92h110l-145 304h225l111 -290h2l237 290h221l-276 -304h109l-20 -92h-173l-35 -39l-8 -41h200l-19 -92h-200l-26 -126h-194z" />
    <glyph glyph-name="brokenbar" unicode="&#xa6;" horiz-adv-x="222" 
d="M201 734h124l-57 -275h-124zM102 255h124l-58 -275h-124z" />
    <glyph glyph-name="section" unicode="&#xa7;" horiz-adv-x="816" 
d="M323 386q-19 -11 -35 -28.5t-21 -37.5q-5 -22 4 -37t25.5 -25t36.5 -16t37 -11l241 -75q17 14 31 30t19 37q4 19 -2.5 32t-19 22t-28.5 15t-31 11zM272 12q-3 -31 8 -49.5t31 -28t45.5 -12.5t51.5 -3q60 0 92 17.5t37 43.5q3 16 0 27t-22 21.5t-58.5 22.5t-109.5 29
q-67 16 -117.5 35.5t-82.5 46t-44.5 61t-3.5 80.5q11 54 46 95t90 58q-19 18 -22.5 42.5t2.5 52.5q11 52 43.5 87t76.5 56.5t94.5 30.5t98.5 9q55 0 110.5 -7t98 -28t66.5 -61t17 -106h-188q2 14 1.5 29t-11 27t-35.5 20t-71 8q-54 0 -83.5 -19t-35.5 -46q-5 -26 12 -37
t60 -22l190 -52q97 -26 141.5 -74.5t30.5 -111.5q-11 -57 -44.5 -98.5t-84.5 -58.5q20 -21 27 -44t-1 -61q-9 -41 -36.5 -76t-73 -60.5t-107.5 -40t-140 -14.5q-66 0 -122 10.5t-95.5 35.5t-58.5 65.5t-11 99.5h188z" />
    <glyph glyph-name="dieresis" unicode="&#xa8;" horiz-adv-x="260" 
d="M334 729h176l-24 -118h-176zM48 729h176l-24 -118h-176z" />
    <glyph glyph-name="copyright" unicode="&#xa9;" horiz-adv-x="800" 
d="M207 357q-14 -64 -5 -115.5t36.5 -88t73 -56t104.5 -19.5q60 0 113 19.5t95.5 56t72.5 88t44 115.5q13 64 4.5 115.5t-36 88t-72.5 56t-105 19.5t-113 -19.5t-96 -56t-73 -88t-43 -115.5zM97 357q16 78 60 146.5t105.5 120t136.5 81t153 29.5t140.5 -29.5t103 -81
t56 -120t-0.5 -146.5q-17 -78 -61 -146.5t-105.5 -120t-136.5 -81t-153 -29.5t-140.5 29.5t-103 81t-56 120t1.5 146.5zM660 297q-14 -38 -37.5 -68t-52.5 -50t-61.5 -30.5t-65.5 -10.5q-50 0 -86 17t-57.5 47t-27.5 70.5t4 87.5q10 48 32.5 88.5t55.5 70t76 46.5t93 17
q34 0 62.5 -10t48.5 -29.5t30.5 -49t7.5 -67.5h-98q-2 29 -21 46.5t-55 17.5q-26 0 -47.5 -10t-39 -27.5t-29.5 -41.5t-18 -51q-5 -26 -2 -49.5t13 -41.5t27 -28.5t41 -10.5q35 0 64 18t39 49h104z" />
    <glyph glyph-name="ordfeminine" unicode="&#xaa;" horiz-adv-x="482" 
d="M535 423q-2 -12 -1 -21.5t6 -21.5h-118q-4 8 -4.5 17t2.5 23h-2q-16 -16 -37 -26t-43.5 -16t-44.5 -8t-41 -2q-34 0 -61.5 5.5t-45.5 18t-25.5 32t-1.5 47.5q6 29 22.5 47t39.5 28.5t50 15t53 6.5l123 9q23 2 34.5 7.5t14.5 20.5q4 17 -13 26t-65 9q-32 0 -53.5 -6.5
t-40.5 -33.5h-118q13 39 38.5 62t57 34.5t67 14.5t69.5 3q62 0 99 -8.5t55.5 -23t22.5 -33.5t0 -40zM435 536q-17 -8 -38 -11.5t-39 -5.5l-52 -5q-23 -2 -40.5 -10t-21.5 -24q-3 -17 13.5 -27.5t44.5 -10.5q18 0 39 4.5t40 13.5t32.5 22.5t16.5 31.5z" />
    <glyph glyph-name="guillemotleft" unicode="&#xab;" horiz-adv-x="611" 
d="M158 365l224 142l-28 -133l-138 -88l102 -88l-28 -133l-164 142zM399 365l224 142l-28 -133l-138 -88l102 -88l-28 -133l-164 142z" />
    <glyph glyph-name="logicalnot" unicode="&#xac;" horiz-adv-x="600" 
d="M491 300h-382l26 124h506l-68 -326h-124z" />
    <glyph glyph-name="uni00AD" unicode="&#xad;" horiz-adv-x="481" 
d="M135 354h357l-28 -136h-357z" />
    <glyph glyph-name="registered" unicode="&#xae;" horiz-adv-x="800" 
d="M97 357q16 78 60 146.5t105.5 120t136.5 81t153 29.5t140.5 -29.5t103 -81t56 -120t-0.5 -146.5q-17 -78 -61 -146.5t-105.5 -120t-136.5 -81t-153 -29.5t-140.5 29.5t-103 81t-56 120t1.5 146.5zM207 357q-14 -64 -5 -115.5t36.5 -88t73 -56t104.5 -19.5q60 0 113 19.5
t95.5 56t72.5 88t44 115.5q13 64 4.5 115.5t-36 88t-72.5 56t-105 19.5t-113 -19.5t-96 -56t-73 -88t-43 -115.5zM422 388h68q30 0 51 9t28 42q3 17 -2.5 27t-15.5 15t-23 6.5t-26 1.5h-59zM367 563h161q81 0 113 -33t19 -96q-11 -54 -47 -82.5t-82 -33.5l68 -168h-98
l-59 164h-35l-34 -164h-92z" />
    <glyph glyph-name="macron" unicode="&#xaf;" horiz-adv-x="260" 
d="M40 722h482l-22 -104h-482z" />
    <glyph glyph-name="degree" unicode="&#xb0;" horiz-adv-x="400" 
d="M243 566q-6 -31 11 -52.5t48 -21.5t57 21.5t32 52.5q7 31 -10 52.5t-48 21.5t-57 -21.5t-33 -52.5zM169 566q6 31 23 58t41.5 47t54 31.5t60.5 11.5t55.5 -11.5t40 -31.5t21.5 -47t0 -58t-23 -58t-41.5 -47t-54 -31.5t-60.5 -11.5t-55.5 11.5t-40 31.5t-21.5 47t0 58z
" />
    <glyph glyph-name="plusminus" unicode="&#xb1;" horiz-adv-x="600" 
d="M72 124h506l-25 -124h-506zM343 506h124l-23 -108h191l-26 -124h-191l-22 -108h-124l22 108h-191l26 124h191z" />
    <glyph glyph-name="twosuperior" unicode="&#xb2;" horiz-adv-x="530" 
d="M84 286q16 62 50 101t76 62.5t86.5 36.5t82.5 23.5t64.5 23.5t31.5 37q5 26 -13 42t-52 16q-14 0 -30 -4t-31.5 -13t-28.5 -24t-20 -37h-148q12 48 38 79.5t63 50t81.5 26.5t94.5 8q63 0 103 -12t62.5 -31t29 -42.5t2.5 -46.5q-11 -54 -61 -85.5t-132 -51.5
q-46 -10 -92 -24.5t-75 -36.5h318l-20 -98h-480z" />
    <glyph glyph-name="threesuperior" unicode="&#xb3;" horiz-adv-x="530" 
d="M308 548h85q31 0 47 10.5t19 27.5q5 19 -13.5 30.5t-55.5 11.5q-13 0 -27 -3t-26.5 -9t-22.5 -14.5t-15 -18.5h-139q13 40 40 65.5t63 40t77 20t83 5.5q110 0 153.5 -32.5t32.5 -88.5q-7 -33 -31 -53.5t-59 -27.5v-2q42 -7 61 -33.5t11 -62.5q-6 -26 -22 -51.5t-48.5 -45
t-83.5 -31.5t-126 -12q-51 0 -91 7.5t-66.5 25t-37.5 45.5t-4 69h142q-3 -17 3.5 -29t19.5 -19t29.5 -10t33.5 -3q42 0 69.5 15t32.5 38q6 27 -16 38t-57 11h-78z" />
    <glyph glyph-name="acute" unicode="&#xb4;" horiz-adv-x="260" 
d="M266 741h215l-173 -142h-160z" />
    <glyph glyph-name="mu" unicode="&#xb5;" 
d="M681 0h-170l14 72h-2q-21 -27 -48 -45t-54 -28.5t-52 -14.5t-42 -4q-28 0 -52.5 8t-37.5 21l-43 -208h-176l153 735h176l-65 -310q-23 -110 98 -110q72 0 118.5 38.5t61.5 113.5l56 268h176z" />
    <glyph glyph-name="paragraph" unicode="&#xb6;" horiz-adv-x="620" 
d="M295 317q-112 0 -160 49.5t-28 145.5q12 60 38.5 99t64 62t85.5 32t104 9h331l-186 -893h-130l166 795h-92l-166 -795h-130z" />
    <glyph glyph-name="periodcentered" unicode="&#xb7;" horiz-adv-x="370" 
d="M139 275q4 21 16 39.5t29.5 33t37.5 22.5t41 8t37.5 -8t28 -22.5t16 -33t0.5 -39.5q-5 -21 -17 -39.5t-29 -33t-37.5 -22.5t-41.5 -8q-20 0 -37 8t-28.5 22.5t-16 33t0.5 39.5z" />
    <glyph glyph-name="cedilla" unicode="&#xb8;" horiz-adv-x="260" 
d="M93 0h63l-40 -49q20 4 45 4q18 0 34 -5t27 -14.5t16 -24.5t1 -36q-6 -27 -22.5 -45t-40.5 -29t-52.5 -16t-57.5 -5q-32 0 -62.5 6t-49.5 14l28 51q19 -6 38.5 -9.5t39.5 -3.5q22 0 36.5 9.5t18.5 27.5q6 31 -29 31q-12 0 -24 -2.5t-24 -6.5l-17 18z" />
    <glyph glyph-name="onesuperior" unicode="&#xb9;" horiz-adv-x="361" 
d="M263 538h-134l19 92q37 1 63.5 3.5t46.5 10t35 21t30 37.5h110l-86 -416h-136z" />
    <glyph glyph-name="ordmasculine" unicode="&#xba;" horiz-adv-x="506" 
d="M259 542q-9 -45 14.5 -69.5t72.5 -24.5t82.5 24.5t42.5 69.5q9 43 -14.5 67.5t-72.5 24.5t-82.5 -24.5t-42.5 -67.5zM135 541q9 45 32.5 78t58 54t79 31t96.5 10t92 -10t65.5 -31t35.5 -54t1 -78t-32.5 -78t-58 -54t-79 -31t-96.5 -10t-92 10t-65.5 31t-35.5 54t-1 78z
" />
    <glyph glyph-name="guillemotright" unicode="&#xbb;" horiz-adv-x="611" 
d="M375 198l138 88l-102 88l28 133l164 -142l-32 -158l-224 -142zM134 198l138 88l-102 88l28 133l164 -142l-32 -158l-224 -142z" />
    <glyph glyph-name="onequarter" unicode="&#xbc;" horiz-adv-x="1222" 
d="M301 538h-134l19 92q37 1 63.5 3.5t46.5 10t35 21t30 37.5h110l-86 -416h-136zM798 714h95l-515 -734h-95zM948 81h-277l17 82l305 253h149l-52 -249h82l-18 -86h-82l-16 -81h-124zM1000 330l-181 -163h147z" />
    <glyph glyph-name="onehalf" unicode="&#xbd;" horiz-adv-x="1222" 
d="M301 538h-134l19 92q37 1 63.5 3.5t46.5 10t35 21t30 37.5h110l-86 -416h-136zM658 0q16 62 50 101t75.5 62.5t86.5 36.5t83 23.5t64.5 23.5t31.5 37q5 26 -13 42t-52 16q-13 0 -29.5 -4t-32 -13t-29 -24t-20.5 -37h-148q12 48 38.5 79.5t63 50t81.5 26.5t94 8
q62 0 102.5 -12t63 -31t29.5 -42.5t2 -46.5q-11 -54 -60.5 -85.5t-131.5 -51.5q-22 -5 -46 -11t-46.5 -13.5t-42 -16.5t-32.5 -20h318l-20 -98h-480zM798 714h95l-515 -734h-95z" />
    <glyph glyph-name="threequarters" unicode="&#xbe;" horiz-adv-x="1222" 
d="M966 167l34 163l-181 -163h147zM948 81h-277l17 82l305 253h149l-52 -249h82l-18 -86h-82l-16 -81h-124zM339 548h85q31 0 47 10.5t19 27.5q5 19 -13.5 30.5t-55.5 11.5q-13 0 -27 -3t-26.5 -9t-22.5 -14.5t-15 -18.5h-139q13 40 40 65.5t63 40t77 20t83 5.5
q110 0 153.5 -32.5t32.5 -88.5q-7 -33 -31 -53.5t-59 -27.5v-2q42 -7 61 -33.5t11 -62.5q-6 -26 -22 -51.5t-48.5 -45t-83.5 -31.5t-126 -12q-51 0 -91 7.5t-66.5 25t-37.5 45.5t-4 69h142q-3 -17 3.5 -29t19.5 -19t29.5 -10t33.5 -3q42 0 69.5 15t32.5 38q6 27 -16 38
t-57 11h-78zM913 714h95l-515 -734h-95z" />
    <glyph glyph-name="questiondown" unicode="&#xbf;" horiz-adv-x="759" 
d="M402 536h194l-35 -170h-194zM539 306q-10 -47 -34 -78t-54.5 -52.5t-64 -36.5t-62.5 -30.5t-50.5 -35.5t-27.5 -50q-4 -21 3.5 -37.5t23 -28t38 -17.5t48.5 -6q60 0 108 30t68 98h188q-16 -69 -54.5 -117t-90 -78t-111 -43.5t-117.5 -13.5q-77 0 -137 13.5t-99.5 40.5
t-55.5 68t-5 95q9 44 32.5 74.5t55 52.5t66 38.5t66 33t56 35t34.5 45.5h176z" />
    <glyph glyph-name="Agrave" unicode="&#xc0;" horiz-adv-x="834" 
d="M611 147h-328l-88 -147h-209l462 714h234l166 -714h-209zM533 560l-171 -283h224zM396 921h215l60 -142h-160z" />
    <glyph glyph-name="Aacute" unicode="&#xc1;" horiz-adv-x="834" 
d="M611 147h-328l-88 -147h-209l462 714h234l166 -714h-209zM533 560l-171 -283h224zM582 921h215l-173 -142h-160z" />
    <glyph glyph-name="Acircumflex" unicode="&#xc2;" horiz-adv-x="834" 
d="M611 147h-328l-88 -147h-209l462 714h234l166 -714h-209zM533 560l-171 -283h224zM493 921h232l115 -142h-188l-62 81l-94 -81h-175z" />
    <glyph glyph-name="Atilde" unicode="&#xc3;" horiz-adv-x="834" 
d="M611 147h-328l-88 -147h-209l462 714h234l166 -714h-209zM533 560l-171 -283h224zM320 783q29 60 71 99t100 39q19 0 46 -7t55.5 -15t56.5 -15t51 -7q20 0 35 9t22 30h82q-9 -29 -23 -53.5t-33.5 -43.5t-44.5 -29.5t-57 -10.5q-21 0 -52.5 8t-63 17l-59.5 17t-42 8
q-20 0 -34 -14t-24 -32h-86z" />
    <glyph glyph-name="Adieresis" unicode="&#xc4;" horiz-adv-x="834" 
d="M611 147h-328l-88 -147h-209l462 714h234l166 -714h-209zM533 560l-171 -283h224zM656 909h176l-24 -118h-176zM370 909h176l-24 -118h-176z" />
    <glyph glyph-name="Aring" unicode="&#xc5;" horiz-adv-x="834" 
d="M611 147h-328l-88 -147h-209l462 714h234l166 -714h-209zM533 560l-171 -283h224zM528 885q-6 -27 9 -46t42 -19t50 19t29 46q5 27 -10 46t-42 19t-50 -19t-28 -46zM466 885q5 26 19.5 49t35.5 40.5t46.5 27.5t51.5 10t47 -10t34.5 -27.5t19 -40.5t0.5 -49
q-6 -26 -21 -49.5t-35.5 -40.5t-45.5 -27t-51 -10t-47 10t-35 27t-19.5 40.5t0.5 49.5z" />
    <glyph glyph-name="AE" unicode="&#xc6;" horiz-adv-x="1148" 
d="M510 714h743l-28 -136h-402l-31 -148h388l-27 -130h-388l-34 -164h406l-28 -136h-582l34 166h-259l-124 -166h-211zM387 290h200l61 294h-47z" />
    <glyph glyph-name="Ccedilla" unicode="&#xc7;" horiz-adv-x="907" 
d="M763 444q1 39 -11.5 67.5t-35.5 48t-55 29t-70 9.5q-69 0 -117.5 -24t-80.5 -60t-50 -78.5t-25 -78.5q-8 -36 -8 -78.5t17.5 -78.5t56 -60t107.5 -24q35 0 70.5 9t67 28t57 49t41.5 72h211q-25 -78 -72 -133.5t-110 -91.5t-139.5 -52.5t-161.5 -16.5h-1l-23 -29
q20 4 45 4q18 0 34 -5t27 -14.5t16 -24.5t1 -36q-6 -27 -22.5 -45t-40.5 -29t-52.5 -16t-57.5 -5q-32 0 -62.5 6t-49.5 14l28 51q19 -6 38.5 -9.5t39.5 -3.5q22 0 36.5 9.5t18.5 27.5q6 31 -29 31q-12 0 -24 -2.5t-24 -6.5l-17 18l57 67q-31 2 -58 7t-52 12q-54 16 -93.5 46
t-62 74t-27 103t11.5 133q21 99 65 170.5t108 117.5t146.5 67.5t180.5 21.5q65 0 132 -10.5t120.5 -42t84 -88.5t23.5 -149h-209z" />
    <glyph glyph-name="Egrave" unicode="&#xc8;" horiz-adv-x="778" 
d="M216 714h667l-28 -136h-473l-31 -148h449l-27 -130h-449l-34 -164h477l-28 -136h-671zM384 921h215l60 -142h-160z" />
    <glyph glyph-name="Eacute" unicode="&#xc9;" horiz-adv-x="778" 
d="M216 714h667l-28 -136h-473l-31 -148h449l-27 -130h-449l-34 -164h477l-28 -136h-671zM596 921h215l-173 -142h-160z" />
    <glyph glyph-name="Ecircumflex" unicode="&#xca;" horiz-adv-x="778" 
d="M216 714h667l-28 -136h-473l-31 -148h449l-27 -130h-449l-34 -164h477l-28 -136h-671zM463 921h232l115 -142h-188l-62 81l-94 -81h-175z" />
    <glyph glyph-name="Edieresis" unicode="&#xcb;" horiz-adv-x="778" 
d="M216 714h667l-28 -136h-473l-31 -148h449l-27 -130h-449l-34 -164h477l-28 -136h-671zM633 909h176l-24 -118h-176zM347 909h176l-24 -118h-176z" />
    <glyph glyph-name="Igrave" unicode="&#xcc;" horiz-adv-x="330" 
d="M216 714h194l-148 -714h-194zM136 921h215l60 -142h-160z" />
    <glyph glyph-name="Iacute" unicode="&#xcd;" horiz-adv-x="330" 
d="M216 714h194l-148 -714h-194zM339 921h215l-173 -142h-160z" />
    <glyph glyph-name="Icircumflex" unicode="&#xce;" horiz-adv-x="330" 
d="M216 714h194l-148 -714h-194zM240 921h232l115 -142h-188l-62 81l-94 -81h-175z" />
    <glyph glyph-name="Idieresis" unicode="&#xcf;" horiz-adv-x="330" 
d="M216 714h194l-148 -714h-194zM401 909h176l-24 -118h-176zM115 909h176l-24 -118h-176z" />
    <glyph glyph-name="Eth" unicode="&#xd0;" horiz-adv-x="907" 
d="M351 430h166l-26 -124h-166l-35 -170h216q97 0 153.5 56.5t79.5 171.5q10 49 7.5 89t-21 67.5t-54.5 42.5t-91 15h-198zM131 306h-68l26 124h68l59 284h445q92 0 153 -25.5t93.5 -72.5t39.5 -112.5t-9 -146.5q-17 -81 -51.5 -146.5t-85.5 -112.5t-119 -72.5t-152 -25.5
h-462z" />
    <glyph glyph-name="Ntilde" unicode="&#xd1;" horiz-adv-x="926" 
d="M818 714h188l-148 -714h-211l-286 498h-2l-103 -498h-188l148 714h225l271 -498h2zM376 783q29 60 71 99t100 39q19 0 46 -7t55.5 -15t56.5 -15t51 -7q20 0 35 9t22 30h82q-9 -29 -23 -53.5t-33.5 -43.5t-44.5 -29.5t-57 -10.5q-21 0 -52.5 8t-63 17l-59.5 17t-42 8
q-20 0 -34 -14t-24 -32h-86z" />
    <glyph glyph-name="Ograve" unicode="&#xd2;" horiz-adv-x="944" 
d="M308 357q-9 -42 -5.5 -84.5t24.5 -77.5t62 -57t107 -22t116 22t85.5 57t56.5 77.5t30 84.5t5.5 84.5t-24.5 77.5t-62 57t-107 22t-116 -22t-85.5 -57t-56.5 -77.5t-30 -84.5zM102 357q8 37 23 79.5t41 84.5t64.5 80.5t94 68t129.5 47t170 17.5t162.5 -17.5t110 -47
t66.5 -68t31.5 -80.5t6 -84.5t-10.5 -79.5t-23 -79.5t-41 -84.5t-65 -80.5t-94.5 -68t-129.5 -47t-170 -17.5t-162.5 17.5t-109.5 47t-66 68t-31.5 80.5t-6 84.5t10.5 79.5zM437 921h215l60 -142h-160z" />
    <glyph glyph-name="Oacute" unicode="&#xd3;" horiz-adv-x="944" 
d="M308 357q-9 -42 -5.5 -84.5t24.5 -77.5t62 -57t107 -22t116 22t85.5 57t56.5 77.5t30 84.5t5.5 84.5t-24.5 77.5t-62 57t-107 22t-116 -22t-85.5 -57t-56.5 -77.5t-30 -84.5zM102 357q8 37 23 79.5t41 84.5t64.5 80.5t94 68t129.5 47t170 17.5t162.5 -17.5t110 -47
t66.5 -68t31.5 -80.5t6 -84.5t-10.5 -79.5t-23 -79.5t-41 -84.5t-65 -80.5t-94.5 -68t-129.5 -47t-170 -17.5t-162.5 17.5t-109.5 47t-66 68t-31.5 80.5t-6 84.5t10.5 79.5zM660 921h215l-173 -142h-160z" />
    <glyph glyph-name="Ocircumflex" unicode="&#xd4;" horiz-adv-x="944" 
d="M308 357q-9 -42 -5.5 -84.5t24.5 -77.5t62 -57t107 -22t116 22t85.5 57t56.5 77.5t30 84.5t5.5 84.5t-24.5 77.5t-62 57t-107 22t-116 -22t-85.5 -57t-56.5 -77.5t-30 -84.5zM102 357q8 37 23 79.5t41 84.5t64.5 80.5t94 68t129.5 47t170 17.5t162.5 -17.5t110 -47
t66.5 -68t31.5 -80.5t6 -84.5t-10.5 -79.5t-23 -79.5t-41 -84.5t-65 -80.5t-94.5 -68t-129.5 -47t-170 -17.5t-162.5 17.5t-109.5 47t-66 68t-31.5 80.5t-6 84.5t10.5 79.5zM556 921h232l115 -142h-188l-62 81l-94 -81h-175z" />
    <glyph glyph-name="Otilde" unicode="&#xd5;" horiz-adv-x="944" 
d="M308 357q-9 -42 -5.5 -84.5t24.5 -77.5t62 -57t107 -22t116 22t85.5 57t56.5 77.5t30 84.5t5.5 84.5t-24.5 77.5t-62 57t-107 22t-116 -22t-85.5 -57t-56.5 -77.5t-30 -84.5zM102 357q8 37 23 79.5t41 84.5t64.5 80.5t94 68t129.5 47t170 17.5t162.5 -17.5t110 -47
t66.5 -68t31.5 -80.5t6 -84.5t-10.5 -79.5t-23 -79.5t-41 -84.5t-65 -80.5t-94.5 -68t-129.5 -47t-170 -17.5t-162.5 17.5t-109.5 47t-66 68t-31.5 80.5t-6 84.5t10.5 79.5zM386 783q29 60 71 99t100 39q19 0 46 -7t55.5 -15t56.5 -15t51 -7q20 0 35 9t22 30h82
q-9 -29 -23 -53.5t-33.5 -43.5t-44.5 -29.5t-57 -10.5q-21 0 -52.5 8t-63 17l-59.5 17t-42 8q-20 0 -34 -14t-24 -32h-86z" />
    <glyph glyph-name="Odieresis" unicode="&#xd6;" horiz-adv-x="944" 
d="M308 357q-9 -42 -5.5 -84.5t24.5 -77.5t62 -57t107 -22t116 22t85.5 57t56.5 77.5t30 84.5t5.5 84.5t-24.5 77.5t-62 57t-107 22t-116 -22t-85.5 -57t-56.5 -77.5t-30 -84.5zM102 357q8 37 23 79.5t41 84.5t64.5 80.5t94 68t129.5 47t170 17.5t162.5 -17.5t110 -47
t66.5 -68t31.5 -80.5t6 -84.5t-10.5 -79.5t-23 -79.5t-41 -84.5t-65 -80.5t-94.5 -68t-129.5 -47t-170 -17.5t-162.5 17.5t-109.5 47t-66 68t-31.5 80.5t-6 84.5t10.5 79.5zM718 909h176l-24 -118h-176zM432 909h176l-24 -118h-176z" />
    <glyph glyph-name="multiply" unicode="&#xd7;" horiz-adv-x="600" 
d="M267 253l-124 155l104 86l123 -156l187 156l68 -86l-188 -155l124 -155l-104 -86l-123 156l-187 -156l-68 86z" />
    <glyph glyph-name="Oslash" unicode="&#xd8;" horiz-adv-x="944" 
d="M343 173q23 -26 60.5 -41.5t92.5 -15.5q66 0 116 22t85.5 57t56.5 77.5t30 84.5q7 33 6 67t-12 65zM748 542q-23 25 -60 40.5t-92 15.5q-66 0 -116 -22t-85.5 -57t-56.5 -77.5t-30 -84.5q-7 -33 -6.5 -67t11.5 -64zM139 99q-23 29 -33.5 62t-13.5 66.5t0.5 66.5t9.5 63
q8 37 23 79.5t41 84.5t64.5 80.5t94 68t129.5 47t170 17.5q103 0 172 -20t114 -55l117 86l33 -51l-108 -78q22 -29 33 -62t14 -67t0 -67t-9 -63q-8 -37 -23 -79.5t-41 -84.5t-65 -80.5t-94.5 -68t-129.5 -47t-170 -17.5q-105 0 -173.5 20.5t-111.5 54.5l-118 -85l-32 51z
" />
    <glyph glyph-name="Ugrave" unicode="&#xd9;" horiz-adv-x="870" 
d="M208 714h194l-85 -410q-6 -26 -9.5 -59t8 -61.5t44.5 -48t99 -19.5q67 0 107.5 19.5t63.5 48t33 61.5t16 59l85 410h194l-95 -458q-4 -20 -12.5 -48t-26 -59t-47.5 -61t-76.5 -54t-113 -39t-157.5 -15t-151.5 15t-97 39t-53.5 54t-21.5 61t-1 59t7.5 48zM396 921h215
l60 -142h-160z" />
    <glyph glyph-name="Uacute" unicode="&#xda;" horiz-adv-x="870" 
d="M208 714h194l-85 -410q-6 -26 -9.5 -59t8 -61.5t44.5 -48t99 -19.5q67 0 107.5 19.5t63.5 48t33 61.5t16 59l85 410h194l-95 -458q-4 -20 -12.5 -48t-26 -59t-47.5 -61t-76.5 -54t-113 -39t-157.5 -15t-151.5 15t-97 39t-53.5 54t-21.5 61t-1 59t7.5 48zM623 921h215
l-173 -142h-160z" />
    <glyph glyph-name="Ucircumflex" unicode="&#xdb;" horiz-adv-x="870" 
d="M208 714h194l-85 -410q-6 -26 -9.5 -59t8 -61.5t44.5 -48t99 -19.5q67 0 107.5 19.5t63.5 48t33 61.5t16 59l85 410h194l-95 -458q-4 -20 -12.5 -48t-26 -59t-47.5 -61t-76.5 -54t-113 -39t-157.5 -15t-151.5 15t-97 39t-53.5 54t-21.5 61t-1 59t7.5 48zM519 921h232
l115 -142h-188l-62 81l-94 -81h-175z" />
    <glyph glyph-name="Udieresis" unicode="&#xdc;" horiz-adv-x="870" 
d="M208 714h194l-85 -410q-6 -26 -9.5 -59t8 -61.5t44.5 -48t99 -19.5q67 0 107.5 19.5t63.5 48t33 61.5t16 59l85 410h194l-95 -458q-4 -20 -12.5 -48t-26 -59t-47.5 -61t-76.5 -54t-113 -39t-157.5 -15t-151.5 15t-97 39t-53.5 54t-21.5 61t-1 59t7.5 48zM675 909h176
l-24 -118h-176zM389 909h176l-24 -118h-176z" />
    <glyph glyph-name="Yacute" unicode="&#xdd;" horiz-adv-x="778" 
d="M343 249l-219 465h228l120 -311l250 311h228l-413 -465l-51 -249h-194zM584 921h215l-173 -142h-160z" />
    <glyph glyph-name="Thorn" unicode="&#xde;" horiz-adv-x="833" 
d="M216 714h194l-27 -128h301q70 0 111.5 -21t61.5 -52.5t23 -70t-4 -72.5q-23 -115 -96 -178.5t-191 -63.5h-301l-26 -128h-194zM315 258h208q23 0 46.5 2t44 11t36.5 29t24 56q7 34 1.5 54t-19.5 30.5t-33.5 13t-40.5 2.5h-226z" />
    <glyph glyph-name="germandbls" unicode="&#xdf;" horiz-adv-x="759" 
d="M161 489q15 70 46.5 117.5t78.5 75.5t109 40t139 12q65 0 119 -9t90.5 -31.5t52 -60.5t3.5 -96q-6 -30 -21 -53t-33.5 -38.5t-37.5 -25t-34 -12.5v-2q60 -16 89 -59.5t12 -125.5q-13 -63 -45 -107.5t-78 -72.5t-103 -40.5t-120 -12.5q-30 0 -59.5 3.5t-58.5 8.5l25 124
q20 -2 42.5 -4t49.5 -2q26 0 52.5 5t50 17.5t41 35t24.5 57.5q11 54 -18.5 78.5t-104.5 24.5h-78l23 110h60q54 0 88.5 19t43.5 61q9 43 -21 63.5t-82 20.5q-83 0 -121 -34.5t-52 -108.5l-97 -467h-176z" />
    <glyph glyph-name="agrave" unicode="&#xe0;" 
d="M139 372q21 62 58.5 98.5t85.5 55.5t102.5 24.5t108.5 5.5q94 0 151 -14.5t85.5 -39t34 -58t-2.5 -70.5l-55 -266q-8 -35 -7.5 -61.5t5.5 -46.5h-176q-2 14 -2.5 28.5t1.5 28.5q-27 -23 -61 -38t-70 -23.5t-71.5 -12t-64.5 -3.5q-53 0 -94.5 9.5t-68.5 30.5t-37.5 54
t-0.5 80q10 49 36 80t61 49t76.5 25.5t82.5 10.5l190 13q40 3 58 13.5t25 42.5t-20.5 48t-104.5 16q-28 0 -50 -2t-40.5 -10t-34 -24t-30.5 -44h-170zM569 261q-28 -12 -55 -16.5t-54 -6.5l-104 -9q-48 -4 -73.5 -19t-33.5 -51t18 -55.5t77 -19.5q33 0 68.5 8t66 24.5
t52.5 41.5t29 59zM325 741h215l60 -142h-160z" />
    <glyph glyph-name="aacute" unicode="&#xe1;" 
d="M139 372q21 62 58.5 98.5t85.5 55.5t102.5 24.5t108.5 5.5q94 0 151 -14.5t85.5 -39t34 -58t-2.5 -70.5l-55 -266q-8 -35 -7.5 -61.5t5.5 -46.5h-176q-2 14 -2.5 28.5t1.5 28.5q-27 -23 -61 -38t-70 -23.5t-71.5 -12t-64.5 -3.5q-53 0 -94.5 9.5t-68.5 30.5t-37.5 54
t-0.5 80q10 49 36 80t61 49t76.5 25.5t82.5 10.5l190 13q40 3 58 13.5t25 42.5t-20.5 48t-104.5 16q-28 0 -50 -2t-40.5 -10t-34 -24t-30.5 -44h-170zM569 261q-28 -12 -55 -16.5t-54 -6.5l-104 -9q-48 -4 -73.5 -19t-33.5 -51t18 -55.5t77 -19.5q33 0 68.5 8t66 24.5
t52.5 41.5t29 59zM527 741h215l-173 -142h-160z" />
    <glyph glyph-name="acircumflex" unicode="&#xe2;" 
d="M139 372q21 62 58.5 98.5t85.5 55.5t102.5 24.5t108.5 5.5q94 0 151 -14.5t85.5 -39t34 -58t-2.5 -70.5l-55 -266q-8 -35 -7.5 -61.5t5.5 -46.5h-176q-2 14 -2.5 28.5t1.5 28.5q-27 -23 -61 -38t-70 -23.5t-71.5 -12t-64.5 -3.5q-53 0 -94.5 9.5t-68.5 30.5t-37.5 54
t-0.5 80q10 49 36 80t61 49t76.5 25.5t82.5 10.5l190 13q40 3 58 13.5t25 42.5t-20.5 48t-104.5 16q-28 0 -50 -2t-40.5 -10t-34 -24t-30.5 -44h-170zM569 261q-28 -12 -55 -16.5t-54 -6.5l-104 -9q-48 -4 -73.5 -19t-33.5 -51t18 -55.5t77 -19.5q33 0 68.5 8t66 24.5
t52.5 41.5t29 59zM420 741h232l115 -142h-188l-62 81l-94 -81h-175z" />
    <glyph glyph-name="atilde" unicode="&#xe3;" 
d="M139 372q21 62 58.5 98.5t85.5 55.5t102.5 24.5t108.5 5.5q94 0 151 -14.5t85.5 -39t34 -58t-2.5 -70.5l-55 -266q-8 -35 -7.5 -61.5t5.5 -46.5h-176q-2 14 -2.5 28.5t1.5 28.5q-27 -23 -61 -38t-70 -23.5t-71.5 -12t-64.5 -3.5q-53 0 -94.5 9.5t-68.5 30.5t-37.5 54
t-0.5 80q10 49 36 80t61 49t76.5 25.5t82.5 10.5l190 13q40 3 58 13.5t25 42.5t-20.5 48t-104.5 16q-28 0 -50 -2t-40.5 -10t-34 -24t-30.5 -44h-170zM569 261q-28 -12 -55 -16.5t-54 -6.5l-104 -9q-48 -4 -73.5 -19t-33.5 -51t18 -55.5t77 -19.5q33 0 68.5 8t66 24.5
t52.5 41.5t29 59zM247 603q29 60 71 99t100 39q19 0 46 -7t55.5 -15t56.5 -15t51 -7q20 0 35 9t22 30h82q-9 -29 -23 -53.5t-33.5 -43.5t-44.5 -29.5t-57 -10.5q-21 0 -52.5 8t-63 17l-59.5 17t-42 8q-20 0 -34 -14t-24 -32h-86z" />
    <glyph glyph-name="adieresis" unicode="&#xe4;" 
d="M139 372q21 62 58.5 98.5t85.5 55.5t102.5 24.5t108.5 5.5q94 0 151 -14.5t85.5 -39t34 -58t-2.5 -70.5l-55 -266q-8 -35 -7.5 -61.5t5.5 -46.5h-176q-2 14 -2.5 28.5t1.5 28.5q-27 -23 -61 -38t-70 -23.5t-71.5 -12t-64.5 -3.5q-53 0 -94.5 9.5t-68.5 30.5t-37.5 54
t-0.5 80q10 49 36 80t61 49t76.5 25.5t82.5 10.5l190 13q40 3 58 13.5t25 42.5t-20.5 48t-104.5 16q-28 0 -50 -2t-40.5 -10t-34 -24t-30.5 -44h-170zM569 261q-28 -12 -55 -16.5t-54 -6.5l-104 -9q-48 -4 -73.5 -19t-33.5 -51t18 -55.5t77 -19.5q33 0 68.5 8t66 24.5
t52.5 41.5t29 59zM575 729h176l-24 -118h-176zM289 729h176l-24 -118h-176z" />
    <glyph glyph-name="aring" unicode="&#xe5;" 
d="M139 372q21 62 58.5 98.5t85.5 55.5t102.5 24.5t108.5 5.5q94 0 151 -14.5t85.5 -39t34 -58t-2.5 -70.5l-55 -266q-8 -35 -7.5 -61.5t5.5 -46.5h-176q-2 14 -2.5 28.5t1.5 28.5q-27 -23 -61 -38t-70 -23.5t-71.5 -12t-64.5 -3.5q-53 0 -94.5 9.5t-68.5 30.5t-37.5 54
t-0.5 80q10 49 36 80t61 49t76.5 25.5t82.5 10.5l190 13q40 3 58 13.5t25 42.5t-20.5 48t-104.5 16q-28 0 -50 -2t-40.5 -10t-34 -24t-30.5 -44h-170zM569 261q-28 -12 -55 -16.5t-54 -6.5l-104 -9q-48 -4 -73.5 -19t-33.5 -51t18 -55.5t77 -19.5q33 0 68.5 8t66 24.5
t52.5 41.5t29 59zM456 720q-6 -27 9 -46t42 -19t50 19t29 46q5 27 -10 46t-42 19t-50 -19t-28 -46zM394 720q5 26 19.5 49t35.5 40.5t46.5 27.5t51.5 10t47 -10t34.5 -27.5t19 -40.5t0.5 -49q-6 -26 -21 -49.5t-35.5 -40.5t-45.5 -27t-51 -10t-47 10t-35 27t-19.5 40.5
t0.5 49.5z" />
    <glyph glyph-name="ae" unicode="&#xe6;" horiz-adv-x="1148" 
d="M1014 319q4 66 -30.5 96.5t-97.5 30.5q-64 0 -109.5 -31.5t-69.5 -95.5h307zM136 368q35 101 120.5 144.5t222.5 43.5q27 0 56.5 -3t57.5 -11t53.5 -21.5t44.5 -34.5q33 29 92.5 49.5t131.5 20.5q75 0 129 -23t87 -62t44 -90.5t-1 -108.5q-2 -14 -5.5 -27t-7.5 -24h-475
q-12 -66 25.5 -98.5t112.5 -32.5q46 0 77.5 14t65.5 51h176q-64 -97 -148 -136t-190 -39q-53 0 -90 7.5t-63.5 20.5t-44 30t-31.5 36q-39 -27 -76.5 -45.5t-75.5 -29t-78 -15t-84 -4.5q-49 0 -90 9t-69 29.5t-40 53.5t-2 81q7 33 23.5 61t45.5 48.5t71 33.5t100 17l181 12
q27 2 43 5.5t25.5 9.5t13.5 14.5t6 19.5q5 24 -2.5 38t-24 21.5t-39.5 10t-48 2.5q-33 0 -57 -3.5t-41 -12.5t-29.5 -24t-22.5 -38h-170zM545 252q-16 -5 -31 -8t-35.5 -5.5t-50 -5t-74.5 -6.5q-56 -5 -79.5 -21.5t-30.5 -48.5q-5 -21 3 -34.5t23.5 -20.5t34.5 -9.5t35 -2.5
q38 0 71 8.5t59 25t44 42t25 60.5z" />
    <glyph glyph-name="ccedilla" unicode="&#xe7;" 
d="M605 338q-5 53 -39.5 73.5t-87.5 20.5q-82 0 -135.5 -42.5t-70.5 -121.5t19.5 -121.5t118.5 -42.5q59 0 105.5 29t63.5 80h182q-20 -53 -47.5 -92t-62 -66t-74 -42.5t-83.5 -22.5q-25 -4 -51 -6.5t-54 -3.5l-23 -29q20 4 45 4q18 0 34 -5t27 -14.5t16 -24.5t1 -36
q-6 -27 -22.5 -45t-40.5 -29t-52.5 -16t-57.5 -5q-32 0 -62.5 6t-49.5 14l28 51q19 -6 38.5 -9.5t39.5 -3.5q22 0 36.5 9.5t18.5 27.5q6 31 -29 31q-12 0 -24 -2.5t-24 -6.5l-17 18l56 66q-26 2 -49 6t-44 10q-87 23 -127.5 90.5t-16.5 180.5q16 76 53 130.5t90.5 89.5
t122 51.5t148.5 16.5q51 0 102 -9t91.5 -33.5t65.5 -67t24 -108.5h-182z" />
    <glyph glyph-name="egrave" unicode="&#xe8;" horiz-adv-x="758" 
d="M613 325v2q3 11 -1 31t-19 39.5t-44 34t-77 14.5q-52 0 -88.5 -17t-59.5 -38t-33.5 -40.5t-11.5 -23.5v-2h334zM751 160q-59 -96 -155 -138t-217 -42q-79 0 -141 16.5t-101.5 51.5t-53.5 89.5t2 130.5t53 130.5t90.5 89.5t122 51.5t148.5 16.5q87 0 147 -21.5t94.5 -62.5
t43.5 -100t-7 -135l-4 -16h-516v-2q-4 -19 1 -41.5t22 -42t47 -32.5t75 -13q109 0 161 70h188zM306 741h215l60 -142h-160z" />
    <glyph glyph-name="eacute" unicode="&#xe9;" horiz-adv-x="758" 
d="M613 325v2q3 11 -1 31t-19 39.5t-44 34t-77 14.5q-52 0 -88.5 -17t-59.5 -38t-33.5 -40.5t-11.5 -23.5v-2h334zM751 160q-59 -96 -155 -138t-217 -42q-79 0 -141 16.5t-101.5 51.5t-53.5 89.5t2 130.5t53 130.5t90.5 89.5t122 51.5t148.5 16.5q87 0 147 -21.5t94.5 -62.5
t43.5 -100t-7 -135l-4 -16h-516v-2q-4 -19 1 -41.5t22 -42t47 -32.5t75 -13q109 0 161 70h188zM533 741h215l-173 -142h-160z" />
    <glyph glyph-name="ecircumflex" unicode="&#xea;" horiz-adv-x="758" 
d="M613 325v2q3 11 -1 31t-19 39.5t-44 34t-77 14.5q-52 0 -88.5 -17t-59.5 -38t-33.5 -40.5t-11.5 -23.5v-2h334zM751 160q-59 -96 -155 -138t-217 -42q-79 0 -141 16.5t-101.5 51.5t-53.5 89.5t2 130.5t53 130.5t90.5 89.5t122 51.5t148.5 16.5q87 0 147 -21.5t94.5 -62.5
t43.5 -100t-7 -135l-4 -16h-516v-2q-4 -19 1 -41.5t22 -42t47 -32.5t75 -13q109 0 161 70h188zM427 741h232l115 -142h-188l-62 81l-94 -81h-175z" />
    <glyph glyph-name="edieresis" unicode="&#xeb;" horiz-adv-x="758" 
d="M613 325v2q3 11 -1 31t-19 39.5t-44 34t-77 14.5q-52 0 -88.5 -17t-59.5 -38t-33.5 -40.5t-11.5 -23.5v-2h334zM751 160q-59 -96 -155 -138t-217 -42q-79 0 -141 16.5t-101.5 51.5t-53.5 89.5t2 130.5t53 130.5t90.5 89.5t122 51.5t148.5 16.5q87 0 147 -21.5t94.5 -62.5
t43.5 -100t-7 -135l-4 -16h-516v-2q-4 -19 1 -41.5t22 -42t47 -32.5t75 -13q109 0 161 70h188zM584 729h176l-24 -118h-176zM298 729h176l-24 -118h-176z" />
    <glyph glyph-name="igrave" unicode="&#xec;" horiz-adv-x="296" 
d="M171 536h176l-111 -536h-176zM75 741h215l60 -142h-160z" />
    <glyph glyph-name="iacute" unicode="&#xed;" horiz-adv-x="296" 
d="M171 536h176l-111 -536h-176zM295 741h215l-173 -142h-160z" />
    <glyph glyph-name="icircumflex" unicode="&#xee;" horiz-adv-x="296" 
d="M171 536h176l-111 -536h-176zM185 741h232l115 -142h-188l-62 81l-94 -81h-175z" />
    <glyph glyph-name="idieresis" unicode="&#xef;" horiz-adv-x="296" 
d="M171 536h176l-111 -536h-176zM349 729h176l-24 -118h-176zM63 729h176l-24 -118h-176z" />
    <glyph glyph-name="eth" unicode="&#xf0;" horiz-adv-x="778" 
d="M695 769l59 -41l-124 -52q59 -40 96.5 -85.5t57 -94.5t22 -100t-7.5 -102q-14 -65 -43.5 -122t-79 -99.5t-121.5 -67.5t-170 -25q-80 0 -141.5 16.5t-101 50.5t-54 86.5t0.5 124.5q14 66 52 116t89.5 83t111.5 50t118 17q49 0 87 -15t57 -36h2q-29 52 -61.5 82.5
t-78.5 51.5l-142 -59l-52 44l122 52q-20 10 -44.5 18.5t-54.5 15.5l118 93q39 -9 81 -23t78 -31zM269 253q-14 -69 22.5 -109t118.5 -40t135.5 40t67.5 109q15 72 -22 109.5t-119 37.5t-135 -37.5t-68 -109.5z" />
    <glyph glyph-name="ntilde" unicode="&#xf1;" 
d="M568 304q23 110 -95 110q-31 0 -60 -8t-53.5 -26.5t-43 -48t-27.5 -72.5l-53 -259h-176l111 536h170l-16 -78h2q15 17 39.5 33.5t56 29.5t68 21t74.5 8q34 0 72.5 -8t68.5 -29.5t45.5 -59t3.5 -96.5l-74 -357h-176zM248 603q29 60 71 99t100 39q19 0 46 -7t55.5 -15
t56.5 -15t51 -7q20 0 35 9t22 30h82q-9 -29 -23 -53.5t-33.5 -43.5t-44.5 -29.5t-57 -10.5q-21 0 -52.5 8t-63 17l-59.5 17t-42 8q-20 0 -34 -14t-24 -32h-86z" />
    <glyph glyph-name="ograve" unicode="&#xf2;" horiz-adv-x="778" 
d="M272 268q-17 -79 19.5 -121.5t118.5 -42.5t135.5 42.5t70.5 121.5t-19.5 121.5t-118.5 42.5t-135.5 -42.5t-70.5 -121.5zM90 268q16 76 53 130.5t90.5 89.5t122 51.5t148.5 16.5q79 0 141 -16.5t101.5 -51.5t53.5 -89.5t-2 -130.5t-53 -130.5t-90.5 -89.5t-122 -51.5
t-148.5 -16.5q-79 0 -141 16.5t-101.5 51.5t-53.5 89.5t2 130.5zM330 741h215l60 -142h-160z" />
    <glyph glyph-name="oacute" unicode="&#xf3;" horiz-adv-x="778" 
d="M272 268q-17 -79 19.5 -121.5t118.5 -42.5t135.5 42.5t70.5 121.5t-19.5 121.5t-118.5 42.5t-135.5 -42.5t-70.5 -121.5zM90 268q16 76 53 130.5t90.5 89.5t122 51.5t148.5 16.5q79 0 141 -16.5t101.5 -51.5t53.5 -89.5t-2 -130.5t-53 -130.5t-90.5 -89.5t-122 -51.5
t-148.5 -16.5q-79 0 -141 16.5t-101.5 51.5t-53.5 89.5t2 130.5zM545 741h215l-173 -142h-160z" />
    <glyph glyph-name="ocircumflex" unicode="&#xf4;" horiz-adv-x="778" 
d="M272 268q-17 -79 19.5 -121.5t118.5 -42.5t135.5 42.5t70.5 121.5t-19.5 121.5t-118.5 42.5t-135.5 -42.5t-70.5 -121.5zM90 268q16 76 53 130.5t90.5 89.5t122 51.5t148.5 16.5q79 0 141 -16.5t101.5 -51.5t53.5 -89.5t-2 -130.5t-53 -130.5t-90.5 -89.5t-122 -51.5
t-148.5 -16.5q-79 0 -141 16.5t-101.5 51.5t-53.5 89.5t2 130.5zM440 741h232l115 -142h-188l-62 81l-94 -81h-175z" />
    <glyph glyph-name="otilde" unicode="&#xf5;" horiz-adv-x="778" 
d="M272 268q-17 -79 19.5 -121.5t118.5 -42.5t135.5 42.5t70.5 121.5t-19.5 121.5t-118.5 42.5t-135.5 -42.5t-70.5 -121.5zM90 268q16 76 53 130.5t90.5 89.5t122 51.5t148.5 16.5q79 0 141 -16.5t101.5 -51.5t53.5 -89.5t-2 -130.5t-53 -130.5t-90.5 -89.5t-122 -51.5
t-148.5 -16.5q-79 0 -141 16.5t-101.5 51.5t-53.5 89.5t2 130.5zM269 603q29 60 71 99t100 39q19 0 46 -7t55.5 -15t56.5 -15t51 -7q20 0 35 9t22 30h82q-9 -29 -23 -53.5t-33.5 -43.5t-44.5 -29.5t-57 -10.5q-21 0 -52.5 8t-63 17l-59.5 17t-42 8q-20 0 -34 -14t-24 -32
h-86z" />
    <glyph glyph-name="odieresis" unicode="&#xf6;" horiz-adv-x="778" 
d="M272 268q-17 -79 19.5 -121.5t118.5 -42.5t135.5 42.5t70.5 121.5t-19.5 121.5t-118.5 42.5t-135.5 -42.5t-70.5 -121.5zM90 268q16 76 53 130.5t90.5 89.5t122 51.5t148.5 16.5q79 0 141 -16.5t101.5 -51.5t53.5 -89.5t-2 -130.5t-53 -130.5t-90.5 -89.5t-122 -51.5
t-148.5 -16.5q-79 0 -141 16.5t-101.5 51.5t-53.5 89.5t2 130.5zM595 729h176l-24 -118h-176zM309 729h176l-24 -118h-176z" />
    <glyph glyph-name="divide" unicode="&#xf7;" horiz-adv-x="600" 
d="M211 41q4 20 15.5 38t27 31t35 20.5t39.5 7.5q42 0 63.5 -27.5t13.5 -69.5q-4 -20 -15.5 -38t-27 -31t-35 -20.5t-39.5 -7.5q-42 0 -63.5 27.5t-13.5 69.5zM299 465q4 20 15.5 38t27 31t35 20.5t39.5 7.5q42 0 63.5 -27.5t13.5 -69.5q-4 -20 -15.5 -38t-27 -31t-35 -20.5
t-39.5 -7.5q-42 0 -63.5 27.5t-13.5 69.5zM112 315h506l-26 -124h-506z" />
    <glyph glyph-name="oslash" unicode="&#xf8;" horiz-adv-x="778" 
d="M119 72q-26 34 -34.5 82t5.5 114q16 76 53 130.5t90.5 89.5t122 51.5t148.5 16.5q73 0 131 -14t96 -43l97 68l29 -45l-87 -61q26 -34 34 -82t-6 -111q-16 -76 -53 -130.5t-90.5 -89.5t-122 -51.5t-148.5 -16.5q-72 0 -128.5 13.5t-96.5 42.5l-102 -71l-26 45zM303 136
q35 -32 107 -32q82 0 135.5 42.5t70.5 121.5q10 48 -1 85zM587 398q-35 34 -109 34q-82 0 -135.5 -42.5t-70.5 -121.5q-10 -52 3 -88z" />
    <glyph glyph-name="ugrave" unicode="&#xf9;" 
d="M525 72h-2q-15 -17 -39.5 -33.5t-56 -29.5t-68 -21t-74.5 -8q-34 0 -72.5 8t-68.5 29.5t-45.5 59t-3.5 96.5l76 363h176l-65 -310q-23 -110 98 -110q72 0 118.5 38.5t61.5 113.5l56 268h176l-111 -536h-170zM301 741h215l60 -142h-160z" />
    <glyph glyph-name="uacute" unicode="&#xfa;" 
d="M525 72h-2q-15 -17 -39.5 -33.5t-56 -29.5t-68 -21t-74.5 -8q-34 0 -72.5 8t-68.5 29.5t-45.5 59t-3.5 96.5l76 363h176l-65 -310q-23 -110 98 -110q72 0 118.5 38.5t61.5 113.5l56 268h176l-111 -536h-170zM523 741h215l-173 -142h-160z" />
    <glyph glyph-name="ucircumflex" unicode="&#xfb;" 
d="M525 72h-2q-15 -17 -39.5 -33.5t-56 -29.5t-68 -21t-74.5 -8q-34 0 -72.5 8t-68.5 29.5t-45.5 59t-3.5 96.5l76 363h176l-65 -310q-23 -110 98 -110q72 0 118.5 38.5t61.5 113.5l56 268h176l-111 -536h-170zM416 741h232l115 -142h-188l-62 81l-94 -81h-175z" />
    <glyph glyph-name="udieresis" unicode="&#xfc;" 
d="M525 72h-2q-15 -17 -39.5 -33.5t-56 -29.5t-68 -21t-74.5 -8q-34 0 -72.5 8t-68.5 29.5t-45.5 59t-3.5 96.5l76 363h176l-65 -310q-23 -110 98 -110q72 0 118.5 38.5t61.5 113.5l56 268h176l-111 -536h-170zM571 729h176l-24 -118h-176zM285 729h176l-24 -118h-176z" />
    <glyph glyph-name="yacute" unicode="&#xfd;" horiz-adv-x="648" 
d="M775 536l-423 -624q-23 -34 -45 -55.5t-46.5 -34t-53.5 -17t-66 -4.5q-31 0 -61.5 1t-61.5 3l26 124q18 -2 37 -3t38 -1q32 0 53 13.5t41 41.5l26 39l-144 517h191l79 -354l222 354h188zM483 741h215l-173 -142h-160z" />
    <glyph glyph-name="thorn" unicode="&#xfe;" horiz-adv-x="778" 
d="M210 726h176l-54 -263h2q84 87 212 87q64 0 117.5 -18t88 -53t48 -88t-1.5 -123q-14 -65 -48 -118.5t-82 -91t-107 -58t-122 -20.5q-75 0 -123 22t-66 58h-2l-54 -259h-176zM285 265q-8 -38 -1 -67t25.5 -48.5t46.5 -29.5t61 -10t65.5 10t59.5 29.5t46.5 48.5t27.5 67
t0.5 67t-26.5 48.5t-47 29.5t-61 10t-65 -10t-58.5 -29.5t-46 -48.5t-27.5 -67z" />
    <glyph glyph-name="ydieresis" unicode="&#xff;" horiz-adv-x="648" 
d="M775 536l-423 -624q-23 -34 -45 -55.5t-46.5 -34t-53.5 -17t-66 -4.5q-31 0 -61.5 1t-61.5 3l26 124q18 -2 37 -3t38 -1q32 0 53 13.5t41 41.5l26 39l-144 517h191l79 -354l222 354h188zM527 729h176l-24 -118h-176zM241 729h176l-24 -118h-176z" />
    <glyph glyph-name="Amacron" unicode="&#x100;" horiz-adv-x="834" 
d="M611 147h-328l-88 -147h-209l462 714h234l166 -714h-209zM533 560l-171 -283h224zM352 902h482l-22 -104h-482z" />
    <glyph glyph-name="amacron" unicode="&#x101;" 
d="M139 372q21 62 58.5 98.5t85.5 55.5t102.5 24.5t108.5 5.5q94 0 151 -14.5t85.5 -39t34 -58t-2.5 -70.5l-55 -266q-8 -35 -7.5 -61.5t5.5 -46.5h-176q-2 14 -2.5 28.5t1.5 28.5q-27 -23 -61 -38t-70 -23.5t-71.5 -12t-64.5 -3.5q-53 0 -94.5 9.5t-68.5 30.5t-37.5 54
t-0.5 80q10 49 36 80t61 49t76.5 25.5t82.5 10.5l190 13q40 3 58 13.5t25 42.5t-20.5 48t-104.5 16q-28 0 -50 -2t-40.5 -10t-34 -24t-30.5 -44h-170zM569 261q-28 -12 -55 -16.5t-54 -6.5l-104 -9q-48 -4 -73.5 -19t-33.5 -51t18 -55.5t77 -19.5q33 0 68.5 8t66 24.5
t52.5 41.5t29 59zM289 722h482l-22 -104h-482z" />
    <glyph glyph-name="Abreve" unicode="&#x102;" horiz-adv-x="834" 
d="M611 147h-328l-88 -147h-209l462 714h234l166 -714h-209zM533 560l-171 -283h224zM485 927q-2 -20 7 -31.5t23.5 -18.5t32 -9t34.5 -2q16 0 35 2t36.5 9t31 18.5t18.5 31.5h98q-12 -48 -39 -78t-61 -46.5t-70.5 -22.5t-67.5 -6q-32 0 -66 6t-61 22.5t-41.5 46.5t-7.5 78
h98z" />
    <glyph glyph-name="abreve" unicode="&#x103;" 
d="M139 372q21 62 58.5 98.5t85.5 55.5t102.5 24.5t108.5 5.5q94 0 151 -14.5t85.5 -39t34 -58t-2.5 -70.5l-55 -266q-8 -35 -7.5 -61.5t5.5 -46.5h-176q-2 14 -2.5 28.5t1.5 28.5q-27 -23 -61 -38t-70 -23.5t-71.5 -12t-64.5 -3.5q-53 0 -94.5 9.5t-68.5 30.5t-37.5 54
t-0.5 80q10 49 36 80t61 49t76.5 25.5t82.5 10.5l190 13q40 3 58 13.5t25 42.5t-20.5 48t-104.5 16q-28 0 -50 -2t-40.5 -10t-34 -24t-30.5 -44h-170zM569 261q-28 -12 -55 -16.5t-54 -6.5l-104 -9q-48 -4 -73.5 -19t-33.5 -51t18 -55.5t77 -19.5q33 0 68.5 8t66 24.5
t52.5 41.5t29 59zM409 747q-2 -20 7 -31.5t23.5 -18.5t32 -9t34.5 -2q16 0 35 2t36.5 9t31 18.5t18.5 31.5h98q-12 -48 -39 -78t-61 -46.5t-70.5 -22.5t-67.5 -6q-32 0 -66 6t-61 22.5t-41.5 46.5t-7.5 78h98z" />
    <glyph glyph-name="Aogonek" unicode="&#x104;" horiz-adv-x="834" 
d="M733 -185q-27 -16 -63.5 -25.5t-78.5 -9.5q-55 0 -81 22.5t-18 64.5q8 40 49.5 72.5t97.5 60.5l-28 147h-328l-88 -147h-209l462 714h234l166 -714h-137q-42 -39 -64 -64.5t-27 -48.5q-4 -18 5 -31t33 -13q11 0 27 3t35 12zM533 560l-171 -283h224z" />
    <glyph glyph-name="aogonek" unicode="&#x105;" 
d="M618 -185q-26 -16 -61 -25.5t-74 -9.5q-52 0 -76.5 22.5t-17.5 64.5q8 40 47.5 72.5t92.5 60.5q-2 14 -2.5 28.5t1.5 28.5q-27 -23 -61 -38t-70 -23.5t-71.5 -12t-64.5 -3.5q-53 0 -94.5 9.5t-68.5 30.5t-37.5 54t-0.5 80q10 49 36 80t61 49t76.5 25.5t82.5 10.5l190 13
q40 3 58 13.5t25 42.5t-20.5 48t-104.5 16q-28 0 -50 -2t-40.5 -10t-34 -24t-30.5 -44h-170q21 62 58.5 98.5t85.5 55.5t102.5 24.5t108.5 5.5q94 0 151 -14.5t85.5 -39t34 -58t-2.5 -70.5l-55 -266q-8 -35 -7.5 -61.5t5.5 -46.5h-108q-39 -39 -60.5 -64.5t-25.5 -48.5
q-4 -18 4.5 -31t31.5 -13q10 0 25.5 3t33.5 12zM569 261q-28 -12 -55 -16.5t-54 -6.5l-104 -9q-48 -4 -73.5 -19t-33.5 -51t18 -55.5t77 -19.5q33 0 68.5 8t66 24.5t52.5 41.5t29 59z" />
    <glyph glyph-name="Cacute" unicode="&#x106;" horiz-adv-x="907" 
d="M763 444q1 39 -11.5 67.5t-35.5 48t-55 29t-70 9.5q-69 0 -117.5 -24t-80.5 -60t-50 -78.5t-25 -78.5q-8 -36 -8 -78.5t17.5 -78.5t56 -60t107.5 -24q35 0 70.5 9t67 28t57 49t41.5 72h211q-25 -78 -72 -133.5t-110 -91.5t-139.5 -52.5t-161.5 -16.5q-98 0 -171.5 21.5
t-118.5 67.5t-59.5 117.5t6.5 170.5t65 170.5t108 117.5t146.5 67.5t180.5 21.5q65 0 132 -10.5t120.5 -42t84 -88.5t23.5 -149h-209zM656 921h215l-173 -142h-160z" />
    <glyph glyph-name="cacute" unicode="&#x107;" 
d="M605 338q-5 53 -39.5 73.5t-87.5 20.5q-82 0 -135.5 -42.5t-70.5 -121.5t19.5 -121.5t118.5 -42.5q59 0 105.5 29t63.5 80h182q-27 -71 -67 -116.5t-90.5 -71.5t-109.5 -35.5t-125 -9.5q-76 0 -135 16.5t-96.5 51.5t-50.5 89.5t3 130.5t53 130.5t90.5 89.5t122 51.5
t148.5 16.5q51 0 102 -9t91.5 -33.5t65.5 -67t24 -108.5h-182zM537 741h215l-173 -142h-160z" />
    <glyph glyph-name="Ccircumflex" unicode="&#x108;" horiz-adv-x="907" 
d="M763 444q1 39 -11.5 67.5t-35.5 48t-55 29t-70 9.5q-69 0 -117.5 -24t-80.5 -60t-50 -78.5t-25 -78.5q-8 -36 -8 -78.5t17.5 -78.5t56 -60t107.5 -24q35 0 70.5 9t67 28t57 49t41.5 72h211q-25 -78 -72 -133.5t-110 -91.5t-139.5 -52.5t-161.5 -16.5q-98 0 -171.5 21.5
t-118.5 67.5t-59.5 117.5t6.5 170.5t65 170.5t108 117.5t146.5 67.5t180.5 21.5q65 0 132 -10.5t120.5 -42t84 -88.5t23.5 -149h-209zM543 921h232l115 -142h-188l-62 81l-94 -81h-175z" />
    <glyph glyph-name="ccircumflex" unicode="&#x109;" 
d="M605 338q-5 53 -39.5 73.5t-87.5 20.5q-82 0 -135.5 -42.5t-70.5 -121.5t19.5 -121.5t118.5 -42.5q59 0 105.5 29t63.5 80h182q-27 -71 -67 -116.5t-90.5 -71.5t-109.5 -35.5t-125 -9.5q-76 0 -135 16.5t-96.5 51.5t-50.5 89.5t3 130.5t53 130.5t90.5 89.5t122 51.5
t148.5 16.5q51 0 102 -9t91.5 -33.5t65.5 -67t24 -108.5h-182zM425 741h232l115 -142h-188l-62 81l-94 -81h-175z" />
    <glyph glyph-name="Cdotaccent" unicode="&#x10a;" horiz-adv-x="907" 
d="M763 444q1 39 -11.5 67.5t-35.5 48t-55 29t-70 9.5q-69 0 -117.5 -24t-80.5 -60t-50 -78.5t-25 -78.5q-8 -36 -8 -78.5t17.5 -78.5t56 -60t107.5 -24q35 0 70.5 9t67 28t57 49t41.5 72h211q-25 -78 -72 -133.5t-110 -91.5t-139.5 -52.5t-161.5 -16.5q-98 0 -171.5 21.5
t-118.5 67.5t-59.5 117.5t6.5 170.5t65 170.5t108 117.5t146.5 67.5t180.5 21.5q65 0 132 -10.5t120.5 -42t84 -88.5t23.5 -149h-209zM555 909h176l-24 -118h-176z" />
    <glyph glyph-name="cdotaccent" unicode="&#x10b;" 
d="M605 338q-5 53 -39.5 73.5t-87.5 20.5q-82 0 -135.5 -42.5t-70.5 -121.5t19.5 -121.5t118.5 -42.5q59 0 105.5 29t63.5 80h182q-27 -71 -67 -116.5t-90.5 -71.5t-109.5 -35.5t-125 -9.5q-76 0 -135 16.5t-96.5 51.5t-50.5 89.5t3 130.5t53 130.5t90.5 89.5t122 51.5
t148.5 16.5q51 0 102 -9t91.5 -33.5t65.5 -67t24 -108.5h-182zM435 729h176l-24 -118h-176z" />
    <glyph glyph-name="Ccaron" unicode="&#x10c;" horiz-adv-x="907" 
d="M763 444q1 39 -11.5 67.5t-35.5 48t-55 29t-70 9.5q-69 0 -117.5 -24t-80.5 -60t-50 -78.5t-25 -78.5q-8 -36 -8 -78.5t17.5 -78.5t56 -60t107.5 -24q35 0 70.5 9t67 28t57 49t41.5 72h211q-25 -78 -72 -133.5t-110 -91.5t-139.5 -52.5t-161.5 -16.5q-98 0 -171.5 21.5
t-118.5 67.5t-59.5 117.5t6.5 170.5t65 170.5t108 117.5t146.5 67.5t180.5 21.5q65 0 132 -10.5t120.5 -42t84 -88.5t23.5 -149h-209zM726 779h-232l-115 142h188l63 -81l93 81h176z" />
    <glyph glyph-name="ccaron" unicode="&#x10d;" 
d="M605 338q-5 53 -39.5 73.5t-87.5 20.5q-82 0 -135.5 -42.5t-70.5 -121.5t19.5 -121.5t118.5 -42.5q59 0 105.5 29t63.5 80h182q-27 -71 -67 -116.5t-90.5 -71.5t-109.5 -35.5t-125 -9.5q-76 0 -135 16.5t-96.5 51.5t-50.5 89.5t3 130.5t53 130.5t90.5 89.5t122 51.5
t148.5 16.5q51 0 102 -9t91.5 -33.5t65.5 -67t24 -108.5h-182zM608 599h-232l-115 142h188l63 -81l93 81h176z" />
    <glyph glyph-name="Dcaron" unicode="&#x10e;" horiz-adv-x="907" 
d="M216 714h445q92 0 153 -25.5t93.5 -72.5t39.5 -112.5t-9 -146.5q-17 -81 -51.5 -146.5t-85.5 -112.5t-119 -72.5t-152 -25.5h-462zM290 136h216q97 0 153.5 56.5t79.5 171.5q10 49 7.5 89t-21 67.5t-54.5 42.5t-91 15h-198zM678 779h-232l-115 142h188l63 -81l93 81h176z
" />
    <glyph glyph-name="dcaron" unicode="&#x10f;" horiz-adv-x="915" 
d="M561 67h-2q-54 -52 -112 -69.5t-118 -17.5q-62 0 -113 18t-84 53t-45.5 88t2.5 123q13 65 47.5 118.5t82.5 91t107 58t122 20.5q75 0 123 -22t66 -58h2l53 256h176l-150 -726h-170zM272 265q-8 -38 -0.5 -67t26 -48.5t46.5 -29.5t61 -10t65 10t59 29.5t46.5 48.5t27.5 67
t0.5 67t-26 48.5t-46.5 29.5t-61 10t-65.5 -10t-59 -29.5t-46 -48.5t-27.5 -67zM946 726h177l-115 -152h-126z" />
    <glyph glyph-name="Dcroat" unicode="&#x110;" horiz-adv-x="907" 
d="M351 430h166l-26 -124h-166l-35 -170h216q97 0 153.5 56.5t79.5 171.5q10 49 7.5 89t-21 67.5t-54.5 42.5t-91 15h-198zM131 306h-68l26 124h68l59 284h445q92 0 153 -25.5t93.5 -72.5t39.5 -112.5t-9 -146.5q-17 -81 -51.5 -146.5t-85.5 -112.5t-119 -72.5t-152 -25.5
h-462z" />
    <glyph glyph-name="dcroat" unicode="&#x111;" horiz-adv-x="848" 
d="M561 67h-2q-54 -52 -112 -69.5t-118 -17.5q-62 0 -113 18t-84 53t-45.5 88t2.5 123q13 65 47.5 118.5t82.5 91t107 58t122 20.5q75 0 123 -22t66 -58h2l23 110h-156l17 79h155l14 67h176l-14 -67h121l-17 -79h-120l-120 -580h-170zM272 265q-8 -38 -0.5 -67t26 -48.5
t46.5 -29.5t61 -10t65 10t59 29.5t46.5 48.5t27.5 67t0.5 67t-26 48.5t-46.5 29.5t-61 10t-65.5 -10t-59 -29.5t-46 -48.5t-27.5 -67z" />
    <glyph glyph-name="Emacron" unicode="&#x112;" horiz-adv-x="778" 
d="M216 714h667l-28 -136h-473l-31 -148h449l-27 -130h-449l-34 -164h477l-28 -136h-671zM333 902h482l-22 -104h-482z" />
    <glyph glyph-name="emacron" unicode="&#x113;" horiz-adv-x="758" 
d="M613 325v2q3 11 -1 31t-19 39.5t-44 34t-77 14.5q-52 0 -88.5 -17t-59.5 -38t-33.5 -40.5t-11.5 -23.5v-2h334zM751 160q-59 -96 -155 -138t-217 -42q-79 0 -141 16.5t-101.5 51.5t-53.5 89.5t2 130.5t53 130.5t90.5 89.5t122 51.5t148.5 16.5q87 0 147 -21.5t94.5 -62.5
t43.5 -100t-7 -135l-4 -16h-516v-2q-4 -19 1 -41.5t22 -42t47 -32.5t75 -13q109 0 161 70h188zM289 722h482l-22 -104h-482z" />
    <glyph glyph-name="Ebreve" unicode="&#x114;" horiz-adv-x="778" 
d="M216 714h667l-28 -136h-473l-31 -148h449l-27 -130h-449l-34 -164h477l-28 -136h-671zM467 927q-2 -20 7 -31.5t23.5 -18.5t32 -9t34.5 -2q16 0 35 2t36.5 9t31 18.5t18.5 31.5h98q-12 -48 -39 -78t-61 -46.5t-70.5 -22.5t-67.5 -6q-32 0 -66 6t-61 22.5t-41.5 46.5
t-7.5 78h98z" />
    <glyph glyph-name="ebreve" unicode="&#x115;" horiz-adv-x="758" 
d="M613 325v2q3 11 -1 31t-19 39.5t-44 34t-77 14.5q-52 0 -88.5 -17t-59.5 -38t-33.5 -40.5t-11.5 -23.5v-2h334zM751 160q-59 -96 -155 -138t-217 -42q-79 0 -141 16.5t-101.5 51.5t-53.5 89.5t2 130.5t53 130.5t90.5 89.5t122 51.5t148.5 16.5q87 0 147 -21.5t94.5 -62.5
t43.5 -100t-7 -135l-4 -16h-516v-2q-4 -19 1 -41.5t22 -42t47 -32.5t75 -13q109 0 161 70h188zM411 747q-2 -20 7 -31.5t23.5 -18.5t32 -9t34.5 -2q16 0 35 2t36.5 9t31 18.5t18.5 31.5h98q-12 -48 -39 -78t-61 -46.5t-70.5 -22.5t-67.5 -6q-32 0 -66 6t-61 22.5t-41.5 46.5
t-7.5 78h98z" />
    <glyph glyph-name="Edotaccent" unicode="&#x116;" horiz-adv-x="778" 
d="M216 714h667l-28 -136h-473l-31 -148h449l-27 -130h-449l-34 -164h477l-28 -136h-671zM490 909h176l-24 -118h-176z" />
    <glyph glyph-name="edotaccent" unicode="&#x117;" horiz-adv-x="758" 
d="M613 325v2q3 11 -1 31t-19 39.5t-44 34t-77 14.5q-52 0 -88.5 -17t-59.5 -38t-33.5 -40.5t-11.5 -23.5v-2h334zM751 160q-59 -96 -155 -138t-217 -42q-79 0 -141 16.5t-101.5 51.5t-53.5 89.5t2 130.5t53 130.5t90.5 89.5t122 51.5t148.5 16.5q87 0 147 -21.5t94.5 -62.5
t43.5 -100t-7 -135l-4 -16h-516v-2q-4 -19 1 -41.5t22 -42t47 -32.5t75 -13q109 0 161 70h188zM445 729h176l-24 -118h-176z" />
    <glyph glyph-name="Eogonek" unicode="&#x118;" horiz-adv-x="778" 
d="M701 -185q-27 -16 -63.5 -25.5t-78.5 -9.5q-55 0 -81 22.5t-18 64.5q8 40 49.5 72.5t97.5 60.5h-539l148 714h667l-28 -136h-473l-31 -148h449l-27 -130h-449l-34 -164h477l-28 -136h-60q-42 -39 -64 -64.5t-27 -48.5q-4 -18 5 -31t33 -13q11 0 27 3t35 12z" />
    <glyph glyph-name="eogonek" unicode="&#x119;" horiz-adv-x="758" 
d="M480 -185q-27 -16 -63.5 -25.5t-78.5 -9.5q-55 0 -81 22.5t-18 64.5q7 39 49 73q14 11 29 21t32 20q-31 1 -59 5t-53 11q-91 24 -133.5 91t-18.5 180q16 76 53 130.5t90.5 89.5t122 51.5t148.5 16.5q87 0 147 -21.5t94.5 -62.5t43.5 -100t-7 -135l-4 -16h-516v-2
q-4 -19 1 -41.5t22 -42t47 -32.5t75 -13q109 0 161 70h188q-58 -96 -155 -138q-72 -32 -157 -39l-25.5 -25.5t-19.5 -21.5q-22 -25 -27 -49q-4 -18 5 -31t33 -13q11 0 27 3t35 12zM613 325v2q3 11 -1 31t-19 39.5t-44 34t-77 14.5q-52 0 -88.5 -17t-59.5 -38t-33.5 -40.5
t-11.5 -23.5v-2h334z" />
    <glyph glyph-name="Ecaron" unicode="&#x11a;" horiz-adv-x="778" 
d="M216 714h667l-28 -136h-473l-31 -148h449l-27 -130h-449l-34 -164h477l-28 -136h-671zM668 779h-232l-115 142h188l63 -81l93 81h176z" />
    <glyph glyph-name="ecaron" unicode="&#x11b;" horiz-adv-x="758" 
d="M613 325v2q3 11 -1 31t-19 39.5t-44 34t-77 14.5q-52 0 -88.5 -17t-59.5 -38t-33.5 -40.5t-11.5 -23.5v-2h334zM751 160q-59 -96 -155 -138t-217 -42q-79 0 -141 16.5t-101.5 51.5t-53.5 89.5t2 130.5t53 130.5t90.5 89.5t122 51.5t148.5 16.5q87 0 147 -21.5t94.5 -62.5
t43.5 -100t-7 -135l-4 -16h-516v-2q-4 -19 1 -41.5t22 -42t47 -32.5t75 -13q109 0 161 70h188zM612 599h-232l-115 142h188l63 -81l93 81h176z" />
    <glyph glyph-name="Gcircumflex" unicode="&#x11c;" horiz-adv-x="944" 
d="M602 398h364l-82 -398h-98l-9 83q-63 -55 -145.5 -79t-176.5 -24q-98 0 -171.5 21.5t-118.5 67.5t-59.5 117.5t6.5 170.5q17 82 59.5 151.5t106.5 119.5t148.5 78t185.5 28q74 0 141.5 -12t118 -41.5t80 -78.5t27.5 -122h-216q-4 34 -19.5 57t-37 36.5t-48 19t-52.5 5.5
q-66 0 -116 -22t-85.5 -57t-56.5 -77.5t-30 -84.5t-5.5 -84.5t24.5 -77.5t62 -57t107 -22q40 0 76.5 8t67.5 26.5t56 49t43 74.5h-173zM560 921h232l115 -142h-188l-62 81l-94 -81h-175z" />
    <glyph glyph-name="gcircumflex" unicode="&#x11d;" horiz-adv-x="778" 
d="M671 536h170l-103 -493q-14 -69 -46.5 -118t-82.5 -79.5t-117 -44.5t-151 -14q-50 0 -104 5t-98 23t-70 53t-20 96h188q1 -17 7.5 -29.5t21.5 -20.5t40.5 -12.5t63.5 -4.5q33 0 63.5 5.5t56 22t45 46.5t29.5 79l9 43q-48 -42 -106 -60.5t-125 -18.5q-79 0 -131.5 22.5
t-82.5 60t-38 85.5t3 100q11 55 39.5 103.5t75 85t111.5 58t149 21.5q59 0 110 -18t77 -61h2zM275 279q-10 -47 -0.5 -75.5t30.5 -44.5t49.5 -21.5t57.5 -5.5q30 0 61 5.5t58.5 21.5t49 44.5t31.5 75.5q9 46 -0.5 75t-30.5 45t-50 21.5t-58 5.5t-60 -5.5t-59 -21.5t-49 -45
t-30 -75zM449 741h232l115 -142h-188l-62 81l-94 -81h-175z" />
    <glyph glyph-name="Gbreve" unicode="&#x11e;" horiz-adv-x="944" 
d="M602 398h364l-82 -398h-98l-9 83q-63 -55 -145.5 -79t-176.5 -24q-98 0 -171.5 21.5t-118.5 67.5t-59.5 117.5t6.5 170.5q17 82 59.5 151.5t106.5 119.5t148.5 78t185.5 28q74 0 141.5 -12t118 -41.5t80 -78.5t27.5 -122h-216q-4 34 -19.5 57t-37 36.5t-48 19t-52.5 5.5
q-66 0 -116 -22t-85.5 -57t-56.5 -77.5t-30 -84.5t-5.5 -84.5t24.5 -77.5t62 -57t107 -22q40 0 76.5 8t67.5 26.5t56 49t43 74.5h-173zM541 927q-2 -20 7 -31.5t23.5 -18.5t32 -9t34.5 -2q16 0 35 2t36.5 9t31 18.5t18.5 31.5h98q-12 -48 -39 -78t-61 -46.5t-70.5 -22.5
t-67.5 -6q-32 0 -66 6t-61 22.5t-41.5 46.5t-7.5 78h98z" />
    <glyph glyph-name="gbreve" unicode="&#x11f;" horiz-adv-x="778" 
d="M671 536h170l-103 -493q-14 -69 -46.5 -118t-82.5 -79.5t-117 -44.5t-151 -14q-50 0 -104 5t-98 23t-70 53t-20 96h188q1 -17 7.5 -29.5t21.5 -20.5t40.5 -12.5t63.5 -4.5q33 0 63.5 5.5t56 22t45 46.5t29.5 79l9 43q-48 -42 -106 -60.5t-125 -18.5q-79 0 -131.5 22.5
t-82.5 60t-38 85.5t3 100q11 55 39.5 103.5t75 85t111.5 58t149 21.5q59 0 110 -18t77 -61h2zM275 279q-10 -47 -0.5 -75.5t30.5 -44.5t49.5 -21.5t57.5 -5.5q30 0 61 5.5t58.5 21.5t49 44.5t31.5 75.5q9 46 -0.5 75t-30.5 45t-50 21.5t-58 5.5t-60 -5.5t-59 -21.5t-49 -45
t-30 -75zM427 747q-2 -20 7 -31.5t23.5 -18.5t32 -9t34.5 -2q16 0 35 2t36.5 9t31 18.5t18.5 31.5h98q-12 -48 -39 -78t-61 -46.5t-70.5 -22.5t-67.5 -6q-32 0 -66 6t-61 22.5t-41.5 46.5t-7.5 78h98z" />
    <glyph glyph-name="Gdotaccent" unicode="&#x120;" horiz-adv-x="944" 
d="M602 398h364l-82 -398h-98l-9 83q-63 -55 -145.5 -79t-176.5 -24q-98 0 -171.5 21.5t-118.5 67.5t-59.5 117.5t6.5 170.5q17 82 59.5 151.5t106.5 119.5t148.5 78t185.5 28q74 0 141.5 -12t118 -41.5t80 -78.5t27.5 -122h-216q-4 34 -19.5 57t-37 36.5t-48 19t-52.5 5.5
q-66 0 -116 -22t-85.5 -57t-56.5 -77.5t-30 -84.5t-5.5 -84.5t24.5 -77.5t62 -57t107 -22q40 0 76.5 8t67.5 26.5t56 49t43 74.5h-173zM561 909h176l-24 -118h-176z" />
    <glyph glyph-name="gdotaccent" unicode="&#x121;" horiz-adv-x="778" 
d="M671 536h170l-103 -493q-14 -69 -46.5 -118t-82.5 -79.5t-117 -44.5t-151 -14q-50 0 -104 5t-98 23t-70 53t-20 96h188q1 -17 7.5 -29.5t21.5 -20.5t40.5 -12.5t63.5 -4.5q33 0 63.5 5.5t56 22t45 46.5t29.5 79l9 43q-48 -42 -106 -60.5t-125 -18.5q-79 0 -131.5 22.5
t-82.5 60t-38 85.5t3 100q11 55 39.5 103.5t75 85t111.5 58t149 21.5q59 0 110 -18t77 -61h2zM275 279q-10 -47 -0.5 -75.5t30.5 -44.5t49.5 -21.5t57.5 -5.5q30 0 61 5.5t58.5 21.5t49 44.5t31.5 75.5q9 46 -0.5 75t-30.5 45t-50 21.5t-58 5.5t-60 -5.5t-59 -21.5t-49 -45
t-30 -75zM437 729h176l-24 -118h-176z" />
    <glyph glyph-name="Gcommaaccent" unicode="&#x122;" horiz-adv-x="944" 
d="M602 398h364l-82 -398h-98l-9 83q-63 -55 -145.5 -79t-176.5 -24q-98 0 -171.5 21.5t-118.5 67.5t-59.5 117.5t6.5 170.5q17 82 59.5 151.5t106.5 119.5t148.5 78t185.5 28q74 0 141.5 -12t118 -41.5t80 -78.5t27.5 -122h-216q-4 34 -19.5 57t-37 36.5t-48 19t-52.5 5.5
q-66 0 -116 -22t-85.5 -57t-56.5 -77.5t-30 -84.5t-5.5 -84.5t24.5 -77.5t62 -57t107 -22q40 0 76.5 8t67.5 26.5t56 49t43 74.5h-173zM378 -45h178l-13 -62q-7 -23 -15 -43.5t-25 -36t-48 -24.5t-84 -9l9 43q32 4 44.5 11.5t18.5 24.5h-85z" />
    <glyph glyph-name="gcommaaccent" unicode="&#x123;" horiz-adv-x="778" 
d="M671 536h170l-103 -493q-14 -69 -46.5 -118t-82.5 -79.5t-117 -44.5t-151 -14q-50 0 -104 5t-98 23t-70 53t-20 96h188q1 -17 7.5 -29.5t21.5 -20.5t40.5 -12.5t63.5 -4.5q33 0 63.5 5.5t56 22t45 46.5t29.5 79l9 43q-48 -42 -106 -60.5t-125 -18.5q-79 0 -131.5 22.5
t-82.5 60t-38 85.5t3 100q11 55 39.5 103.5t75 85t111.5 58t149 21.5q59 0 110 -18t77 -61h2zM275 279q-10 -47 -0.5 -75.5t30.5 -44.5t49.5 -21.5t57.5 -5.5q30 0 61 5.5t58.5 21.5t49 44.5t31.5 75.5q9 46 -0.5 75t-30.5 45t-50 21.5t-58 5.5t-60 -5.5t-59 -21.5t-49 -45
t-30 -75zM603 630h-178l13 62q7 23 15 43.5t25 36t48 24.5t84 9l-9 -43q-32 -4 -44.5 -11.5t-18.5 -24.5h85z" />
    <glyph glyph-name="Hcircumflex" unicode="&#x124;" horiz-adv-x="926" 
d="M216 714h194l-56 -268h402l56 268h194l-148 -714h-194l64 310h-402l-64 -310h-194zM530 921h232l115 -142h-188l-62 81l-94 -81h-175z" />
    <glyph glyph-name="hcircumflex" unicode="&#x125;" 
d="M210 726h176l-55 -268h2q13 17 36.5 33.5t54 29.5t66.5 21t75 8q34 0 72.5 -8t68.5 -29.5t45.5 -59t3.5 -96.5l-74 -357h-176l63 304q23 110 -95 110q-31 0 -60 -8t-53.5 -26.5t-43 -48t-27.5 -72.5l-53 -259h-176zM442 921h232l115 -142h-188l-62 81l-94 -81h-175z" />
    <glyph glyph-name="Hbar" unicode="&#x126;" horiz-adv-x="926" 
d="M216 714h194l-28 -134h402l28 134h194l-148 -714h-194l61 295h-402l-61 -295h-194zM752 421l16 80h-402l-16 -80h402z" />
    <glyph glyph-name="hbar" unicode="&#x127;" horiz-adv-x="811" 
d="M147 659h119l14 67h176l-14 -67h157l-17 -79h-156l-25 -122h2q13 17 36.5 33.5t54 29.5t66.5 21t75 8q34 0 72.5 -8t68.5 -29.5t45.5 -59t3.5 -96.5l-74 -357h-176l63 304q23 110 -95 110q-31 0 -60 -8t-53.5 -26.5t-43 -48t-27.5 -72.5l-53 -259h-176l120 580h-120z" />
    <glyph glyph-name="Itilde" unicode="&#x128;" horiz-adv-x="330" 
d="M216 714h194l-148 -714h-194zM66 783q29 60 71 99t100 39q19 0 46 -7t55.5 -15t56.5 -15t51 -7q20 0 35 9t22 30h82q-9 -29 -23 -53.5t-33.5 -43.5t-44.5 -29.5t-57 -10.5q-21 0 -52.5 8t-63 17l-59.5 17t-42 8q-20 0 -34 -14t-24 -32h-86z" />
    <glyph glyph-name="itilde" unicode="&#x129;" horiz-adv-x="296" 
d="M171 536h176l-111 -536h-176zM10 603q29 60 71 99t100 39q19 0 46 -7t55.5 -15t56.5 -15t51 -7q20 0 35 9t22 30h82q-9 -29 -23 -53.5t-33.5 -43.5t-44.5 -29.5t-57 -10.5q-21 0 -52.5 8t-63 17l-59.5 17t-42 8q-20 0 -34 -14t-24 -32h-86z" />
    <glyph glyph-name="Imacron" unicode="&#x12a;" horiz-adv-x="330" 
d="M216 714h194l-148 -714h-194zM103 902h482l-22 -104h-482z" />
    <glyph glyph-name="imacron" unicode="&#x12b;" horiz-adv-x="296" 
d="M171 536h176l-111 -536h-176zM42 722h482l-22 -104h-482z" />
    <glyph glyph-name="Iogonek" unicode="&#x12e;" horiz-adv-x="330" 
d="M248 -185q-27 -16 -63.5 -25.5t-78.5 -9.5q-55 0 -81 22.5t-18 64.5q8 40 49.5 72.5t97.5 60.5h-86l148 714h194l-148 -714h-36q-42 -39 -64 -64.5t-27 -48.5q-4 -18 5 -31t33 -13q11 0 27 3t35 12z" />
    <glyph glyph-name="iogonek" unicode="&#x12f;" horiz-adv-x="296" 
d="M239 -185q-27 -16 -63.5 -25.5t-78.5 -9.5q-55 0 -81 22.5t-18 64.5q8 40 49.5 72.5t97.5 60.5h-85l111 536h176l-111 -536h-19q-42 -39 -64 -64.5t-27 -48.5q-4 -18 5 -31t33 -13q11 0 27 3t35 12zM210 726h176l-25 -124h-176z" />
    <glyph glyph-name="Idotaccent" unicode="&#x130;" horiz-adv-x="330" 
d="M216 714h194l-148 -714h-194zM259 909h176l-24 -118h-176z" />
    <glyph glyph-name="dotlessi" unicode="&#x131;" horiz-adv-x="296" 
d="M171 536h176l-111 -536h-176z" />
    <glyph glyph-name="Jcircumflex" unicode="&#x134;" horiz-adv-x="685" 
d="M571 714h194l-91 -436q-6 -31 -14.5 -65t-24 -67t-39.5 -63t-61 -53t-89 -36.5t-122 -13.5q-62 0 -118 10t-95 37t-55.5 75t-0.5 124l10 45h194l-11 -50q-10 -51 11.5 -81t70.5 -30q37 0 62.5 10.5t41.5 30t25.5 45.5t15.5 58zM593 921h232l115 -142h-188l-62 81l-94 -81
h-175z" />
    <glyph glyph-name="jcircumflex" unicode="&#x135;" horiz-adv-x="296" 
d="M171 536h176l-111 -532q-10 -48 -23.5 -85.5t-38.5 -64t-66.5 -40t-107.5 -13.5q-26 0 -47 1.5t-42 2.5l27 130q14 -2 25 -3t19 -1q21 0 34 4.5t22 14.5t14.5 26.5t10.5 41.5zM180 741h232l115 -142h-188l-62 81l-94 -81h-175z" />
    <glyph glyph-name="Kcommaaccent" unicode="&#x136;" horiz-adv-x="870" 
d="M742 714h261l-388 -287l265 -427h-262l-179 309l-133 -97l-44 -212h-194l148 714h194l-64 -307zM353 -45h178l-13 -62q-7 -23 -15 -43.5t-25 -36t-48 -24.5t-84 -9l9 43q32 4 44.5 11.5t18.5 24.5h-85z" />
    <glyph glyph-name="kcommaaccent" unicode="&#x137;" horiz-adv-x="722" 
d="M210 726h176l-81 -390l275 200h245l-297 -204l202 -332h-233l-129 223l-100 -69l-32 -154h-176zM282 -45h178l-13 -62q-7 -23 -15 -43.5t-25 -36t-48 -24.5t-84 -9l9 43q32 4 44.5 11.5t18.5 24.5h-85z" />
    <glyph glyph-name="Lacute" unicode="&#x139;" horiz-adv-x="722" 
d="M216 714h194l-119 -572h435l-29 -142h-629zM356 921h215l-173 -142h-160z" />
    <glyph glyph-name="lacute" unicode="&#x13a;" horiz-adv-x="296" 
d="M210 726h176l-150 -726h-176zM333 921h215l-173 -142h-160z" />
    <glyph glyph-name="Lcommaaccent" unicode="&#x13b;" horiz-adv-x="722" 
d="M216 714h194l-119 -572h435l-29 -142h-629zM298 -45h178l-13 -62q-7 -23 -15 -43.5t-25 -36t-48 -24.5t-84 -9l9 43q32 4 44.5 11.5t18.5 24.5h-85z" />
    <glyph glyph-name="lcommaaccent" unicode="&#x13c;" horiz-adv-x="296" 
d="M210 726h176l-150 -726h-176zM56 -45h178l-13 -62q-7 -23 -15 -43.5t-25 -36t-48 -24.5t-84 -9l9 43q32 4 44.5 11.5t18.5 24.5h-85z" />
    <glyph glyph-name="Lcaron" unicode="&#x13d;" horiz-adv-x="722" 
d="M216 714h194l-119 -572h435l-29 -142h-629zM536 726h177l-115 -152h-126z" />
    <glyph glyph-name="lcaron" unicode="&#x13e;" horiz-adv-x="435" 
d="M210 726h176l-150 -726h-176zM466 726h177l-115 -152h-126z" />
    <glyph glyph-name="Ldot" unicode="&#x13f;" horiz-adv-x="722" 
d="M216 714h194l-119 -572h435l-29 -142h-629zM488.331 537.251h110.881l-15.1201 -169.999h-110.881z" />
    <glyph glyph-name="ldot" unicode="&#x140;" horiz-adv-x="467" 
d="M210 726h176l-150 -726h-176zM402.93 533.002h138.155l-18.8389 -162.998h-138.155z" />
    <glyph glyph-name="Lslash" unicode="&#x141;" horiz-adv-x="722" 
d="M110 205l-77 -44l28 136l77 44l78 373h194l-51 -246l175 100l-29 -136l-174 -100l-40 -190h435l-29 -142h-629z" />
    <glyph glyph-name="lslash" unicode="&#x142;" horiz-adv-x="296" 
d="M109 239l-69 -46l25 124l70 46l75 363h176l-51 -246l69 42l-26 -124l-68 -42l-74 -356h-176z" />
    <glyph glyph-name="Nacute" unicode="&#x143;" horiz-adv-x="926" 
d="M818 714h188l-148 -714h-211l-286 498h-2l-103 -498h-188l148 714h225l271 -498h2zM658 921h215l-173 -142h-160z" />
    <glyph glyph-name="nacute" unicode="&#x144;" 
d="M568 304q23 110 -95 110q-31 0 -60 -8t-53.5 -26.5t-43 -48t-27.5 -72.5l-53 -259h-176l111 536h170l-16 -78h2q15 17 39.5 33.5t56 29.5t68 21t74.5 8q34 0 72.5 -8t68.5 -29.5t45.5 -59t3.5 -96.5l-74 -357h-176zM516 741h215l-173 -142h-160z" />
    <glyph glyph-name="Ncommaaccent" unicode="&#x145;" horiz-adv-x="926" 
d="M818 714h188l-148 -714h-211l-286 498h-2l-103 -498h-188l148 714h225l271 -498h2zM382 -45h178l-13 -62q-7 -23 -15 -43.5t-25 -36t-48 -24.5t-84 -9l9 43q32 4 44.5 11.5t18.5 24.5h-85z" />
    <glyph glyph-name="ncommaaccent" unicode="&#x146;" 
d="M568 304q23 110 -95 110q-31 0 -60 -8t-53.5 -26.5t-43 -48t-27.5 -72.5l-53 -259h-176l111 536h170l-16 -78h2q15 17 39.5 33.5t56 29.5t68 21t74.5 8q34 0 72.5 -8t68.5 -29.5t45.5 -59t3.5 -96.5l-74 -357h-176zM281 -45h178l-13 -62q-7 -23 -15 -43.5t-25 -36
t-48 -24.5t-84 -9l9 43q32 4 44.5 11.5t18.5 24.5h-85z" />
    <glyph glyph-name="Ncaron" unicode="&#x147;" horiz-adv-x="926" 
d="M818 714h188l-148 -714h-211l-286 498h-2l-103 -498h-188l148 714h225l271 -498h2zM724 779h-232l-115 142h188l63 -81l93 81h176z" />
    <glyph glyph-name="ncaron" unicode="&#x148;" 
d="M568 304q23 110 -95 110q-31 0 -60 -8t-53.5 -26.5t-43 -48t-27.5 -72.5l-53 -259h-176l111 536h170l-16 -78h2q15 17 39.5 33.5t56 29.5t68 21t74.5 8q34 0 72.5 -8t68.5 -29.5t45.5 -59t3.5 -96.5l-74 -357h-176zM588 599h-232l-115 142h188l63 -81l93 81h176z" />
    <glyph glyph-name="Omacron" unicode="&#x14c;" horiz-adv-x="944" 
d="M308 357q-9 -42 -5.5 -84.5t24.5 -77.5t62 -57t107 -22t116 22t85.5 57t56.5 77.5t30 84.5t5.5 84.5t-24.5 77.5t-62 57t-107 22t-116 -22t-85.5 -57t-56.5 -77.5t-30 -84.5zM102 357q8 37 23 79.5t41 84.5t64.5 80.5t94 68t129.5 47t170 17.5t162.5 -17.5t110 -47
t66.5 -68t31.5 -80.5t6 -84.5t-10.5 -79.5t-23 -79.5t-41 -84.5t-65 -80.5t-94.5 -68t-129.5 -47t-170 -17.5t-162.5 17.5t-109.5 47t-66 68t-31.5 80.5t-6 84.5t10.5 79.5zM415 902h482l-22 -104h-482z" />
    <glyph glyph-name="omacron" unicode="&#x14d;" horiz-adv-x="778" 
d="M272 268q-17 -79 19.5 -121.5t118.5 -42.5t135.5 42.5t70.5 121.5t-19.5 121.5t-118.5 42.5t-135.5 -42.5t-70.5 -121.5zM90 268q16 76 53 130.5t90.5 89.5t122 51.5t148.5 16.5q79 0 141 -16.5t101.5 -51.5t53.5 -89.5t-2 -130.5t-53 -130.5t-90.5 -89.5t-122 -51.5
t-148.5 -16.5q-79 0 -141 16.5t-101.5 51.5t-53.5 89.5t2 130.5zM294 722h482l-22 -104h-482z" />
    <glyph glyph-name="Obreve" unicode="&#x14e;" horiz-adv-x="944" 
d="M308 357q-9 -42 -5.5 -84.5t24.5 -77.5t62 -57t107 -22t116 22t85.5 57t56.5 77.5t30 84.5t5.5 84.5t-24.5 77.5t-62 57t-107 22t-116 -22t-85.5 -57t-56.5 -77.5t-30 -84.5zM102 357q8 37 23 79.5t41 84.5t64.5 80.5t94 68t129.5 47t170 17.5t162.5 -17.5t110 -47
t66.5 -68t31.5 -80.5t6 -84.5t-10.5 -79.5t-23 -79.5t-41 -84.5t-65 -80.5t-94.5 -68t-129.5 -47t-170 -17.5t-162.5 17.5t-109.5 47t-66 68t-31.5 80.5t-6 84.5t10.5 79.5zM541 927q-2 -20 7 -31.5t23.5 -18.5t32 -9t34.5 -2q16 0 35 2t36.5 9t31 18.5t18.5 31.5h98
q-12 -48 -39 -78t-61 -46.5t-70.5 -22.5t-67.5 -6q-32 0 -66 6t-61 22.5t-41.5 46.5t-7.5 78h98z" />
    <glyph glyph-name="obreve" unicode="&#x14f;" horiz-adv-x="778" 
d="M272 268q-17 -79 19.5 -121.5t118.5 -42.5t135.5 42.5t70.5 121.5t-19.5 121.5t-118.5 42.5t-135.5 -42.5t-70.5 -121.5zM90 268q16 76 53 130.5t90.5 89.5t122 51.5t148.5 16.5q79 0 141 -16.5t101.5 -51.5t53.5 -89.5t-2 -130.5t-53 -130.5t-90.5 -89.5t-122 -51.5
t-148.5 -16.5q-79 0 -141 16.5t-101.5 51.5t-53.5 89.5t2 130.5zM421 747q-2 -20 7 -31.5t23.5 -18.5t32 -9t34.5 -2q16 0 35 2t36.5 9t31 18.5t18.5 31.5h98q-12 -48 -39 -78t-61 -46.5t-70.5 -22.5t-67.5 -6q-32 0 -66 6t-61 22.5t-41.5 46.5t-7.5 78h98z" />
    <glyph glyph-name="Ohungarumlaut" unicode="&#x150;" horiz-adv-x="944" 
d="M308 357q-9 -42 -5.5 -84.5t24.5 -77.5t62 -57t107 -22t116 22t85.5 57t56.5 77.5t30 84.5t5.5 84.5t-24.5 77.5t-62 57t-107 22t-116 -22t-85.5 -57t-56.5 -77.5t-30 -84.5zM102 357q8 37 23 79.5t41 84.5t64.5 80.5t94 68t129.5 47t170 17.5t162.5 -17.5t110 -47
t66.5 -68t31.5 -80.5t6 -84.5t-10.5 -79.5t-23 -79.5t-41 -84.5t-65 -80.5t-94.5 -68t-129.5 -47t-170 -17.5t-162.5 17.5t-109.5 47t-66 68t-31.5 80.5t-6 84.5t10.5 79.5zM518 921h215l-173 -142h-160zM803 921h215l-173 -142h-160z" />
    <glyph glyph-name="ohungarumlaut" unicode="&#x151;" horiz-adv-x="778" 
d="M272 268q-17 -79 19.5 -121.5t118.5 -42.5t135.5 42.5t70.5 121.5t-19.5 121.5t-118.5 42.5t-135.5 -42.5t-70.5 -121.5zM90 268q16 76 53 130.5t90.5 89.5t122 51.5t148.5 16.5q79 0 141 -16.5t101.5 -51.5t53.5 -89.5t-2 -130.5t-53 -130.5t-90.5 -89.5t-122 -51.5
t-148.5 -16.5q-79 0 -141 16.5t-101.5 51.5t-53.5 89.5t2 130.5zM401 741h215l-173 -142h-160zM686 741h215l-173 -142h-160z" />
    <glyph glyph-name="OE" unicode="&#x152;" horiz-adv-x="1167" 
d="M677 492q1 7 -5 24.5t-22 35.5t-44 32t-71 14q-40 0 -76.5 -16.5t-67 -48t-53.5 -76t-35 -101.5q-15 -69 -8.5 -115t27.5 -73.5t52 -39.5t65 -12q39 0 72 14t57 33t38.5 38t16.5 30zM587 61q-55 -44 -106.5 -62.5t-118.5 -18.5q-78 0 -133.5 29t-87.5 79.5t-40.5 118.5
t7.5 146q16 80 53 149.5t91 121t121.5 81t145.5 29.5q60 0 109.5 -15.5t82.5 -60.5l12 56h548l-28 -136h-378l-31 -148h365l-27 -130h-365l-34 -164h383l-28 -136h-553z" />
    <glyph glyph-name="oe" unicode="&#x153;" horiz-adv-x="1148" 
d="M566 266q7 34 4.5 64t-16 52.5t-39.5 36t-66 13.5q-41 0 -73 -13.5t-55 -36t-38 -52.5t-22 -64q-7 -35 -5 -65.5t16 -53.5t40.5 -36t67.5 -13q40 0 71.5 13.5t55 36t38 53t21.5 65.5zM698 221q-5 -37 3.5 -62t26 -40.5t42.5 -22t54 -6.5q46 0 77.5 14t65.5 51h176
q-64 -97 -148 -136t-190 -39q-69 0 -123 19.5t-89 70.5q-57 -52 -122 -71t-131 -19q-89 1 -144.5 25.5t-84 64t-33.5 90t6 104.5q10 49 36 100.5t72 94t114 70t161 27.5q64 0 118 -21t94 -67q18 16 42.5 32t54.5 28.5t65 20t74 7.5q75 0 129 -23t87 -62t44 -90.5t-1 -108.5
q-2 -14 -5.5 -27t-7.5 -24h-463zM1014 319q1 63 -30.5 95t-92.5 32q-60 0 -103 -33.5t-69 -93.5h295z" />
    <glyph glyph-name="Racute" unicode="&#x154;" horiz-adv-x="852" 
d="M216 714h519q74 0 115.5 -20t60 -49.5t20 -63.5t-4.5 -61q-14 -66 -50 -108t-102 -64l-1 -2q31 -5 46 -25.5t19.5 -48.5t1.5 -59.5t-8 -57.5q-3 -13 -6.5 -34t-4 -43.5t2.5 -43.5t13 -34h-212q-5 12 -6.5 24.5t0 28t5.5 36t10 48.5q8 37 5.5 61.5t-13.5 38.5t-29 19.5
t-40 5.5h-241l-54 -262h-194zM344 398h257q16 0 33.5 5t33.5 15.5t28 28t17 42.5q6 27 0 44t-19 27t-30.5 14t-34.5 4h-247zM599 921h215l-173 -142h-160z" />
    <glyph glyph-name="racute" unicode="&#x155;" horiz-adv-x="519" 
d="M171 536h170l-22 -105h2q30 31 57 53.5t55 37t58.5 21.5t68.5 7q15 0 32 -1t31 -4l-34 -165q-23 7 -46 11.5t-48 4.5q-91 0 -143 -43.5t-68 -121.5l-48 -231h-176zM305 741h215l-173 -142h-160z" />
    <glyph glyph-name="Rcommaaccent" unicode="&#x156;" horiz-adv-x="852" 
d="M216 714h519q74 0 115.5 -20t60 -49.5t20 -63.5t-4.5 -61q-14 -66 -50 -108t-102 -64l-1 -2q31 -5 46 -25.5t19.5 -48.5t1.5 -59.5t-8 -57.5q-3 -13 -6.5 -34t-4 -43.5t2.5 -43.5t13 -34h-212q-5 12 -6.5 24.5t0 28t5.5 36t10 48.5q8 37 5.5 61.5t-13.5 38.5t-29 19.5
t-40 5.5h-241l-54 -262h-194zM344 398h257q16 0 33.5 5t33.5 15.5t28 28t17 42.5q6 27 0 44t-19 27t-30.5 14t-34.5 4h-247zM355 -45h178l-13 -62q-7 -23 -15 -43.5t-25 -36t-48 -24.5t-84 -9l9 43q32 4 44.5 11.5t18.5 24.5h-85z" />
    <glyph glyph-name="rcommaaccent" unicode="&#x157;" horiz-adv-x="519" 
d="M171 536h170l-22 -105h2q30 31 57 53.5t55 37t58.5 21.5t68.5 7q15 0 32 -1t31 -4l-34 -165q-23 7 -46 11.5t-48 4.5q-91 0 -143 -43.5t-68 -121.5l-48 -231h-176zM57 -45h178l-13 -62q-7 -23 -15 -43.5t-25 -36t-48 -24.5t-84 -9l9 43q32 4 44.5 11.5t18.5 24.5h-85z
" />
    <glyph glyph-name="Rcaron" unicode="&#x158;" horiz-adv-x="852" 
d="M216 714h519q74 0 115.5 -20t60 -49.5t20 -63.5t-4.5 -61q-14 -66 -50 -108t-102 -64l-1 -2q31 -5 46 -25.5t19.5 -48.5t1.5 -59.5t-8 -57.5q-3 -13 -6.5 -34t-4 -43.5t2.5 -43.5t13 -34h-212q-5 12 -6.5 24.5t0 28t5.5 36t10 48.5q8 37 5.5 61.5t-13.5 38.5t-29 19.5
t-40 5.5h-241l-54 -262h-194zM344 398h257q16 0 33.5 5t33.5 15.5t28 28t17 42.5q6 27 0 44t-19 27t-30.5 14t-34.5 4h-247zM676 779h-232l-115 142h188l63 -81l93 81h176z" />
    <glyph glyph-name="rcaron" unicode="&#x159;" horiz-adv-x="519" 
d="M171 536h170l-22 -105h2q30 31 57 53.5t55 37t58.5 21.5t68.5 7q15 0 32 -1t31 -4l-34 -165q-23 7 -46 11.5t-48 4.5q-91 0 -143 -43.5t-68 -121.5l-48 -231h-176zM506 599h-232l-115 142h188l63 -81l93 81h176z" />
    <glyph glyph-name="Sacute" unicode="&#x15a;" horiz-adv-x="815" 
d="M656 507q3 35 -10.5 55.5t-36.5 31t-52.5 13.5t-58.5 3q-60 0 -100.5 -24t-48.5 -60q-6 -29 13 -45t55 -22l235 -39q47 -8 86 -22t64.5 -37t36 -57.5t0.5 -83.5q-10 -50 -37.5 -93.5t-77.5 -76t-125.5 -51.5t-180.5 -19q-43 0 -89 2.5t-89 11.5t-79.5 25t-61 43.5t-34 67
t1.5 95.5h218q-7 -37 5.5 -59.5t36.5 -35t55.5 -16.5t62.5 -4q69 0 115.5 20.5t56.5 68.5q4 21 -1.5 34.5t-19 22.5t-34.5 14.5t-49 10.5l-171 27q-45 7 -86.5 19t-71.5 34.5t-43 58t-1 90.5q25 119 128.5 171.5t271.5 52.5q37 0 77.5 -3t79.5 -11t74 -23.5t59.5 -41t36 -62
t4.5 -86.5h-215zM583 921h215l-173 -142h-160z" />
    <glyph glyph-name="sacute" unicode="&#x15b;" horiz-adv-x="704" 
d="M257 166q-1 -18 4 -32t18.5 -23.5t36 -15t56.5 -5.5q60 0 96.5 14.5t42.5 43.5q7 23 -10.5 33.5t-78.5 20.5l-155 22q-41 6 -71.5 16t-49.5 27.5t-25 44t2 64.5q11 54 43.5 89t78 55.5t99.5 28t109 7.5q93 0 149 -14.5t86 -39t38.5 -57.5t5.5 -70h-194q1 21 -8 34.5
t-24 21.5t-34 11.5t-38 3.5q-17 0 -37.5 -1.5t-39 -7t-32.5 -17t-18 -31.5q-2 -9 0 -17t10 -14.5t24.5 -11t44.5 -7.5l119 -13q66 -7 108.5 -20.5t66 -34t29.5 -48t-1 -62.5q-12 -60 -50 -95.5t-89.5 -54.5t-112 -25t-117.5 -6q-154 0 -221.5 44.5t-54.5 141.5h194zM481 741
h215l-173 -142h-160z" />
    <glyph glyph-name="Scircumflex" unicode="&#x15c;" horiz-adv-x="815" 
d="M656 507q3 35 -10.5 55.5t-36.5 31t-52.5 13.5t-58.5 3q-60 0 -100.5 -24t-48.5 -60q-6 -29 13 -45t55 -22l235 -39q47 -8 86 -22t64.5 -37t36 -57.5t0.5 -83.5q-10 -50 -37.5 -93.5t-77.5 -76t-125.5 -51.5t-180.5 -19q-43 0 -89 2.5t-89 11.5t-79.5 25t-61 43.5t-34 67
t1.5 95.5h218q-7 -37 5.5 -59.5t36.5 -35t55.5 -16.5t62.5 -4q69 0 115.5 20.5t56.5 68.5q4 21 -1.5 34.5t-19 22.5t-34.5 14.5t-49 10.5l-171 27q-45 7 -86.5 19t-71.5 34.5t-43 58t-1 90.5q25 119 128.5 171.5t271.5 52.5q37 0 77.5 -3t79.5 -11t74 -23.5t59.5 -41t36 -62
t4.5 -86.5h-215zM461 921h232l115 -142h-188l-62 81l-94 -81h-175z" />
    <glyph glyph-name="scircumflex" unicode="&#x15d;" horiz-adv-x="704" 
d="M257 166q-1 -18 4 -32t18.5 -23.5t36 -15t56.5 -5.5q60 0 96.5 14.5t42.5 43.5q7 23 -10.5 33.5t-78.5 20.5l-155 22q-41 6 -71.5 16t-49.5 27.5t-25 44t2 64.5q11 54 43.5 89t78 55.5t99.5 28t109 7.5q93 0 149 -14.5t86 -39t38.5 -57.5t5.5 -70h-194q1 21 -8 34.5
t-24 21.5t-34 11.5t-38 3.5q-17 0 -37.5 -1.5t-39 -7t-32.5 -17t-18 -31.5q-2 -9 0 -17t10 -14.5t24.5 -11t44.5 -7.5l119 -13q66 -7 108.5 -20.5t66 -34t29.5 -48t-1 -62.5q-12 -60 -50 -95.5t-89.5 -54.5t-112 -25t-117.5 -6q-154 0 -221.5 44.5t-54.5 141.5h194zM386 741
h232l115 -142h-188l-62 81l-94 -81h-175z" />
    <glyph glyph-name="Scedilla" unicode="&#x15e;" horiz-adv-x="815" 
d="M656 507q3 35 -10.5 55.5t-36.5 31t-52.5 13.5t-58.5 3q-60 0 -100.5 -24t-48.5 -60q-6 -29 13 -45t55 -22l235 -39q47 -8 86 -22t64.5 -37t36 -57.5t0.5 -83.5q-8 -38 -25 -72t-46 -62.5t-71 -50.5t-99 -36q-35 -8 -76.5 -13t-90.5 -6l-23 -29q20 4 45 4q18 0 34 -5
t27 -14.5t16 -24.5t1 -36q-6 -27 -22.5 -45t-40.5 -29t-52.5 -16t-57.5 -5q-32 0 -62.5 6t-49.5 14l28 51q19 -6 38.5 -9.5t39.5 -3.5q22 0 36.5 9.5t18.5 27.5q6 31 -29 31q-12 0 -24 -2.5t-24 -6.5l-17 18l55 66q-10 1 -19.5 1t-19.5 1q-57 3 -110.5 15t-91.5 40t-56 73
t-4 114h218q-7 -37 5.5 -59.5t36.5 -35t55.5 -16.5t62.5 -4q69 0 115.5 20.5t56.5 68.5q4 21 -1.5 34.5t-19 22.5t-34.5 14.5t-49 10.5l-171 27q-45 7 -86.5 19t-71.5 34.5t-43 58t-1 90.5q25 119 128.5 171.5t271.5 52.5q37 0 77.5 -3t79.5 -11t74 -23.5t59.5 -41t36 -62
t4.5 -86.5h-215z" />
    <glyph glyph-name="scedilla" unicode="&#x15f;" horiz-adv-x="704" 
d="M257 166q-1 -18 4 -32t18.5 -23.5t36 -15t56.5 -5.5q60 0 96.5 14.5t42.5 43.5q7 23 -10.5 33.5t-78.5 20.5l-155 22q-41 6 -71.5 16t-49.5 27.5t-25 44t2 64.5q11 54 43.5 89t78 55.5t99.5 28t109 7.5q93 0 149 -14.5t86 -39t38.5 -57.5t5.5 -70h-194q1 21 -8 34.5
t-24 21.5t-34 11.5t-38 3.5q-17 0 -37.5 -1.5t-39 -7t-32.5 -17t-18 -31.5q-2 -9 0 -17t10 -14.5t24.5 -11t44.5 -7.5l119 -13q66 -7 108.5 -20.5t66 -34t29.5 -48t-1 -62.5q-9 -44 -33 -75.5t-58 -52t-75.5 -32t-85.5 -15.5q-20 -2 -39.5 -3t-38.5 -2l-24 -30q20 4 45 4
q18 0 34 -5t27 -14.5t16 -24.5t1 -36q-6 -27 -22.5 -45t-40.5 -29t-52.5 -16t-57.5 -5q-32 0 -62.5 6t-49.5 14l28 51q19 -6 38.5 -9.5t39.5 -3.5q22 0 36.5 9.5t18.5 27.5q6 31 -29 31q-12 0 -24 -2.5t-24 -6.5l-17 18l55 65q-135 5 -196 45q-68 46 -55 141h194z" />
    <glyph glyph-name="Scaron" unicode="&#x160;" horiz-adv-x="815" 
d="M656 507q3 35 -10.5 55.5t-36.5 31t-52.5 13.5t-58.5 3q-60 0 -100.5 -24t-48.5 -60q-6 -29 13 -45t55 -22l235 -39q47 -8 86 -22t64.5 -37t36 -57.5t0.5 -83.5q-10 -50 -37.5 -93.5t-77.5 -76t-125.5 -51.5t-180.5 -19q-43 0 -89 2.5t-89 11.5t-79.5 25t-61 43.5t-34 67
t1.5 95.5h218q-7 -37 5.5 -59.5t36.5 -35t55.5 -16.5t62.5 -4q69 0 115.5 20.5t56.5 68.5q4 21 -1.5 34.5t-19 22.5t-34.5 14.5t-49 10.5l-171 27q-45 7 -86.5 19t-71.5 34.5t-43 58t-1 90.5q25 119 128.5 171.5t271.5 52.5q37 0 77.5 -3t79.5 -11t74 -23.5t59.5 -41t36 -62
t4.5 -86.5h-215zM657 779h-232l-115 142h188l63 -81l93 81h176z" />
    <glyph glyph-name="scaron" unicode="&#x161;" horiz-adv-x="704" 
d="M257 166q-1 -18 4 -32t18.5 -23.5t36 -15t56.5 -5.5q60 0 96.5 14.5t42.5 43.5q7 23 -10.5 33.5t-78.5 20.5l-155 22q-41 6 -71.5 16t-49.5 27.5t-25 44t2 64.5q11 54 43.5 89t78 55.5t99.5 28t109 7.5q93 0 149 -14.5t86 -39t38.5 -57.5t5.5 -70h-194q1 21 -8 34.5
t-24 21.5t-34 11.5t-38 3.5q-17 0 -37.5 -1.5t-39 -7t-32.5 -17t-18 -31.5q-2 -9 0 -17t10 -14.5t24.5 -11t44.5 -7.5l119 -13q66 -7 108.5 -20.5t66 -34t29.5 -48t-1 -62.5q-12 -60 -50 -95.5t-89.5 -54.5t-112 -25t-117.5 -6q-154 0 -221.5 44.5t-54.5 141.5h194zM579 599
h-232l-115 142h188l63 -81l93 81h176z" />
    <glyph glyph-name="Tcommaaccent" unicode="&#x162;" horiz-adv-x="722" 
d="M384 578h-265l28 136h724l-28 -136h-265l-120 -578h-194zM268 -45h178l-13 -62q-7 -23 -15 -43.5t-25 -36t-48 -24.5t-84 -9l9 43q32 4 44.5 11.5t18.5 24.5h-85z" />
    <glyph glyph-name="tcommaaccent" unicode="&#x163;" horiz-adv-x="444" 
d="M262 702h176l-34 -166h142l-25 -118h-142l-52 -250q-6 -32 3.5 -44t44.5 -12q23 0 44 1t43 3l-25 -118q-13 -2 -31 -3.5t-37.5 -3t-38 -2.5t-33.5 -1q-62 0 -96.5 11t-49 32t-13.5 50.5t9 65.5l56 271h-111l25 118h111zM190 -45h178l-13 -62q-7 -23 -15 -43.5t-25 -36
t-48 -24.5t-84 -9l9 43q32 4 44.5 11.5t18.5 24.5h-85z" />
    <glyph glyph-name="Tcaron" unicode="&#x164;" horiz-adv-x="722" 
d="M384 578h-265l28 136h724l-28 -136h-265l-120 -578h-194zM620 779h-232l-115 142h188l63 -81l93 81h176z" />
    <glyph glyph-name="tcaron" unicode="&#x165;" horiz-adv-x="564" 
d="M591 726h177l-115 -152h-126zM262 702h176l-34 -166h142l-25 -118h-142l-52 -250q-6 -32 3.5 -44t44.5 -12q23 0 44 1t43 3l-25 -118q-13 -2 -31 -3.5t-37.5 -3t-38 -2.5t-33.5 -1q-62 0 -96.5 11t-49 32t-13.5 50.5t9 65.5l56 271h-111l25 118h111z" />
    <glyph glyph-name="Tbar" unicode="&#x166;" horiz-adv-x="722" 
d="M186 446h170l28 132h-265l28 136h724l-28 -136h-265l-28 -132h168l-16 -79h-168l-76 -367h-194l76 367h-172z" />
    <glyph glyph-name="tbar" unicode="&#x167;" horiz-adv-x="444" 
d="M65 334h120l18 84h-111l25 118h111l34 166h176l-34 -166h142l-25 -118h-142l-18 -84h152l-16 -79h-152l-18 -87q-6 -32 3.5 -44t44.5 -12q23 0 44 1t43 3l-25 -118q-13 -2 -31 -3.5t-37.5 -3t-38 -2.5t-33.5 -1q-62 0 -96.5 11t-49 32t-13.5 50.5t9 65.5l22 108h-121z
" />
    <glyph glyph-name="Utilde" unicode="&#x168;" horiz-adv-x="870" 
d="M208 714h194l-85 -410q-6 -26 -9.5 -59t8 -61.5t44.5 -48t99 -19.5q67 0 107.5 19.5t63.5 48t33 61.5t16 59l85 410h194l-95 -458q-4 -20 -12.5 -48t-26 -59t-47.5 -61t-76.5 -54t-113 -39t-157.5 -15t-151.5 15t-97 39t-53.5 54t-21.5 61t-1 59t7.5 48zM349 784
q29 60 71 99t100 39q19 0 46 -7t55.5 -15t56.5 -15t51 -7q20 0 35 9t22 30h82q-9 -29 -23 -53.5t-33.5 -43.5t-44.5 -29.5t-57 -10.5q-21 0 -52.5 8t-63 17l-59.5 17t-42 8q-20 0 -34 -14t-24 -32h-86z" />
    <glyph glyph-name="utilde" unicode="&#x169;" 
d="M525 72h-2q-15 -17 -39.5 -33.5t-56 -29.5t-68 -21t-74.5 -8q-34 0 -72.5 8t-68.5 29.5t-45.5 59t-3.5 96.5l76 363h176l-65 -310q-23 -110 98 -110q72 0 118.5 38.5t61.5 113.5l56 268h176l-111 -536h-170zM247 603q29 60 71 99t100 39q19 0 46 -7t55.5 -15t56.5 -15
t51 -7q20 0 35 9t22 30h82q-9 -29 -23 -53.5t-33.5 -43.5t-44.5 -29.5t-57 -10.5q-21 0 -52.5 8t-63 17l-59.5 17t-42 8q-20 0 -34 -14t-24 -32h-86z" />
    <glyph glyph-name="Umacron" unicode="&#x16a;" horiz-adv-x="870" 
d="M208 714h194l-85 -410q-6 -26 -9.5 -59t8 -61.5t44.5 -48t99 -19.5q67 0 107.5 19.5t63.5 48t33 61.5t16 59l85 410h194l-95 -458q-4 -20 -12.5 -48t-26 -59t-47.5 -61t-76.5 -54t-113 -39t-157.5 -15t-151.5 15t-97 39t-53.5 54t-21.5 61t-1 59t7.5 48zM376 902h482
l-22 -104h-482z" />
    <glyph glyph-name="umacron" unicode="&#x16b;" 
d="M525 72h-2q-15 -17 -39.5 -33.5t-56 -29.5t-68 -21t-74.5 -8q-34 0 -72.5 8t-68.5 29.5t-45.5 59t-3.5 96.5l76 363h176l-65 -310q-23 -110 98 -110q72 0 118.5 38.5t61.5 113.5l56 268h176l-111 -536h-170zM277 722h482l-22 -104h-482z" />
    <glyph glyph-name="Ubreve" unicode="&#x16c;" horiz-adv-x="870" 
d="M208 714h194l-85 -410q-6 -26 -9.5 -59t8 -61.5t44.5 -48t99 -19.5q67 0 107.5 19.5t63.5 48t33 61.5t16 59l85 410h194l-95 -458q-4 -20 -12.5 -48t-26 -59t-47.5 -61t-76.5 -54t-113 -39t-157.5 -15t-151.5 15t-97 39t-53.5 54t-21.5 61t-1 59t7.5 48zM506 927
q-2 -20 7 -31.5t23.5 -18.5t32 -9t34.5 -2q16 0 35 2t36.5 9t31 18.5t18.5 31.5h98q-12 -48 -39 -78t-61 -46.5t-70.5 -22.5t-67.5 -6q-32 0 -66 6t-61 22.5t-41.5 46.5t-7.5 78h98z" />
    <glyph glyph-name="ubreve" unicode="&#x16d;" 
d="M525 72h-2q-15 -17 -39.5 -33.5t-56 -29.5t-68 -21t-74.5 -8q-34 0 -72.5 8t-68.5 29.5t-45.5 59t-3.5 96.5l76 363h176l-65 -310q-23 -110 98 -110q72 0 118.5 38.5t61.5 113.5l56 268h176l-111 -536h-170zM403 747q-2 -20 7 -31.5t23.5 -18.5t32 -9t34.5 -2q16 0 35 2
t36.5 9t31 18.5t18.5 31.5h98q-12 -48 -39 -78t-61 -46.5t-70.5 -22.5t-67.5 -6q-32 0 -66 6t-61 22.5t-41.5 46.5t-7.5 78h98z" />
    <glyph glyph-name="Uring" unicode="&#x16e;" horiz-adv-x="870" 
d="M208 714h194l-85 -410q-6 -26 -9.5 -59t8 -61.5t44.5 -48t99 -19.5q67 0 107.5 19.5t63.5 48t33 61.5t16 59l85 410h194l-95 -458q-4 -20 -12.5 -48t-26 -59t-47.5 -61t-76.5 -54t-113 -39t-157.5 -15t-151.5 15t-97 39t-53.5 54t-21.5 61t-1 59t7.5 48zM539 885
q-6 -27 9 -46t42 -19t50 19t29 46q5 27 -10 46t-42 19t-50 -19t-28 -46zM477 885q5 26 19.5 49t35.5 40.5t46.5 27.5t51.5 10t47 -10t34.5 -27.5t19 -40.5t0.5 -49q-6 -26 -21 -49.5t-35.5 -40.5t-45.5 -27t-51 -10t-47 10t-35 27t-19.5 40.5t0.5 49.5z" />
    <glyph glyph-name="uring" unicode="&#x16f;" 
d="M525 72h-2q-15 -17 -39.5 -33.5t-56 -29.5t-68 -21t-74.5 -8q-34 0 -72.5 8t-68.5 29.5t-45.5 59t-3.5 96.5l76 363h176l-65 -310q-23 -110 98 -110q72 0 118.5 38.5t61.5 113.5l56 268h176l-111 -536h-170zM445 720q-6 -27 9 -46t42 -19t50 19t29 46q5 27 -10 46t-42 19
t-50 -19t-28 -46zM383 720q5 26 19.5 49t35.5 40.5t46.5 27.5t51.5 10t47 -10t34.5 -27.5t19 -40.5t0.5 -49q-6 -26 -21 -49.5t-35.5 -40.5t-45.5 -27t-51 -10t-47 10t-35 27t-19.5 40.5t0.5 49.5z" />
    <glyph glyph-name="Uhungarumlaut" unicode="&#x170;" horiz-adv-x="870" 
d="M208 714h194l-85 -410q-6 -26 -9.5 -59t8 -61.5t44.5 -48t99 -19.5q67 0 107.5 19.5t63.5 48t33 61.5t16 59l85 410h194l-95 -458q-4 -20 -12.5 -48t-26 -59t-47.5 -61t-76.5 -54t-113 -39t-157.5 -15t-151.5 15t-97 39t-53.5 54t-21.5 61t-1 59t7.5 48zM484 921h215
l-173 -142h-160zM769 921h215l-173 -142h-160z" />
    <glyph glyph-name="uhungarumlaut" unicode="&#x171;" 
d="M525 72h-2q-15 -17 -39.5 -33.5t-56 -29.5t-68 -21t-74.5 -8q-34 0 -72.5 8t-68.5 29.5t-45.5 59t-3.5 96.5l76 363h176l-65 -310q-23 -110 98 -110q72 0 118.5 38.5t61.5 113.5l56 268h176l-111 -536h-170zM385 741h215l-173 -142h-160zM670 741h215l-173 -142h-160z
" />
    <glyph glyph-name="Uogonek" unicode="&#x172;" horiz-adv-x="870" 
d="M538 -185q-27 -16 -63.5 -25.5t-78.5 -9.5q-55 0 -81 22.5t-18 64.5q7 39 49 73q14 11 28.5 20.5t31.5 19.5q-76 2 -128 15q-76 19 -113.5 52.5t-50.5 71t-9.5 74.5t8.5 63l95 458h194l-85 -410q-6 -26 -9.5 -59t8 -61.5t44.5 -48t99 -19.5q67 0 107.5 19.5t63.5 48
t33 61.5t16 59l85 410h194l-95 -458q-5 -26 -17.5 -63t-42 -74.5t-81 -71t-135.5 -52.5q-20 -5 -42.5 -8t-47.5 -5q-14 -14 -25.5 -25t-19.5 -21q-22 -25 -27 -49q-4 -18 5 -31t33 -13q11 0 27 3t35 12z" />
    <glyph glyph-name="uogonek" unicode="&#x173;" 
d="M525 72h-2q-15 -17 -39.5 -33.5t-56 -29.5t-68 -21t-74.5 -8q-34 0 -72.5 8t-68.5 29.5t-45.5 59t-3.5 96.5l76 363h176l-65 -310q-23 -110 98 -110q72 0 118.5 38.5t61.5 113.5l56 268h176l-111 -536h-89l-35 -35t-23 -26q-15 -21 -23 -52q-4 -18 4.5 -31t31.5 -13
q10 0 25.5 3t33.5 12l12 -43q-26 -16 -61 -25.5t-74 -9.5q-52 0 -76.5 22.5t-17.5 64.5q8 40 40.5 70t81.5 63z" />
    <glyph glyph-name="Wcircumflex" unicode="&#x174;" horiz-adv-x="1148" 
d="M145 714h194l30 -520h2l254 520h194l38 -520h2l246 520h194l-374 -714h-200l-45 508h-2l-255 -508h-200zM653 921h232l115 -142h-188l-62 81l-94 -81h-175z" />
    <glyph glyph-name="wcircumflex" unicode="&#x175;" horiz-adv-x="1056" 
d="M111 536h194l47 -366h2l200 366h170l48 -366h2l199 366h194l-311 -536h-211l-45 346h-2l-187 -346h-211zM567 741h232l115 -142h-188l-62 81l-94 -81h-175z" />
    <glyph glyph-name="Ycircumflex" unicode="&#x176;" horiz-adv-x="778" 
d="M343 249l-219 465h228l120 -311l250 311h228l-413 -465l-51 -249h-194zM467 921h232l115 -142h-188l-62 81l-94 -81h-175z" />
    <glyph glyph-name="ycircumflex" unicode="&#x177;" horiz-adv-x="648" 
d="M775 536l-423 -624q-23 -34 -45 -55.5t-46.5 -34t-53.5 -17t-66 -4.5q-31 0 -61.5 1t-61.5 3l26 124q18 -2 37 -3t38 -1q32 0 53 13.5t41 41.5l26 39l-144 517h191l79 -354l222 354h188zM370 741h232l115 -142h-188l-62 81l-94 -81h-175z" />
    <glyph glyph-name="Ydieresis" unicode="&#x178;" horiz-adv-x="778" 
d="M343 249l-219 465h228l120 -311l250 311h228l-413 -465l-51 -249h-194zM622 909h176l-24 -118h-176zM336 909h176l-24 -118h-176z" />
    <glyph glyph-name="Zacute" unicode="&#x179;" horiz-adv-x="759" 
d="M41 124l567 454h-440l28 136h695l-26 -124l-566 -454h472l-28 -136h-727zM577 921h215l-173 -142h-160z" />
    <glyph glyph-name="zacute" unicode="&#x17a;" horiz-adv-x="648" 
d="M48 110l401 296h-320l27 130h565l-23 -110l-400 -296h351l-27 -130h-596zM472 741h215l-173 -142h-160z" />
    <glyph glyph-name="Zdotaccent" unicode="&#x17b;" horiz-adv-x="759" 
d="M41 124l567 454h-440l28 136h695l-26 -124l-566 -454h472l-28 -136h-727zM483 909h176l-24 -118h-176z" />
    <glyph glyph-name="zdotaccent" unicode="&#x17c;" horiz-adv-x="648" 
d="M48 110l401 296h-320l27 130h565l-23 -110l-400 -296h351l-27 -130h-596zM370 729h176l-24 -118h-176z" />
    <glyph glyph-name="Zcaron" unicode="&#x17d;" horiz-adv-x="759" 
d="M41 124l567 454h-440l28 136h695l-26 -124l-566 -454h472l-28 -136h-727zM657 779h-232l-115 142h188l63 -81l93 81h176z" />
    <glyph glyph-name="zcaron" unicode="&#x17e;" horiz-adv-x="648" 
d="M48 110l401 296h-320l27 130h565l-23 -110l-400 -296h351l-27 -130h-596zM560 599h-232l-115 142h188l63 -81l93 81h176z" />
    <glyph glyph-name="florin" unicode="&#x192;" horiz-adv-x="816" 
d="M290 396h121l71 173q18 43 42.5 71t55.5 44.5t66.5 23t76.5 6.5q35 0 60.5 -2.5t55.5 -5.5l-48 -115q-13 2 -27 3.5t-31 1.5q-21 0 -36 -6t-27 -18t-22 -31.5t-21 -46.5l-40 -98h122l-39 -92h-121l-132 -322q-22 -54 -46 -89.5t-56 -55.5t-74.5 -28t-101.5 -8
q-46 0 -96 10l46 112q14 -2 27 -3t21 -1q41 0 66 14.5t42 57.5l128 313h-121z" />
    <glyph glyph-name="Scommaaccent" unicode="&#x218;" horiz-adv-x="815" 
d="M656 507q3 35 -10.5 55.5t-36.5 31t-52.5 13.5t-58.5 3q-60 0 -100.5 -24t-48.5 -60q-6 -29 13 -45t55 -22l235 -39q47 -8 86 -22t64.5 -37t36 -57.5t0.5 -83.5q-10 -50 -37.5 -93.5t-77.5 -76t-125.5 -51.5t-180.5 -19q-43 0 -89 2.5t-89 11.5t-79.5 25t-61 43.5t-34 67
t1.5 95.5h218q-7 -37 5.5 -59.5t36.5 -35t55.5 -16.5t62.5 -4q69 0 115.5 20.5t56.5 68.5q4 21 -1.5 34.5t-19 22.5t-34.5 14.5t-49 10.5l-171 27q-45 7 -86.5 19t-71.5 34.5t-43 58t-1 90.5q25 119 128.5 171.5t271.5 52.5q37 0 77.5 -3t79.5 -11t74 -23.5t59.5 -41t36 -62
t4.5 -86.5h-215zM331 -45h178l-13 -62q-7 -23 -15 -43.5t-25 -36t-48 -24.5t-84 -9l9 43q32 4 44.5 11.5t18.5 24.5h-85z" />
    <glyph glyph-name="scommaaccent" unicode="&#x219;" horiz-adv-x="704" 
d="M257 166q-1 -18 4 -32t18.5 -23.5t36 -15t56.5 -5.5q60 0 96.5 14.5t42.5 43.5q7 23 -10.5 33.5t-78.5 20.5l-155 22q-41 6 -71.5 16t-49.5 27.5t-25 44t2 64.5q11 54 43.5 89t78 55.5t99.5 28t109 7.5q93 0 149 -14.5t86 -39t38.5 -57.5t5.5 -70h-194q1 21 -8 34.5
t-24 21.5t-34 11.5t-38 3.5q-17 0 -37.5 -1.5t-39 -7t-32.5 -17t-18 -31.5q-2 -9 0 -17t10 -14.5t24.5 -11t44.5 -7.5l119 -13q66 -7 108.5 -20.5t66 -34t29.5 -48t-1 -62.5q-12 -60 -50 -95.5t-89.5 -54.5t-112 -25t-117.5 -6q-154 0 -221.5 44.5t-54.5 141.5h194zM265 -45
h178l-13 -62q-7 -23 -15 -43.5t-25 -36t-48 -24.5t-84 -9l9 43q32 4 44.5 11.5t18.5 24.5h-85z" />
    <glyph glyph-name="uni021A" unicode="&#x21a;" horiz-adv-x="722" 
d="M384 578h-265l28 136h724l-28 -136h-265l-120 -578h-194zM268 -45h178l-13 -62q-7 -23 -15 -43.5t-25 -36t-48 -24.5t-84 -9l9 43q32 4 44.5 11.5t18.5 24.5h-85z" />
    <glyph glyph-name="uni021B" unicode="&#x21b;" horiz-adv-x="444" 
d="M262 702h176l-34 -166h142l-25 -118h-142l-52 -250q-6 -32 3.5 -44t44.5 -12q23 0 44 1t43 3l-25 -118q-13 -2 -31 -3.5t-37.5 -3t-38 -2.5t-33.5 -1q-62 0 -96.5 11t-49 32t-13.5 50.5t9 65.5l56 271h-111l25 118h111zM190 -45h178l-13 -62q-7 -23 -15 -43.5t-25 -36
t-48 -24.5t-84 -9l9 43q32 4 44.5 11.5t18.5 24.5h-85z" />
    <glyph glyph-name="circumflex" unicode="&#x2c6;" horiz-adv-x="260" 
d="M168 741h232l115 -142h-188l-62 81l-94 -81h-175z" />
    <glyph glyph-name="caron" unicode="&#x2c7;" horiz-adv-x="260" 
d="M371 599h-232l-115 142h188l63 -81l93 81h176z" />
    <glyph glyph-name="uni02C9" unicode="&#x2c9;" horiz-adv-x="260" 
d="M40 722h482l-22 -104h-482z" />
    <glyph glyph-name="breve" unicode="&#x2d8;" horiz-adv-x="260" 
d="M175 747q-2 -20 7 -31.5t23.5 -18.5t32 -9t34.5 -2q16 0 35 2t36.5 9t31 18.5t18.5 31.5h98q-12 -48 -39 -78t-61 -46.5t-70.5 -22.5t-67.5 -6q-32 0 -66 6t-61 22.5t-41.5 46.5t-7.5 78h98z" />
    <glyph glyph-name="dotaccent" unicode="&#x2d9;" horiz-adv-x="260" 
d="M191 729h176l-24 -118h-176z" />
    <glyph glyph-name="ring" unicode="&#x2da;" horiz-adv-x="260" 
d="M220 700q-6 -27 9 -46t42 -19t50 19t29 46q5 27 -10 46t-42 19t-50 -19t-28 -46zM158 700q5 26 19.5 49t35.5 40.5t46.5 27.5t51.5 10t47 -10t34.5 -27.5t19 -40.5t0.5 -49q-6 -26 -21 -49.5t-35.5 -40.5t-45.5 -27t-51 -10t-47 10t-35 27t-19.5 40.5t0.5 49.5z" />
    <glyph glyph-name="ogonek" unicode="&#x2db;" horiz-adv-x="260" 
d="M298 -185q-27 -16 -63.5 -25.5t-78.5 -9.5q-55 0 -81 22.5t-18 64.5q8 40 49.5 72.5t97.5 60.5h72q-42 -39 -64 -64.5t-27 -48.5q-4 -18 5 -31t33 -13q11 0 27 3t35 12z" />
    <glyph glyph-name="tilde" unicode="&#x2dc;" horiz-adv-x="260" 
d="M10 603q29 60 71 99t100 39q19 0 46 -7t55.5 -15t56.5 -15t51 -7q20 0 35 9t22 30h82q-9 -29 -23 -53.5t-33.5 -43.5t-44.5 -29.5t-57 -10.5q-21 0 -52.5 8t-63 17l-59.5 17t-42 8q-20 0 -34 -14t-24 -32h-86z" />
    <glyph glyph-name="hungarumlaut" unicode="&#x2dd;" horiz-adv-x="260" 
d="M122 741h215l-173 -142h-160zM407 741h215l-173 -142h-160z" />
    <glyph glyph-name="uni0394" unicode="&#x394;" horiz-adv-x="722" 
d="M403 540l-202 -392h261zM-56 0l400 712h177l121 -712h-698z" />
    <glyph glyph-name="uni03A9" unicode="&#x3a9;" horiz-adv-x="759" 
d="M723 462q0 -51 -16.5 -100t-46.5 -89.5t-72.5 -69t-93.5 -37.5l-5 -24h175l-30 -142h-305l47 223q40 7 70.5 26.5t51.5 48t32 64t11 74.5q0 61 -32 101t-98 40q-44 0 -80.5 -19.5t-62.5 -51t-40.5 -72t-14.5 -81.5q0 -51 21.5 -84.5t72.5 -45.5l-48 -223h-299l30 142h169
l6 24q-66 26 -96 74t-30 117q0 79 31.5 146t84.5 115.5t124 75.5t149 27q58 0 111.5 -17t94.5 -49.5t65 -81t24 -111.5z" />
    <glyph glyph-name="uni03BC" unicode="&#x3bc;" 
d="M681 0h-170l14 72h-2q-21 -27 -48 -45t-54 -28.5t-52 -14.5t-42 -4q-28 0 -52.5 8t-37.5 21l-43 -208h-176l153 735h176l-65 -310q-23 -110 98 -110q72 0 118.5 38.5t61.5 113.5l56 268h176z" />
    <glyph glyph-name="pi" unicode="&#x3c0;" horiz-adv-x="629" 
d="M607 355h-81q-2 -9 -9 -37.5t-14.5 -62t-13.5 -65t-6 -46.5q0 -13 9 -17t20 -4q23 0 48 11l-24 -113q-29 -14 -55.5 -22t-58.5 -8q-19 0 -38 3.5t-34.5 12t-25 23t-9.5 37.5q0 18 2.5 36t6.5 35l47 217h-139l-76 -355h-155l76 355h-74l30 141h604z" />
    <glyph glyph-name="endash" unicode="&#x2013;" horiz-adv-x="500" 
d="M72 348h500l-26 -124h-500z" />
    <glyph glyph-name="emdash" unicode="&#x2014;" horiz-adv-x="1000" 
d="M72 348h1000l-26 -124h-1000z" />
    <glyph glyph-name="quoteleft" unicode="&#x2018;" horiz-adv-x="370" 
d="M189 489q20 97 79.5 154.5t161.5 70.5l-15 -70q-26 -7 -44 -16t-31 -22t-22 -31.5t-16 -43.5h90l-35 -170h-194z" />
    <glyph glyph-name="quoteright" unicode="&#x2019;" horiz-adv-x="370" 
d="M236 714h194l-27 -128q-20 -97 -80 -154.5t-160 -70.5l14 70q26 7 44.5 16t31.5 22t22 31t16 44h-90z" />
    <glyph glyph-name="quotesinglbase" unicode="&#x201a;" horiz-adv-x="370" 
d="M123 170h194l-27 -128q-20 -97 -79.5 -154.5t-161.5 -70.5l15 70q26 7 44.5 16t31.5 22t22 31t16 44h-90z" />
    <glyph glyph-name="quotedblleft" unicode="&#x201c;" horiz-adv-x="592" 
d="M439 489q20 97 79.5 154.5t161.5 70.5l-15 -70q-26 -7 -44 -16t-31 -22t-22 -31.5t-16 -43.5h90l-35 -170h-194zM161 489q20 97 79.5 154.5t161.5 70.5l-15 -70q-26 -7 -44 -16t-31 -22t-22 -31.5t-16 -43.5h90l-35 -170h-194z" />
    <glyph glyph-name="quotedblright" unicode="&#x201d;" horiz-adv-x="592" 
d="M208 714h194l-27 -128q-20 -97 -80 -154.5t-160 -70.5l14 70q26 7 44.5 16t31.5 22t22 31t16 44h-90zM486 714h194l-27 -128q-20 -97 -80 -154.5t-160 -70.5l14 70q26 7 44.5 16t31.5 22t22 31t16 44h-90z" />
    <glyph glyph-name="quotedblbase" unicode="&#x201e;" horiz-adv-x="592" 
d="M95 170h194l-27 -128q-20 -97 -79.5 -154.5t-161.5 -70.5l15 70q26 7 44.5 16t31.5 22t22 31t16 44h-90zM373 170h194l-27 -128q-20 -97 -79.5 -154.5t-161.5 -70.5l15 70q26 7 44.5 16t31.5 22t22 31t16 44h-90z" />
    <glyph glyph-name="dagger" unicode="&#x2020;" horiz-adv-x="816" 
d="M393 368h-240l28 136h240l44 210h182l-44 -210h240l-28 -136h-240l-118 -567h-182z" />
    <glyph glyph-name="daggerdbl" unicode="&#x2021;" horiz-adv-x="816" 
d="M321 6h-243l26 124h243l53 255h-243l25 124h243l43 205h176l-43 -205h243l-25 -124h-243l-53 -255h243l-26 -124h-243l-43 -205h-176z" />
    <glyph glyph-name="bullet" unicode="&#x2022;" horiz-adv-x="500" 
d="M145 357q7 37 28 69.5t50.5 57t65 38.5t72.5 14t66.5 -14t48.5 -38.5t26.5 -57t0.5 -69.5q-8 -37 -29 -69.5t-50 -57t-64.5 -38.5t-72.5 -14t-67 14t-49 38.5t-26.5 57t0.5 69.5z" />
    <glyph glyph-name="ellipsis" unicode="&#x2026;" horiz-adv-x="1000" 
d="M771 170h194l-35 -170h-194zM438 170h194l-35 -170h-194zM105 170h194l-35 -170h-194z" />
    <glyph glyph-name="perthousand" unicode="&#x2030;" horiz-adv-x="1167" 
d="M716 714h98l-607 -734h-98zM954 160q-11 -55 -4 -83.5t49 -28.5t62 28.5t31 83.5t3.5 83.5t-49.5 28.5t-61.5 -28.5t-30.5 -83.5zM850 160q20 94 76 137t134 43t116.5 -43.5t19.5 -136.5q-20 -94 -76.5 -137t-134.5 -43q-39 0 -68.5 10.5t-47.5 33t-23.5 56t4.5 80.5z
M568 160q-11 -55 -4 -83.5t49 -28.5t62 28.5t31 83.5t3.5 83.5t-49.5 28.5t-61.5 -28.5t-30.5 -83.5zM464 160q20 94 76 137t134 43t116.5 -43.5t19.5 -136.5q-20 -94 -76.5 -137t-134.5 -43q-39 0 -68.5 10.5t-47.5 33t-23.5 56t4.5 80.5zM219 534q-12 -55 -4.5 -83.5
t49.5 -28.5t61.5 28.5t31.5 83.5q11 55 3.5 83.5t-49.5 28.5t-61.5 -28.5t-30.5 -83.5zM115 534q19 94 75.5 137t134.5 43t116.5 -43.5t19.5 -136.5q-20 -94 -76.5 -137t-134.5 -43q-39 0 -68.5 10.5t-47.5 33t-23.5 56t4.5 80.5z" />
    <glyph glyph-name="guilsinglleft" unicode="&#x2039;" horiz-adv-x="370" 
d="M158 365l224 142l-28 -133l-138 -88l102 -88l-28 -133l-164 142z" />
    <glyph glyph-name="guilsinglright" unicode="&#x203a;" horiz-adv-x="370" 
d="M134 198l138 88l-102 88l28 133l164 -142l-32 -158l-224 -142z" />
    <glyph glyph-name="fraction" unicode="&#x2044;" horiz-adv-x="167" 
d="M365 714h95l-514 -734h-95z" />
    <glyph glyph-name="Euro" unicode="&#x20ac;" horiz-adv-x="816" 
d="M804 509q-19 15 -36.5 27.5t-37 21.5t-41.5 14t-50 5q-66 0 -117.5 -28t-90.5 -89h338l-71 -90h-304q-2 -10 -3 -13l-3 -12l-3 -14q-1 -4 -1.5 -7t-0.5 -7h279l-70 -90h-208q14 -60 55.5 -87.5t105.5 -27.5q60 0 120.5 20.5t117.5 49.5l-33 -158q-60 -24 -118.5 -34
t-116.5 -10q-68 0 -126.5 11.5t-102.5 40t-70.5 76t-29.5 119.5h-104l70 90h40q0 3 2 13l3 14l3 13q1 2 1 6q0 1 2 7h-90l71 90h50q33 67 78.5 114t99.5 76.5t116 43t128 13.5q72 0 138 -16t120 -54z" />
    <glyph glyph-name="afii61289" unicode="&#x2113;" horiz-adv-x="500" 
d="M500 595q0 -85 -65 -163.5t-194 -165.5q-10 -41 -15.5 -65.5t-8.5 -39t-3.5 -21.5t-0.5 -11q0 -24 13 -34.5t31 -10.5q20 0 42 8.5t56 30.5h2l33 -77q-45 -32 -86 -46t-87 -14q-66 0 -102 33t-36 86q0 4 0.5 9t2 13t3.5 20.5t6 30.5l-61 -44h-2l-35 75l122 83l50 237
q19 91 74 141.5t132 50.5q28 0 52 -10t41 -27t26.5 -40t9.5 -49zM388 589q0 18 -8.5 31t-22.5 13q-17 0 -30.5 -16.5t-21.5 -54.5l-39 -179q24 20 46 45t39 52t27 54.5t10 54.5z" />
    <glyph glyph-name="trademark" unicode="&#x2122;" horiz-adv-x="1000" 
d="M285 616h-107l20 98h338l-20 -98h-107l-66 -314h-124zM977 584h-2l-152 -282h-98l-34 282h-2l-59 -282h-110l86 412h170l31 -250h2l135 250h170l-86 -412h-110z" />
    <glyph glyph-name="Omega" unicode="&#x2126;" horiz-adv-x="759" 
d="M723 462q0 -51 -16.5 -100t-46.5 -89.5t-72.5 -69t-93.5 -37.5l-5 -24h175l-30 -142h-305l47 223q40 7 70.5 26.5t51.5 48t32 64t11 74.5q0 61 -32 101t-98 40q-44 0 -80.5 -19.5t-62.5 -51t-40.5 -72t-14.5 -81.5q0 -51 21.5 -84.5t72.5 -45.5l-48 -223h-299l30 142h169
l6 24q-66 26 -96 74t-30 117q0 79 31.5 146t84.5 115.5t124 75.5t149 27q58 0 111.5 -17t94.5 -49.5t65 -81t24 -111.5z" />
    <glyph glyph-name="estimated" unicode="&#x212e;" horiz-adv-x="600" 
d="M157 259v-181q59 -59 145 -59q63 0 109 28.5t84 91.5l35 -21q-23 -36 -46.5 -61.5t-51 -42t-59.5 -24t-71 -7.5q-59 0 -106.5 21.5t-81.5 59t-52 87.5t-18 108t18 108.5t52 87.5t81.5 58.5t106.5 21.5q58 0 105.5 -20.5t81.5 -57t53 -87t19 -111.5h-404zM448 295v145
q-63 60 -147 60t-144 -60v-145h291z" />
    <glyph glyph-name="partialdiff" unicode="&#x2202;" horiz-adv-x="593" 
d="M377 270q0 5 -0.5 10.5t-0.5 10.5q-17 17 -42.5 29.5t-51.5 12.5t-45 -10t-31.5 -27t-18.5 -39t-6 -45q0 -21 5.5 -41.5t16.5 -37t28.5 -27t40.5 -10.5q31 0 51 18t32 44.5t17 57t5 54.5zM534 354q0 -65 -11 -131t-40 -119.5t-80 -87.5t-131 -34q-54 0 -98 16.5t-76 47.5
t-49.5 75t-17.5 98q0 48 16.5 90t46.5 73t71 49t90 18q69 0 124 -41q0 29 -5 62.5t-18.5 62t-36.5 47.5t-60 19q-36 0 -65.5 -16.5t-54.5 -41.5l-84 94q45 42 92 62.5t108 20.5q79 0 132.5 -31.5t86 -83t46.5 -117t14 -132.5z" />
    <glyph glyph-name="Delta" unicode="&#x2206;" horiz-adv-x="722" 
d="M403 540l-202 -392h261zM-56 0l400 712h177l121 -712h-698z" />
    <glyph glyph-name="product" unicode="&#x220f;" horiz-adv-x="759" 
d="M555 -214v845h-350v-845h-157v1000h663v-1000h-156z" />
    <glyph glyph-name="summation" unicode="&#x2211;" horiz-adv-x="704" 
d="M30 -214v135l286 372l-275 356v137h621v-156h-413l251 -337l-266 -351h440v-156h-644z" />
    <glyph glyph-name="minus" unicode="&#x2212;" horiz-adv-x="600" 
d="M112 315h506l-26 -124h-506z" />
    <glyph glyph-name="uni2215" unicode="&#x2215;" horiz-adv-x="167" 
d="M365 714h95l-514 -734h-95z" />
    <glyph glyph-name="uni2219" unicode="&#x2219;" horiz-adv-x="370" 
d="M139 275q4 21 16 39.5t29.5 33t37.5 22.5t41 8t37.5 -8t28 -22.5t16 -33t0.5 -39.5q-5 -21 -17 -39.5t-29 -33t-37.5 -22.5t-41.5 -8q-20 0 -37 8t-28.5 22.5t-16 33t0.5 39.5z" />
    <glyph glyph-name="radical" unicode="&#x221a;" horiz-adv-x="611" 
d="M370 -214h-141l-141 286l-58 -27l-57 122l198 91l104 -232l154 760h167z" />
    <glyph glyph-name="infinity" unicode="&#x221e;" horiz-adv-x="889" 
d="M346 271q-9 13 -22 27.5t-28 26.5t-32 20t-34 8q-34 0 -53 -24.5t-19 -56.5q0 -34 19.5 -56t54.5 -22q37 0 65.5 24t48.5 53zM693 273q0 34 -20 57t-55 23q-17 0 -33.5 -8t-31 -20t-27 -26.5t-21.5 -27.5q10 -14 22.5 -28t26.5 -25t30.5 -18t35.5 -7q36 0 54.5 23
t18.5 57zM825 276q0 -47 -13.5 -87t-39.5 -70t-63.5 -47t-86.5 -17q-66 0 -112 34t-84 84q-18 -25 -38.5 -46.5t-43.5 -37t-50 -24.5t-60 -9q-49 0 -87.5 16.5t-65.5 46t-41 70t-14 87.5q0 46 13.5 85.5t39.5 68t64 44.5t86 16q35 0 63 -9.5t51 -26.5t43 -40t40 -50
q19 27 38.5 50.5t43 40t51.5 26t64 9.5q48 0 86 -16t63.5 -44.5t39 -68t13.5 -85.5z" />
    <glyph glyph-name="integral" unicode="&#x222b;" horiz-adv-x="667" 
d="M573 684q0 -32 -20 -52.5t-52 -20.5q-36 0 -49 17t-16.5 37.5t-6 37.5t-17.5 17q-8 0 -12 -4.5t-5.5 -10.5t-2 -13t-0.5 -12q0 -51 4 -101t4 -101l1 -302q0 -38 0.5 -81.5t-3.5 -87t-15 -83.5t-33 -71t-58 -49.5t-90 -18.5q-22 0 -47 6t-46 18t-35 31.5t-14 46.5
q0 32 19.5 52.5t51.5 20.5q24 0 37 -8t20 -20t9 -26t4.5 -26t6 -20t13.5 -8q7 0 11.5 4.5t6 11t2 14t0.5 12.5q0 45 -4.5 86.5t-4.5 86.5v389q0 41 1.5 86t11 87t31.5 78t64 59q20 11 43.5 15.5t46.5 4.5q22 0 47.5 -5.5t46.5 -18t35 -32t14 -46.5z" />
    <glyph glyph-name="approxequal" unicode="&#x2248;" horiz-adv-x="593" 
d="M561 253q-2 -32 -11 -70t-27 -70.5t-46.5 -54.5t-68.5 -22q-30 0 -63.5 9.5t-67.5 20.5t-66.5 20.5t-61.5 9.5q-25 0 -37 -14.5t-15 -37.5h-102q0 31 10.5 68.5t30.5 69.5t48.5 54t65.5 22q33 0 65 -9t63.5 -20.5t63.5 -20.5t65 -9q27 0 37 15.5t14 38.5h103zM561 503
q-2 -33 -12 -71t-29.5 -70t-48.5 -53.5t-69 -21.5q-27 0 -59 9.5t-66 20.5t-67.5 20.5t-61.5 9.5q-23 0 -36 -16t-15 -38h-102q0 33 10 71t30 70t49.5 53.5t68.5 21.5q29 0 61.5 -9t66 -20.5t66 -20.5t61.5 -9q26 0 37 15t13 38h103z" />
    <glyph glyph-name="notequal" unicode="&#x2260;" horiz-adv-x="593" 
d="M265 72l-80 -163l-138 68l47 95h-89v157h166l43 87h-209v158h287l79 161l138 -68l-47 -93h88v-158h-165l-43 -87h208v-157h-285z" />
    <glyph glyph-name="lessequal" unicode="&#x2264;" horiz-adv-x="593" 
d="M5 -53v157h545v-157h-545zM5 292v156l545 148v-160l-326 -66l326 -81v-161z" />
    <glyph glyph-name="greaterequal" unicode="&#x2265;" horiz-adv-x="593" 
d="M5 -53v157h545v-157h-545zM5 128v161l326 81l-326 66v160l545 -148v-156z" />
    <glyph glyph-name="lozenge" unicode="&#x25ca;" horiz-adv-x="593" 
d="M296 587l-105 -231l105 -231l104 231zM366 -35h-142l-194 391l196 391h140l196 -391z" />
    <glyph glyph-name="dotlessj" unicode="&#xe0d6;" horiz-adv-x="296" 
d="M171 536h176l-111 -532q-10 -48 -23.5 -85.5t-38.5 -64t-66.5 -40t-107.5 -13.5q-26 0 -47 1.5t-42 2.5l27 130q14 -2 25 -3t19 -1q21 0 34 4.5t22 14.5t14.5 26.5t10.5 41.5z" />
    <glyph glyph-name="grave.cap" unicode="&#xe300;" horiz-adv-x="260" 
d="M87 741h215l60 -142h-160z" />
    <glyph glyph-name="acute.cap" unicode="&#xe301;" horiz-adv-x="260" 
d="M266 741h215l-173 -142h-160z" />
    <glyph glyph-name="circumflex.cap" unicode="&#xe302;" horiz-adv-x="260" 
d="M168 741h232l115 -142h-188l-62 81l-94 -81h-175z" />
    <glyph glyph-name="caron.cap" unicode="&#xe303;" horiz-adv-x="260" 
d="M371 599h-232l-115 142h188l63 -81l93 81h176z" />
    <glyph glyph-name="tilde.cap" unicode="&#xe304;" horiz-adv-x="260" 
d="M10 603q29 60 71 99t100 39q19 0 46 -7t55.5 -15t56.5 -15t51 -7q20 0 35 9t22 30h82q-9 -29 -23 -53.5t-33.5 -43.5t-44.5 -29.5t-57 -10.5q-21 0 -52.5 8t-63 17l-59.5 17t-42 8q-20 0 -34 -14t-24 -32h-86z" />
    <glyph glyph-name="dieresis.cap" unicode="&#xe305;" horiz-adv-x="260" 
d="M334 729h176l-24 -118h-176zM48 729h176l-24 -118h-176z" />
    <glyph glyph-name="macron.cap" unicode="&#xe306;" horiz-adv-x="260" 
d="M40 722h482l-22 -104h-482z" />
    <glyph glyph-name="breve.cap" unicode="&#xe307;" horiz-adv-x="260" 
d="M175 747q-2 -20 7 -31.5t23.5 -18.5t32 -9t34.5 -2q16 0 35 2t36.5 9t31 18.5t18.5 31.5h98q-12 -48 -39 -78t-61 -46.5t-70.5 -22.5t-67.5 -6q-32 0 -66 6t-61 22.5t-41.5 46.5t-7.5 78h98z" />
    <glyph glyph-name="ring.cap" unicode="&#xe308;" horiz-adv-x="260" 
d="M220 700q-6 -27 9 -46t42 -19t50 19t29 46q5 27 -10 46t-42 19t-50 -19t-28 -46zM158 700q5 26 19.5 49t35.5 40.5t46.5 27.5t51.5 10t47 -10t34.5 -27.5t19 -40.5t0.5 -49q-6 -26 -21 -49.5t-35.5 -40.5t-45.5 -27t-51 -10t-47 10t-35 27t-19.5 40.5t0.5 49.5z" />
    <glyph glyph-name="hungarumlaut.cap" unicode="&#xe309;" horiz-adv-x="260" 
d="M122 741h215l-173 -142h-160zM407 741h215l-173 -142h-160z" />
    <glyph glyph-name="dotaccent.cap" unicode="&#xe30a;" horiz-adv-x="260" 
d="M191 729h176l-24 -118h-176z" />
    <glyph glyph-name="caron.alt" unicode="&#xe30b;" horiz-adv-x="260" 
d="M253 726h177l-115 -152h-126z" />
    <glyph glyph-name="commaaccent" unicode="&#xe30c;" horiz-adv-x="370" 
d="M130 -45h178l-13 -62q-7 -23 -15 -43.5t-25 -36t-48 -24.5t-84 -9l9 43q32 4 44.5 11.5t18.5 24.5h-85z" />
    <glyph glyph-name="commaaccent.alt" unicode="&#xe30d;" horiz-adv-x="370" 
d="M404 630h-178l13 62q7 23 15 43.5t25 36t48 24.5t84 9l-9 -43q-32 -4 -44.5 -11.5t-18.5 -24.5h85z" />
    <glyph glyph-name="uniF8FF" unicode="&#xf8ff;" horiz-adv-x="512" 
d="M222 117v67h56v-67h-56zM225 234l-2 17q0 55 13 81t46 59q32 31 41 47.5t9 35.5q0 36 -22.5 60.5t-53.5 24.5t-53.5 -22t-28.5 -73l-50 8q7 71 44 104t91 33q53 0 88.5 -36t35.5 -95q0 -32 -12.5 -58.5t-50.5 -61.5q-37 -33 -43 -52t-6 -72h-46zM462 50v617h-412v-617
h412zM512 718v-718h-512v718h512z" />
    </font>
</defs>
</svg>
