<?xml version="1.0" standalone="no"?>
<!DOCTYPE svg PUBLIC "-//W3C//DTD SVG 1.1//EN" "http://www.w3.org/Graphics/SVG/1.1/DTD/svg11.dtd" >
<svg>
<metadata>
Created by FontForge 20110222 at Sat Mar 23 11:27:29 2013
 By Orthosie Webmaster
Part of the digitally encoded machine readable outline data for producing the Typefaces provided is copyrighted (c) 2003 - 2006 Linotype GmbH, www.linotype.com. All rights reserved. This software is the property of Linotype GmbH, and may not be reproduced, modified, disclosed or transferred without the express written approval of Linotype GmbH. Copyright (c) 1988, 1990, 1993 Adobe Systems Incorporated. All Rights Reserved. Helvetica is a trademark of Heidelberger Druckmaschinen AG, exclusively licensed through Linotype GmbH, and may be registered in certain jurisdictions. This typeface is original artwork of Linotype Design Studio. The design may be protected in certain jurisdictions.
</metadata>
<defs>
<font id="HelveticaNeueLTCom86HeavyItalic" horiz-adv-x="630" >
  <font-face 
    font-family="HelveticaNeueLTCom86HeavyItalic"
    font-weight="800"
    font-style="italic"
    font-stretch="normal"
    units-per-em="1000"
    panose-1="2 11 8 4 2 2 2 9 2 4"
    ascent="714"
    descent="-286"
    x-height="519"
    cap-height="714"
    bbox="-165 -234 1139 954"
    underline-thickness="50"
    underline-position="-50"
    unicode-range="U+0020-FB02"
  />
<missing-glyph horiz-adv-x="512" 
d="M222 117v67h56v-67h-56zM225 234l-2 17q0 55 13 81t46 59q32 31 41 47.5t9 35.5q0 36 -22.5 60.5t-53.5 24.5t-53.5 -22t-28.5 -73l-50 8q7 71 44 104t91 33q53 0 88.5 -36t35.5 -95q0 -32 -12.5 -58.5t-50.5 -61.5q-37 -33 -43 -52t-6 -72h-46zM462 50v617h-412v-617
h412zM512 718v-718h-512v718h512z" />
    <glyph glyph-name="IJ" unicode="IJ" horiz-adv-x="900" 
d="M141 714h186l-149 -714h-186zM813 229q-26 -127 -97 -185.5t-197 -58.5q-35 0 -72.5 8t-68.5 29t-51 56.5t-20 91.5q0 24 3.5 53.5t10.5 58.5h171q-6 -22 -10.5 -43.5t-4.5 -39.5q0 -61 60 -61q42 0 61 21.5t29 69.5l99 485h186z" />
    <glyph glyph-name="ij" unicode="ij" horiz-adv-x="591" 
d="M282 584h-170l27 130h170zM98 519h170l-108 -519h-170zM577 584h-170l27 130h170zM190 -44h39q34 0 45 19t18 54l102 490h169l-100 -482q-12 -59 -27 -99.5t-39.5 -65t-61 -35.5t-92.5 -11h-82z" />
    <glyph glyph-name="napostrophe" unicode="&#x22;n" horiz-adv-x="658" 
d="M126 519h170l-14 -63h2q9 13 25.5 27t39 25t51.5 18.5t63 7.5q70 0 109.5 -39.5t39.5 -106.5q0 -26 -6.5 -59t-11.5 -53l-62 -276h-170l59 275q4 18 7 34.5t3 31.5q0 31 -17.5 47t-44.5 16q-39 0 -62.5 -17t-37.5 -43.5t-21 -59t-14 -64.5l-46 -220h-170zM116 819h154
l-17 -81q-9 -44 -36.5 -67t-56 -29.5t-68.5 -6.5l9 42q26 3 40 10.5t22 26.5h-69z" />
    <glyph glyph-name="fi" unicode="fi" horiz-adv-x="648" 
d="M450 519h170l-108 -519h-170zM634 584h-170l27 130h170zM100 409h-83l23 110h83q7 27 13.5 56t20.5 56q13 26 32.5 43t42.5 27t49 14t52 4q32 0 58.5 -2t49.5 -6l-24 -120q-12 1 -23 2t-22 1q-23 0 -37.5 -6t-22.5 -16.5t-12 -24t-7 -28.5h99l-23 -110h-99l-86 -409h-170
z" />
    <glyph glyph-name="fl" unicode="fl" horiz-adv-x="648" 
d="M100 409h-83l23 110h83q7 27 13.5 56t20.5 56q13 26 32.5 43t42.5 27t49 14t52 4q32 0 58.5 -2t49.5 -6l-24 -120q-12 1 -23 2t-22 1q-23 0 -37.5 -6t-22.5 -16.5t-12 -24t-7 -28.5h99l-23 -110h-99l-86 -409h-170zM491 714h170l-149 -714h-170z" />
    <glyph glyph-name=".notdef" horiz-adv-x="512" 
d="M222 117v67h56v-67h-56zM225 234l-2 17q0 55 13 81t46 59q32 31 41 47.5t9 35.5q0 36 -22.5 60.5t-53.5 24.5t-53.5 -22t-28.5 -73l-50 8q7 71 44 104t91 33q53 0 88.5 -36t35.5 -95q0 -32 -12.5 -58.5t-50.5 -61.5q-37 -33 -43 -52t-6 -72h-46zM462 50v617h-412v-617
h412zM512 718v-718h-512v718h512z" />
    <glyph glyph-name=".null" horiz-adv-x="500" 
 />
    <glyph glyph-name="nonmarkingreturn" horiz-adv-x="315" 
 />
    <glyph glyph-name="space" unicode=" " horiz-adv-x="315" 
 />
    <glyph glyph-name="exclam" unicode="!" horiz-adv-x="315" 
d="M32 176h175l-37 -176h-175zM284 535l-111 -298h-83l17 298l38 179h176z" />
    <glyph glyph-name="quotedbl" unicode="&#x22;" horiz-adv-x="500" 
d="M155 714h144v-350h-144v350zM387 714h144v-350h-144v350z" />
    <glyph glyph-name="numbersign" unicode="#" 
d="M273 405l-15 -110h81l15 110h-81zM516 190h-77l-26 -190h-115l26 190h-81l-26 -190h-115l26 190h-89l15 105h89l15 110h-89l15 105h89l26 187h115l-26 -187h81l26 187h115l-26 -187h77l-15 -105h-77l-15 -110h77z" />
    <glyph glyph-name="dollar" unicode="$" 
d="M213 -11q-120 13 -179.5 78.5t-51.5 172.5h184q-2 -43 20 -70.5t57 -35.5l35 164q-50 15 -90 31.5t-68 38.5t-43.5 52t-15.5 72q0 63 24.5 108t65 73.5t93 42t108.5 13.5q11 0 16 -1l13 63h57l-14 -67q42 -5 80 -20t66 -42.5t43.5 -68t13.5 -94.5h-176q2 41 -14.5 59
t-41.5 26l-30 -144q43 -11 84 -25t73 -37t51.5 -58.5t19.5 -90.5q0 -66 -28.5 -112.5t-74.5 -76t-104 -42.5t-117 -13l-18 -85h-57zM339 585q-38 0 -65 -17.5t-27 -55.5q0 -25 16 -36.5t48 -19.5zM299 129q17 0 36 4.5t35 14t26.5 24.5t10.5 37q0 18 -6.5 30t-17 20.5
t-24 14t-27.5 9.5z" />
    <glyph glyph-name="percent" unicode="%" horiz-adv-x="981" 
d="M271 627q-23 0 -39.5 -19.5t-26.5 -46t-14.5 -54t-4.5 -42.5q0 -11 1.5 -22t6.5 -21t13.5 -16t22.5 -6q25 0 41.5 20.5t26.5 48t13.5 56.5t3.5 47q0 23 -9.5 39t-34.5 16zM221 321q-72 0 -111 41.5t-39 112.5q0 46 13.5 88t39 73.5t63.5 50.5t88 19q72 0 113.5 -39.5
t41.5 -111.5q0 -45 -13.5 -87t-40 -75t-65.5 -52.5t-90 -19.5zM287 -27h-106l511 751h106zM751 297q-23 0 -39.5 -19.5t-26.5 -46t-14.5 -54t-4.5 -42.5q0 -11 1.5 -22t6.5 -21t13.5 -16t22.5 -6q25 0 41.5 20.5t26.5 48t13.5 56.5t3.5 47q0 23 -9.5 39t-34.5 16zM701 -9
q-72 0 -111 41.5t-39 112.5q0 46 13.5 88t39 73.5t63.5 50.5t88 19q72 0 113.5 -39.5t41.5 -111.5q0 -45 -13.5 -87t-40 -75t-65.5 -52.5t-90 -19.5z" />
    <glyph glyph-name="ampersand" unicode="&#x26;" horiz-adv-x="704" 
d="M432 556q0 30 -15 44t-38 14q-27 0 -43 -16t-16 -46q0 -20 8 -40.5t31 -49.5q13 8 26 17.5t23.5 21t17 25t6.5 30.5zM481 264q16 17 26.5 38t17.5 43h151q-13 -54 -43 -109t-75 -95l92 -141h-184l-26 41q-43 -28 -87 -42t-97 -14q-47 0 -89 14t-74 41t-50.5 66t-18.5 89
q0 43 16 78t42.5 62.5t61 47.5t71.5 34q-17 26 -28 54t-11 60q0 45 16 81.5t43.5 62.5t65 40t80.5 14q34 0 69 -8t63 -27.5t45.5 -53.5t17.5 -85q0 -36 -13.5 -65.5t-35.5 -53.5t-50 -42.5t-56 -31.5zM287 304q-17 -8 -33.5 -18t-29.5 -23t-21.5 -29.5t-8.5 -37.5
q0 -33 21.5 -50t55.5 -17q30 0 54 10.5t41 28.5z" />
    <glyph glyph-name="quotesingle" unicode="'" horiz-adv-x="296" 
d="M128 714h144v-350h-144v350z" />
    <glyph glyph-name="parenleft" unicode="(" horiz-adv-x="315" 
d="M399 729q-47 -62 -86.5 -130t-68 -141.5t-44.5 -153.5t-16 -167q0 -51 2.5 -91t7 -75t10.5 -70t14 -75h-136q-26 75 -39 153.5t-13 157.5q0 87 15 165t43 150t69 140.5t93 136.5h149z" />
    <glyph glyph-name="parenright" unicode=")" horiz-adv-x="315" 
d="M-94 -174q47 62 86.5 130t68 141.5t44.5 153.5t16 167q0 51 -2.5 91t-7 75t-10.5 69.5t-14 75.5h136q26 -75 39 -153.5t13 -157.5q0 -87 -15 -165t-43 -150t-69 -140.5t-93 -136.5h-149z" />
    <glyph glyph-name="asterisk" unicode="*" horiz-adv-x="444" 
d="M74 561l41 85l113 -60l16 128h95l-22 -138l125 27l19 -93l-127 -20l61 -109l-82 -46l-60 112l-90 -103l-69 66l97 97z" />
    <glyph glyph-name="plus" unicode="+" horiz-adv-x="600" 
d="M228 506h144v-181h180v-144h-180v-181h-144v181h-180v144h180v181z" />
    <glyph glyph-name="comma" unicode="," horiz-adv-x="315" 
d="M34 176h181l-36 -176q-11 -53 -33 -87t-51.5 -53.5t-64 -27t-69.5 -6.5l18 80q83 9 96 94h-77z" />
    <glyph glyph-name="hyphen" unicode="-" horiz-adv-x="407" 
d="M16 200l30 144h308l-30 -144h-308z" />
    <glyph glyph-name="period" unicode="." horiz-adv-x="315" 
d="M32 176h183l-37 -176h-183z" />
    <glyph glyph-name="slash" unicode="/" horiz-adv-x="407" 
d="M319 729h164l-395 -744h-164z" />
    <glyph glyph-name="zero" unicode="0" 
d="M357 706q132 0 191 -71.5t59 -197.5q0 -83 -21.5 -163t-65 -143t-108.5 -101.5t-152 -38.5q-59 0 -103.5 20t-74.5 55t-45 83t-15 104q0 49 9 101.5t27.5 103t46 95.5t65 79t84 54t103.5 20zM354 568q-34 0 -59.5 -18t-44 -46t-31 -63.5t-20 -71t-10.5 -67t-3 -51.5
q0 -53 21.5 -87.5t68.5 -34.5q34 0 59.5 18t44 46.5t30.5 64.5t19.5 72t10.5 68.5t3 54.5q0 51 -21.5 83t-67.5 32z" />
    <glyph glyph-name="one" unicode="1" 
d="M196 0l95 449l-167 -5l26 125q40 1 75.5 7t65 20t53 38.5t41.5 62.5h139l-148 -697h-180z" />
    <glyph glyph-name="two" unicode="2" 
d="M-28 0q3 56 22 98.5t49.5 76.5t69 60.5t81 50t86.5 45t84 46.5q15 9 29.5 19t25 23t17 29.5t6.5 38.5q0 40 -27.5 60.5t-66.5 20.5q-62 0 -91 -37t-31 -93h-162q4 62 27.5 112t62 84.5t90.5 53t113 18.5q51 0 97 -11.5t81 -36.5t56 -64t21 -94q0 -35 -9 -64.5t-24.5 -54
t-37.5 -45.5t-47 -39q-21 -15 -48.5 -31t-56.5 -31t-57.5 -29t-52.5 -25q-18 -8 -35.5 -17t-35.5 -18v-2h353l-33 -144h-556z" />
    <glyph glyph-name="three" unicode="3" 
d="M171 250q-1 -7 -1.5 -16t-0.5 -23q0 -37 30 -59.5t75 -22.5q25 0 47.5 7t39 20.5t26.5 33t10 45.5q0 28 -14.5 44t-36 22.5t-47.5 7t-48 -0.5l24 115h40q21 0 43.5 2.5t40.5 11t30 24t12 41.5q0 17 -8 29.5t-20.5 20.5t-28 12t-31.5 4q-51 0 -81.5 -26t-38.5 -72h-159
q8 57 32.5 101t62 74t86 45.5t105.5 15.5q44 0 87.5 -9t78.5 -30.5t57 -56.5t22 -87q0 -57 -34.5 -99.5t-100.5 -54.5v-2q49 -12 73 -49.5t24 -86.5q0 -71 -28.5 -117t-72.5 -73.5t-96.5 -38.5t-100.5 -11q-57 0 -105 14.5t-83.5 40.5t-55.5 63.5t-20 82.5q0 20 1 33t2 25
h163z" />
    <glyph glyph-name="four" unicode="4" 
d="M283 0l33 155h-321l29 136l387 406h187l-84 -404h90l-28 -138h-91l-32 -155h-170zM165 293h182l51 238h-2z" />
    <glyph glyph-name="five" unicode="5" 
d="M612 697l-30 -144h-304l-40 -119h2q26 26 59.5 35t67.5 9q47 0 85.5 -14.5t65.5 -41.5t42 -66t15 -88q0 -65 -24.5 -116t-66.5 -87t-97.5 -55t-116.5 -19q-54 0 -102.5 12t-85.5 38t-58 68.5t-19 102.5h165q4 -40 31.5 -61.5t82.5 -21.5q28 0 50 9.5t38 25.5t24.5 38
t8.5 47q0 47 -26.5 75.5t-76.5 28.5q-43 0 -66 -14t-41 -36h-152l126 394h443z" />
    <glyph glyph-name="six" unicode="6" 
d="M316 351q-54 0 -86.5 -34t-32.5 -90q0 -20 7.5 -38t21.5 -31.5t32.5 -21t41.5 -7.5q27 0 48.5 9.5t35.5 25.5t21.5 37t7.5 44q0 49 -27 77.5t-70 28.5zM459 515q-3 33 -25 50q-22 16 -56 16q-36 0 -63 -16.5t-46.5 -42t-33 -57t-21.5 -61.5h2q29 31 69 46.5t85 15.5
t82.5 -14t65.5 -40t43.5 -63t15.5 -83q0 -61 -21.5 -111.5t-59.5 -87t-90 -56.5t-112 -20q-71 0 -120.5 21t-80.5 58.5t-45.5 89.5t-14.5 113q0 82 24 159.5t69.5 138.5t111 98t148.5 37q44 0 86.5 -11t75.5 -34t53.5 -59t20.5 -87h-163z" />
    <glyph glyph-name="seven" unicode="7" 
d="M86 544l32 153h516l-32 -153q-54 -42 -100 -96t-83 -108q-26 -39 -50 -81.5t-43.5 -86.5t-34 -87.5t-21.5 -84.5h-190q12 54 33 108.5t48 106.5t59.5 100.5t67.5 91.5q13 18 30.5 37.5t35 37.5t34 33.5t29.5 26.5v2h-331z" />
    <glyph glyph-name="eight" unicode="8" 
d="M302 313q-24 0 -47 -6t-41.5 -19t-29.5 -33.5t-11 -48.5q0 -29 10.5 -46.5t27.5 -27t38 -13t42 -3.5q25 0 47.5 6.5t39 19.5t26.5 33t10 47q0 25 -10 42t-25.5 28t-35.5 16t-41 5zM349 418q45 0 76 22.5t31 65.5q0 21 -9 35.5t-23 23.5t-32 12.5t-36 3.5q-20 0 -40 -4
t-35.5 -13.5t-25.5 -25t-10 -39.5t8 -39.5t22.5 -25t33.5 -13t40 -3.5zM354 706q43 0 88.5 -7.5t83 -27.5t61 -54.5t23.5 -88.5q0 -30 -10.5 -57t-28.5 -48.5t-43.5 -36t-55.5 -18.5v-2q26 -6 47 -20t35.5 -33.5t22 -44t7.5 -51.5q0 -65 -26 -108.5t-68 -69.5t-95 -37
t-107 -11q-49 0 -99.5 8t-92 29.5t-67.5 60.5t-26 102q0 39 13.5 70.5t37 54.5t55 37.5t68.5 20.5v2q-38 14 -62 47t-24 75q0 55 23 94.5t60 64.5t84 37t96 12z" />
    <glyph glyph-name="nine" unicode="9" 
d="M212 452q0 -49 27.5 -77.5t70.5 -28.5q54 0 87 34t33 90q0 20 -8 38t-21.5 31.5t-33 21t-41.5 7.5q-27 0 -48.5 -9.5t-36 -25.5t-22 -37t-7.5 -44zM168 182q3 -33 26 -50q20 -16 55 -16q36 0 63 16.5t46.5 42t33 57t21.5 61.5h-2q-29 -31 -69 -46.5t-85 -15.5t-83 14
t-66 40t-44 63t-16 83q0 61 22 111.5t60 87t90.5 56.5t112.5 20q70 0 120 -21t81 -58.5t45.5 -89.5t14.5 -113q0 -82 -24 -160t-69.5 -138.5t-111 -97.5t-148.5 -37q-44 0 -86.5 11t-75.5 34t-53.5 59t-20.5 87h163z" />
    <glyph glyph-name="colon" unicode=":" horiz-adv-x="315" 
d="M101 506h181l-37 -176h-181zM32 176h181l-37 -176h-181z" />
    <glyph glyph-name="semicolon" unicode=";" horiz-adv-x="315" 
d="M101 506h181l-37 -176h-181zM34 176h181l-36 -176q-11 -53 -33 -87t-51.5 -53.5t-64 -27t-69.5 -6.5l18 80q83 9 96 94h-77z" />
    <glyph glyph-name="less" unicode="&#x3c;" horiz-adv-x="600" 
d="M46 182v142l508 190v-154l-307 -106v-2l307 -106v-154z" />
    <glyph glyph-name="equal" unicode="=" horiz-adv-x="600" 
d="M552 57h-504v144h504v-144zM552 305h-504v144h504v-144z" />
    <glyph glyph-name="greater" unicode="&#x3e;" horiz-adv-x="600" 
d="M46 146l307 106v2l-307 106v154l508 -190v-142l-508 -190v154z" />
    <glyph glyph-name="question" unicode="?" horiz-adv-x="574" 
d="M151 176h175l-37 -176h-175zM60 490q2 115 77 177t211 62q109 0 169 -46.5t60 -135.5q0 -53 -14.5 -85.5t-38.5 -54.5t-56 -38t-67 -35q-31 -17 -50 -41.5t-21 -55.5h-158q4 40 15 69t30 51.5t48 42t71 41.5q30 15 50.5 36.5t20.5 60.5q0 32 -20.5 46.5t-52.5 14.5
q-53 0 -76.5 -28t-27.5 -81h-170z" />
    <glyph glyph-name="at" unicode="@" horiz-adv-x="800" 
d="M526 536h94l-44 -238q-2 -6 -3.5 -15.5t-2 -18t2 -14.5t10.5 -6q16 0 32 8.5t29.5 27t22 47t8.5 68.5q0 60 -19.5 105.5t-54 76.5t-82.5 46.5t-105 15.5q-62 0 -112.5 -21t-86.5 -59t-55.5 -90t-19.5 -113q0 -66 21.5 -118t60.5 -88t92.5 -55.5t116.5 -19.5
q57 0 104.5 16.5t84.5 44.5h98q-54 -74 -128.5 -112.5t-166.5 -38.5q-80 0 -150.5 27.5t-123.5 76.5t-83.5 117.5t-30.5 149.5q0 80 30 148t82 118t121.5 78.5t148.5 28.5q66 0 128.5 -21t111.5 -60.5t78.5 -95.5t29.5 -125q0 -57 -14 -100.5t-36.5 -75.5t-50.5 -53.5
t-55.5 -34.5t-51.5 -18.5t-39 -5.5q-28 0 -44.5 12.5t-17.5 37.5h-2q-15 -20 -38.5 -35t-57.5 -15q-32 0 -61.5 14.5t-52 39t-35.5 57t-13 68.5q0 44 14 85t39.5 73t62 51t82.5 19q38 0 69 -13.5t54 -44.5zM488 357q0 36 -21.5 57.5t-57.5 21.5q-21 0 -39 -8.5t-31 -23
t-20.5 -33t-7.5 -37.5q0 -35 19.5 -57.5t55.5 -22.5q47 0 74.5 30t27.5 73z" />
    <glyph glyph-name="A" unicode="A" horiz-adv-x="704" 
d="M262 266h163l-27 257h-2zM340 714h188l117 -714h-187l-17 128h-251l-72 -128h-195z" />
    <glyph glyph-name="B" unicode="B" horiz-adv-x="722" 
d="M207 146h146q24 0 47 3.5t41 13t28.5 27.5t10.5 47q0 25 -10 39t-26 21t-35 9t-37 2h-131zM267 433h132q57 0 84.5 18.5t27.5 60.5q0 19 -9 30.5t-23 17t-30.5 7t-31.5 1.5h-122zM141 714h333q72 0 116 -13.5t68 -35.5t31.5 -50t7.5 -57q0 -71 -35 -116.5t-97 -59.5v-2
q24 -6 42.5 -19.5t31.5 -32t20 -41.5t7 -47q0 -54 -21.5 -98.5t-62.5 -75.5t-102 -48.5t-139 -17.5h-349z" />
    <glyph glyph-name="C" unicode="C" horiz-adv-x="741" 
d="M532 457q3 25 -2.5 46.5t-19.5 37.5t-37 25.5t-56 9.5q-53 0 -90 -27t-60 -68.5t-33.5 -90t-10.5 -90.5q0 -35 6 -64.5t21 -51t40.5 -34t64.5 -12.5q59 0 100 36t51 90h186q-30 -138 -118 -208.5t-245 -70.5q-42 0 -93 13t-95.5 48.5t-74 98.5t-29.5 162q0 86 26 163
t75 134.5t120 91t162 33.5q67 0 122.5 -16t94.5 -49.5t60.5 -85t20.5 -121.5h-186z" />
    <glyph glyph-name="D" unicode="D" horiz-adv-x="759" 
d="M212 160h123q60 0 100 24t64 59.5t34 77t10 76.5q0 43 -10 73t-28.5 49t-44.5 27t-58 8h-107zM143 714h268q69 0 127 -16.5t100.5 -52.5t66.5 -93.5t24 -139.5q0 -83 -25.5 -158t-77.5 -131.5t-130.5 -89.5t-184.5 -33h-319z" />
    <glyph glyph-name="E" unicode="E" horiz-adv-x="685" 
d="M140 714h570l-34 -160h-384l-23 -114h354l-30 -144h-354l-28 -136h387l-34 -160h-572z" />
    <glyph glyph-name="F" unicode="F" horiz-adv-x="611" 
d="M141 714h531l-33 -160h-345l-28 -135h297l-30 -144h-297l-58 -275h-186z" />
    <glyph glyph-name="G" unicode="G" horiz-adv-x="778" 
d="M557 471q1 25 -8.5 44.5t-25.5 33t-38 20.5t-47 7q-57 0 -97.5 -26t-66.5 -66.5t-38 -90t-12 -97.5q0 -76 36.5 -117t108.5 -41q66 0 104.5 25.5t59.5 89.5h-131l29 138h297l-83 -391h-119l4 72h-2q-16 -22 -34.5 -38.5t-42.5 -27t-55.5 -16t-74.5 -5.5q-51 0 -101.5 15
t-91 50.5t-65.5 95.5t-25 150q0 13 3.5 50.5t17 85.5t40 100.5t71 96t111 72t160.5 28.5q67 0 122 -15.5t93.5 -47t58.5 -80.5t18 -115h-176z" />
    <glyph glyph-name="H" unicode="H" horiz-adv-x="741" 
d="M138 714h186l-54 -260h248l54 260h186l-149 -714h-186l61 294h-248l-61 -294h-186z" />
    <glyph glyph-name="I" unicode="I" horiz-adv-x="315" 
d="M141 714h186l-149 -714h-186z" />
    <glyph glyph-name="J" unicode="J" horiz-adv-x="593" 
d="M506 229q-26 -127 -97 -185.5t-197 -58.5q-35 0 -72.5 8t-68.5 29t-51 56.5t-20 91.5q0 24 3.5 53.5t10.5 58.5h171q-6 -22 -10.5 -43.5t-4.5 -39.5q0 -61 60 -61q42 0 61 21.5t29 69.5l99 485h186z" />
    <glyph glyph-name="K" unicode="K" horiz-adv-x="741" 
d="M143 714h186l-59 -280h2l291 280h246l-341 -294l212 -420h-212l-147 300l-97 -83l-46 -217h-186z" />
    <glyph glyph-name="L" unicode="L" horiz-adv-x="593" 
d="M141 714h186l-116 -554h334l-34 -160h-519z" />
    <glyph glyph-name="M" unicode="M" horiz-adv-x="926" 
d="M142 714h256l34 -509h2l246 509h256l-149 -714h-176l134 567h-2l-282 -567h-143l-42 567h-2l-106 -567h-176z" />
    <glyph glyph-name="N" unicode="N" horiz-adv-x="741" 
d="M133 714h191l167 -467h2l89 467h180l-149 -714h-191l-165 467h-2l-91 -467h-180z" />
    <glyph glyph-name="O" unicode="O" horiz-adv-x="778" 
d="M219 300q0 -35 8.5 -64.5t26 -51t44.5 -34t64 -12.5q50 0 88 27t63.5 67.5t38.5 88.5t13 90q0 80 -31.5 122.5t-106.5 42.5q-54 0 -93.5 -26.5t-65 -67t-37.5 -89.5t-12 -93zM33 301q0 89 28 167t80 136t126 91.5t166 33.5q31 0 66.5 -4.5t71 -17t68 -33.5t57.5 -54.5
t40 -81t15 -111.5q0 -94 -27 -175t-79 -140t-127 -93t-171 -34q-150 0 -232 83t-82 233z" />
    <glyph glyph-name="P" unicode="P" horiz-adv-x="685" 
d="M252 384h131q65 0 94 27.5t29 72.5q0 26 -9.5 41t-25 23t-35.5 10.5t-42 2.5h-105zM135 714h351q48 0 86 -15.5t65 -43.5t41 -67t14 -87q0 -68 -23.5 -118.5t-65 -84t-97.5 -50.5t-121 -17h-165l-49 -231h-186z" />
    <glyph glyph-name="Q" unicode="Q" horiz-adv-x="778" 
d="M587 -81l-79 96q-71 -30 -161 -30q-150 0 -232 83t-82 233q0 89 28 167t80 136t126 91.5t166 33.5q31 0 66.5 -4.5t71 -17t68 -33.5t57.5 -54.5t40 -81t15 -111.5q0 -108 -35 -197t-102 -149l71 -87zM446 286l57 -69q31 42 46.5 94.5t15.5 99.5q0 80 -31.5 122.5
t-106.5 42.5q-54 0 -93.5 -26.5t-65 -67t-37.5 -89.5t-12 -93q0 -35 8.5 -64.5t26 -51t44.5 -34t64 -12.5q20 0 40 6l-54 65z" />
    <glyph glyph-name="R" unicode="R" horiz-adv-x="722" 
d="M133 714h350q49 0 90.5 -7.5t72.5 -28t48.5 -56.5t17.5 -93q0 -80 -39.5 -133.5t-123.5 -65.5v-2q40 -10 56.5 -38.5t16.5 -80.5q0 -39 -1.5 -70.5t-1.5 -62.5q0 -19 1.5 -40t9.5 -36h-187q-2 11 -4 20.5t-2 20.5q0 28 2.5 57.5t2.5 65.5q0 48 -21.5 72t-71.5 24h-124
l-54 -260h-186zM253 398h148q25 0 47.5 4.5t40 15.5t27.5 30t10 48q0 23 -8.5 37.5t-23 22.5t-32.5 11t-36 3h-137z" />
    <glyph glyph-name="S" unicode="S" horiz-adv-x="667" 
d="M186 240q0 -58 32.5 -80t98.5 -22q57 0 81.5 21t24.5 50q0 27 -18 43t-45 26.5t-59 18t-60 17.5q-33 12 -62.5 27.5t-51.5 37t-34.5 51t-12.5 68.5q0 61 25 104.5t66 71.5t93 41.5t106 13.5q57 0 108 -11.5t89 -38.5t59.5 -71t19.5 -109h-186q0 39 -25 58t-75 19
q-17 0 -34 -3.5t-30.5 -11.5t-21.5 -20t-8 -29q0 -16 6 -26t21 -17.5t40 -14.5t63 -17q37 -10 74.5 -25.5t68.5 -41t50.5 -62.5t19.5 -89q0 -48 -21 -90.5t-61.5 -74.5t-101 -50.5t-138.5 -18.5q-64 0 -117 16t-91 48t-59 80t-20 111h186z" />
    <glyph glyph-name="T" unicode="T" 
d="M658 554h-210l-117 -554h-186l117 554h-210l32 160h606z" />
    <glyph glyph-name="U" unicode="U" horiz-adv-x="741" 
d="M677 306q-15 -72 -36 -131t-60 -101.5t-101 -65.5t-159 -23q-70 0 -124 16.5t-90.5 44.5t-55.5 65.5t-19 79.5q0 45 6 80t14 70l81 373h186l-83 -382q-5 -26 -11.5 -53t-6.5 -56q0 -40 28 -62.5t79 -22.5q48 0 77.5 16.5t47.5 45t28.5 66.5t20.5 80l77 368h186z" />
    <glyph glyph-name="V" unicode="V" 
d="M61 714h187l29 -529h2l240 529h196l-370 -714h-212z" />
    <glyph glyph-name="W" unicode="W" horiz-adv-x="944" 
d="M63 714h187l-5 -520h2l210 520h170v-520h2l202 520h191l-339 -714h-187v483h-2l-194 -483h-187z" />
    <glyph glyph-name="X" unicode="X" horiz-adv-x="704" 
d="M255 377l-167 337h205l85 -220l164 220h224l-297 -340l176 -374h-211l-95 237l-186 -237h-231z" />
    <glyph glyph-name="Y" unicode="Y" horiz-adv-x="648" 
d="M214 270l-165 444h192l85 -297l199 297h223l-350 -444l-57 -270h-184z" />
    <glyph glyph-name="Z" unicode="Z" horiz-adv-x="667" 
d="M-12 160l447 394h-348l33 160h584l-32 -160l-460 -394h392l-32 -160h-615z" />
    <glyph glyph-name="bracketleft" unicode="[" horiz-adv-x="370" 
d="M150 729h293l-27 -144h-141l-129 -615h136l-27 -144h-294z" />
    <glyph glyph-name="backslash" unicode="\" horiz-adv-x="407" 
d="M483 -15h-164l-395 744h164z" />
    <glyph glyph-name="bracketright" unicode="]" horiz-adv-x="370" 
d="M191 -174h-293l27 144h141l129 615h-136l27 144h294z" />
    <glyph glyph-name="asciicircum" unicode="^" horiz-adv-x="600" 
d="M47 332l162 365h182l162 -365h-160l-93 238l-94 -238h-159z" />
    <glyph glyph-name="underscore" unicode="_" horiz-adv-x="500" 
d="M0 -125v50h500v-50h-500z" />
    <glyph glyph-name="grave" unicode="`" horiz-adv-x="259" 
d="M132 723l99 -146h-114l-162 146h177z" />
    <glyph glyph-name="a" unicode="a" horiz-adv-x="593" 
d="M59 359q10 51 33 84.5t56.5 53.5t75 28.5t89.5 8.5q54 0 98 -7t74.5 -23t47.5 -42t17 -64q0 -26 -6.5 -63t-14.5 -75t-17 -71.5t-13 -51.5q-7 -27 -11.5 -51.5t-4.5 -45.5q0 -14 2.5 -23.5t4.5 -16.5h-167q-2 9 -2.5 14.5t-1 10t-0.5 9.5v16h-2q-24 -35 -62.5 -50
t-94.5 -15q-36 0 -67 8t-53.5 25t-35.5 45t-13 68q0 52 21.5 84.5t57 51.5t82 27.5t96.5 12.5q22 1 46 2t44.5 7t34 19t13.5 39q0 23 -17 36.5t-55 13.5q-41 0 -65 -14t-29 -51h-161zM161 144q0 -31 21.5 -42.5t47.5 -11.5q39 0 63 16.5t38 40t20 48.5t8 43h-1
q-11 -9 -29.5 -12.5t-40.5 -5.5t-44.5 -5t-41 -10.5t-30 -21.5t-11.5 -39z" />
    <glyph glyph-name="b" unicode="b" 
d="M132 714h170l-52 -249h2q28 35 67.5 52t84.5 17q47 0 81.5 -18t57 -48t33.5 -69.5t11 -82.5q0 -62 -18 -121t-52.5 -106t-85.5 -75.5t-117 -28.5q-60 0 -96 20t-56 68h-2l-15 -73h-162zM417 306q0 45 -21 71.5t-64 26.5q-38 0 -64 -19t-42 -48t-22.5 -63t-6.5 -65
q0 -41 21.5 -67.5t63.5 -26.5q36 0 61.5 19.5t42 48t24 62t7.5 61.5z" />
    <glyph glyph-name="c" unicode="c" horiz-adv-x="574" 
d="M386 330q1 37 -21 59q-18 18 -55 20q-38 1 -63 -15.5t-40 -43.5t-21.5 -59t-6.5 -62q0 -57 21.5 -88t64.5 -31q41 0 65 24t34 64h165q-12 -56 -36.5 -96t-59.5 -66t-79.5 -38.5t-95.5 -12.5q-54 0 -99.5 14t-79 42t-52 70.5t-18.5 99.5q0 69 22 128t62 102.5t97 68
t128 24.5q49 0 91.5 -12.5t74 -37.5t49.5 -63.5t18 -90.5h-165z" />
    <glyph glyph-name="d" unicode="d" 
d="M504 0h-165l14 64h-2q-26 -42 -64 -60.5t-87 -18.5q-51 0 -87 17t-59 46.5t-34 70t-11 87.5q0 63 18 122t52.5 105t86 73.5t119.5 27.5q54 0 90.5 -20t51.5 -64h2l54 264h170zM265 115q36 0 61 19t40.5 48t23 62.5t7.5 63.5q0 43 -22.5 69.5t-64.5 26.5q-36 0 -61 -18
t-40.5 -45.5t-22.5 -61t-7 -63.5q0 -41 19.5 -71t66.5 -30z" />
    <glyph glyph-name="e" unicode="e" horiz-adv-x="611" 
d="M391 313q4 44 -16 75t-63 31q-53 0 -82 -28.5t-43 -77.5h204zM175 218q-1 -8 -1.5 -15t-0.5 -20q8 -83 92 -83q44 0 66.5 15.5t32.5 41.5h166q-15 -47 -42 -79.5t-62 -53t-78 -30t-90 -9.5q-54 0 -99.5 14t-79 42t-52 70.5t-18.5 99.5q0 69 22 128t62 102.5t97 68
t128 24.5q50 0 93.5 -14.5t75.5 -43t50 -71t18 -98.5q0 -46 -6 -89h-374z" />
    <glyph glyph-name="f" unicode="f" horiz-adv-x="370" 
d="M100 409h-83l23 110h83q7 27 13.5 56t20.5 56q13 26 32.5 43t42.5 27t49 14t52 4q32 0 58.5 -2t49.5 -6l-24 -120q-12 1 -23 2t-22 1q-23 0 -37.5 -6t-22.5 -16.5t-12 -24t-7 -28.5h99l-23 -110h-99l-86 -409h-170z" />
    <glyph glyph-name="g" unicode="g" horiz-adv-x="611" 
d="M261 140q31 0 54.5 13.5t39 36t23 50.5t7.5 58q0 45 -19.5 75.5t-61.5 30.5q-33 0 -56.5 -14.5t-39 -38t-23 -52.5t-7.5 -58q0 -21 4.5 -39t14 -32t25.5 -22t39 -8zM146 -15q0 -29 19 -46q19 -16 49 -16q40 0 62 14t34 37t18 52.5t13 60.5h-2q-20 -32 -59.5 -47
t-76.5 -15q-44 0 -80 15t-61.5 41.5t-39.5 63t-14 80.5q0 56 16 111t48 99t78.5 71.5t108.5 27.5q25 0 49.5 -4t45.5 -14.5t37.5 -27.5t26.5 -42h2l14 73h163l-87 -419q-17 -82 -40.5 -136.5t-58.5 -86.5t-85.5 -45.5t-121.5 -13.5q-42 0 -83 7t-73.5 26t-52.5 51.5
t-19 82.5h170z" />
    <glyph glyph-name="h" unicode="h" 
d="M141 714h170l-55 -256l2 -2q9 13 24.5 27t38 25t51.5 18.5t63 7.5q70 0 109.5 -39.5t39.5 -106.5q0 -26 -6.5 -59t-11.5 -53l-62 -276h-170l59 275q4 18 7 34.5t3 31.5q0 31 -17.5 47t-44.5 16q-39 0 -62.5 -17t-37.5 -43.5t-21 -59t-14 -64.5l-46 -220h-170z" />
    <glyph glyph-name="i" unicode="i" horiz-adv-x="296" 
d="M282 584h-170l27 130h170zM98 519h170l-108 -519h-170z" />
    <glyph glyph-name="j" unicode="j" horiz-adv-x="296" 
d="M282 584h-170l27 130h170zM-105 -44h39q34 0 45 19t18 54l102 490h169l-100 -482q-12 -59 -27 -99.5t-39.5 -65t-61 -35.5t-92.5 -11h-82z" />
    <glyph glyph-name="k" unicode="k" horiz-adv-x="574" 
d="M140 714h170l-78 -370h2l177 175h210l-235 -204l130 -315h-185l-78 209l-60 -50l-33 -159h-170z" />
    <glyph glyph-name="l" unicode="l" horiz-adv-x="296" 
d="M139 714h170l-149 -714h-170z" />
    <glyph glyph-name="m" unicode="m" horiz-adv-x="944" 
d="M98 519h164l-14 -67h2q29 37 74.5 59.5t96.5 22.5q23 0 45 -4.5t40 -15t30 -27.5t17 -42q35 43 75 66t97 23q36 0 66.5 -8t53 -24.5t35 -43t12.5 -62.5q0 -31 -4.5 -57t-9.5 -47l-66 -292h-170l58 276q4 14 7.5 35t3.5 38q0 29 -16 42t-41 13t-43 -9.5t-31 -26.5
t-21.5 -40.5t-14.5 -51.5l-58 -276h-170l56 268q5 19 8.5 41.5t3.5 39.5q0 23 -13.5 39t-40.5 16q-47 0 -71.5 -27.5t-35.5 -79.5l-63 -297h-170z" />
    <glyph glyph-name="n" unicode="n" 
d="M98 519h170l-14 -63h2q9 13 25.5 27t39 25t51.5 18.5t63 7.5q70 0 109.5 -39.5t39.5 -106.5q0 -26 -6.5 -59t-11.5 -53l-62 -276h-170l59 275q4 18 7 34.5t3 31.5q0 31 -17.5 47t-44.5 16q-39 0 -62.5 -17t-37.5 -43.5t-21 -59t-14 -64.5l-46 -220h-170z" />
    <glyph glyph-name="o" unicode="o" horiz-adv-x="611" 
d="M179 217q0 -45 19 -76t64 -31q36 0 61 18t40.5 46t22.5 61t7 63q0 49 -19 80t-67 31q-35 0 -59 -20t-39.5 -49.5t-22.5 -63t-7 -59.5zM9 211q0 69 22 128t62 102.5t97 68t128 24.5q53 0 98 -15t77.5 -44t51 -71.5t18.5 -98.5q0 -69 -21 -128t-61 -101.5t-96.5 -66.5
t-126.5 -24q-54 0 -99.5 14t-79 42t-52 70.5t-18.5 99.5z" />
    <glyph glyph-name="p" unicode="p" 
d="M287 115q35 0 59.5 18t40 45.5t22.5 60t7 61.5q0 17 -3 35.5t-12.5 33.5t-27 25t-46.5 10q-34 0 -58 -18.5t-39.5 -47t-22.5 -61.5t-7 -61q0 -41 20 -71t67 -30zM91 519h165l-12 -61h2q29 38 65 57t90 19q49 0 84 -18.5t57.5 -49.5t33 -71.5t10.5 -85.5q0 -57 -17 -115
t-50.5 -104.5t-83.5 -75.5t-116 -29q-51 0 -89.5 18t-61.5 64h-2l-49 -241h-170z" />
    <glyph glyph-name="q" unicode="q" 
d="M264 115q35 0 60 18t41.5 45t24 59.5t7.5 61.5q0 42 -20.5 73.5t-66.5 31.5q-36 0 -60.5 -19t-40.5 -47.5t-23 -62t-7 -61.5q0 -42 20 -70.5t65 -28.5zM465 -174h-170l48 230h-2q-31 -37 -67.5 -54t-83.5 -17q-90 0 -135.5 58.5t-45.5 154.5q0 62 17.5 122t52 107.5
t86 77t120.5 29.5q61 0 94.5 -22.5t51.5 -67.5h2l15 75h162z" />
    <glyph glyph-name="r" unicode="r" horiz-adv-x="426" 
d="M98 519h165l-19 -85h2q26 46 68.5 73t94.5 27q17 0 30.5 -1.5t26.5 -7.5l-33 -150q-17 5 -35 7.5t-42 2.5q-35 0 -59.5 -10.5t-42 -30t-28 -46.5t-16.5 -60l-50 -238h-170z" />
    <glyph glyph-name="s" unicode="s" horiz-adv-x="537" 
d="M145 170q-1 -18 4.5 -31t14.5 -23q12 -11 29.5 -16t37.5 -5q11 0 24 2.5t24.5 8.5t19.5 16t8 26q0 17 -7.5 26.5t-23 16.5t-39 12t-54.5 13q-29 6 -54.5 15.5t-45.5 25t-31.5 40t-11.5 61.5q0 52 23.5 86t60.5 54t81 28t86 8q40 0 79.5 -7.5t70.5 -26.5t49 -51.5
t15 -82.5h-154q2 29 -13 45q-8 9 -22.5 13.5t-28.5 4.5q-13 0 -26.5 -2.5t-25 -8t-18.5 -15t-7 -23.5t9.5 -23t25.5 -15t37 -10.5t44 -10.5q36 -9 64 -19t47.5 -26t29.5 -40.5t10 -62.5q0 -60 -24.5 -96.5t-63 -57t-85.5 -27.5t-93 -7q-50 0 -90 10t-68.5 32t-45 57
t-18.5 86h156z" />
    <glyph glyph-name="t" unicode="t" horiz-adv-x="389" 
d="M299 519h107l-23 -110h-108l-41 -196q-4 -17 -6.5 -32.5t-2.5 -29.5q0 -19 15.5 -23t37.5 -4q14 0 26.5 1t26.5 2l-26 -127q-26 -2 -50 -4t-49 -2q-30 0 -58.5 3t-51.5 12.5t-37 27t-14 47.5q0 27 5 59t15 78l40 188h-86l23 110h86l33 156h170z" />
    <glyph glyph-name="u" unicode="u" 
d="M492 0h-163l15 71h-2q-29 -44 -73 -65t-97 -21t-84 17.5t-46.5 40t-20 45t-4.5 33.5q0 26 3 46t7 37l67 315h170l-59 -288q-7 -34 -7 -62q0 -23 13.5 -38.5t42.5 -15.5q54 0 80.5 34t37.5 89l60 281h170z" />
    <glyph glyph-name="v" unicode="v" horiz-adv-x="537" 
d="M27 519h172l21 -366h2l169 366h178l-280 -519h-198z" />
    <glyph glyph-name="w" unicode="w" horiz-adv-x="833" 
d="M35 519h169l13 -360h2l149 360h164l11 -360h2l151 360h179l-270 -519h-176l-11 352h-2l-150 -352h-176z" />
    <glyph glyph-name="x" unicode="x" horiz-adv-x="537" 
d="M167 275l-118 244h176l49 -134l95 134h189l-212 -252l131 -267h-175l-65 153l-117 -153h-188z" />
    <glyph glyph-name="y" unicode="y" horiz-adv-x="537" 
d="M-24 -40q17 -2 32.5 -3t32.5 -1q19 0 30.5 4t19 11.5t13 18t13.5 23.5l-96 506h173l39 -365h2l155 365h178l-264 -495q-30 -54 -52.5 -91.5t-50 -61.5t-67 -34.5t-103.5 -10.5q-21 0 -41.5 2t-41.5 4z" />
    <glyph glyph-name="z" unicode="z" horiz-adv-x="537" 
d="M-14 125l314 269h-243l26 125h451l-26 -125l-315 -269h282l-27 -125h-490z" />
    <glyph glyph-name="braceleft" unicode="{" horiz-adv-x="370" 
d="M409 609h-32q-20 0 -33 -7t-21 -17t-12 -21.5t-6 -19.5l-34 -161q-6 -32 -22 -52t-35.5 -31.5t-39.5 -16t-35 -5.5v-2q9 -1 24.5 -3.5t30 -8.5t25 -17t10.5 -30t-2 -34t-6 -32l-26 -124q-4 -18 -6.5 -31.5t-2.5 -24.5q0 -15 13 -20t33 -5h39l-25 -120h-112
q-45 0 -77 21.5t-32 71.5q0 12 1 23t4 25l33 168q5 23 5 41q0 20 -19 30.5t-64 10.5l25 120q9 0 25.5 2t34 8t31.5 18t19 33l39 188q8 40 24.5 67.5t38 44.5t47.5 24t53 7h112z" />
    <glyph glyph-name="bar" unicode="|" horiz-adv-x="222" 
d="M39 786h144v-1000h-144v1000z" />
    <glyph glyph-name="braceright" unicode="}" horiz-adv-x="370" 
d="M-70 -54h32q20 0 33 7t21 17t12 21.5t6 19.5l34 161q6 32 22 51.5t35.5 31t39.5 16t35 5.5v2q-9 1 -24.5 3.5t-30 8.5t-25 17.5t-10.5 30.5t2 34t6 32l26 124q4 18 6.5 31.5t2.5 24.5q0 15 -13 20t-33 5h-39l25 120h112q45 0 77 -21.5t32 -71.5q0 -12 -1 -23t-4 -25
l-33 -168q-5 -23 -5 -42q0 -20 19 -30.5t64 -10.5l-25 -120q-9 0 -25.5 -2t-34 -8t-32 -18t-18.5 -33l-39 -187q-8 -41 -24.5 -68t-38.5 -44t-47.5 -24t-52.5 -7h-112z" />
    <glyph glyph-name="asciitilde" unicode="~" horiz-adv-x="600" 
d="M531 233q-11 -16 -23.5 -31.5t-27 -27.5t-33 -19.5t-41.5 -7.5q-28 0 -52.5 9.5t-49.5 23.5q-24 14 -52 24.5t-63 10.5q-17 0 -29.5 -6.5t-23 -16.5t-18 -23t-13.5 -26l-36 130q8 16 19.5 31.5t26.5 27.5t34.5 19.5t44.5 7.5q26 0 54 -9.5t57 -22.5q28 -12 55 -24t47 -12
q15 0 27.5 6.5t23 16.5t19.5 23l18 26z" />
    <glyph glyph-name="uni00A0" unicode="&#xa0;" horiz-adv-x="315" 
 />
    <glyph glyph-name="exclamdown" unicode="&#xa1;" horiz-adv-x="315" 
d="M-3 5l111 298h83l-17 -298l-38 -179h-176zM249 358h-175l37 176h175z" />
    <glyph glyph-name="cent" unicode="&#xa2;" 
d="M225 -11q-90 13 -140.5 72t-50.5 159q0 72 22 130t62.5 99t96.5 63t124 22l17 79h57l-18 -83q85 -13 132 -63.5t49 -137.5h-165q1 27 -10 47.5t-32 28.5l-62 -295q33 5 53 29t29 61h165q-23 -111 -95 -163t-179 -52l-21 -101h-56zM313 409q-49 -10 -76 -52
q-18 -28 -25.5 -61.5t-7.5 -66.5q0 -15 2 -31.5t7 -32.5t14.5 -29t24.5 -20z" />
    <glyph glyph-name="sterling" unicode="&#xa3;" 
d="M456 485q2 8 3 15.5t1 15.5q0 33 -22 51t-61 18q-42 0 -66.5 -25t-24.5 -66q0 -23 5.5 -45.5t11.5 -45.5h135l-24 -105h-103q6 -51 -18.5 -90t-64.5 -71v-2q17 9 36 11.5t37 2.5q33 0 63.5 -10t62.5 -10q26 0 49.5 9.5t44.5 25.5l45 -122q-22 -17 -41.5 -28t-39.5 -17.5
t-41.5 -9t-47.5 -2.5q-27 0 -54 6t-53.5 13.5t-53.5 13.5t-54 6q-35 0 -60 -8.5t-54 -26.5l-48 106q30 18 55 38t41.5 44.5t23.5 54t2 66.5h-100l22 105h64q-10 24 -16 50t-6 53q0 52 25 93.5t64.5 70.5t88 44t95.5 15q52 0 97 -12t78 -36t52 -60.5t19 -85.5q0 -13 -2 -25
t-4 -25h-162z" />
    <glyph glyph-name="currency" unicode="&#xa4;" 
d="M194 349q0 -30 9.5 -55t26 -43t38.5 -27.5t47 -9.5t47 9.5t38.5 27.5t26 43t9.5 55t-9.5 55t-26 43t-38.5 27.5t-47 9.5t-47 -9.5t-38.5 -27.5t-26 -43t-9.5 -55zM58 147l44 45q-25 33 -38.5 72.5t-13.5 84.5q0 43 13 81.5t36 72.5l-45 44l60 60l45 -44q32 24 71.5 37.5
t84.5 13.5t84.5 -13.5t71.5 -37.5l43 44l60 -60l-44 -44q23 -32 36.5 -71t13.5 -83t-13.5 -83t-36.5 -71l44 -44l-60 -60l-44 44q-32 -24 -71 -37.5t-84 -13.5q-43 0 -81.5 12.5t-70.5 35.5l-45 -45z" />
    <glyph glyph-name="yen" unicode="&#xa5;" 
d="M180 131h-176l22 105h176l6 31l-11 41h-156l21 105h104l-87 301h186l65 -301h2l191 301h186l-212 -301h103l-21 -105h-156l-29 -41l-6 -31h176l-22 -105h-176l-27 -131h-186z" />
    <glyph glyph-name="brokenbar" unicode="&#xa6;" horiz-adv-x="222" 
d="M183 411h-144v250h144v-250zM39 161h144v-250h-144v250z" />
    <glyph glyph-name="section" unicode="&#xa7;" 
d="M438 227q0 23 -17.5 41.5t-34.5 30.5l-79 55q-17 12 -30.5 21.5t-35.5 9.5q-26 0 -43.5 -13t-17.5 -39q0 -25 13 -38.5t29 -24.5l102 -71q10 -6 16 -10.5t11.5 -8.5t12.5 -6t19 -2q23 0 39 16.5t16 38.5zM168 23q-1 -31 17 -54q21 -27 59 -27q33 0 54.5 13t21.5 45
q0 29 -22 50t-54 41l-126 82q-38 24 -60 58.5t-22 82.5q0 30 10.5 56.5t29.5 46.5t44 32.5t55 15.5q-28 37 -28 84q0 48 21 82t55 55.5t76 32t83 10.5t78 -9.5t65 -28t44.5 -47t16.5 -67.5v-22q0 -10 1 -21h-146q1 5 1 9v10q0 21 -16 35q-18 16 -49 16q-27 0 -48.5 -15
t-21.5 -44q0 -15 5.5 -25t16 -18.5t27 -18t39.5 -22.5l97 -59q40 -25 65 -60t25 -91q0 -27 -10 -53t-27.5 -47t-42.5 -35.5t-55 -18.5q18 -17 25.5 -43t7.5 -49q0 -58 -26 -94.5t-64.5 -57.5t-81.5 -28.5t-76 -7.5q-43 0 -83.5 13t-71 39t-47 64.5t-10.5 89.5h148z" />
    <glyph glyph-name="dieresis" unicode="&#xa8;" horiz-adv-x="259" 
d="M201 585l27 130h154l-27 -130h-154zM-12 585l27 130h154l-27 -130h-154z" />
    <glyph glyph-name="copyright" unicode="&#xa9;" horiz-adv-x="800" 
d="M593 303q-5 -39 -21.5 -68t-40.5 -49t-53.5 -30t-62.5 -10q-47 0 -85.5 16.5t-65.5 45.5t-42 68t-15 84q0 46 14 85.5t41 68t65 45t86 16.5q34 0 63.5 -10t52.5 -29t38.5 -48t21.5 -66h-90q-7 32 -31.5 45t-54.5 13q-43 0 -67 -32t-24 -86q0 -52 26 -86.5t67 -34.5
q35 0 58.5 14.5t25.5 47.5h94zM400 80q53 0 100.5 20.5t83 57t56.5 87.5t21 112t-21 112t-56.5 87.5t-83 57t-100.5 20.5q-54 0 -101.5 -20.5t-83 -57t-56 -87.5t-20.5 -112t20.5 -112t56 -87.5t83 -57t101.5 -20.5zM400 -15q-75 0 -144.5 25t-123.5 72.5t-86 116.5t-32 158
q0 88 32 157.5t86 117t123.5 72.5t144.5 25t144.5 -25t123 -72.5t86 -117t32.5 -157.5q0 -89 -32.5 -158t-86 -116.5t-123 -72.5t-144.5 -25z" />
    <glyph glyph-name="ordfeminine" unicode="&#xaa;" horiz-adv-x="376" 
d="M256 362q-3 13 -1 29q-30 -16 -59 -27t-64 -11q-18 0 -37 3t-34.5 12t-25.5 26t-10 45q0 35 24 66t63 41q33 11 70.5 14t75.5 10q15 3 24.5 9t9.5 20t-14.5 21t-31.5 7q-23 0 -39 -9t-23 -26h-118q8 38 27 59.5t44 33.5q25 11 56 16t71 5q49 0 87.5 -7.5t55.5 -33.5
q12 -17 12 -43q0 -12 -4 -34.5t-9.5 -48t-10.5 -49t-8 -36.5q-4 -20 -7 -42t1 -50h-125zM276 520q-20 -7 -36.5 -10t-35.5 -7q-20 -4 -37 -12.5t-17 -27.5q0 -15 11 -23t30 -8q35 0 54 17t27 52l4 19v0z" />
    <glyph glyph-name="guillemotleft" unicode="&#xab;" horiz-adv-x="444" 
d="M207 198l31 148l186 122l-29 -139l-106 -70l74 -80l-25 -121zM10 198l31 148l186 122l-29 -139l-106 -70l74 -80l-25 -121z" />
    <glyph glyph-name="logicalnot" unicode="&#xac;" horiz-adv-x="600" 
d="M408 305h-360v144h504v-329h-144v185z" />
    <glyph glyph-name="uni00AD" unicode="&#xad;" horiz-adv-x="407" 
d="M16 200l30 144h308l-30 -144h-308z" />
    <glyph glyph-name="registered" unicode="&#xae;" horiz-adv-x="800" 
d="M400 80q53 0 100.5 20.5t83 57t56.5 87.5t21 112t-21 112t-56.5 87.5t-83 57t-100.5 20.5q-54 0 -101.5 -20.5t-83 -57t-56 -87.5t-20.5 -112t20.5 -112t56 -87.5t83 -57t101.5 -20.5zM400 -15q-75 0 -144.5 25t-123.5 72.5t-86 116.5t-32 158q0 88 32 157.5t86 117
t123.5 72.5t144.5 25t144.5 -25t123 -72.5t86 -117t32.5 -157.5q0 -89 -32.5 -158t-86 -116.5t-123 -72.5t-144.5 -25zM417 394q26 0 42 10t16 42q0 15 -8 23.5t-20 13t-25.5 5.5t-24.5 1h-54v-95h74zM343 156h-95v403h151q91 0 131 -24.5t40 -88.5t-31.5 -89t-83.5 -27
l103 -174h-95l-92 168h-28v-168z" />
    <glyph glyph-name="macron" unicode="&#xaf;" horiz-adv-x="259" 
d="M-11 611l16 79h381l-16 -79h-381z" />
    <glyph glyph-name="degree" unicode="&#xb0;" horiz-adv-x="400" 
d="M227 636q-37 0 -59 -26.5t-22 -63.5t22 -63.5t59 -26.5t59 26.5t22 63.5t-22 63.5t-59 26.5zM67 546q0 33 12.5 62t34.5 51t51 34.5t62 12.5t62 -12.5t51 -34.5t34.5 -51t12.5 -62t-12.5 -62t-34.5 -51t-51 -34.5t-62 -12.5t-62 12.5t-51 34.5t-34.5 51t-12.5 62z" />
    <glyph glyph-name="plusminus" unicode="&#xb1;" horiz-adv-x="600" 
d="M48 132h504v-144h-504v144zM228 518h144v-101h180v-144h-180v-101h-144v101h-180v144h180v101z" />
    <glyph glyph-name="twosuperior" unicode="&#xb2;" horiz-adv-x="378" 
d="M-8 278q10 45 36 82.5t65 63.5q35 23 70 40.5t64 32.5q11 6 23.5 13t23.5 16.5t18.5 21t7.5 25.5q0 20 -14.5 29t-32.5 9q-38 0 -57.5 -25t-27.5 -59h-125q8 41 27 74t48 56t66.5 36t87.5 13q25 0 52 -4.5t49.5 -17t37 -34t14.5 -55.5q0 -25 -8 -46t-22 -38.5
t-32.5 -31.5t-38.5 -26q-14 -8 -34 -17t-40.5 -19.5t-38.5 -21.5t-28 -22h194l-20 -95h-365z" />
    <glyph glyph-name="threesuperior" unicode="&#xb3;" horiz-adv-x="378" 
d="M129 434q-2 -7 -3 -13.5t-1 -13.5q0 -23 18.5 -33t44.5 -10q12 0 26 2.5t26 8.5t19.5 15.5t7.5 23.5t-7 22t-17 12.5t-22 6t-21 1.5h-14t-15 -1l17 82q8 0 15 -0.5t14 -0.5q10 0 23 1.5t24.5 6t19.5 11.5t8 18q0 17 -14 27.5t-37 10.5q-28 0 -48 -15t-25 -41h-125
q18 72 72 111q29 20 65.5 30t79.5 10q23 0 50.5 -3.5t51 -15t39.5 -32t16 -53.5q0 -35 -21 -64.5t-65 -35.5v-2q34 -5 47.5 -25t13.5 -53q0 -41 -19 -70t-50 -47.5t-71.5 -27t-82.5 -8.5q-28 0 -58 4.5t-54.5 17t-40.5 34t-16 55.5q0 15 2 30.5t4 23.5h123z" />
    <glyph glyph-name="acute" unicode="&#xb4;" horiz-adv-x="259" 
d="M225 723h185l-179 -146h-114z" />
    <glyph glyph-name="mu" unicode="&#xb5;" 
d="M500 0h-163l15 71h-2q-12 -18 -29 -34t-35 -27.5t-36 -18t-32 -6.5q-34 0 -53 22l-38 -181h-170l145 693h170l-59 -288q-7 -34 -7 -62q0 -23 13.5 -38.5t42.5 -15.5q54 0 80.5 34t37.5 89l60 281h170z" />
    <glyph glyph-name="paragraph" unicode="&#xb6;" horiz-adv-x="620" 
d="M252 365q-31 0 -65 5t-62 18.5t-46.5 37.5t-18.5 62q0 65 23 108.5t62.5 69.5t91.5 37t110 11h314l-183 -883h-120l165 793h-97l-165 -793h-120z" />
    <glyph glyph-name="periodcentered" unicode="&#xb7;" horiz-adv-x="315" 
d="M65 281q0 19 7.5 36t20 29.5t29.5 20t36 7.5t36 -7.5t29.5 -20t20 -29.5t7.5 -36t-7.5 -36t-20 -29.5t-29.5 -20t-36 -7.5t-36 7.5t-29.5 20t-20 29.5t-7.5 36z" />
    <glyph glyph-name="cedilla" unicode="&#xb8;" horiz-adv-x="259" 
d="M-53 -162q22 -11 38 -15.5t38 -4.5q23 0 40 10t17 33q0 16 -12.5 23.5t-26.5 7.5q-20 0 -35 -7l-22 25l68 90h57l-52 -63v-2q8 2 15.5 2.5t15.5 0.5q32 0 57.5 -20.5t25.5 -54.5q0 -30 -13.5 -49t-33 -30t-41.5 -14.5t-48 -3.5q-28 0 -56.5 7t-56.5 21z" />
    <glyph glyph-name="onesuperior" unicode="&#xb9;" horiz-adv-x="378" 
d="M143 278l51 245h-109l19 90q24 0 48 4t45 13.5t36.5 26t21.5 40.5h100l-87 -419h-125z" />
    <glyph glyph-name="ordmasculine" unicode="&#xba;" horiz-adv-x="387" 
d="M252 611q-22 0 -39 -9t-28.5 -24t-17.5 -34t-6 -38q0 -27 14 -42.5t43 -15.5q22 0 39 9.5t29 24.5t18 33.5t6 36.5q0 24 -13.5 41.5t-44.5 17.5zM272 706q32 0 61.5 -7.5t52 -23t36 -40.5t13.5 -60q0 -51 -19 -92t-51 -70t-75 -44.5t-92 -15.5q-32 0 -61.5 7.5t-52 24
t-35.5 41.5t-13 61q0 50 19 90.5t51.5 69t75 44t90.5 15.5z" />
    <glyph glyph-name="guillemotright" unicode="&#xbb;" horiz-adv-x="444" 
d="M407 328l-31 -148l-186 -122l29 139l106 70l-74 80l25 121zM210 328l-31 -148l-186 -122l29 139l106 70l-74 80l25 121z" />
    <glyph glyph-name="onequarter" unicode="&#xbc;" horiz-adv-x="945" 
d="M742 319h-2l-142 -137h116zM675 0l18 87h-206l19 88l252 244h129l-49 -237h62l-20 -95h-62l-18 -87h-125zM99 278l51 245h-109l19 90q24 0 48 4t45 13.5t36.5 26t21.5 40.5h100l-87 -419h-125zM166 -27l393 751h103l-393 -751h-103z" />
    <glyph glyph-name="onehalf" unicode="&#xbd;" horiz-adv-x="945" 
d="M113 278l51 245h-109l19 90q24 0 48 4t45 13.5t36.5 26t21.5 40.5h100l-87 -419h-125zM483 0q10 45 36 82.5t65 63.5q35 23 70 40.5t64 32.5q11 6 23.5 13t23.5 16.5t18.5 21t7.5 25.5q0 20 -14.5 29t-32.5 9q-38 0 -57.5 -25t-27.5 -59h-125q8 41 27 74t48 56t66.5 36
t87.5 13q25 0 52 -4.5t49.5 -17t37 -34t14.5 -55.5q0 -25 -8 -46t-22 -38.5t-32.5 -31.5t-38.5 -26q-14 -8 -34 -17t-40.5 -19.5t-38.5 -21.5t-28 -22h194l-20 -95h-365zM175 -27l393 751h103l-393 -751h-103z" />
    <glyph glyph-name="threequarters" unicode="&#xbe;" horiz-adv-x="945" 
d="M132 434q-2 -7 -3 -13.5t-1 -13.5q0 -23 18.5 -33t44.5 -10q12 0 26 2.5t26 8.5t19.5 15.5t7.5 23.5t-7 22t-17 12.5t-22 6t-21 1.5h-14t-15 -1l17 82q8 0 15 -0.5t14 -0.5q10 0 23 1.5t24.5 6t19.5 11.5t8 18q0 17 -14 27.5t-37 10.5q-28 0 -48 -15t-25 -41h-125
q18 72 72 111q29 20 65.5 30t79.5 10q23 0 50.5 -3.5t51 -15t39.5 -32t16 -53.5q0 -35 -21 -64.5t-65 -35.5v-2q34 -5 47.5 -25t13.5 -53q0 -41 -19 -70t-50 -47.5t-71.5 -27t-82.5 -8.5q-28 0 -58 4.5t-54.5 17t-40.5 34t-16 55.5q0 15 2 30.5t4 23.5h123zM757 319h-2
l-142 -137h116zM690 0l18 87h-206l19 88l252 244h129l-49 -237h62l-20 -95h-62l-18 -87h-125zM246 -27l393 751h103l-393 -751h-103z" />
    <glyph glyph-name="questiondown" unicode="&#xbf;" horiz-adv-x="574" 
d="M387 358h-175l37 176h175zM478 47q-2 -112 -77 -174t-211 -62q-109 0 -169 46t-60 133q0 52 14.5 85t38.5 55t56 38t67 35q31 17 50 41.5t21 55.5h158q-5 -40 -15.5 -69t-29.5 -51.5t-48 -42t-71 -41.5q-30 -15 -50.5 -36.5t-20.5 -60.5q0 -29 20.5 -43.5t52.5 -14.5
q53 0 76.5 27.5t27.5 78.5h170z" />
    <glyph glyph-name="Agrave" unicode="&#xc0;" horiz-adv-x="704" 
d="M262 266h163l-27 257h-2zM340 714h188l117 -714h-187l-17 128h-251l-72 -128h-195zM422 909l99 -146h-114l-162 146h177z" />
    <glyph glyph-name="Aacute" unicode="&#xc1;" horiz-adv-x="704" 
d="M262 266h163l-27 257h-2zM340 714h188l117 -714h-187l-17 128h-251l-72 -128h-195zM464 909h185l-179 -146h-114z" />
    <glyph glyph-name="Acircumflex" unicode="&#xc2;" horiz-adv-x="704" 
d="M262 266h163l-27 257h-2zM340 714h188l117 -714h-187l-17 128h-251l-72 -128h-195zM250 763l145 146h146l83 -146h-125l-45 82l-76 -82h-128z" />
    <glyph glyph-name="Atilde" unicode="&#xc3;" horiz-adv-x="704" 
d="M262 266h163l-27 257h-2zM340 714h188l117 -714h-187l-17 128h-251l-72 -128h-195zM621 904q-5 -24 -13.5 -47.5t-22 -42.5t-33.5 -31t-48 -12q-15 0 -32 4t-34 10l-41 14q-21 7 -28.5 9t-15.5 2q-11 0 -22.5 -10.5t-15.5 -30.5h-78q3 23 12.5 46.5t25 42.5t36.5 31
t47 12q14 0 27.5 -4t27.5 -9l45 -17q25 -11 48 -11q17 0 25 15t12 29h78z" />
    <glyph glyph-name="Adieresis" unicode="&#xc4;" horiz-adv-x="704" 
d="M262 266h163l-27 257h-2zM340 714h188l117 -714h-187l-17 128h-251l-72 -128h-195zM471 771l27 130h154l-27 -130h-154zM258 771l27 130h154l-27 -130h-154z" />
    <glyph glyph-name="Aring" unicode="&#xc5;" horiz-adv-x="704" 
d="M262 266h163l-27 257h-2zM340 714h188l117 -714h-187l-17 128h-251l-72 -128h-195zM446 743q-22 0 -41.5 7.5t-34 21.5t-23 33.5t-8.5 40.5q0 22 8.5 41.5t23 33t34 21t41.5 7.5t41.5 -7.5t34 -20.5t23 -33t8.5 -42t-8.5 -41.5t-23 -33t-34 -21t-41.5 -7.5zM446 794
q22 0 37 15.5t15 36.5q0 23 -15 37.5t-37 14.5t-37 -14.5t-15 -37.5q0 -21 15 -36.5t37 -15.5z" />
    <glyph glyph-name="AE" unicode="&#xc6;" horiz-adv-x="1019" 
d="M497 554h-22l-189 -288h151zM388 714h656l-34 -160h-330l-24 -114h307l-30 -144h-307l-28 -136h336l-34 -160h-519l27 128h-213l-84 -128h-215z" />
    <glyph glyph-name="Ccedilla" unicode="&#xc7;" horiz-adv-x="741" 
d="M182 -162q22 -11 38 -15.5t38 -4.5q23 0 40 10t17 33q0 16 -12.5 23.5t-26.5 7.5q-20 0 -35 -7l-22 25l60 79q-21 4 -43 9q-51 13 -95.5 48.5t-74 98.5t-29.5 162q0 86 26 163t75 134.5t120 91t162 33.5q67 0 122.5 -16t94.5 -49.5t60.5 -85t20.5 -121.5h-186
q3 25 -2.5 46.5t-19.5 37.5t-37 25.5t-56 9.5q-53 0 -90 -27t-60 -68.5t-33.5 -90t-10.5 -90.5q0 -35 6 -64.5t21 -51t40.5 -34t64.5 -12.5q59 0 100 36t51 90h186q-30 -138 -118 -208t-243 -71l-39 -48v-2q8 2 15.5 2.5t15.5 0.5q32 0 57.5 -20.5t25.5 -54.5
q0 -30 -13.5 -49t-33 -30t-41.5 -14.5t-48 -3.5q-28 0 -56.5 7t-56.5 21z" />
    <glyph glyph-name="Egrave" unicode="&#xc8;" horiz-adv-x="685" 
d="M140 714h570l-34 -160h-384l-23 -114h354l-30 -144h-354l-28 -136h387l-34 -160h-572zM426 909l99 -146h-114l-162 146h177z" />
    <glyph glyph-name="Eacute" unicode="&#xc9;" horiz-adv-x="685" 
d="M140 714h570l-34 -160h-384l-23 -114h354l-30 -144h-354l-28 -136h387l-34 -160h-572zM457 909h185l-179 -146h-114z" />
    <glyph glyph-name="Ecircumflex" unicode="&#xca;" horiz-adv-x="685" 
d="M140 714h570l-34 -160h-384l-23 -114h354l-30 -144h-354l-28 -136h387l-34 -160h-572zM239 763l145 146h146l83 -146h-125l-45 82l-76 -82h-128z" />
    <glyph glyph-name="Edieresis" unicode="&#xcb;" horiz-adv-x="685" 
d="M140 714h570l-34 -160h-384l-23 -114h354l-30 -144h-354l-28 -136h387l-34 -160h-572zM459 771l27 130h154l-27 -130h-154zM246 771l27 130h154l-27 -130h-154z" />
    <glyph glyph-name="Igrave" unicode="&#xcc;" horiz-adv-x="315" 
d="M141 714h186l-149 -714h-186zM230 910l99 -146h-114l-162 146h177z" />
    <glyph glyph-name="Iacute" unicode="&#xcd;" horiz-adv-x="315" 
d="M141 714h186l-149 -714h-186zM251 909h185l-179 -146h-114z" />
    <glyph glyph-name="Icircumflex" unicode="&#xce;" horiz-adv-x="315" 
d="M141 714h186l-149 -714h-186zM50 763l145 146h146l83 -146h-125l-45 82l-76 -82h-128z" />
    <glyph glyph-name="Idieresis" unicode="&#xcf;" horiz-adv-x="315" 
d="M141 714h186l-149 -714h-186zM268 771l27 130h154l-27 -130h-154zM55 771l27 130h154l-27 -130h-154z" />
    <glyph glyph-name="Eth" unicode="&#xd0;" horiz-adv-x="759" 
d="M271 440h137l-29 -144h-139l-28 -136h123q60 0 100 24t64 59.5t34 77t10 76.5q0 43 -10 73t-28.5 49t-44.5 27t-58 8h-107zM54 296h-102l32 144h101l58 274h268q69 0 127 -16.5t100.5 -52.5t66.5 -93.5t24 -139.5q0 -83 -25.5 -158t-77.5 -131.5t-130.5 -89.5t-184.5 -33
h-319z" />
    <glyph glyph-name="Ntilde" unicode="&#xd1;" horiz-adv-x="741" 
d="M133 714h191l167 -467h2l89 467h180l-149 -714h-191l-165 467h-2l-91 -467h-180zM639 904q-5 -24 -13.5 -47.5t-22 -42.5t-33.5 -31t-48 -12q-15 0 -32 4t-34 10l-41 14q-21 7 -28.5 9t-15.5 2q-11 0 -22.5 -10.5t-15.5 -30.5h-78q3 23 12.5 46.5t25 42.5t36.5 31t47 12
q14 0 27.5 -4t27.5 -9l45 -17q25 -11 48 -11q17 0 25 15t12 29h78z" />
    <glyph glyph-name="Ograve" unicode="&#xd2;" horiz-adv-x="778" 
d="M219 300q0 -35 8.5 -64.5t26 -51t44.5 -34t64 -12.5q50 0 88 27t63.5 67.5t38.5 88.5t13 90q0 80 -31.5 122.5t-106.5 42.5q-54 0 -93.5 -26.5t-65 -67t-37.5 -89.5t-12 -93zM33 301q0 89 28 167t80 136t126 91.5t166 33.5q31 0 66.5 -4.5t71 -17t68 -33.5t57.5 -54.5
t40 -81t15 -111.5q0 -94 -27 -175t-79 -140t-127 -93t-171 -34q-150 0 -232 83t-82 233zM420 909l99 -146h-114l-162 146h177z" />
    <glyph glyph-name="Oacute" unicode="&#xd3;" horiz-adv-x="778" 
d="M219 300q0 -35 8.5 -64.5t26 -51t44.5 -34t64 -12.5q50 0 88 27t63.5 67.5t38.5 88.5t13 90q0 80 -31.5 122.5t-106.5 42.5q-54 0 -93.5 -26.5t-65 -67t-37.5 -89.5t-12 -93zM33 301q0 89 28 167t80 136t126 91.5t166 33.5q31 0 66.5 -4.5t71 -17t68 -33.5t57.5 -54.5
t40 -81t15 -111.5q0 -94 -27 -175t-79 -140t-127 -93t-171 -34q-150 0 -232 83t-82 233zM476 909h185l-179 -146h-114z" />
    <glyph glyph-name="Ocircumflex" unicode="&#xd4;" horiz-adv-x="778" 
d="M219 300q0 -35 8.5 -64.5t26 -51t44.5 -34t64 -12.5q50 0 88 27t63.5 67.5t38.5 88.5t13 90q0 80 -31.5 122.5t-106.5 42.5q-54 0 -93.5 -26.5t-65 -67t-37.5 -89.5t-12 -93zM33 301q0 89 28 167t80 136t126 91.5t166 33.5q31 0 66.5 -4.5t71 -17t68 -33.5t57.5 -54.5
t40 -81t15 -111.5q0 -94 -27 -175t-79 -140t-127 -93t-171 -34q-150 0 -232 83t-82 233zM271 763l145 146h146l83 -146h-125l-45 82l-76 -82h-128z" />
    <glyph glyph-name="Otilde" unicode="&#xd5;" horiz-adv-x="778" 
d="M219 300q0 -35 8.5 -64.5t26 -51t44.5 -34t64 -12.5q50 0 88 27t63.5 67.5t38.5 88.5t13 90q0 80 -31.5 122.5t-106.5 42.5q-54 0 -93.5 -26.5t-65 -67t-37.5 -89.5t-12 -93zM33 301q0 89 28 167t80 136t126 91.5t166 33.5q31 0 66.5 -4.5t71 -17t68 -33.5t57.5 -54.5
t40 -81t15 -111.5q0 -94 -27 -175t-79 -140t-127 -93t-171 -34q-150 0 -232 83t-82 233zM648 904q-5 -24 -13.5 -47.5t-22 -42.5t-33.5 -31t-48 -12q-15 0 -32 4t-34 10l-41 14q-21 7 -28.5 9t-15.5 2q-11 0 -22.5 -10.5t-15.5 -30.5h-78q3 23 12.5 46.5t25 42.5t36.5 31
t47 12q14 0 27.5 -4t27.5 -9l45 -17q25 -11 48 -11q17 0 25 15t12 29h78z" />
    <glyph glyph-name="Odieresis" unicode="&#xd6;" horiz-adv-x="778" 
d="M219 300q0 -35 8.5 -64.5t26 -51t44.5 -34t64 -12.5q50 0 88 27t63.5 67.5t38.5 88.5t13 90q0 80 -31.5 122.5t-106.5 42.5q-54 0 -93.5 -26.5t-65 -67t-37.5 -89.5t-12 -93zM33 301q0 89 28 167t80 136t126 91.5t166 33.5q31 0 66.5 -4.5t71 -17t68 -33.5t57.5 -54.5
t40 -81t15 -111.5q0 -94 -27 -175t-79 -140t-127 -93t-171 -34q-150 0 -232 83t-82 233zM485 771l27 130h154l-27 -130h-154zM272 771l27 130h154l-27 -130h-154z" />
    <glyph glyph-name="multiply" unicode="&#xd7;" horiz-adv-x="600" 
d="M54 397l102 102l144 -144l144 144l102 -102l-144 -144l144 -144l-102 -102l-144 144l-144 -144l-102 102l144 144z" />
    <glyph glyph-name="Oslash" unicode="&#xd8;" horiz-adv-x="778" 
d="M532 534q-31 42 -105 42q-54 0 -93.5 -26.5t-65 -67t-37.5 -89.5t-12 -93q0 -28 6 -50zM253 185q17 -22 44 -34.5t65 -12.5q50 0 88 27t63.5 67.5t38.5 88.5t13 90q0 16 -1 30t-4 27zM757 742l46 -51l-96 -88q20 -32 32 -75.5t12 -100.5q0 -94 -27 -175t-79 -140
t-127 -93t-171 -34q-145 0 -226 78l-102 -94l-47 48l107 99q-46 74 -46 185q0 89 28 167t80 136t126 91.5t166 33.5q26 0 55.5 -3.5t59.5 -11.5t59.5 -22.5t54.5 -36.5z" />
    <glyph glyph-name="Ugrave" unicode="&#xd9;" horiz-adv-x="741" 
d="M677 306q-15 -72 -36 -131t-60 -101.5t-101 -65.5t-159 -23q-70 0 -124 16.5t-90.5 44.5t-55.5 65.5t-19 79.5q0 45 6 80t14 70l81 373h186l-83 -382q-5 -26 -11.5 -53t-6.5 -56q0 -40 28 -62.5t79 -22.5q48 0 77.5 16.5t47.5 45t28.5 66.5t20.5 80l77 368h186zM399 909
l99 -146h-114l-162 146h177z" />
    <glyph glyph-name="Uacute" unicode="&#xda;" horiz-adv-x="741" 
d="M677 306q-15 -72 -36 -131t-60 -101.5t-101 -65.5t-159 -23q-70 0 -124 16.5t-90.5 44.5t-55.5 65.5t-19 79.5q0 45 6 80t14 70l81 373h186l-83 -382q-5 -26 -11.5 -53t-6.5 -56q0 -40 28 -62.5t79 -22.5q48 0 77.5 16.5t47.5 45t28.5 66.5t20.5 80l77 368h186zM499 909
h185l-179 -146h-114z" />
    <glyph glyph-name="Ucircumflex" unicode="&#xdb;" horiz-adv-x="741" 
d="M677 306q-15 -72 -36 -131t-60 -101.5t-101 -65.5t-159 -23q-70 0 -124 16.5t-90.5 44.5t-55.5 65.5t-19 79.5q0 45 6 80t14 70l81 373h186l-83 -382q-5 -26 -11.5 -53t-6.5 -56q0 -40 28 -62.5t79 -22.5q48 0 77.5 16.5t47.5 45t28.5 66.5t20.5 80l77 368h186zM267 763
l145 146h146l83 -146h-125l-45 82l-76 -82h-128z" />
    <glyph glyph-name="Udieresis" unicode="&#xdc;" horiz-adv-x="741" 
d="M677 306q-15 -72 -36 -131t-60 -101.5t-101 -65.5t-159 -23q-70 0 -124 16.5t-90.5 44.5t-55.5 65.5t-19 79.5q0 45 6 80t14 70l81 373h186l-83 -382q-5 -26 -11.5 -53t-6.5 -56q0 -40 28 -62.5t79 -22.5q48 0 77.5 16.5t47.5 45t28.5 66.5t20.5 80l77 368h186zM482 771
l27 130h154l-27 -130h-154zM269 771l27 130h154l-27 -130h-154z" />
    <glyph glyph-name="Yacute" unicode="&#xdd;" horiz-adv-x="648" 
d="M214 270l-165 444h192l85 -297l199 297h223l-350 -444l-57 -270h-184zM443 909h185l-179 -146h-114z" />
    <glyph glyph-name="Thorn" unicode="&#xde;" horiz-adv-x="685" 
d="M235 292h131q65 0 94 27.5t29 72.5q0 26 -9.5 41t-25 23t-35.5 10.5t-42 2.5h-105zM135 714h187l-18 -92h165q48 0 86 -15.5t65 -43.5t41 -67t14 -87q0 -68 -23.5 -118.5t-65 -84t-97.5 -50.5t-121 -17h-166l-31 -139h-186z" />
    <glyph glyph-name="germandbls" unicode="&#xdf;" horiz-adv-x="611" 
d="M98 515q22 109 88 161.5t176 52.5q46 0 88 -9.5t74.5 -30t51.5 -53.5t19 -80q0 -65 -37 -106.5t-97 -56.5v-2q56 -13 82 -50t26 -103q0 -63 -22.5 -109t-60 -76t-86 -44.5t-101.5 -14.5q-32 0 -52.5 1t-37.5 5l27 128q10 -2 19.5 -3t18.5 -1q60 0 92.5 35.5t32.5 93.5
q0 27 -9.5 44.5t-26 27.5t-37.5 13.5t-45 1.5l21 98q22 -3 45 0t42 14t30.5 30t11.5 49q0 35 -22 51.5t-54 16.5q-24 0 -40 -8.5t-26 -24t-16 -36.5t-11 -46l-102 -484h-170z" />
    <glyph glyph-name="agrave" unicode="&#xe0;" horiz-adv-x="593" 
d="M59 359q10 51 33 84.5t56.5 53.5t75 28.5t89.5 8.5q54 0 98 -7t74.5 -23t47.5 -42t17 -64q0 -26 -6.5 -63t-14.5 -75t-17 -71.5t-13 -51.5q-7 -27 -11.5 -51.5t-4.5 -45.5q0 -14 2.5 -23.5t4.5 -16.5h-167q-2 9 -2.5 14.5t-1 10t-0.5 9.5v16h-2q-24 -35 -62.5 -50
t-94.5 -15q-36 0 -67 8t-53.5 25t-35.5 45t-13 68q0 52 21.5 84.5t57 51.5t82 27.5t96.5 12.5q22 1 46 2t44.5 7t34 19t13.5 39q0 23 -17 36.5t-55 13.5q-41 0 -65 -14t-29 -51h-161zM161 144q0 -31 21.5 -42.5t47.5 -11.5q39 0 63 16.5t38 40t20 48.5t8 43h-1
q-11 -9 -29.5 -12.5t-40.5 -5.5t-44.5 -5t-41 -10.5t-30 -21.5t-11.5 -39zM362 723l99 -146h-114l-162 146h177z" />
    <glyph glyph-name="aacute" unicode="&#xe1;" horiz-adv-x="593" 
d="M59 359q10 51 33 84.5t56.5 53.5t75 28.5t89.5 8.5q54 0 98 -7t74.5 -23t47.5 -42t17 -64q0 -26 -6.5 -63t-14.5 -75t-17 -71.5t-13 -51.5q-7 -27 -11.5 -51.5t-4.5 -45.5q0 -14 2.5 -23.5t4.5 -16.5h-167q-2 9 -2.5 14.5t-1 10t-0.5 9.5v16h-2q-24 -35 -62.5 -50
t-94.5 -15q-36 0 -67 8t-53.5 25t-35.5 45t-13 68q0 52 21.5 84.5t57 51.5t82 27.5t96.5 12.5q22 1 46 2t44.5 7t34 19t13.5 39q0 23 -17 36.5t-55 13.5q-41 0 -65 -14t-29 -51h-161zM161 144q0 -31 21.5 -42.5t47.5 -11.5q39 0 63 16.5t38 40t20 48.5t8 43h-1
q-11 -9 -29.5 -12.5t-40.5 -5.5t-44.5 -5t-41 -10.5t-30 -21.5t-11.5 -39zM384 723h185l-179 -146h-114z" />
    <glyph glyph-name="acircumflex" unicode="&#xe2;" horiz-adv-x="593" 
d="M59 359q10 51 33 84.5t56.5 53.5t75 28.5t89.5 8.5q54 0 98 -7t74.5 -23t47.5 -42t17 -64q0 -26 -6.5 -63t-14.5 -75t-17 -71.5t-13 -51.5q-7 -27 -11.5 -51.5t-4.5 -45.5q0 -14 2.5 -23.5t4.5 -16.5h-167q-2 9 -2.5 14.5t-1 10t-0.5 9.5v16h-2q-24 -35 -62.5 -50
t-94.5 -15q-36 0 -67 8t-53.5 25t-35.5 45t-13 68q0 52 21.5 84.5t57 51.5t82 27.5t96.5 12.5q22 1 46 2t44.5 7t34 19t13.5 39q0 23 -17 36.5t-55 13.5q-41 0 -65 -14t-29 -51h-161zM161 144q0 -31 21.5 -42.5t47.5 -11.5q39 0 63 16.5t38 40t20 48.5t8 43h-1
q-11 -9 -29.5 -12.5t-40.5 -5.5t-44.5 -5t-41 -10.5t-30 -21.5t-11.5 -39zM151 577l145 146h146l83 -146h-125l-45 82l-76 -82h-128z" />
    <glyph glyph-name="atilde" unicode="&#xe3;" horiz-adv-x="593" 
d="M59 359q10 51 33 84.5t56.5 53.5t75 28.5t89.5 8.5q54 0 98 -7t74.5 -23t47.5 -42t17 -64q0 -26 -6.5 -63t-14.5 -75t-17 -71.5t-13 -51.5q-7 -27 -11.5 -51.5t-4.5 -45.5q0 -14 2.5 -23.5t4.5 -16.5h-167q-2 9 -2.5 14.5t-1 10t-0.5 9.5v16h-2q-24 -35 -62.5 -50
t-94.5 -15q-36 0 -67 8t-53.5 25t-35.5 45t-13 68q0 52 21.5 84.5t57 51.5t82 27.5t96.5 12.5q22 1 46 2t44.5 7t34 19t13.5 39q0 23 -17 36.5t-55 13.5q-41 0 -65 -14t-29 -51h-161zM161 144q0 -31 21.5 -42.5t47.5 -11.5q39 0 63 16.5t38 40t20 48.5t8 43h-1
q-11 -9 -29.5 -12.5t-40.5 -5.5t-44.5 -5t-41 -10.5t-30 -21.5t-11.5 -39zM543 718q-5 -24 -13.5 -47.5t-22 -42.5t-33.5 -31t-48 -12q-15 0 -32 4t-34 10l-41 14q-21 7 -28.5 9t-15.5 2q-11 0 -22.5 -10.5t-15.5 -30.5h-78q3 23 12.5 46.5t25 42.5t36.5 31t47 12
q14 0 27.5 -4t27.5 -9l45 -17q25 -11 48 -11q17 0 25 15t12 29h78z" />
    <glyph glyph-name="adieresis" unicode="&#xe4;" horiz-adv-x="593" 
d="M59 359q10 51 33 84.5t56.5 53.5t75 28.5t89.5 8.5q54 0 98 -7t74.5 -23t47.5 -42t17 -64q0 -26 -6.5 -63t-14.5 -75t-17 -71.5t-13 -51.5q-7 -27 -11.5 -51.5t-4.5 -45.5q0 -14 2.5 -23.5t4.5 -16.5h-167q-2 9 -2.5 14.5t-1 10t-0.5 9.5v16h-2q-24 -35 -62.5 -50
t-94.5 -15q-36 0 -67 8t-53.5 25t-35.5 45t-13 68q0 52 21.5 84.5t57 51.5t82 27.5t96.5 12.5q22 1 46 2t44.5 7t34 19t13.5 39q0 23 -17 36.5t-55 13.5q-41 0 -65 -14t-29 -51h-161zM161 144q0 -31 21.5 -42.5t47.5 -11.5q39 0 63 16.5t38 40t20 48.5t8 43h-1
q-11 -9 -29.5 -12.5t-40.5 -5.5t-44.5 -5t-41 -10.5t-30 -21.5t-11.5 -39zM373 585l27 130h154l-27 -130h-154zM160 585l27 130h154l-27 -130h-154z" />
    <glyph glyph-name="aring" unicode="&#xe5;" horiz-adv-x="593" 
d="M59 359q10 51 33 84.5t56.5 53.5t75 28.5t89.5 8.5q54 0 98 -7t74.5 -23t47.5 -42t17 -64q0 -26 -6.5 -63t-14.5 -75t-17 -71.5t-13 -51.5q-7 -27 -11.5 -51.5t-4.5 -45.5q0 -14 2.5 -23.5t4.5 -16.5h-167q-2 9 -2.5 14.5t-1 10t-0.5 9.5v16h-2q-24 -35 -62.5 -50
t-94.5 -15q-36 0 -67 8t-53.5 25t-35.5 45t-13 68q0 52 21.5 84.5t57 51.5t82 27.5t96.5 12.5q22 1 46 2t44.5 7t34 19t13.5 39q0 23 -17 36.5t-55 13.5q-41 0 -65 -14t-29 -51h-161zM161 144q0 -31 21.5 -42.5t47.5 -11.5q39 0 63 16.5t38 40t20 48.5t8 43h-1
q-11 -9 -29.5 -12.5t-40.5 -5.5t-44.5 -5t-41 -10.5t-30 -21.5t-11.5 -39zM357 565q-22 0 -41.5 7.5t-34 21.5t-23 33.5t-8.5 40.5q0 22 8.5 41.5t23 33t34 21t41.5 7.5t41.5 -7.5t34 -20.5t23 -33t8.5 -42t-8.5 -41.5t-23 -33t-34 -21t-41.5 -7.5zM357 616q22 0 37 15.5
t15 36.5q0 23 -15 37.5t-37 14.5t-37 -14.5t-15 -37.5q0 -21 15 -36.5t37 -15.5z" />
    <glyph glyph-name="ae" unicode="&#xe6;" horiz-adv-x="926" 
d="M725 313q3 19 -0.5 38t-13 34t-27 24.5t-43.5 9.5q-45 0 -78 -27.5t-47 -78.5h209zM161 144q-2 -31 19 -42.5t47 -11.5q39 0 63 16.5t38 40t20.5 48.5t9.5 43h-3q-11 -9 -29.5 -12.5t-40.5 -5.5t-44.5 -5t-40.5 -10.5t-29 -21.5t-10 -39zM503 218q-1 -8 -1 -16v-16
q2 -40 22 -63t63 -23q75 0 103 57h166q-15 -47 -42 -79.5t-62 -53t-77 -30t-88 -9.5q-72 0 -119 20.5t-73 67.5q-13 -17 -32 -33t-47 -28t-66.5 -19.5t-89.5 -7.5q-36 0 -67 8t-53.5 25t-35.5 45t-13 68q0 52 21.5 84.5t57 51.5t82 27.5t96.5 12.5q22 1 46 2t44.5 7t34 19
t13.5 39q0 23 -17 36.5t-55 13.5q-41 0 -65 -14t-29 -51h-161q10 51 33 84.5t56.5 53.5t75 28.5t89.5 8.5q58 0 101 -12t72 -50q32 34 69.5 48t93.5 14q114 0 174.5 -63.5t60.5 -175.5q0 -19 -2 -36.5t-5 -40.5h-374z" />
    <glyph glyph-name="ccedilla" unicode="&#xe7;" horiz-adv-x="574" 
d="M105 -162q22 -11 38 -15.5t38 -4.5q23 0 40 10t17 33q0 16 -12.5 23.5t-26.5 7.5q-20 0 -35 -7l-22 25l60 79q-23 4 -44 10q-45 14 -78.5 42t-52 70.5t-18.5 99.5q0 69 22 128t62 102.5t97 68t128 24.5q49 0 91.5 -12.5t74 -37.5t49.5 -63.5t18 -90.5h-165q1 37 -21 59
q-18 18 -55 20q-38 1 -63 -15.5t-40 -43.5t-21.5 -59t-6.5 -62q0 -57 21.5 -88t64.5 -31q41 0 65 24t34 64h165q-12 -56 -36.5 -96t-59.5 -66t-79.5 -38.5t-95.5 -12.5h-4l-39 -48v-2q8 2 15.5 2.5t15.5 0.5q32 0 57.5 -20.5t25.5 -54.5q0 -30 -13.5 -49t-33 -30
t-41.5 -14.5t-48 -3.5q-28 0 -56.5 7t-56.5 21z" />
    <glyph glyph-name="egrave" unicode="&#xe8;" horiz-adv-x="611" 
d="M391 313q4 44 -16 75t-63 31q-53 0 -82 -28.5t-43 -77.5h204zM175 218q-1 -8 -1.5 -15t-0.5 -20q8 -83 92 -83q44 0 66.5 15.5t32.5 41.5h166q-15 -47 -42 -79.5t-62 -53t-78 -30t-90 -9.5q-54 0 -99.5 14t-79 42t-52 70.5t-18.5 99.5q0 69 22 128t62 102.5t97 68
t128 24.5q50 0 93.5 -14.5t75.5 -43t50 -71t18 -98.5q0 -46 -6 -89h-374zM312 723l99 -146h-114l-162 146h177z" />
    <glyph glyph-name="eacute" unicode="&#xe9;" horiz-adv-x="611" 
d="M391 313q4 44 -16 75t-63 31q-53 0 -82 -28.5t-43 -77.5h204zM175 218q-1 -8 -1.5 -15t-0.5 -20q8 -83 92 -83q44 0 66.5 15.5t32.5 41.5h166q-15 -47 -42 -79.5t-62 -53t-78 -30t-90 -9.5q-54 0 -99.5 14t-79 42t-52 70.5t-18.5 99.5q0 69 22 128t62 102.5t97 68
t128 24.5q50 0 93.5 -14.5t75.5 -43t50 -71t18 -98.5q0 -46 -6 -89h-374zM372 723h185l-179 -146h-114z" />
    <glyph glyph-name="ecircumflex" unicode="&#xea;" horiz-adv-x="611" 
d="M391 313q4 44 -16 75t-63 31q-53 0 -82 -28.5t-43 -77.5h204zM175 218q-1 -8 -1.5 -15t-0.5 -20q8 -83 92 -83q44 0 66.5 15.5t32.5 41.5h166q-15 -47 -42 -79.5t-62 -53t-78 -30t-90 -9.5q-54 0 -99.5 14t-79 42t-52 70.5t-18.5 99.5q0 69 22 128t62 102.5t97 68
t128 24.5q50 0 93.5 -14.5t75.5 -43t50 -71t18 -98.5q0 -46 -6 -89h-374zM152 577l145 146h146l83 -146h-125l-45 82l-76 -82h-128z" />
    <glyph glyph-name="edieresis" unicode="&#xeb;" horiz-adv-x="611" 
d="M391 313q4 44 -16 75t-63 31q-53 0 -82 -28.5t-43 -77.5h204zM175 218q-1 -8 -1.5 -15t-0.5 -20q8 -83 92 -83q44 0 66.5 15.5t32.5 41.5h166q-15 -47 -42 -79.5t-62 -53t-78 -30t-90 -9.5q-54 0 -99.5 14t-79 42t-52 70.5t-18.5 99.5q0 69 22 128t62 102.5t97 68
t128 24.5q50 0 93.5 -14.5t75.5 -43t50 -71t18 -98.5q0 -46 -6 -89h-374zM366 585l27 130h154l-27 -130h-154zM153 585l27 130h154l-27 -130h-154z" />
    <glyph glyph-name="igrave" unicode="&#xec;" horiz-adv-x="296" 
d="M98 519h170l-108 -519h-170zM166 723l99 -146h-114l-162 146h177z" />
    <glyph glyph-name="iacute" unicode="&#xed;" horiz-adv-x="296" 
d="M98 519h170l-108 -519h-170zM211 723h185l-179 -146h-114z" />
    <glyph glyph-name="icircumflex" unicode="&#xee;" horiz-adv-x="296" 
d="M98 519h170l-108 -519h-170zM5 577l145 146h146l83 -146h-125l-45 82l-76 -82h-128z" />
    <glyph glyph-name="idieresis" unicode="&#xef;" horiz-adv-x="296" 
d="M98 519h170l-108 -519h-170zM220 585l27 130h154l-27 -130h-154zM7 585l27 130h154l-27 -130h-154z" />
    <glyph glyph-name="eth" unicode="&#xf0;" horiz-adv-x="611" 
d="M262 110q34 0 59 14.5t41 38t23.5 53.5t7.5 60q0 17 -3.5 34.5t-13 31.5t-26.5 23t-43 9q-35 0 -59 -14.5t-39.5 -37.5t-22.5 -51t-7 -54q0 -45 19 -76t64 -31zM258 -15q-54 0 -99.5 14t-79 42t-52 70.5t-18.5 99.5q0 67 21.5 120t57 90.5t82.5 57.5t99 20q31 0 57 -4.5
t51 -21.5l2 2q-17 27 -33.5 48t-39.5 42l-130 -56l-44 56l116 50q-17 14 -39.5 28.5t-39.5 22.5l142 63q24 -15 42.5 -29.5t30.5 -25.5l120 52l37 -59l-105 -45q63 -57 95 -131.5t32 -165.5q0 -71 -19.5 -133t-57.5 -108t-95.5 -72.5t-132.5 -26.5z" />
    <glyph glyph-name="ntilde" unicode="&#xf1;" 
d="M98 519h170l-14 -63h2q9 13 25.5 27t39 25t51.5 18.5t63 7.5q70 0 109.5 -39.5t39.5 -106.5q0 -26 -6.5 -59t-11.5 -53l-62 -276h-170l59 275q4 18 7 34.5t3 31.5q0 31 -17.5 47t-44.5 16q-39 0 -62.5 -17t-37.5 -43.5t-21 -59t-14 -64.5l-46 -220h-170zM559 718
q-5 -24 -13.5 -47.5t-22 -42.5t-33.5 -31t-48 -12q-15 0 -32 4t-34 10l-41 14q-21 7 -28.5 9t-15.5 2q-11 0 -22.5 -10.5t-15.5 -30.5h-78q3 23 12.5 46.5t25 42.5t36.5 31t47 12q14 0 27.5 -4t27.5 -9l45 -17q25 -11 48 -11q17 0 25 15t12 29h78z" />
    <glyph glyph-name="ograve" unicode="&#xf2;" horiz-adv-x="611" 
d="M179 217q0 -45 19 -76t64 -31q36 0 61 18t40.5 46t22.5 61t7 63q0 49 -19 80t-67 31q-35 0 -59 -20t-39.5 -49.5t-22.5 -63t-7 -59.5zM9 211q0 69 22 128t62 102.5t97 68t128 24.5q53 0 98 -15t77.5 -44t51 -71.5t18.5 -98.5q0 -69 -21 -128t-61 -101.5t-96.5 -66.5
t-126.5 -24q-54 0 -99.5 14t-79 42t-52 70.5t-18.5 99.5zM295 723l99 -146h-114l-162 146h177z" />
    <glyph glyph-name="oacute" unicode="&#xf3;" horiz-adv-x="611" 
d="M179 217q0 -45 19 -76t64 -31q36 0 61 18t40.5 46t22.5 61t7 63q0 49 -19 80t-67 31q-35 0 -59 -20t-39.5 -49.5t-22.5 -63t-7 -59.5zM9 211q0 69 22 128t62 102.5t97 68t128 24.5q53 0 98 -15t77.5 -44t51 -71.5t18.5 -98.5q0 -69 -21 -128t-61 -101.5t-96.5 -66.5
t-126.5 -24q-54 0 -99.5 14t-79 42t-52 70.5t-18.5 99.5zM371 723h185l-179 -146h-114z" />
    <glyph glyph-name="ocircumflex" unicode="&#xf4;" horiz-adv-x="611" 
d="M179 217q0 -45 19 -76t64 -31q36 0 61 18t40.5 46t22.5 61t7 63q0 49 -19 80t-67 31q-35 0 -59 -20t-39.5 -49.5t-22.5 -63t-7 -59.5zM9 211q0 69 22 128t62 102.5t97 68t128 24.5q53 0 98 -15t77.5 -44t51 -71.5t18.5 -98.5q0 -69 -21 -128t-61 -101.5t-96.5 -66.5
t-126.5 -24q-54 0 -99.5 14t-79 42t-52 70.5t-18.5 99.5zM152 577l145 146h146l83 -146h-125l-45 82l-76 -82h-128z" />
    <glyph glyph-name="otilde" unicode="&#xf5;" horiz-adv-x="611" 
d="M179 217q0 -45 19 -76t64 -31q36 0 61 18t40.5 46t22.5 61t7 63q0 49 -19 80t-67 31q-35 0 -59 -20t-39.5 -49.5t-22.5 -63t-7 -59.5zM9 211q0 69 22 128t62 102.5t97 68t128 24.5q53 0 98 -15t77.5 -44t51 -71.5t18.5 -98.5q0 -69 -21 -128t-61 -101.5t-96.5 -66.5
t-126.5 -24q-54 0 -99.5 14t-79 42t-52 70.5t-18.5 99.5zM531 718q-5 -24 -13.5 -47.5t-22 -42.5t-33.5 -31t-48 -12q-15 0 -32 4t-34 10l-41 14q-21 7 -28.5 9t-15.5 2q-11 0 -22.5 -10.5t-15.5 -30.5h-78q3 23 12.5 46.5t25 42.5t36.5 31t47 12q14 0 27.5 -4t27.5 -9
l45 -17q25 -11 48 -11q17 0 25 15t12 29h78z" />
    <glyph glyph-name="odieresis" unicode="&#xf6;" horiz-adv-x="611" 
d="M179 217q0 -45 19 -76t64 -31q36 0 61 18t40.5 46t22.5 61t7 63q0 49 -19 80t-67 31q-35 0 -59 -20t-39.5 -49.5t-22.5 -63t-7 -59.5zM9 211q0 69 22 128t62 102.5t97 68t128 24.5q53 0 98 -15t77.5 -44t51 -71.5t18.5 -98.5q0 -69 -21 -128t-61 -101.5t-96.5 -66.5
t-126.5 -24q-54 0 -99.5 14t-79 42t-52 70.5t-18.5 99.5zM359 585l27 130h154l-27 -130h-154zM146 585l27 130h154l-27 -130h-154z" />
    <glyph glyph-name="divide" unicode="&#xf7;" horiz-adv-x="600" 
d="M201 46q0 42 28.5 70.5t70.5 28.5t70.5 -28.5t28.5 -70.5q0 -20 -7.5 -38t-21 -31.5t-31.5 -21.5t-39 -8t-39 8t-31.5 21.5t-21 31.5t-7.5 38zM201 460q0 42 28.5 70.5t70.5 28.5t70.5 -28.5t28.5 -70.5q0 -20 -7.5 -38t-21 -31.5t-31.5 -21.5t-39 -8t-39 8t-31.5 21.5
t-21 31.5t-7.5 38zM48 181v144h504v-144h-504z" />
    <glyph glyph-name="oslash" unicode="&#xf8;" horiz-adv-x="611" 
d="M376 374q-10 17 -26.5 26t-42.5 9q-35 0 -59 -20t-39.5 -49.5t-22.5 -63t-7 -59.5q0 -6 0.5 -12t2.5 -11zM198 142q21 -32 64 -32q36 0 61 18t40.5 46t22.5 61t7 63v12q0 6 -2 11zM593 507l-70 -64q40 -55 40 -138q0 -69 -21 -128t-61 -101.5t-96.5 -66.5t-126.5 -24
q-53 0 -97.5 13t-76.5 39l-72 -66l-34 34l72 67q-20 26 -30.5 60.5t-10.5 78.5q0 69 22 128t62 102.5t97 68t128 24.5q53 0 96.5 -14t75.5 -41l69 64z" />
    <glyph glyph-name="ugrave" unicode="&#xf9;" 
d="M492 0h-163l15 71h-2q-29 -44 -73 -65t-97 -21t-84 17.5t-46.5 40t-20 45t-4.5 33.5q0 26 3 46t7 37l67 315h170l-59 -288q-7 -34 -7 -62q0 -23 13.5 -38.5t42.5 -15.5q54 0 80.5 34t37.5 89l60 281h170zM335 723l99 -146h-114l-162 146h177z" />
    <glyph glyph-name="uacute" unicode="&#xfa;" 
d="M492 0h-163l15 71h-2q-29 -44 -73 -65t-97 -21t-84 17.5t-46.5 40t-20 45t-4.5 33.5q0 26 3 46t7 37l67 315h170l-59 -288q-7 -34 -7 -62q0 -23 13.5 -38.5t42.5 -15.5q54 0 80.5 34t37.5 89l60 281h170zM404 723h185l-179 -146h-114z" />
    <glyph glyph-name="ucircumflex" unicode="&#xfb;" 
d="M492 0h-163l15 71h-2q-29 -44 -73 -65t-97 -21t-84 17.5t-46.5 40t-20 45t-4.5 33.5q0 26 3 46t7 37l67 315h170l-59 -288q-7 -34 -7 -62q0 -23 13.5 -38.5t42.5 -15.5q54 0 80.5 34t37.5 89l60 281h170zM175 577l145 146h146l83 -146h-125l-45 82l-76 -82h-128z" />
    <glyph glyph-name="udieresis" unicode="&#xfc;" 
d="M492 0h-163l15 71h-2q-29 -44 -73 -65t-97 -21t-84 17.5t-46.5 40t-20 45t-4.5 33.5q0 26 3 46t7 37l67 315h170l-59 -288q-7 -34 -7 -62q0 -23 13.5 -38.5t42.5 -15.5q54 0 80.5 34t37.5 89l60 281h170zM380 585l27 130h154l-27 -130h-154zM167 585l27 130h154l-27 -130
h-154z" />
    <glyph glyph-name="yacute" unicode="&#xfd;" horiz-adv-x="537" 
d="M-24 -40q17 -2 32.5 -3t32.5 -1q19 0 30.5 4t19 11.5t13 18t13.5 23.5l-96 506h173l39 -365h2l155 365h178l-264 -495q-30 -54 -52.5 -91.5t-50 -61.5t-67 -34.5t-103.5 -10.5q-21 0 -41.5 2t-41.5 4zM367 723h185l-179 -146h-114z" />
    <glyph glyph-name="thorn" unicode="&#xfe;" 
d="M287 115q35 0 59.5 18t40 45.5t22.5 60t7 61.5q0 18 -3 36.5t-12.5 33.5t-27 24.5t-46.5 9.5q-34 0 -58 -18.5t-39.5 -47t-22.5 -61.5t-7 -61q0 -41 20 -71t67 -30zM302 714l-52 -249h2q28 35 67.5 52t84.5 17q48 0 82.5 -18.5t56.5 -49.5t32.5 -71.5t10.5 -85.5
q0 -57 -17 -115t-50.5 -104.5t-83.5 -75.5t-116 -29q-51 0 -89.5 18t-61.5 64h-2l-49 -241h-170l185 888h170z" />
    <glyph glyph-name="ydieresis" unicode="&#xff;" horiz-adv-x="537" 
d="M-24 -40q17 -2 32.5 -3t32.5 -1q19 0 30.5 4t19 11.5t13 18t13.5 23.5l-96 506h173l39 -365h2l155 365h178l-264 -495q-30 -54 -52.5 -91.5t-50 -61.5t-67 -34.5t-103.5 -10.5q-21 0 -41.5 2t-41.5 4zM336 585l27 130h154l-27 -130h-154zM123 585l27 130h154l-27 -130
h-154z" />
    <glyph glyph-name="Amacron" unicode="&#x100;" horiz-adv-x="704" 
d="M262 266h163l-27 257h-2zM340 714h188l117 -714h-187l-17 128h-251l-72 -128h-195zM245 797l16 79h381l-16 -79h-381z" />
    <glyph glyph-name="amacron" unicode="&#x101;" horiz-adv-x="593" 
d="M59 359q10 51 33 84.5t56.5 53.5t75 28.5t89.5 8.5q54 0 98 -7t74.5 -23t47.5 -42t17 -64q0 -26 -6.5 -63t-14.5 -75t-17 -71.5t-13 -51.5q-7 -27 -11.5 -51.5t-4.5 -45.5q0 -14 2.5 -23.5t4.5 -16.5h-167q-2 9 -2.5 14.5t-1 10t-0.5 9.5v16h-2q-24 -35 -62.5 -50
t-94.5 -15q-36 0 -67 8t-53.5 25t-35.5 45t-13 68q0 52 21.5 84.5t57 51.5t82 27.5t96.5 12.5q22 1 46 2t44.5 7t34 19t13.5 39q0 23 -17 36.5t-55 13.5q-41 0 -65 -14t-29 -51h-161zM161 144q0 -31 21.5 -42.5t47.5 -11.5q39 0 63 16.5t38 40t20 48.5t8 43h-1
q-11 -9 -29.5 -12.5t-40.5 -5.5t-44.5 -5t-41 -10.5t-30 -21.5t-11.5 -39zM156 611l16 79h381l-16 -79h-381z" />
    <glyph glyph-name="Abreve" unicode="&#x102;" horiz-adv-x="704" 
d="M262 266h163l-27 257h-2zM340 714h188l117 -714h-187l-17 128h-251l-72 -128h-195zM346 910q2 -39 27 -54.5t61 -15.5q41 0 72 15.5t48 54.5h71q-15 -72 -60 -110t-132 -38q-35 0 -65.5 8.5t-52 26.5t-32 46t-6.5 67h69z" />
    <glyph glyph-name="abreve" unicode="&#x103;" horiz-adv-x="593" 
d="M59 359q10 51 33 84.5t56.5 53.5t75 28.5t89.5 8.5q54 0 98 -7t74.5 -23t47.5 -42t17 -64q0 -26 -6.5 -63t-14.5 -75t-17 -71.5t-13 -51.5q-7 -27 -11.5 -51.5t-4.5 -45.5q0 -14 2.5 -23.5t4.5 -16.5h-167q-2 9 -2.5 14.5t-1 10t-0.5 9.5v16h-2q-24 -35 -62.5 -50
t-94.5 -15q-36 0 -67 8t-53.5 25t-35.5 45t-13 68q0 52 21.5 84.5t57 51.5t82 27.5t96.5 12.5q22 1 46 2t44.5 7t34 19t13.5 39q0 23 -17 36.5t-55 13.5q-41 0 -65 -14t-29 -51h-161zM161 144q0 -31 21.5 -42.5t47.5 -11.5q39 0 63 16.5t38 40t20 48.5t8 43h-1
q-11 -9 -29.5 -12.5t-40.5 -5.5t-44.5 -5t-41 -10.5t-30 -21.5t-11.5 -39zM263 724q2 -39 27 -54.5t61 -15.5q41 0 72 15.5t48 54.5h71q-15 -72 -60 -110t-132 -38q-35 0 -65.5 8.5t-52 26.5t-32 46t-6.5 67h69z" />
    <glyph glyph-name="Aogonek" unicode="&#x104;" horiz-adv-x="704" 
d="M532 0q-65 -44 -94 -74.5t-29 -55.5q0 -18 9 -26t24 -8q20 0 35 10t28 27l44 -16q-26 -42 -60 -66.5t-83 -24.5q-14 0 -28.5 3t-29 11.5t-24.5 24t-10 41.5q0 14 4.5 30t20.5 36t44 41.5t75 46.5l-17 128h-251l-72 -128h-195l417 714h188l117 -714h-113zM262 266h163
l-27 257h-2z" />
    <glyph glyph-name="aogonek" unicode="&#x105;" horiz-adv-x="593" 
d="M59 359q10 51 33 84.5t56.5 53.5t75 28.5t89.5 8.5q54 0 98 -7t74.5 -23t47.5 -42t17 -64q0 -26 -6.5 -63t-14.5 -75t-17 -71.5t-13 -51.5q-7 -27 -11.5 -51.5t-4.5 -45.5q0 -14 2.5 -23.5t4.5 -16.5h-96q-58 -44 -84.5 -74.5t-26.5 -55.5q0 -18 9 -26t23 -8q19 0 34 10
t28 27l41 -16q-24 -42 -57.5 -66.5t-79.5 -24.5q-14 0 -27.5 3t-27.5 11.5t-23.5 24t-9.5 41.5q0 14 4.5 30t19.5 36t41.5 41.5t65.5 46.5h-1q-2 9 -2.5 14.5t-1 10t-0.5 9.5v16h-2q-24 -35 -62.5 -50t-94.5 -15q-36 0 -67 8t-53.5 25t-35.5 45t-13 68q0 52 21.5 84.5
t57 51.5t82 27.5t96.5 12.5q22 1 46 2t44.5 7t34 19t13.5 39q0 23 -17 36.5t-55 13.5q-41 0 -65 -14t-29 -51h-161zM161 144q0 -31 21.5 -42.5t47.5 -11.5q39 0 63 16.5t38 40t20 48.5t8 43h-1q-11 -9 -29.5 -12.5t-40.5 -5.5t-44.5 -5t-41 -10.5t-30 -21.5t-11.5 -39z" />
    <glyph glyph-name="Cacute" unicode="&#x106;" horiz-adv-x="741" 
d="M532 457q3 25 -2.5 46.5t-19.5 37.5t-37 25.5t-56 9.5q-53 0 -90 -27t-60 -68.5t-33.5 -90t-10.5 -90.5q0 -35 6 -64.5t21 -51t40.5 -34t64.5 -12.5q59 0 100 36t51 90h186q-30 -138 -118 -208.5t-245 -70.5q-42 0 -93 13t-95.5 48.5t-74 98.5t-29.5 162q0 86 26 163
t75 134.5t120 91t162 33.5q67 0 122.5 -16t94.5 -49.5t60.5 -85t20.5 -121.5h-186zM474 909h185l-179 -146h-114z" />
    <glyph glyph-name="cacute" unicode="&#x107;" horiz-adv-x="574" 
d="M386 330q1 37 -21 59q-18 18 -55 20q-38 1 -63 -15.5t-40 -43.5t-21.5 -59t-6.5 -62q0 -57 21.5 -88t64.5 -31q41 0 65 24t34 64h165q-12 -56 -36.5 -96t-59.5 -66t-79.5 -38.5t-95.5 -12.5q-54 0 -99.5 14t-79 42t-52 70.5t-18.5 99.5q0 69 22 128t62 102.5t97 68
t128 24.5q49 0 91.5 -12.5t74 -37.5t49.5 -63.5t18 -90.5h-165zM364 723h185l-179 -146h-114z" />
    <glyph glyph-name="Ccircumflex" unicode="&#x108;" horiz-adv-x="741" 
d="M532 457q3 25 -2.5 46.5t-19.5 37.5t-37 25.5t-56 9.5q-53 0 -90 -27t-60 -68.5t-33.5 -90t-10.5 -90.5q0 -35 6 -64.5t21 -51t40.5 -34t64.5 -12.5q59 0 100 36t51 90h186q-30 -138 -118 -208.5t-245 -70.5q-42 0 -93 13t-95.5 48.5t-74 98.5t-29.5 162q0 86 26 163
t75 134.5t120 91t162 33.5q67 0 122.5 -16t94.5 -49.5t60.5 -85t20.5 -121.5h-186zM253 763l145 146h146l83 -146h-125l-45 82l-76 -82h-128z" />
    <glyph glyph-name="ccircumflex" unicode="&#x109;" horiz-adv-x="574" 
d="M386 330q1 37 -21 59q-18 18 -55 20q-38 1 -63 -15.5t-40 -43.5t-21.5 -59t-6.5 -62q0 -57 21.5 -88t64.5 -31q41 0 65 24t34 64h165q-12 -56 -36.5 -96t-59.5 -66t-79.5 -38.5t-95.5 -12.5q-54 0 -99.5 14t-79 42t-52 70.5t-18.5 99.5q0 69 22 128t62 102.5t97 68
t128 24.5q49 0 91.5 -12.5t74 -37.5t49.5 -63.5t18 -90.5h-165zM141 577l145 146h146l83 -146h-125l-45 82l-76 -82h-128z" />
    <glyph glyph-name="Cdotaccent" unicode="&#x10a;" horiz-adv-x="741" 
d="M532 457q3 25 -2.5 46.5t-19.5 37.5t-37 25.5t-56 9.5q-53 0 -90 -27t-60 -68.5t-33.5 -90t-10.5 -90.5q0 -35 6 -64.5t21 -51t40.5 -34t64.5 -12.5q59 0 100 36t51 90h186q-30 -138 -118 -208.5t-245 -70.5q-42 0 -93 13t-95.5 48.5t-74 98.5t-29.5 162q0 86 26 163
t75 134.5t120 91t162 33.5q67 0 122.5 -16t94.5 -49.5t60.5 -85t20.5 -121.5h-186zM360 771l27 130h154l-27 -130h-154z" />
    <glyph glyph-name="cdotaccent" unicode="&#x10b;" horiz-adv-x="574" 
d="M386 330q1 37 -21 59q-18 18 -55 20q-38 1 -63 -15.5t-40 -43.5t-21.5 -59t-6.5 -62q0 -57 21.5 -88t64.5 -31q41 0 65 24t34 64h165q-12 -56 -36.5 -96t-59.5 -66t-79.5 -38.5t-95.5 -12.5q-54 0 -99.5 14t-79 42t-52 70.5t-18.5 99.5q0 69 22 128t62 102.5t97 68
t128 24.5q49 0 91.5 -12.5t74 -37.5t49.5 -63.5t18 -90.5h-165zM247 585l27 130h154l-27 -130h-154z" />
    <glyph glyph-name="Ccaron" unicode="&#x10c;" horiz-adv-x="741" 
d="M532 457q3 25 -2.5 46.5t-19.5 37.5t-37 25.5t-56 9.5q-53 0 -90 -27t-60 -68.5t-33.5 -90t-10.5 -90.5q0 -35 6 -64.5t21 -51t40.5 -34t64.5 -12.5q59 0 100 36t51 90h186q-30 -138 -118 -208.5t-245 -70.5q-42 0 -93 13t-95.5 48.5t-74 98.5t-29.5 162q0 86 26 163
t75 134.5t120 91t162 33.5q67 0 122.5 -16t94.5 -49.5t60.5 -85t20.5 -121.5h-186zM399 909l45 -82l76 82h128l-145 -146h-146l-83 146h125z" />
    <glyph glyph-name="ccaron" unicode="&#x10d;" horiz-adv-x="574" 
d="M386 330q1 37 -21 59q-18 18 -55 20q-38 1 -63 -15.5t-40 -43.5t-21.5 -59t-6.5 -62q0 -57 21.5 -88t64.5 -31q41 0 65 24t34 64h165q-12 -56 -36.5 -96t-59.5 -66t-79.5 -38.5t-95.5 -12.5q-54 0 -99.5 14t-79 42t-52 70.5t-18.5 99.5q0 69 22 128t62 102.5t97 68
t128 24.5q49 0 91.5 -12.5t74 -37.5t49.5 -63.5t18 -90.5h-165zM289 723l45 -82l76 82h128l-145 -146h-146l-83 146h125z" />
    <glyph glyph-name="Dcaron" unicode="&#x10e;" horiz-adv-x="759" 
d="M212 160h123q60 0 100 24t64 59.5t34 77t10 76.5q0 43 -10 73t-28.5 49t-44.5 27t-58 8h-107zM143 714h268q69 0 127 -16.5t100.5 -52.5t66.5 -93.5t24 -139.5q0 -83 -25.5 -158t-77.5 -131.5t-130.5 -89.5t-184.5 -33h-319zM375 909l45 -82l76 82h128l-145 -146h-146
l-83 146h125z" />
    <glyph glyph-name="dcaron" unicode="&#x10f;" horiz-adv-x="745" 
d="M504 0h-165l14 64h-2q-26 -42 -64 -60.5t-87 -18.5q-51 0 -87 17t-59 46.5t-34 70t-11 87.5q0 63 18 122t52.5 105t86 73.5t119.5 27.5q54 0 90.5 -20t51.5 -64h2l54 264h170zM265 115q36 0 61 19t40.5 48t23 62.5t7.5 63.5q0 43 -22.5 69.5t-64.5 26.5q-36 0 -61 -18
t-40.5 -45.5t-22.5 -61t-7 -63.5q0 -41 19.5 -71t66.5 -30zM885 714l-115 -149h-104l66 149h153z" />
    <glyph glyph-name="Dcroat" unicode="&#x110;" horiz-adv-x="759" 
d="M271 440h137l-29 -144h-139l-28 -136h123q60 0 100 24t64 59.5t34 77t10 76.5q0 43 -10 73t-28.5 49t-44.5 27t-58 8h-107zM54 296h-102l32 144h101l58 274h268q69 0 127 -16.5t100.5 -52.5t66.5 -93.5t24 -139.5q0 -83 -25.5 -158t-77.5 -131.5t-130.5 -89.5t-184.5 -33
h-319z" />
    <glyph glyph-name="dcroat" unicode="&#x111;" horiz-adv-x="679" 
d="M504 0h-165l14 64h-2q-26 -42 -64 -60.5t-87 -18.5q-51 0 -87 17t-59 46.5t-34 70t-11 87.5q0 63 18 122t52.5 105t86 73.5t119.5 27.5q54 0 90.5 -20t51.5 -64h2l22 108h-97l16 79h97l16 77h170l-16 -77h111l-16 -79h-112zM265 115q36 0 61 19t40.5 48t23 62.5t7.5 63.5
q0 43 -22.5 69.5t-64.5 26.5q-36 0 -61 -18t-40.5 -45.5t-22.5 -61t-7 -63.5q0 -41 19.5 -71t66.5 -30z" />
    <glyph glyph-name="Emacron" unicode="&#x112;" horiz-adv-x="685" 
d="M140 714h570l-34 -160h-384l-23 -114h354l-30 -144h-354l-28 -136h387l-34 -160h-572zM240 797l16 79h381l-16 -79h-381z" />
    <glyph glyph-name="emacron" unicode="&#x113;" horiz-adv-x="611" 
d="M391 313q4 44 -16 75t-63 31q-53 0 -82 -28.5t-43 -77.5h204zM175 218q-1 -8 -1.5 -15t-0.5 -20q8 -83 92 -83q44 0 66.5 15.5t32.5 41.5h166q-15 -47 -42 -79.5t-62 -53t-78 -30t-90 -9.5q-54 0 -99.5 14t-79 42t-52 70.5t-18.5 99.5q0 69 22 128t62 102.5t97 68
t128 24.5q50 0 93.5 -14.5t75.5 -43t50 -71t18 -98.5q0 -46 -6 -89h-374zM143 611l16 79h381l-16 -79h-381z" />
    <glyph glyph-name="Ebreve" unicode="&#x114;" horiz-adv-x="685" 
d="M140 714h570l-34 -160h-384l-23 -114h354l-30 -144h-354l-28 -136h387l-34 -160h-572zM336 910q2 -39 27 -54.5t61 -15.5q41 0 72 15.5t48 54.5h71q-15 -72 -60 -110t-132 -38q-35 0 -65.5 8.5t-52 26.5t-32 46t-6.5 67h69z" />
    <glyph glyph-name="ebreve" unicode="&#x115;" horiz-adv-x="611" 
d="M391 313q4 44 -16 75t-63 31q-53 0 -82 -28.5t-43 -77.5h204zM175 218q-1 -8 -1.5 -15t-0.5 -20q8 -83 92 -83q44 0 66.5 15.5t32.5 41.5h166q-15 -47 -42 -79.5t-62 -53t-78 -30t-90 -9.5q-54 0 -99.5 14t-79 42t-52 70.5t-18.5 99.5q0 69 22 128t62 102.5t97 68
t128 24.5q50 0 93.5 -14.5t75.5 -43t50 -71t18 -98.5q0 -46 -6 -89h-374zM249 724q2 -39 27 -54.5t61 -15.5q41 0 72 15.5t48 54.5h71q-15 -72 -60 -110t-132 -38q-35 0 -65.5 8.5t-52 26.5t-32 46t-6.5 67h69z" />
    <glyph glyph-name="Edotaccent" unicode="&#x116;" horiz-adv-x="685" 
d="M140 714h570l-34 -160h-384l-23 -114h354l-30 -144h-354l-28 -136h387l-34 -160h-572zM349 771l27 130h154l-27 -130h-154z" />
    <glyph glyph-name="edotaccent" unicode="&#x117;" horiz-adv-x="611" 
d="M391 313q4 44 -16 75t-63 31q-53 0 -82 -28.5t-43 -77.5h204zM175 218q-1 -8 -1.5 -15t-0.5 -20q8 -83 92 -83q44 0 66.5 15.5t32.5 41.5h166q-15 -47 -42 -79.5t-62 -53t-78 -30t-90 -9.5q-54 0 -99.5 14t-79 42t-52 70.5t-18.5 99.5q0 69 22 128t62 102.5t97 68
t128 24.5q50 0 93.5 -14.5t75.5 -43t50 -71t18 -98.5q0 -46 -6 -89h-374zM249 585l27 130h154l-27 -130h-154z" />
    <glyph glyph-name="Eogonek" unicode="&#x118;" horiz-adv-x="685" 
d="M516 0q-65 -44 -94 -74.5t-29 -55.5q0 -18 9 -26t24 -8q20 0 35 10t28 27l44 -16q-26 -42 -60 -66.5t-83 -24.5q-14 0 -28.5 3t-29 11.5t-24.5 24t-10 41.5q0 14 4.5 30t20.5 36t44 41.5t75 46.5h-450l148 714h570l-34 -160h-384l-23 -114h354l-30 -144h-354l-28 -136
h387l-34 -160h-48z" />
    <glyph glyph-name="eogonek" unicode="&#x119;" horiz-adv-x="611" 
d="M175 218q-1 -8 -1.5 -15t-0.5 -20q8 -83 92 -83q44 0 66.5 15.5t32.5 41.5h166q-15 -47 -42 -79.5t-62 -53t-78 -29.5q-34 -8 -71 -9q-48 -35 -72 -60q-29 -31 -29 -56q0 -18 9 -26t24 -8q20 0 35 10t28 27l44 -16q-26 -42 -60 -66.5t-83 -24.5q-14 0 -28.5 3t-29 11.5
t-24.5 24t-10 41.5q0 14 4.5 30t20.5 36t44 42q21 16 54 35q-24 4 -46 10q-45 14 -78.5 42t-52 70.5t-18.5 99.5q0 69 22 128t62 102.5t97 68t128 24.5q50 0 93.5 -14.5t75.5 -43t50 -71t18 -98.5q0 -46 -6 -89h-374zM391 313q4 44 -16 75t-63 31q-53 0 -82 -28.5t-43 -77.5
h204z" />
    <glyph glyph-name="Ecaron" unicode="&#x11a;" horiz-adv-x="685" 
d="M140 714h570l-34 -160h-384l-23 -114h354l-30 -144h-354l-28 -136h387l-34 -160h-572zM392 909l45 -82l76 82h128l-145 -146h-146l-83 146h125z" />
    <glyph glyph-name="ecaron" unicode="&#x11b;" horiz-adv-x="611" 
d="M391 313q4 44 -16 75t-63 31q-53 0 -82 -28.5t-43 -77.5h204zM175 218q-1 -8 -1.5 -15t-0.5 -20q8 -83 92 -83q44 0 66.5 15.5t32.5 41.5h166q-15 -47 -42 -79.5t-62 -53t-78 -30t-90 -9.5q-54 0 -99.5 14t-79 42t-52 70.5t-18.5 99.5q0 69 22 128t62 102.5t97 68
t128 24.5q50 0 93.5 -14.5t75.5 -43t50 -71t18 -98.5q0 -46 -6 -89h-374zM296 723l45 -82l76 82h128l-145 -146h-146l-83 146h125z" />
    <glyph glyph-name="Gcircumflex" unicode="&#x11c;" horiz-adv-x="778" 
d="M557 471q1 25 -8.5 44.5t-25.5 33t-38 20.5t-47 7q-57 0 -97.5 -26t-66.5 -66.5t-38 -90t-12 -97.5q0 -76 36.5 -117t108.5 -41q66 0 104.5 25.5t59.5 89.5h-131l29 138h297l-83 -391h-119l4 72h-2q-16 -22 -34.5 -38.5t-42.5 -27t-55.5 -16t-74.5 -5.5q-51 0 -101.5 15
t-91 50.5t-65.5 95.5t-25 150q0 13 3.5 50.5t17 85.5t40 100.5t71 96t111 72t160.5 28.5q67 0 122 -15.5t93.5 -47t58.5 -80.5t18 -115h-176zM266 763l145 146h146l83 -146h-125l-45 82l-76 -82h-128z" />
    <glyph glyph-name="gcircumflex" unicode="&#x11d;" horiz-adv-x="611" 
d="M261 140q31 0 54.5 13.5t39 36t23 50.5t7.5 58q0 45 -19.5 75.5t-61.5 30.5q-33 0 -56.5 -14.5t-39 -38t-23 -52.5t-7.5 -58q0 -21 4.5 -39t14 -32t25.5 -22t39 -8zM146 -15q0 -29 19 -46q19 -16 49 -16q40 0 62 14t34 37t18 52.5t13 60.5h-2q-20 -32 -59.5 -47
t-76.5 -15q-44 0 -80 15t-61.5 41.5t-39.5 63t-14 80.5q0 56 16 111t48 99t78.5 71.5t108.5 27.5q25 0 49.5 -4t45.5 -14.5t37.5 -27.5t26.5 -42h2l14 73h163l-87 -419q-17 -82 -40.5 -136.5t-58.5 -86.5t-85.5 -45.5t-121.5 -13.5q-42 0 -83 7t-73.5 26t-52.5 51.5
t-19 82.5h170zM163 577l145 146h146l83 -146h-125l-45 82l-76 -82h-128z" />
    <glyph glyph-name="Gbreve" unicode="&#x11e;" horiz-adv-x="778" 
d="M557 471q1 25 -8.5 44.5t-25.5 33t-38 20.5t-47 7q-57 0 -97.5 -26t-66.5 -66.5t-38 -90t-12 -97.5q0 -76 36.5 -117t108.5 -41q66 0 104.5 25.5t59.5 89.5h-131l29 138h297l-83 -391h-119l4 72h-2q-16 -22 -34.5 -38.5t-42.5 -27t-55.5 -16t-74.5 -5.5q-51 0 -101.5 15
t-91 50.5t-65.5 95.5t-25 150q0 13 3.5 50.5t17 85.5t40 100.5t71 96t111 72t160.5 28.5q67 0 122 -15.5t93.5 -47t58.5 -80.5t18 -115h-176zM364 910q2 -39 27 -54.5t61 -15.5q41 0 72 15.5t48 54.5h71q-15 -72 -60 -110t-132 -38q-35 0 -65.5 8.5t-52 26.5t-32 46t-6.5 67
h69z" />
    <glyph glyph-name="gbreve" unicode="&#x11f;" horiz-adv-x="611" 
d="M261 140q31 0 54.5 13.5t39 36t23 50.5t7.5 58q0 45 -19.5 75.5t-61.5 30.5q-33 0 -56.5 -14.5t-39 -38t-23 -52.5t-7.5 -58q0 -21 4.5 -39t14 -32t25.5 -22t39 -8zM146 -15q0 -29 19 -46q19 -16 49 -16q40 0 62 14t34 37t18 52.5t13 60.5h-2q-20 -32 -59.5 -47
t-76.5 -15q-44 0 -80 15t-61.5 41.5t-39.5 63t-14 80.5q0 56 16 111t48 99t78.5 71.5t108.5 27.5q25 0 49.5 -4t45.5 -14.5t37.5 -27.5t26.5 -42h2l14 73h163l-87 -419q-17 -82 -40.5 -136.5t-58.5 -86.5t-85.5 -45.5t-121.5 -13.5q-42 0 -83 7t-73.5 26t-52.5 51.5
t-19 82.5h170zM271 724q2 -39 27 -54.5t61 -15.5q41 0 72 15.5t48 54.5h71q-15 -72 -60 -110t-132 -38q-35 0 -65.5 8.5t-52 26.5t-32 46t-6.5 67h69z" />
    <glyph glyph-name="Gdotaccent" unicode="&#x120;" horiz-adv-x="778" 
d="M557 471q1 25 -8.5 44.5t-25.5 33t-38 20.5t-47 7q-57 0 -97.5 -26t-66.5 -66.5t-38 -90t-12 -97.5q0 -76 36.5 -117t108.5 -41q66 0 104.5 25.5t59.5 89.5h-131l29 138h297l-83 -391h-119l4 72h-2q-16 -22 -34.5 -38.5t-42.5 -27t-55.5 -16t-74.5 -5.5q-51 0 -101.5 15
t-91 50.5t-65.5 95.5t-25 150q0 13 3.5 50.5t17 85.5t40 100.5t71 96t111 72t160.5 28.5q67 0 122 -15.5t93.5 -47t58.5 -80.5t18 -115h-176zM377 771l27 130h154l-27 -130h-154z" />
    <glyph glyph-name="gdotaccent" unicode="&#x121;" horiz-adv-x="611" 
d="M261 140q31 0 54.5 13.5t39 36t23 50.5t7.5 58q0 45 -19.5 75.5t-61.5 30.5q-33 0 -56.5 -14.5t-39 -38t-23 -52.5t-7.5 -58q0 -21 4.5 -39t14 -32t25.5 -22t39 -8zM146 -15q0 -29 19 -46q19 -16 49 -16q40 0 62 14t34 37t18 52.5t13 60.5h-2q-20 -32 -59.5 -47
t-76.5 -15q-44 0 -80 15t-61.5 41.5t-39.5 63t-14 80.5q0 56 16 111t48 99t78.5 71.5t108.5 27.5q25 0 49.5 -4t45.5 -14.5t37.5 -27.5t26.5 -42h2l14 73h163l-87 -419q-17 -82 -40.5 -136.5t-58.5 -86.5t-85.5 -45.5t-121.5 -13.5q-42 0 -83 7t-73.5 26t-52.5 51.5
t-19 82.5h170zM272 585l27 130h154l-27 -130h-154z" />
    <glyph glyph-name="Gcommaaccent" unicode="&#x122;" horiz-adv-x="778" 
d="M557 471q1 25 -8.5 44.5t-25.5 33t-38 20.5t-47 7q-57 0 -97.5 -26t-66.5 -66.5t-38 -90t-12 -97.5q0 -76 36.5 -117t108.5 -41q66 0 104.5 25.5t59.5 89.5h-131l29 138h297l-83 -391h-119l4 72h-2q-16 -22 -34.5 -38.5t-42.5 -27t-55.5 -16t-74.5 -5.5q-51 0 -101.5 15
t-91 50.5t-65.5 95.5t-25 150q0 13 3.5 50.5t17 85.5t40 100.5t71 96t111 72t160.5 28.5q67 0 122 -15.5t93.5 -47t58.5 -80.5t18 -115h-176zM251 -50h154l-17 -81q-9 -44 -36.5 -67t-56 -29.5t-68.5 -6.5l9 42q26 3 40 10.5t22 26.5h-69z" />
    <glyph glyph-name="gcommaaccent" unicode="&#x123;" horiz-adv-x="611" 
d="M261 140q31 0 54.5 13.5t39 36t23 50.5t7.5 58q0 45 -19.5 75.5t-61.5 30.5q-33 0 -56.5 -14.5t-39 -38t-23 -52.5t-7.5 -58q0 -21 4.5 -39t14 -32t25.5 -22t39 -8zM146 -15q0 -29 19 -46q19 -16 49 -16q40 0 62 14t34 37t18 52.5t13 60.5h-2q-20 -32 -59.5 -47
t-76.5 -15q-44 0 -80 15t-61.5 41.5t-39.5 63t-14 80.5q0 56 16 111t48 99t78.5 71.5t108.5 27.5q25 0 49.5 -4t45.5 -14.5t37.5 -27.5t26.5 -42h2l14 73h163l-87 -419q-17 -82 -40.5 -136.5t-58.5 -86.5t-85.5 -45.5t-121.5 -13.5q-42 0 -83 7t-73.5 26t-52.5 51.5
t-19 82.5h170zM427 609h-154l17 81q9 44 37 67t56 29.5t68 6.5l-8 -42q-27 -3 -41 -10.5t-22 -26.5h69z" />
    <glyph glyph-name="Hcircumflex" unicode="&#x124;" horiz-adv-x="741" 
d="M138 714h186l-54 -260h248l54 260h186l-149 -714h-186l61 294h-248l-61 -294h-186zM263 763l145 146h146l83 -146h-125l-45 82l-76 -82h-128z" />
    <glyph glyph-name="hcircumflex" unicode="&#x125;" 
d="M141 714h170l-55 -256l2 -2q9 13 24.5 27t38 25t51.5 18.5t63 7.5q70 0 109.5 -39.5t39.5 -106.5q0 -26 -6.5 -59t-11.5 -53l-62 -276h-170l59 275q4 18 7 34.5t3 31.5q0 31 -17.5 47t-44.5 16q-39 0 -62.5 -17t-37.5 -43.5t-21 -59t-14 -64.5l-46 -220h-170zM198 763
l145 146h146l83 -146h-125l-45 82l-76 -82h-128z" />
    <glyph glyph-name="Hbar" unicode="&#x126;" horiz-adv-x="741" 
d="M138 714h186l-32 -150h248l32 150h186l-149 -714h-186l52 255h-248l-52 -255h-186zM507 405l17 80h-248l-17 -80h248z" />
    <glyph glyph-name="hbar" unicode="&#x127;" horiz-adv-x="670" 
d="M181 714h170l-17 -77h95l-16 -79h-96l-21 -100l2 -2q9 13 24.5 27t38 25t51.5 18.5t63 7.5q70 0 109.5 -39.5t39.5 -106.5q0 -26 -6.5 -59t-11.5 -53l-62 -276h-170l59 275q4 18 7 34.5t3 31.5q0 31 -17.5 47t-44.5 16q-39 0 -62.5 -17t-37.5 -43.5t-21 -59t-14 -64.5
l-46 -220h-170l118 558h-116l16 79h116z" />
    <glyph glyph-name="Itilde" unicode="&#x128;" horiz-adv-x="315" 
d="M141 714h186l-149 -714h-186zM431 904q-5 -24 -13.5 -47.5t-22 -42.5t-33.5 -31t-48 -12q-15 0 -32 4t-34 10l-41 14q-21 7 -28.5 9t-15.5 2q-11 0 -22.5 -10.5t-15.5 -30.5h-78q3 23 12.5 46.5t25 42.5t36.5 31t47 12q14 0 27.5 -4t27.5 -9l45 -17q25 -11 48 -11
q17 0 25 15t12 29h78z" />
    <glyph glyph-name="itilde" unicode="&#x129;" horiz-adv-x="296" 
d="M98 519h170l-108 -519h-170zM384 718q-5 -24 -13.5 -47.5t-22 -42.5t-33.5 -31t-48 -12q-15 0 -32 4t-34 10l-41 14q-21 7 -28.5 9t-15.5 2q-11 0 -22.5 -10.5t-15.5 -30.5h-78q3 23 12.5 46.5t25 42.5t36.5 31t47 12q14 0 27.5 -4t27.5 -9l45 -17q25 -11 48 -11
q17 0 25 15t12 29h78z" />
    <glyph glyph-name="Imacron" unicode="&#x12a;" horiz-adv-x="315" 
d="M141 714h186l-149 -714h-186zM52 797l16 79h381l-16 -79h-381z" />
    <glyph glyph-name="imacron" unicode="&#x12b;" horiz-adv-x="296" 
d="M98 519h170l-108 -519h-170zM-3 611l16 79h381l-16 -79h-381z" />
    <glyph glyph-name="Iogonek" unicode="&#x12e;" horiz-adv-x="315" 
d="M159 0q-65 -44 -94 -74.5t-29 -55.5q0 -18 9 -26t24 -8q20 0 35 10t28 27l44 -16q-26 -42 -60 -66.5t-83 -24.5q-14 0 -28.5 3t-29 11.5t-24.5 24t-10 41.5q0 14 4.5 30t20.5 36t44 41.5t75 46.5h-93l149 714h186l-149 -714h-19z" />
    <glyph glyph-name="iogonek" unicode="&#x12f;" horiz-adv-x="296" 
d="M159 0q-64 -44 -92 -74.5t-28 -55.5q0 -18 9 -26t23 -8q20 0 34.5 10t26.5 27l43 -16q-25 -42 -58 -66.5t-81 -24.5q-13 0 -27 3t-28.5 11.5t-24 24t-9.5 41.5q0 14 4.5 30t20 36t42.5 41.5t73 46.5h-97l108 519h170l-108 -519h-1zM282 584h-170l27 130h170z" />
    <glyph glyph-name="Idotaccent" unicode="&#x130;" horiz-adv-x="315" 
d="M141 714h186l-149 -714h-186zM166 771l27 130h154l-27 -130h-154z" />
    <glyph glyph-name="dotlessi" unicode="&#x131;" horiz-adv-x="296" 
d="M98 519h170l-108 -519h-170z" />
    <glyph glyph-name="Jcircumflex" unicode="&#x134;" horiz-adv-x="593" 
d="M506 229q-26 -127 -97 -185.5t-197 -58.5q-35 0 -72.5 8t-68.5 29t-51 56.5t-20 91.5q0 24 3.5 53.5t10.5 58.5h171q-6 -22 -10.5 -43.5t-4.5 -39.5q0 -61 60 -61q42 0 61 21.5t29 69.5l99 485h186zM327 763l145 146h146l83 -146h-125l-45 82l-76 -82h-128z" />
    <glyph glyph-name="jcircumflex" unicode="&#x135;" horiz-adv-x="296" 
d="M-105 -44h39q34 0 45 19t18 54l102 490h169l-100 -482q-12 -59 -27 -99.5t-39.5 -65t-61 -35.5t-92.5 -11h-82zM-2 577l145 146h146l83 -146h-125l-45 82l-76 -82h-128z" />
    <glyph glyph-name="Kcommaaccent" unicode="&#x136;" horiz-adv-x="741" 
d="M143 714h186l-59 -280h2l291 280h246l-341 -294l212 -420h-212l-147 300l-97 -83l-46 -217h-186zM230 -50h154l-17 -81q-9 -44 -36.5 -67t-56 -29.5t-68.5 -6.5l9 42q26 3 40 10.5t22 26.5h-69z" />
    <glyph glyph-name="kcommaaccent" unicode="&#x137;" horiz-adv-x="574" 
d="M140 714h170l-78 -370h2l177 175h210l-235 -204l130 -315h-185l-78 209l-60 -50l-33 -159h-170zM162 -50h154l-17 -81q-9 -44 -36.5 -67t-56 -29.5t-68.5 -6.5l9 42q26 3 40 10.5t22 26.5h-69z" />
    <glyph glyph-name="Lacute" unicode="&#x139;" horiz-adv-x="593" 
d="M141 714h186l-116 -554h334l-34 -160h-519zM286 909h185l-179 -146h-114z" />
    <glyph glyph-name="lacute" unicode="&#x13a;" horiz-adv-x="296" 
d="M139 714h170l-149 -714h-170zM255 909h185l-179 -146h-114z" />
    <glyph glyph-name="Lcommaaccent" unicode="&#x13b;" horiz-adv-x="593" 
d="M141 714h186l-116 -554h334l-34 -160h-519zM172 -50h154l-17 -81q-9 -44 -36.5 -67t-56 -29.5t-68.5 -6.5l9 42q26 3 40 10.5t22 26.5h-69z" />
    <glyph glyph-name="lcommaaccent" unicode="&#x13c;" horiz-adv-x="296" 
d="M139 714h170l-149 -714h-170zM-9 -50h154l-17 -81q-9 -44 -36.5 -67t-56 -29.5t-68.5 -6.5l9 42q26 3 40 10.5t22 26.5h-69z" />
    <glyph glyph-name="Lcaron" unicode="&#x13d;" horiz-adv-x="593" 
d="M141 714h186l-116 -554h334l-34 -160h-519zM607 714l-115 -149h-104l66 149h153z" />
    <glyph glyph-name="lcaron" unicode="&#x13e;" horiz-adv-x="401" 
d="M139 714h170l-149 -714h-170zM541 714l-115 -149h-104l66 149h153z" />
    <glyph glyph-name="Ldot" unicode="&#x13f;" horiz-adv-x="593" 
d="M141 714h186l-116 -554h334l-34 -160h-519zM375.832 368.515l21.9277 149.004h125.068l-21.9277 -149.004h-125.068z" />
    <glyph glyph-name="ldot" unicode="&#x140;" horiz-adv-x="445" 
d="M139 714h170l-149 -714h-170zM311.742 380.004l22.8232 126.002h130.172l-22.8223 -126.002h-130.173z" />
    <glyph glyph-name="Lslash" unicode="&#x141;" horiz-adv-x="593" 
d="M50 277l-88 -47l24 119l88 46l67 319h186l-44 -211l182 96l-25 -119l-183 -98l-46 -222h334l-34 -160h-519z" />
    <glyph glyph-name="lslash" unicode="&#x142;" horiz-adv-x="296" 
d="M41 244l-93 -73l23 109l92 73l75 361h170l-42 -202l94 73l-23 -109l-93 -73l-84 -403h-170z" />
    <glyph glyph-name="Nacute" unicode="&#x143;" horiz-adv-x="741" 
d="M133 714h191l167 -467h2l89 467h180l-149 -714h-191l-165 467h-2l-91 -467h-180zM482 909h185l-179 -146h-114z" />
    <glyph glyph-name="nacute" unicode="&#x144;" 
d="M98 519h170l-14 -63h2q9 13 25.5 27t39 25t51.5 18.5t63 7.5q70 0 109.5 -39.5t39.5 -106.5q0 -26 -6.5 -59t-11.5 -53l-62 -276h-170l59 275q4 18 7 34.5t3 31.5q0 31 -17.5 47t-44.5 16q-39 0 -62.5 -17t-37.5 -43.5t-21 -59t-14 -64.5l-46 -220h-170zM397 723h185
l-179 -146h-114z" />
    <glyph glyph-name="Ncommaaccent" unicode="&#x145;" horiz-adv-x="741" 
d="M133 714h191l167 -467h2l89 467h180l-149 -714h-191l-165 467h-2l-91 -467h-180zM225 -50h154l-17 -81q-9 -44 -36.5 -67t-56 -29.5t-68.5 -6.5l9 42q26 3 40 10.5t22 26.5h-69z" />
    <glyph glyph-name="ncommaaccent" unicode="&#x146;" 
d="M98 519h170l-14 -63h2q9 13 25.5 27t39 25t51.5 18.5t63 7.5q70 0 109.5 -39.5t39.5 -106.5q0 -26 -6.5 -59t-11.5 -53l-62 -276h-170l59 275q4 18 7 34.5t3 31.5q0 31 -17.5 47t-44.5 16q-39 0 -62.5 -17t-37.5 -43.5t-21 -59t-14 -64.5l-46 -220h-170zM159 -50h154
l-17 -81q-9 -44 -36.5 -67t-56 -29.5t-68.5 -6.5l9 42q26 3 40 10.5t22 26.5h-69z" />
    <glyph glyph-name="Ncaron" unicode="&#x147;" horiz-adv-x="741" 
d="M133 714h191l167 -467h2l89 467h180l-149 -714h-191l-165 467h-2l-91 -467h-180zM406 909l45 -82l76 82h128l-145 -146h-146l-83 146h125z" />
    <glyph glyph-name="ncaron" unicode="&#x148;" 
d="M98 519h170l-14 -63h2q9 13 25.5 27t39 25t51.5 18.5t63 7.5q70 0 109.5 -39.5t39.5 -106.5q0 -26 -6.5 -59t-11.5 -53l-62 -276h-170l59 275q4 18 7 34.5t3 31.5q0 31 -17.5 47t-44.5 16q-39 0 -62.5 -17t-37.5 -43.5t-21 -59t-14 -64.5l-46 -220h-170zM320 723l45 -82
l76 82h128l-145 -146h-146l-83 146h125z" />
    <glyph glyph-name="Omacron" unicode="&#x14c;" horiz-adv-x="778" 
d="M219 300q0 -35 8.5 -64.5t26 -51t44.5 -34t64 -12.5q50 0 88 27t63.5 67.5t38.5 88.5t13 90q0 80 -31.5 122.5t-106.5 42.5q-54 0 -93.5 -26.5t-65 -67t-37.5 -89.5t-12 -93zM33 301q0 89 28 167t80 136t126 91.5t166 33.5q31 0 66.5 -4.5t71 -17t68 -33.5t57.5 -54.5
t40 -81t15 -111.5q0 -94 -27 -175t-79 -140t-127 -93t-171 -34q-150 0 -232 83t-82 233zM273 797l16 79h381l-16 -79h-381z" />
    <glyph glyph-name="omacron" unicode="&#x14d;" horiz-adv-x="611" 
d="M179 217q0 -45 19 -76t64 -31q36 0 61 18t40.5 46t22.5 61t7 63q0 49 -19 80t-67 31q-35 0 -59 -20t-39.5 -49.5t-22.5 -63t-7 -59.5zM9 211q0 69 22 128t62 102.5t97 68t128 24.5q53 0 98 -15t77.5 -44t51 -71.5t18.5 -98.5q0 -69 -21 -128t-61 -101.5t-96.5 -66.5
t-126.5 -24q-54 0 -99.5 14t-79 42t-52 70.5t-18.5 99.5zM142 611l16 79h381l-16 -79h-381z" />
    <glyph glyph-name="Obreve" unicode="&#x14e;" horiz-adv-x="778" 
d="M219 300q0 -35 8.5 -64.5t26 -51t44.5 -34t64 -12.5q50 0 88 27t63.5 67.5t38.5 88.5t13 90q0 80 -31.5 122.5t-106.5 42.5q-54 0 -93.5 -26.5t-65 -67t-37.5 -89.5t-12 -93zM33 301q0 89 28 167t80 136t126 91.5t166 33.5q31 0 66.5 -4.5t71 -17t68 -33.5t57.5 -54.5
t40 -81t15 -111.5q0 -94 -27 -175t-79 -140t-127 -93t-171 -34q-150 0 -232 83t-82 233zM372 910q2 -39 27 -54.5t61 -15.5q41 0 72 15.5t48 54.5h71q-15 -72 -60 -110t-132 -38q-35 0 -65.5 8.5t-52 26.5t-32 46t-6.5 67h69z" />
    <glyph glyph-name="obreve" unicode="&#x14f;" horiz-adv-x="611" 
d="M179 217q0 -45 19 -76t64 -31q36 0 61 18t40.5 46t22.5 61t7 63q0 49 -19 80t-67 31q-35 0 -59 -20t-39.5 -49.5t-22.5 -63t-7 -59.5zM9 211q0 69 22 128t62 102.5t97 68t128 24.5q53 0 98 -15t77.5 -44t51 -71.5t18.5 -98.5q0 -69 -21 -128t-61 -101.5t-96.5 -66.5
t-126.5 -24q-54 0 -99.5 14t-79 42t-52 70.5t-18.5 99.5zM252 724q2 -39 27 -54.5t61 -15.5q41 0 72 15.5t48 54.5h71q-15 -72 -60 -110t-132 -38q-35 0 -65.5 8.5t-52 26.5t-32 46t-6.5 67h69z" />
    <glyph glyph-name="Ohungarumlaut" unicode="&#x150;" horiz-adv-x="778" 
d="M219 300q0 -35 8.5 -64.5t26 -51t44.5 -34t64 -12.5q50 0 88 27t63.5 67.5t38.5 88.5t13 90q0 80 -31.5 122.5t-106.5 42.5q-54 0 -93.5 -26.5t-65 -67t-37.5 -89.5t-12 -93zM33 301q0 89 28 167t80 136t126 91.5t166 33.5q31 0 66.5 -4.5t71 -17t68 -33.5t57.5 -54.5
t40 -81t15 -111.5q0 -94 -27 -175t-79 -140t-127 -93t-171 -34q-150 0 -232 83t-82 233zM798 909l-179 -146h-113l107 146h185zM560 909l-179 -146h-113l107 146h185z" />
    <glyph glyph-name="ohungarumlaut" unicode="&#x151;" horiz-adv-x="611" 
d="M179 217q0 -45 19 -76t64 -31q36 0 61 18t40.5 46t22.5 61t7 63q0 49 -19 80t-67 31q-35 0 -59 -20t-39.5 -49.5t-22.5 -63t-7 -59.5zM9 211q0 69 22 128t62 102.5t97 68t128 24.5q53 0 98 -15t77.5 -44t51 -71.5t18.5 -98.5q0 -69 -21 -128t-61 -101.5t-96.5 -66.5
t-126.5 -24q-54 0 -99.5 14t-79 42t-52 70.5t-18.5 99.5zM680 723l-179 -146h-113l107 146h185zM442 723l-179 -146h-113l107 146h185z" />
    <glyph glyph-name="OE" unicode="&#x152;" horiz-adv-x="1111" 
d="M430 576q-56 0 -95.5 -27.5t-65.5 -70.5t-38 -94t-12 -97q0 -31 7 -58t23 -47.5t40 -32t59 -11.5q49 0 86.5 23t63.5 63.5t39.5 97t13.5 122.5t-32 99t-89 33zM1105 554h-344l-24 -114h312l-30 -144h-312l-28 -136h348l-33 -160h-517l13 56h-2q-31 -38 -76 -54.5
t-108 -16.5q-71 0 -122.5 24t-84.5 65.5t-48.5 97.5t-15.5 121q0 83 27 161.5t77 139.5t121.5 98t160.5 37q67 0 109.5 -16.5t73.5 -57.5l11 59h526z" />
    <glyph glyph-name="oe" unicode="&#x153;" horiz-adv-x="944" 
d="M735 313q1 21 -1.5 40.5t-11 34t-23.5 23t-39 8.5q-52 0 -83.5 -28t-42.5 -78h201zM311 419q-38 0 -63 -19.5t-40.5 -50t-22 -67.5t-6.5 -73q0 -52 18 -80.5t61 -28.5q39 0 64.5 23t40 56.5t20.5 71t6 66.5q0 102 -78 102zM517 218q-1 -7 -1 -15v-15q0 -38 23.5 -63
t68.5 -25q70 0 99 57h164q-15 -47 -42 -79.5t-62 -53t-77 -30t-88 -9.5q-26 0 -52 3.5t-49.5 12.5t-43.5 24t-35 38q-69 -78 -175 -78q-121 0 -179.5 61t-58.5 179q0 65 23 121.5t63.5 98t95.5 65.5t120 24q49 0 97.5 -17.5t78.5 -58.5q36 38 81 57t106 19q50 0 91.5 -15
t71 -44t46 -72t16.5 -99q0 -22 -1.5 -43t-6.5 -43h-374z" />
    <glyph glyph-name="Racute" unicode="&#x154;" horiz-adv-x="722" 
d="M133 714h350q49 0 90.5 -7.5t72.5 -28t48.5 -56.5t17.5 -93q0 -80 -39.5 -133.5t-123.5 -65.5v-2q40 -10 56.5 -38.5t16.5 -80.5q0 -39 -1.5 -70.5t-1.5 -62.5q0 -19 1.5 -40t9.5 -36h-187q-2 11 -4 20.5t-2 20.5q0 28 2.5 57.5t2.5 65.5q0 48 -21.5 72t-71.5 24h-124
l-54 -260h-186zM253 398h148q25 0 47.5 4.5t40 15.5t27.5 30t10 48q0 23 -8.5 37.5t-23 22.5t-32.5 11t-36 3h-137zM428 909h185l-179 -146h-114z" />
    <glyph glyph-name="racute" unicode="&#x155;" horiz-adv-x="426" 
d="M98 519h165l-19 -85h2q26 46 68.5 73t94.5 27q17 0 30.5 -1.5t26.5 -7.5l-33 -150q-17 5 -35 7.5t-42 2.5q-35 0 -59.5 -10.5t-42 -30t-28 -46.5t-16.5 -60l-50 -238h-170zM267 723h185l-179 -146h-114z" />
    <glyph glyph-name="Rcommaaccent" unicode="&#x156;" horiz-adv-x="722" 
d="M133 714h350q49 0 90.5 -7.5t72.5 -28t48.5 -56.5t17.5 -93q0 -80 -39.5 -133.5t-123.5 -65.5v-2q40 -10 56.5 -38.5t16.5 -80.5q0 -39 -1.5 -70.5t-1.5 -62.5q0 -19 1.5 -40t9.5 -36h-187q-2 11 -4 20.5t-2 20.5q0 28 2.5 57.5t2.5 65.5q0 48 -21.5 72t-71.5 24h-124
l-54 -260h-186zM253 398h148q25 0 47.5 4.5t40 15.5t27.5 30t10 48q0 23 -8.5 37.5t-23 22.5t-32.5 11t-36 3h-137zM225 -50h154l-17 -81q-9 -44 -36.5 -67t-56 -29.5t-68.5 -6.5l9 42q26 3 40 10.5t22 26.5h-69z" />
    <glyph glyph-name="rcommaaccent" unicode="&#x157;" horiz-adv-x="426" 
d="M98 519h165l-19 -85h2q26 46 68.5 73t94.5 27q17 0 30.5 -1.5t26.5 -7.5l-33 -150q-17 5 -35 7.5t-42 2.5q-35 0 -59.5 -10.5t-42 -30t-28 -46.5t-16.5 -60l-50 -238h-170zM-10 -50h154l-17 -81q-9 -44 -36.5 -67t-56 -29.5t-68.5 -6.5l9 42q26 3 40 10.5t22 26.5h-69z
" />
    <glyph glyph-name="Rcaron" unicode="&#x158;" horiz-adv-x="722" 
d="M133 714h350q49 0 90.5 -7.5t72.5 -28t48.5 -56.5t17.5 -93q0 -80 -39.5 -133.5t-123.5 -65.5v-2q40 -10 56.5 -38.5t16.5 -80.5q0 -39 -1.5 -70.5t-1.5 -62.5q0 -19 1.5 -40t9.5 -36h-187q-2 11 -4 20.5t-2 20.5q0 28 2.5 57.5t2.5 65.5q0 48 -21.5 72t-71.5 24h-124
l-54 -260h-186zM253 398h148q25 0 47.5 4.5t40 15.5t27.5 30t10 48q0 23 -8.5 37.5t-23 22.5t-32.5 11t-36 3h-137zM389 909l45 -82l76 82h128l-145 -146h-146l-83 146h125z" />
    <glyph glyph-name="rcaron" unicode="&#x159;" horiz-adv-x="426" 
d="M98 519h165l-19 -85h2q26 46 68.5 73t94.5 27q17 0 30.5 -1.5t26.5 -7.5l-33 -150q-17 5 -35 7.5t-42 2.5q-35 0 -59.5 -10.5t-42 -30t-28 -46.5t-16.5 -60l-50 -238h-170zM228 723l45 -82l76 82h128l-145 -146h-146l-83 146h125z" />
    <glyph glyph-name="Sacute" unicode="&#x15a;" horiz-adv-x="667" 
d="M186 240q0 -58 32.5 -80t98.5 -22q57 0 81.5 21t24.5 50q0 27 -18 43t-45 26.5t-59 18t-60 17.5q-33 12 -62.5 27.5t-51.5 37t-34.5 51t-12.5 68.5q0 61 25 104.5t66 71.5t93 41.5t106 13.5q57 0 108 -11.5t89 -38.5t59.5 -71t19.5 -109h-186q0 39 -25 58t-75 19
q-17 0 -34 -3.5t-30.5 -11.5t-21.5 -20t-8 -29q0 -16 6 -26t21 -17.5t40 -14.5t63 -17q37 -10 74.5 -25.5t68.5 -41t50.5 -62.5t19.5 -89q0 -48 -21 -90.5t-61.5 -74.5t-101 -50.5t-138.5 -18.5q-64 0 -117 16t-91 48t-59 80t-20 111h186zM425 909h185l-179 -146h-114z" />
    <glyph glyph-name="sacute" unicode="&#x15b;" horiz-adv-x="537" 
d="M145 170q-1 -18 4.5 -31t14.5 -23q12 -11 29.5 -16t37.5 -5q11 0 24 2.5t24.5 8.5t19.5 16t8 26q0 17 -7.5 26.5t-23 16.5t-39 12t-54.5 13q-29 6 -54.5 15.5t-45.5 25t-31.5 40t-11.5 61.5q0 52 23.5 86t60.5 54t81 28t86 8q40 0 79.5 -7.5t70.5 -26.5t49 -51.5
t15 -82.5h-154q2 29 -13 45q-8 9 -22.5 13.5t-28.5 4.5q-13 0 -26.5 -2.5t-25 -8t-18.5 -15t-7 -23.5t9.5 -23t25.5 -15t37 -10.5t44 -10.5q36 -9 64 -19t47.5 -26t29.5 -40.5t10 -62.5q0 -60 -24.5 -96.5t-63 -57t-85.5 -27.5t-93 -7q-50 0 -90 10t-68.5 32t-45 57
t-18.5 86h156zM341 723h185l-179 -146h-114z" />
    <glyph glyph-name="Scircumflex" unicode="&#x15c;" horiz-adv-x="667" 
d="M186 240q0 -58 32.5 -80t98.5 -22q57 0 81.5 21t24.5 50q0 27 -18 43t-45 26.5t-59 18t-60 17.5q-33 12 -62.5 27.5t-51.5 37t-34.5 51t-12.5 68.5q0 61 25 104.5t66 71.5t93 41.5t106 13.5q57 0 108 -11.5t89 -38.5t59.5 -71t19.5 -109h-186q0 39 -25 58t-75 19
q-17 0 -34 -3.5t-30.5 -11.5t-21.5 -20t-8 -29q0 -16 6 -26t21 -17.5t40 -14.5t63 -17q37 -10 74.5 -25.5t68.5 -41t50.5 -62.5t19.5 -89q0 -48 -21 -90.5t-61.5 -74.5t-101 -50.5t-138.5 -18.5q-64 0 -117 16t-91 48t-59 80t-20 111h186zM204 763l145 146h146l83 -146h-125
l-45 82l-76 -82h-128z" />
    <glyph glyph-name="scircumflex" unicode="&#x15d;" horiz-adv-x="537" 
d="M145 170q-1 -18 4.5 -31t14.5 -23q12 -11 29.5 -16t37.5 -5q11 0 24 2.5t24.5 8.5t19.5 16t8 26q0 17 -7.5 26.5t-23 16.5t-39 12t-54.5 13q-29 6 -54.5 15.5t-45.5 25t-31.5 40t-11.5 61.5q0 52 23.5 86t60.5 54t81 28t86 8q40 0 79.5 -7.5t70.5 -26.5t49 -51.5
t15 -82.5h-154q2 29 -13 45q-8 9 -22.5 13.5t-28.5 4.5q-13 0 -26.5 -2.5t-25 -8t-18.5 -15t-7 -23.5t9.5 -23t25.5 -15t37 -10.5t44 -10.5q36 -9 64 -19t47.5 -26t29.5 -40.5t10 -62.5q0 -60 -24.5 -96.5t-63 -57t-85.5 -27.5t-93 -7q-50 0 -90 10t-68.5 32t-45 57
t-18.5 86h156zM119 577l145 146h146l83 -146h-125l-45 82l-76 -82h-128z" />
    <glyph glyph-name="Scedilla" unicode="&#x15e;" horiz-adv-x="667" 
d="M139 -162q22 -11 38 -15.5t38 -4.5q23 0 40 10t17 33q0 16 -12.5 23.5t-26.5 7.5q-20 0 -35 -7l-22 25l59 78q-35 4 -65 13q-53 16 -91 48t-59 80t-20 111h186q0 -58 32.5 -80t98.5 -22q57 0 81.5 21t24.5 50q0 27 -18 43t-45 26.5t-59 18t-60 17.5q-33 12 -62.5 27.5
t-51.5 37t-34.5 51t-12.5 68.5q0 61 25 104.5t66 71.5t93 41.5t106 13.5q57 0 108 -11.5t89 -38.5t59.5 -71t19.5 -109h-186q0 39 -25 58t-75 19q-17 0 -34 -3.5t-30.5 -11.5t-21.5 -20t-8 -29q0 -16 6 -26t21 -17.5t40 -14.5t63 -17q37 -10 74.5 -25.5t68.5 -41t50.5 -62.5
t19.5 -89q0 -48 -21 -90.5t-61.5 -74.5t-101 -50.5t-137.5 -18.5l-39 -48v-2q8 2 15.5 2.5t15.5 0.5q32 0 57.5 -20.5t25.5 -54.5q0 -30 -13.5 -49t-33 -30t-41.5 -14.5t-48 -3.5q-28 0 -56.5 7t-56.5 21z" />
    <glyph glyph-name="scedilla" unicode="&#x15f;" horiz-adv-x="537" 
d="M73 -162q22 -11 38 -15.5t38 -4.5q23 0 40 10t17 33q0 16 -12.5 23.5t-26.5 7.5q-20 0 -35 -7l-22 25l58 77q-25 3 -47 8q-40 10 -68.5 32t-45 57t-18.5 86h156q-1 -18 4.5 -31t14.5 -23q12 -11 29.5 -16t37.5 -5q11 0 24 2.5t24.5 8.5t19.5 16t8 26q0 17 -7.5 26.5
t-23 16.5t-39 12t-54.5 13q-29 6 -54.5 15.5t-45.5 25t-31.5 40t-11.5 61.5q0 52 23.5 86t60.5 54t81 28t86 8q40 0 79.5 -7.5t70.5 -26.5t49 -51.5t15 -82.5h-154q2 29 -13 45q-8 9 -22.5 13.5t-28.5 4.5q-13 0 -26.5 -2.5t-25 -8t-18.5 -15t-7 -23.5t9.5 -23t25.5 -15
t37 -10.5t44 -10.5q36 -9 64 -19t47.5 -26t29.5 -40.5t10 -62.5q0 -60 -24.5 -96.5t-63 -57t-85.5 -27.5q-41 -6 -82 -7l-39 -48v-2q8 2 15.5 2.5t15.5 0.5q32 0 57.5 -20.5t25.5 -54.5q0 -30 -13.5 -49t-33 -30t-41.5 -14.5t-48 -3.5q-28 0 -56.5 7t-56.5 21z" />
    <glyph glyph-name="Scaron" unicode="&#x160;" horiz-adv-x="667" 
d="M186 240q0 -58 32.5 -80t98.5 -22q57 0 81.5 21t24.5 50q0 27 -18 43t-45 26.5t-59 18t-60 17.5q-33 12 -62.5 27.5t-51.5 37t-34.5 51t-12.5 68.5q0 61 25 104.5t66 71.5t93 41.5t106 13.5q57 0 108 -11.5t89 -38.5t59.5 -71t19.5 -109h-186q0 39 -25 58t-75 19
q-17 0 -34 -3.5t-30.5 -11.5t-21.5 -20t-8 -29q0 -16 6 -26t21 -17.5t40 -14.5t63 -17q37 -10 74.5 -25.5t68.5 -41t50.5 -62.5t19.5 -89q0 -48 -21 -90.5t-61.5 -74.5t-101 -50.5t-138.5 -18.5q-64 0 -117 16t-91 48t-59 80t-20 111h186zM365 909l45 -82l76 82h128
l-145 -146h-146l-83 146h125z" />
    <glyph glyph-name="scaron" unicode="&#x161;" horiz-adv-x="537" 
d="M145 170q-1 -18 4.5 -31t14.5 -23q12 -11 29.5 -16t37.5 -5q11 0 24 2.5t24.5 8.5t19.5 16t8 26q0 17 -7.5 26.5t-23 16.5t-39 12t-54.5 13q-29 6 -54.5 15.5t-45.5 25t-31.5 40t-11.5 61.5q0 52 23.5 86t60.5 54t81 28t86 8q40 0 79.5 -7.5t70.5 -26.5t49 -51.5
t15 -82.5h-154q2 29 -13 45q-8 9 -22.5 13.5t-28.5 4.5q-13 0 -26.5 -2.5t-25 -8t-18.5 -15t-7 -23.5t9.5 -23t25.5 -15t37 -10.5t44 -10.5q36 -9 64 -19t47.5 -26t29.5 -40.5t10 -62.5q0 -60 -24.5 -96.5t-63 -57t-85.5 -27.5t-93 -7q-50 0 -90 10t-68.5 32t-45 57
t-18.5 86h156zM269 723l45 -82l76 82h128l-145 -146h-146l-83 146h125z" />
    <glyph glyph-name="Tcommaaccent" unicode="&#x162;" 
d="M658 554h-210l-117 -554h-186l117 554h-210l32 160h606zM154 -50h154l-17 -81q-9 -44 -36.5 -67t-56 -29.5t-68.5 -6.5l9 42q26 3 40 10.5t22 26.5h-69z" />
    <glyph glyph-name="tcommaaccent" unicode="&#x163;" horiz-adv-x="389" 
d="M299 519h107l-23 -110h-108l-41 -196q-4 -17 -6.5 -32.5t-2.5 -29.5q0 -19 15.5 -23t37.5 -4q14 0 26.5 1t26.5 2l-26 -127q-26 -2 -50 -4t-49 -2q-30 0 -58.5 3t-51.5 12.5t-37 27t-14 47.5q0 27 5 59t15 78l40 188h-86l23 110h86l33 156h170zM86 -50h154l-17 -81
q-9 -44 -36.5 -67t-56 -29.5t-68.5 -6.5l9 42q26 3 40 10.5t22 26.5h-69z" />
    <glyph glyph-name="Tcaron" unicode="&#x164;" 
d="M658 554h-210l-117 -554h-186l117 554h-210l32 160h606zM357 909l45 -82l76 82h128l-145 -146h-146l-83 146h125z" />
    <glyph glyph-name="tcaron" unicode="&#x165;" horiz-adv-x="475" 
d="M615 714l-115 -149h-104l66 149h153zM299 519h107l-23 -110h-108l-41 -196q-4 -17 -6.5 -32.5t-2.5 -29.5q0 -19 15.5 -23t37.5 -4q14 0 26.5 1t26.5 2l-26 -127q-26 -2 -50 -4t-49 -2q-30 0 -58.5 3t-51.5 12.5t-37 27t-14 47.5q0 27 5 59t15 78l40 188h-86l23 110h86
l33 156h170z" />
    <glyph glyph-name="Tbar" unicode="&#x166;" 
d="M658 554h-210l-28 -130h147l-16 -79h-147l-73 -345h-186l73 345h-152l16 79h152l28 130h-210l32 160h606z" />
    <glyph glyph-name="tbar" unicode="&#x167;" horiz-adv-x="389" 
d="M299 519h107l-23 -110h-108l-18 -87h117l-16 -79h-118l-6 -30q-4 -17 -6.5 -32.5t-2.5 -29.5q0 -19 15.5 -23t37.5 -4q14 0 26.5 1t26.5 2l-26 -127q-26 -2 -50 -4t-49 -2q-30 0 -58.5 3t-51.5 12.5t-37 27t-14 47.5q0 27 5 59t15 78l4 22h-95l16 79h96l19 87h-86l23 110
h86l33 156h170z" />
    <glyph glyph-name="Utilde" unicode="&#x168;" horiz-adv-x="741" 
d="M677 306q-15 -72 -36 -131t-60 -101.5t-101 -65.5t-159 -23q-70 0 -124 16.5t-90.5 44.5t-55.5 65.5t-19 79.5q0 45 6 80t14 70l81 373h186l-83 -382q-5 -26 -11.5 -53t-6.5 -56q0 -40 28 -62.5t79 -22.5q48 0 77.5 16.5t47.5 45t28.5 66.5t20.5 80l77 368h186zM661 904
q-5 -24 -13.5 -47.5t-22 -42.5t-33.5 -31t-48 -12q-15 0 -32 4t-34 10l-41 14q-21 7 -28.5 9t-15.5 2q-11 0 -22.5 -10.5t-15.5 -30.5h-78q3 23 12.5 46.5t25 42.5t36.5 31t47 12q14 0 27.5 -4t27.5 -9l45 -17q25 -11 48 -11q17 0 25 15t12 29h78z" />
    <glyph glyph-name="utilde" unicode="&#x169;" 
d="M492 0h-163l15 71h-2q-29 -44 -73 -65t-97 -21t-84 17.5t-46.5 40t-20 45t-4.5 33.5q0 26 3 46t7 37l67 315h170l-59 -288q-7 -34 -7 -62q0 -23 13.5 -38.5t42.5 -15.5q54 0 80.5 34t37.5 89l60 281h170zM563 718q-5 -24 -13.5 -47.5t-22 -42.5t-33.5 -31t-48 -12
q-15 0 -32 4t-34 10l-41 14q-21 7 -28.5 9t-15.5 2q-11 0 -22.5 -10.5t-15.5 -30.5h-78q3 23 12.5 46.5t25 42.5t36.5 31t47 12q14 0 27.5 -4t27.5 -9l45 -17q25 -11 48 -11q17 0 25 15t12 29h78z" />
    <glyph glyph-name="Umacron" unicode="&#x16a;" horiz-adv-x="741" 
d="M677 306q-15 -72 -36 -131t-60 -101.5t-101 -65.5t-159 -23q-70 0 -124 16.5t-90.5 44.5t-55.5 65.5t-19 79.5q0 45 6 80t14 70l81 373h186l-83 -382q-5 -26 -11.5 -53t-6.5 -56q0 -40 28 -62.5t79 -22.5q48 0 77.5 16.5t47.5 45t28.5 66.5t20.5 80l77 368h186zM268 797
l16 79h381l-16 -79h-381z" />
    <glyph glyph-name="umacron" unicode="&#x16b;" 
d="M492 0h-163l15 71h-2q-29 -44 -73 -65t-97 -21t-84 17.5t-46.5 40t-20 45t-4.5 33.5q0 26 3 46t7 37l67 315h170l-59 -288q-7 -34 -7 -62q0 -23 13.5 -38.5t42.5 -15.5q54 0 80.5 34t37.5 89l60 281h170zM174 611l16 79h381l-16 -79h-381z" />
    <glyph glyph-name="Ubreve" unicode="&#x16c;" horiz-adv-x="741" 
d="M677 306q-15 -72 -36 -131t-60 -101.5t-101 -65.5t-159 -23q-70 0 -124 16.5t-90.5 44.5t-55.5 65.5t-19 79.5q0 45 6 80t14 70l81 373h186l-83 -382q-5 -26 -11.5 -53t-6.5 -56q0 -40 28 -62.5t79 -22.5q48 0 77.5 16.5t47.5 45t28.5 66.5t20.5 80l77 368h186zM366 910
q2 -39 27 -54.5t61 -15.5q41 0 72 15.5t48 54.5h71q-15 -72 -60 -110t-132 -38q-35 0 -65.5 8.5t-52 26.5t-32 46t-6.5 67h69z" />
    <glyph glyph-name="ubreve" unicode="&#x16d;" 
d="M492 0h-163l15 71h-2q-29 -44 -73 -65t-97 -21t-84 17.5t-46.5 40t-20 45t-4.5 33.5q0 26 3 46t7 37l67 315h170l-59 -288q-7 -34 -7 -62q0 -23 13.5 -38.5t42.5 -15.5q54 0 80.5 34t37.5 89l60 281h170zM269 724q2 -39 27 -54.5t61 -15.5q41 0 72 15.5t48 54.5h71
q-15 -72 -60 -110t-132 -38q-35 0 -65.5 8.5t-52 26.5t-32 46t-6.5 67h69z" />
    <glyph glyph-name="Uring" unicode="&#x16e;" horiz-adv-x="741" 
d="M677 306q-15 -72 -36 -131t-60 -101.5t-101 -65.5t-159 -23q-70 0 -124 16.5t-90.5 44.5t-55.5 65.5t-19 79.5q0 45 6 80t14 70l81 373h186l-83 -382q-5 -26 -11.5 -53t-6.5 -56q0 -40 28 -62.5t79 -22.5q48 0 77.5 16.5t47.5 45t28.5 66.5t20.5 80l77 368h186zM453 741
q-22 0 -41.5 7.5t-34 21.5t-23 33.5t-8.5 40.5q0 22 8.5 41.5t23 33t34 21t41.5 7.5t41.5 -7.5t34 -20.5t23 -33t8.5 -42t-8.5 -41.5t-23 -33t-34 -21t-41.5 -7.5zM453 792q22 0 37 15.5t15 36.5q0 23 -15 37.5t-37 14.5t-37 -14.5t-15 -37.5q0 -21 15 -36.5t37 -15.5z" />
    <glyph glyph-name="uring" unicode="&#x16f;" 
d="M492 0h-163l15 71h-2q-29 -44 -73 -65t-97 -21t-84 17.5t-46.5 40t-20 45t-4.5 33.5q0 26 3 46t7 37l67 315h170l-59 -288q-7 -34 -7 -62q0 -23 13.5 -38.5t42.5 -15.5q54 0 80.5 34t37.5 89l60 281h170zM359 565q-22 0 -41.5 7.5t-34 21.5t-23 33.5t-8.5 40.5
q0 22 8.5 41.5t23 33t34 21t41.5 7.5t41.5 -7.5t34 -20.5t23 -33t8.5 -42t-8.5 -41.5t-23 -33t-34 -21t-41.5 -7.5zM359 616q22 0 37 15.5t15 36.5q0 23 -15 37.5t-37 14.5t-37 -14.5t-15 -37.5q0 -21 15 -36.5t37 -15.5z" />
    <glyph glyph-name="Uhungarumlaut" unicode="&#x170;" horiz-adv-x="741" 
d="M677 306q-15 -72 -36 -131t-60 -101.5t-101 -65.5t-159 -23q-70 0 -124 16.5t-90.5 44.5t-55.5 65.5t-19 79.5q0 45 6 80t14 70l81 373h186l-83 -382q-5 -26 -11.5 -53t-6.5 -56q0 -40 28 -62.5t79 -22.5q48 0 77.5 16.5t47.5 45t28.5 66.5t20.5 80l77 368h186zM809 909
l-179 -146h-113l107 146h185zM571 909l-179 -146h-113l107 146h185z" />
    <glyph glyph-name="uhungarumlaut" unicode="&#x171;" 
d="M492 0h-163l15 71h-2q-29 -44 -73 -65t-97 -21t-84 17.5t-46.5 40t-20 45t-4.5 33.5q0 26 3 46t7 37l67 315h170l-59 -288q-7 -34 -7 -62q0 -23 13.5 -38.5t42.5 -15.5q54 0 80.5 34t37.5 89l60 281h170zM711 723l-179 -146h-113l107 146h185zM473 723l-179 -146h-113
l107 146h185z" />
    <glyph glyph-name="Uogonek" unicode="&#x172;" horiz-adv-x="741" 
d="M677 306q-15 -72 -36 -131t-60 -101.5t-101 -65.5q-53 -19 -130 -22q-48 -35 -72 -60q-29 -31 -29 -56q0 -18 9 -26t24 -8q20 0 35 10t28 27l44 -16q-26 -42 -60 -66.5t-83 -24.5q-14 0 -28.5 3t-29 11.5t-24.5 24t-10 41.5q0 14 4.5 30t20.5 36t44 42q20 15 50 33
q-41 4 -76 14q-54 17 -90.5 45t-55.5 65.5t-19 79.5q0 45 6 80t14 70l81 373h186l-83 -382q-5 -26 -11.5 -53t-6.5 -56q0 -40 28 -62.5t79 -22.5q48 0 77.5 16.5t47.5 45t28.5 66.5t20.5 80l77 368h186z" />
    <glyph glyph-name="uogonek" unicode="&#x173;" 
d="M396 0q-49 -44 -70 -74.5t-21 -55.5q0 -18 8 -26t22 -8q18 0 31.5 10t24.5 27l40 -16q-24 -42 -54.5 -66.5t-74.5 -24.5q-12 0 -25.5 3t-26.5 11.5t-22 24t-9 41.5q0 14 4 29.5t18.5 37.5t35.5 42t52 45l15 71h-2q-29 -44 -73 -65t-97 -21t-84 17.5t-46.5 40t-20 45
t-4.5 33.5q0 26 3 46t7 37l67 315h170l-59 -288q-7 -34 -7 -62q0 -23 13.5 -38.5t42.5 -15.5q54 0 80.5 34t37.5 89l60 281h170l-110 -519h-96z" />
    <glyph glyph-name="Wcircumflex" unicode="&#x174;" horiz-adv-x="944" 
d="M63 714h187l-5 -520h2l210 520h170v-520h2l202 520h191l-339 -714h-187v483h-2l-194 -483h-187zM357 763l145 146h146l83 -146h-125l-45 82l-76 -82h-128z" />
    <glyph glyph-name="wcircumflex" unicode="&#x175;" horiz-adv-x="833" 
d="M35 519h169l13 -360h2l149 360h164l11 -360h2l151 360h179l-270 -519h-176l-11 352h-2l-150 -352h-176zM270 577l145 146h146l83 -146h-125l-45 82l-76 -82h-128z" />
    <glyph glyph-name="Ycircumflex" unicode="&#x176;" horiz-adv-x="648" 
d="M214 270l-165 444h192l85 -297l199 297h223l-350 -444l-57 -270h-184zM199 763l145 146h146l83 -146h-125l-45 82l-76 -82h-128z" />
    <glyph glyph-name="ycircumflex" unicode="&#x177;" horiz-adv-x="537" 
d="M-24 -40q17 -2 32.5 -3t32.5 -1q19 0 30.5 4t19 11.5t13 18t13.5 23.5l-96 506h173l39 -365h2l155 365h178l-264 -495q-30 -54 -52.5 -91.5t-50 -61.5t-67 -34.5t-103.5 -10.5q-21 0 -41.5 2t-41.5 4zM114 577l145 146h146l83 -146h-125l-45 82l-76 -82h-128z" />
    <glyph glyph-name="Ydieresis" unicode="&#x178;" horiz-adv-x="648" 
d="M214 270l-165 444h192l85 -297l199 297h223l-350 -444l-57 -270h-184zM420 771l27 130h154l-27 -130h-154zM207 771l27 130h154l-27 -130h-154z" />
    <glyph glyph-name="Zacute" unicode="&#x179;" horiz-adv-x="667" 
d="M-12 160l447 394h-348l33 160h584l-32 -160l-460 -394h392l-32 -160h-615zM442 909h185l-179 -146h-114z" />
    <glyph glyph-name="zacute" unicode="&#x17a;" horiz-adv-x="537" 
d="M-14 125l314 269h-243l26 125h451l-26 -125l-315 -269h282l-27 -125h-490zM349 723h185l-179 -146h-114z" />
    <glyph glyph-name="Zdotaccent" unicode="&#x17b;" horiz-adv-x="667" 
d="M-12 160l447 394h-348l33 160h584l-32 -160l-460 -394h392l-32 -160h-615zM329 771l27 130h154l-27 -130h-154z" />
    <glyph glyph-name="zdotaccent" unicode="&#x17c;" horiz-adv-x="537" 
d="M-14 125l314 269h-243l26 125h451l-26 -125l-315 -269h282l-27 -125h-490zM238 585l27 130h154l-27 -130h-154z" />
    <glyph glyph-name="Zcaron" unicode="&#x17d;" horiz-adv-x="667" 
d="M-12 160l447 394h-348l33 160h584l-32 -160l-460 -394h392l-32 -160h-615zM376 909l45 -82l76 82h128l-145 -146h-146l-83 146h125z" />
    <glyph glyph-name="zcaron" unicode="&#x17e;" horiz-adv-x="537" 
d="M-14 125l314 269h-243l26 125h451l-26 -125l-315 -269h282l-27 -125h-490zM273 723l45 -82l76 82h128l-145 -146h-146l-83 146h125z" />
    <glyph glyph-name="florin" unicode="&#x192;" 
d="M35 -41q15 -3 32 -3q27 0 44 15t28 52l82 292h-98l30 105h98l32 113q14 49 32 85.5t44 61t61.5 37t84.5 12.5q50 0 96 -13l-35 -121q-9 1 -18 2.5t-18 1.5q-35 0 -51 -17t-26 -49l-32 -113h99l-29 -105h-100l-83 -292q-11 -41 -25.5 -76.5t-39.5 -62.5t-64.5 -42.5
t-102.5 -15.5q-19 0 -38 2l-38 4z" />
    <glyph glyph-name="Scommaaccent" unicode="&#x218;" horiz-adv-x="667" 
d="M186 240q0 -58 32.5 -80t98.5 -22q57 0 81.5 21t24.5 50q0 27 -18 43t-45 26.5t-59 18t-60 17.5q-33 12 -62.5 27.5t-51.5 37t-34.5 51t-12.5 68.5q0 61 25 104.5t66 71.5t93 41.5t106 13.5q57 0 108 -11.5t89 -38.5t59.5 -71t19.5 -109h-186q0 39 -25 58t-75 19
q-17 0 -34 -3.5t-30.5 -11.5t-21.5 -20t-8 -29q0 -16 6 -26t21 -17.5t40 -14.5t63 -17q37 -10 74.5 -25.5t68.5 -41t50.5 -62.5t19.5 -89q0 -48 -21 -90.5t-61.5 -74.5t-101 -50.5t-138.5 -18.5q-64 0 -117 16t-91 48t-59 80t-20 111h186zM209 -50h154l-17 -81
q-9 -44 -36.5 -67t-56 -29.5t-68.5 -6.5l9 42q26 3 40 10.5t22 26.5h-69z" />
    <glyph glyph-name="scommaaccent" unicode="&#x219;" horiz-adv-x="537" 
d="M145 170q-1 -18 4.5 -31t14.5 -23q12 -11 29.5 -16t37.5 -5q11 0 24 2.5t24.5 8.5t19.5 16t8 26q0 17 -7.5 26.5t-23 16.5t-39 12t-54.5 13q-29 6 -54.5 15.5t-45.5 25t-31.5 40t-11.5 61.5q0 52 23.5 86t60.5 54t81 28t86 8q40 0 79.5 -7.5t70.5 -26.5t49 -51.5
t15 -82.5h-154q2 29 -13 45q-8 9 -22.5 13.5t-28.5 4.5q-13 0 -26.5 -2.5t-25 -8t-18.5 -15t-7 -23.5t9.5 -23t25.5 -15t37 -10.5t44 -10.5q36 -9 64 -19t47.5 -26t29.5 -40.5t10 -62.5q0 -60 -24.5 -96.5t-63 -57t-85.5 -27.5t-93 -7q-50 0 -90 10t-68.5 32t-45 57
t-18.5 86h156zM137 -50h154l-17 -81q-9 -44 -36.5 -67t-56 -29.5t-68.5 -6.5l9 42q26 3 40 10.5t22 26.5h-69z" />
    <glyph glyph-name="uni021A" unicode="&#x21a;" 
d="M658 554h-210l-117 -554h-186l117 554h-210l32 160h606zM154 -50h154l-17 -81q-9 -44 -36.5 -67t-56 -29.5t-68.5 -6.5l9 42q26 3 40 10.5t22 26.5h-69z" />
    <glyph glyph-name="uni021B" unicode="&#x21b;" horiz-adv-x="389" 
d="M299 519h107l-23 -110h-108l-41 -196q-4 -17 -6.5 -32.5t-2.5 -29.5q0 -19 15.5 -23t37.5 -4q14 0 26.5 1t26.5 2l-26 -127q-26 -2 -50 -4t-49 -2q-30 0 -58.5 3t-51.5 12.5t-37 27t-14 47.5q0 27 5 59t15 78l40 188h-86l23 110h86l33 156h170zM86 -50h154l-17 -81
q-9 -44 -36.5 -67t-56 -29.5t-68.5 -6.5l9 42q26 3 40 10.5t22 26.5h-69z" />
    <glyph glyph-name="circumflex" unicode="&#x2c6;" horiz-adv-x="259" 
d="M-21 577l145 146h146l83 -146h-125l-45 82l-76 -82h-128z" />
    <glyph glyph-name="caron" unicode="&#x2c7;" horiz-adv-x="259" 
d="M136 723l45 -82l76 82h128l-145 -146h-146l-83 146h125z" />
    <glyph glyph-name="uni02C9" unicode="&#x2c9;" horiz-adv-x="259" 
d="M-11 611l16 79h381l-16 -79h-381z" />
    <glyph glyph-name="breve" unicode="&#x2d8;" horiz-adv-x="259" 
d="M87 724q2 -39 27 -54.5t61 -15.5q41 0 72 15.5t48 54.5h71q-15 -72 -60 -110t-132 -38q-35 0 -65.5 8.5t-52 26.5t-32 46t-6.5 67h69z" />
    <glyph glyph-name="dotaccent" unicode="&#x2d9;" horiz-adv-x="259" 
d="M118 585l27 130h154l-27 -130h-154z" />
    <glyph glyph-name="ring" unicode="&#x2da;" horiz-adv-x="259" 
d="M247 565q-22 0 -41.5 7.5t-34 21.5t-23 33.5t-8.5 40.5q0 22 8.5 41.5t23 33t34 21t41.5 7.5t41.5 -7.5t34 -20.5t23 -33t8.5 -42t-8.5 -41.5t-23 -33t-34 -21t-41.5 -7.5zM247 616q22 0 37 15.5t15 36.5q0 23 -15 37.5t-37 14.5t-37 -14.5t-15 -37.5q0 -21 15 -36.5
t37 -15.5z" />
    <glyph glyph-name="ogonek" unicode="&#x2db;" horiz-adv-x="259" 
d="M215 0q-65 -44 -94 -74.5t-29 -55.5q0 -18 9 -26t24 -8q20 0 35 10t28 27l44 -16q-26 -42 -60 -66.5t-83 -24.5q-14 0 -28.5 3t-29 11.5t-24.5 24t-10 41.5q0 14 4.5 30t20.5 36t44 41.5t75 46.5h74z" />
    <glyph glyph-name="tilde" unicode="&#x2dc;" horiz-adv-x="259" 
d="M378 718q-5 -24 -13.5 -47.5t-22 -42.5t-33.5 -31t-48 -12q-15 0 -32 4t-34 10l-41 14q-21 7 -28.5 9t-15.5 2q-11 0 -22.5 -10.5t-15.5 -30.5h-78q3 23 12.5 46.5t25 42.5t36.5 31t47 12q14 0 27.5 -4t27.5 -9l45 -17q25 -11 48 -11q17 0 25 15t12 29h78z" />
    <glyph glyph-name="hungarumlaut" unicode="&#x2dd;" horiz-adv-x="259" 
d="M529 723l-179 -146h-113l107 146h185zM291 723l-179 -146h-113l107 146h185z" />
    <glyph glyph-name="uni0394" unicode="&#x394;" horiz-adv-x="718" 
d="M-59 0l402 712h171l121 -712h-694zM400 544l-211 -401h273z" />
    <glyph glyph-name="uni03A9" unicode="&#x3a9;" horiz-adv-x="759" 
d="M720 460q0 -51 -16.5 -100.5t-46.5 -90t-72.5 -69t-94.5 -37.5l-6 -26h177l-29 -137h-301l46 220q40 6 71.5 26t53 49t33 65.5t11.5 75.5q0 63 -34.5 104.5t-100.5 41.5q-45 0 -82.5 -20t-64.5 -52.5t-41.5 -74t-14.5 -83.5q0 -51 21.5 -86t73.5 -46l-46 -220h-296
l29 137h171l6 27q-66 24 -96.5 73.5t-30.5 118.5q0 80 31.5 147t84.5 115.5t123.5 75.5t147.5 27q59 0 112 -17t93.5 -50.5t64 -82t23.5 -111.5z" />
    <glyph glyph-name="uni03BC" unicode="&#x3bc;" 
d="M500 0h-163l15 71h-2q-12 -18 -29 -34t-35 -27.5t-36 -18t-32 -6.5q-34 0 -53 22l-38 -181h-170l145 693h170l-59 -288q-7 -34 -7 -62q0 -23 13.5 -38.5t42.5 -15.5q54 0 80.5 34t37.5 89l60 281h170z" />
    <glyph glyph-name="pi" unicode="&#x3c0;" horiz-adv-x="625" 
d="M603 358h-81l-35 -164q-3 -13 -5.5 -27t-2.5 -27t9 -17.5t20 -4.5q12 0 24 3.5t23 8.5l-23 -110q-28 -13 -54 -21t-57 -8q-19 0 -37.5 3.5t-33.5 12.5t-24.5 23.5t-9.5 37.5q0 17 2.5 34t6.5 34l48 222h-146l-77 -358h-150l77 358h-74l29 137h600z" />
    <glyph glyph-name="endash" unicode="&#x2013;" horiz-adv-x="500" 
d="M-6 200l12 144h500l-12 -144h-500z" />
    <glyph glyph-name="emdash" unicode="&#x2014;" horiz-adv-x="1000" 
d="M124 200l12 144h740l-12 -144h-740z" />
    <glyph glyph-name="quoteleft" unicode="&#x2018;" horiz-adv-x="296" 
d="M233 364h-162l37 176q9 36 24 67.5t39 54.5t57 36.5t78 15.5l-17 -78q-40 -2 -62.5 -29t-28.5 -67h72z" />
    <glyph glyph-name="quoteright" unicode="&#x2019;" horiz-adv-x="296" 
d="M148 714h162l-37 -176q-9 -36 -24 -67.5t-39 -54.5t-57 -37t-78 -15l17 78q40 2 62.5 29t28.5 67h-72z" />
    <glyph glyph-name="quotesinglbase" unicode="&#x201a;" horiz-adv-x="296" 
d="M36 176h162l-37 -176q-9 -36 -24 -67.5t-39 -54.5t-57 -37t-78 -15l17 78q40 2 62.5 29t28.5 67h-72z" />
    <glyph glyph-name="quotedblleft" unicode="&#x201c;" horiz-adv-x="500" 
d="M226 364h-162l37 176q9 36 24 67.5t39 54.5t57 36.5t78 15.5l-17 -78q-40 -2 -62.5 -29t-28.5 -67h72zM452 364h-162l37 176q9 36 24 67.5t39 54.5t57 36.5t78 15.5l-17 -78q-40 -2 -62.5 -29t-28.5 -67h72z" />
    <glyph glyph-name="quotedblright" unicode="&#x201d;" horiz-adv-x="500" 
d="M137 714h162l-37 -176q-9 -36 -24 -67.5t-39 -54.5t-57 -37t-78 -15l17 78q40 2 62.5 29t28.5 67h-72zM363 714h162l-37 -176q-9 -36 -24 -67.5t-39 -54.5t-57 -37t-78 -15l17 78q40 2 62.5 29t28.5 67h-72z" />
    <glyph glyph-name="quotedblbase" unicode="&#x201e;" horiz-adv-x="500" 
d="M23 176h162l-37 -176q-9 -36 -24 -67.5t-39 -54.5t-57 -37t-78 -15l17 78q40 2 62.5 29t28.5 67h-72zM249 176h162l-37 -176q-9 -36 -24 -67.5t-39 -54.5t-57 -37t-78 -15l17 78q40 2 62.5 29t28.5 67h-72z" />
    <glyph glyph-name="dagger" unicode="&#x2020;" 
d="M236 376h-180l30 144h180l41 194h165l-41 -194h182l-30 -144h-182l-114 -550h-165z" />
    <glyph glyph-name="daggerdbl" unicode="&#x2021;" 
d="M163 20h-179l30 144h182l45 212h-181l30 144h178l41 194h164l-41 -194h182l-30 -144h-179l-45 -212h177l-30 -144h-180l-41 -194h-164z" />
    <glyph glyph-name="bullet" unicode="&#x2022;" horiz-adv-x="500" 
d="M72 357q0 37 14 69.5t38 56.5t56.5 38t69.5 14t69.5 -14t57 -38t38.5 -56.5t14 -69.5t-14 -69.5t-38.5 -57t-57 -38.5t-69.5 -14t-69.5 14t-56.5 38.5t-38 57t-14 69.5z" />
    <glyph glyph-name="ellipsis" unicode="&#x2026;" horiz-adv-x="1000" 
d="M652 0l37 176h183l-37 -176h-183zM319 0l37 176h183l-37 -176h-183zM-14 0l37 176h183l-37 -176h-183z" />
    <glyph glyph-name="perthousand" unicode="&#x2030;" horiz-adv-x="1148" 
d="M554 61q21 0 35.5 18.5t23 43.5t12 51t3.5 41q0 9 -0.5 18.5t-3.5 17.5t-9.5 13t-18.5 5q-23 0 -37.5 -18.5t-23.5 -44t-12.5 -52t-3.5 -42.5q0 -17 7.5 -34t27.5 -17zM545 -9q-52 0 -87 33.5t-35 96.5q0 43 11 82.5t33 69.5t56 48t80 18q64 0 92.5 -35t28.5 -95
q0 -38 -10 -76.5t-31.5 -70t-55.5 -51.5t-82 -20zM910 61q21 0 35.5 18.5t23 43.5t12 51t3.5 41q0 9 -0.5 18.5t-3.5 17.5t-9.5 13t-18.5 5q-23 0 -37.5 -18.5t-23.5 -44t-12.5 -52t-3.5 -42.5q0 -17 7.5 -34t27.5 -17zM901 -9q-52 0 -87 33.5t-35 96.5q0 43 11 82.5
t33 69.5t56 48t80 18q64 0 92.5 -35t28.5 -95q0 -38 -10 -76.5t-31.5 -70t-55.5 -51.5t-82 -20zM190 358q-52 0 -87 33.5t-35 96.5q0 43 11 82.5t33 69.5t56 48t80 18q64 0 92.5 -35t28.5 -95q0 -38 -10 -76.5t-31.5 -70t-55.5 -51.5t-82 -20zM87 -27l511 751h106l-511 -751
h-106zM199 428q21 0 35.5 18.5t23 43.5t12 51t3.5 41q0 9 -0.5 18.5t-3.5 17.5t-9.5 13t-18.5 5q-23 0 -37.5 -18.5t-23.5 -44t-12.5 -52t-3.5 -42.5q0 -17 7.5 -34t27.5 -17z" />
    <glyph glyph-name="guilsinglleft" unicode="&#x2039;" horiz-adv-x="241" 
d="M8 198l31 148l186 122l-29 -139l-106 -70l74 -80l-25 -121z" />
    <glyph glyph-name="guilsinglright" unicode="&#x203a;" horiz-adv-x="241" 
d="M208 328l-31 -148l-186 -122l29 139l106 70l-74 80l25 121z" />
    <glyph glyph-name="fraction" unicode="&#x2044;" horiz-adv-x="167" 
d="M-165 -27l393 751h103l-393 -751h-103z" />
    <glyph glyph-name="Euro" unicode="&#x20ac;" 
d="M662 656l-70 -134q-70 49 -134 49q-96 0 -146 -101h251l-45 -85h-234q-4 -15 -6.5 -32.5t-3.5 -37.5h209l-48 -85h-157q6 -51 38 -79t83 -28q74 0 162 61l-22 -154q-74 -38 -166 -38q-112 0 -179 64q-69 65 -73 174h-88l45 85h44q1 12 3.5 29.5t7.5 40.5h-78l45 85h57
q98 236 328 236q86 0 177 -50z" />
    <glyph glyph-name="afii61289" unicode="&#x2113;" horiz-adv-x="500" 
d="M513 586q0 -41 -15 -80t-47 -78t-82 -79.5t-120 -85.5q-9 -36 -14 -58t-7.5 -35t-3 -19.5t-0.5 -10.5q0 -21 11.5 -31t28.5 -10q18 0 40 8.5t57 30.5h2l38 -90q-48 -32 -92 -47t-93 -15q-73 0 -110.5 35.5t-37.5 90.5q0 7 1.5 18t5.5 32l-58 -40h-2l-41 88l128 82l48 229
q20 92 79 146t144 54q31 0 57 -10.5t44.5 -29t28.5 -43t10 -52.5zM384 579q0 17 -7.5 28.5t-20.5 11.5q-30 0 -43 -59l-35 -162q46 38 76 86t30 95z" />
    <glyph glyph-name="trademark" unicode="&#x2122;" horiz-adv-x="1000" 
d="M714 475l89 239h156v-412h-110v270h-2l-89 -270h-88l-89 270h-2v-270h-110v412h156zM386 619h-110v-317h-125v317h-110v95h345v-95z" />
    <glyph glyph-name="Omega" unicode="&#x2126;" horiz-adv-x="759" 
d="M720 460q0 -51 -16.5 -100.5t-46.5 -90t-72.5 -69t-94.5 -37.5l-6 -26h177l-29 -137h-301l46 220q40 6 71.5 26t53 49t33 65.5t11.5 75.5q0 63 -34.5 104.5t-100.5 41.5q-45 0 -82.5 -20t-64.5 -52.5t-41.5 -74t-14.5 -83.5q0 -51 21.5 -86t73.5 -46l-46 -220h-296
l29 137h171l6 27q-66 24 -96.5 73.5t-30.5 118.5q0 80 31.5 147t84.5 115.5t123.5 75.5t147.5 27q59 0 112 -17t93.5 -50.5t64 -82t23.5 -111.5z" />
    <glyph glyph-name="estimated" unicode="&#x212e;" horiz-adv-x="600" 
d="M157 259v-181q59 -59 145 -59q63 0 109 28.5t84 91.5l35 -21q-23 -36 -46.5 -61.5t-51 -42t-59.5 -24t-71 -7.5q-59 0 -106.5 21.5t-81.5 59t-52 87.5t-18 108t18 108.5t52 87.5t81.5 58.5t106.5 21.5q58 0 105.5 -20.5t81.5 -57t53 -87t19 -111.5h-404zM448 295v145
q-63 60 -147 60t-144 -60v-145h291z" />
    <glyph glyph-name="partialdiff" unicode="&#x2202;" horiz-adv-x="588" 
d="M529 355q0 -65 -11 -131t-40 -119.5t-79.5 -87.5t-130.5 -34q-53 0 -97 17t-75.5 47.5t-49 74t-17.5 97.5q0 48 16.5 90t46 72.5t70.5 48.5t90 18q35 0 66.5 -11.5t59.5 -31.5q0 30 -5 64.5t-18.5 64t-37.5 49.5t-62 20q-36 0 -65 -16.5t-55 -40.5l-81 91q45 40 90 60.5
t106 20.5q79 0 132.5 -31.5t86 -83t46.5 -116.5t14 -132zM376 291q-18 19 -45 32t-53 13t-45.5 -10.5t-32.5 -28t-19.5 -39.5t-6.5 -46q0 -21 5.5 -42.5t17 -38t29.5 -27t42 -10.5q36 0 57.5 21t32.5 51t14.5 64t3.5 61z" />
    <glyph glyph-name="Delta" unicode="&#x2206;" horiz-adv-x="718" 
d="M-59 0l402 712h171l121 -712h-694zM400 544l-211 -401h273z" />
    <glyph glyph-name="product" unicode="&#x220f;" horiz-adv-x="757" 
d="M556 -214v851h-354v-851h-153v1000h659v-1000h-152z" />
    <glyph glyph-name="summation" unicode="&#x2211;" horiz-adv-x="698" 
d="M29 -214v130l289 377l-277 362v131h615v-150h-413l253 -343l-269 -357h441v-150h-639z" />
    <glyph glyph-name="minus" unicode="&#x2212;" 
d="M48 181v144h504v-144h-504z" />
    <glyph glyph-name="uni2215" unicode="&#x2215;" horiz-adv-x="167" 
d="M-165 -27l393 751h103l-393 -751h-103z" />
    <glyph glyph-name="uni2219" unicode="&#x2219;" horiz-adv-x="315" 
d="M65 281q0 19 7.5 36t20 29.5t29.5 20t36 7.5t36 -7.5t29.5 -20t20 -29.5t7.5 -36t-7.5 -36t-20 -29.5t-29.5 -20t-36 -7.5t-36 7.5t-29.5 20t-20 29.5t-7.5 36z" />
    <glyph glyph-name="radical" unicode="&#x221a;" horiz-adv-x="603" 
d="M364 -214h-137l-142 290l-58 -27l-55 118l193 88l106 -236l156 767h161z" />
    <glyph glyph-name="infinity" unicode="&#x221e;" horiz-adv-x="881" 
d="M815 274q0 -45 -13 -84.5t-38.5 -69t-62.5 -46t-85 -16.5q-32 0 -60 9t-52 25t-44.5 37.5t-39.5 45.5q-19 -24 -39 -45t-43 -37t-49.5 -25t-59.5 -9q-48 0 -86 16t-64.5 45t-40.5 68t-14 86q0 46 13.5 84.5t39 66.5t63 44t84.5 16q35 0 62.5 -10t51 -27t43.5 -39.5
t39 -48.5q19 27 39 49.5t43.5 39.5t51.5 26.5t63 9.5q47 0 83.5 -16t62 -44t39 -67t13.5 -84zM688 272q0 35 -20.5 57.5t-55.5 22.5q-18 0 -34.5 -8t-31 -20.5t-27 -27t-22.5 -27.5q10 -14 23 -28t27.5 -25t31 -18t35.5 -7q36 0 55 23.5t19 57.5zM343 269q-10 13 -23 28
t-28 27t-32 20t-35 8q-35 0 -54 -24.5t-19 -56.5q0 -34 19.5 -56.5t54.5 -22.5q19 0 35.5 7t31 18t27 24.5t23.5 27.5z" />
    <glyph glyph-name="integral" unicode="&#x222b;" horiz-adv-x="657" 
d="M561 688q0 -31 -20 -51t-51 -20q-33 0 -45 16t-16.5 35.5t-8 35.5t-17.5 16t-16.5 -15t-2.5 -25q0 -48 4 -96.5t4 -96.5l1 -317q0 -37 0.5 -80t-3.5 -85.5t-14 -82t-31.5 -70t-56.5 -48.5t-88 -18q-23 0 -47 6t-44 18t-33 31t-13 46q0 31 19.5 49t49.5 18q33 0 45.5 -16
t17 -35.5t7 -35.5t16.5 -16q7 0 11.5 4.5t6 10.5t2 13t0.5 12q0 42 -4 82t-4 82v410q0 52 4 108.5t23 103.5t58 77.5t108 30.5q22 0 46 -5.5t44.5 -17t34 -30t13.5 -44.5z" />
    <glyph glyph-name="approxequal" unicode="&#x2248;" horiz-adv-x="593" 
d="M558 497q-2 -32 -12.5 -69t-29.5 -68.5t-48 -52.5t-68 -21q-28 0 -60.5 9.5t-66 21t-66 21t-60.5 9.5q-23 0 -37 -16.5t-16 -38.5h-98q0 34 10.5 71t31.5 67.5t51 50.5t69 20q29 0 60.5 -9t64 -20t63.5 -20t60 -9q26 0 38 14.5t15 39.5h99v0zM558 252q-2 -33 -11.5 -70
t-27.5 -68.5t-46.5 -52.5t-68.5 -21q-29 0 -63 9.5t-68 21t-66.5 21t-59.5 9.5q-25 0 -37.5 -15.5t-15.5 -38.5h-98q0 31 10.5 67.5t30 68t48.5 52.5t65 21q33 0 64.5 -9t63 -20.5t63 -20.5t64.5 -9q28 0 38.5 15t14.5 40h100v0z" />
    <glyph glyph-name="notequal" unicode="&#x2260;" horiz-adv-x="593" 
d="M263 75l-80 -162l-133 66l48 96h-93v151h167l45 90h-212v152h287l79 161l133 -66l-47 -95h91v-152h-166l-45 -90h211v-151h-285z" />
    <glyph glyph-name="lessequal" unicode="&#x2264;" horiz-adv-x="593" 
d="M5 290v150l543 152v-155l-331 -72l331 -84v-156zM5 -51v152h543v-152h-543z" />
    <glyph glyph-name="greaterequal" unicode="&#x2265;" horiz-adv-x="593" 
d="M5 125v156l332 84l-332 72v155l543 -152v-150zM5 -51v152h543v-152h-543z" />
    <glyph glyph-name="lozenge" unicode="&#x25ca;" horiz-adv-x="593" 
d="M296 593l-106 -237l106 -237l105 237zM364 -35h-138l-191 391l193 391h136l194 -391z" />
    <glyph glyph-name="uniF8FF" unicode="&#xf8ff;" horiz-adv-x="512" 
d="M222 117v67h56v-67h-56zM225 234l-2 17q0 55 13 81t46 59q32 31 41 47.5t9 35.5q0 36 -22.5 60.5t-53.5 24.5t-53.5 -22t-28.5 -73l-50 8q7 71 44 104t91 33q53 0 88.5 -36t35.5 -95q0 -32 -12.5 -58.5t-50.5 -61.5q-37 -33 -43 -52t-6 -72h-46zM462 50v617h-412v-617
h412zM512 718v-718h-512v718h512z" />
    <glyph glyph-name="dotlessj" horiz-adv-x="296" 
d="M-105 -44h39q34 0 45 19t18 54l102 490h169l-100 -482q-12 -59 -27 -99.5t-39.5 -65t-61 -35.5t-92.5 -11h-82z" />
    <glyph glyph-name="grave.cap" horiz-adv-x="259" 
d="M132 909l99 -146h-114l-162 146h177z" />
    <glyph glyph-name="acute.cap" horiz-adv-x="259" 
d="M225 909h185l-179 -146h-114z" />
    <glyph glyph-name="circumflex.cap" horiz-adv-x="259" 
d="M-21 763l145 146h146l83 -146h-125l-45 82l-76 -82h-128z" />
    <glyph glyph-name="caron.cap" horiz-adv-x="259" 
d="M136 909l45 -82l76 82h128l-145 -146h-146l-83 146h125z" />
    <glyph glyph-name="caron.alt" horiz-adv-x="259" 
d="M394 714l-115 -149h-104l66 149h153z" />
    <glyph glyph-name="tilde.cap" horiz-adv-x="259" 
d="M378 904q-5 -24 -13.5 -47.5t-22 -42.5t-33.5 -31t-48 -12q-15 0 -32 4t-34 10l-41 14q-21 7 -28.5 9t-15.5 2q-11 0 -22.5 -10.5t-15.5 -30.5h-78q3 23 12.5 46.5t25 42.5t36.5 31t47 12q14 0 27.5 -4t27.5 -9l45 -17q27 -11 48 -11q17 0 25 15t12 29h78z" />
    <glyph glyph-name="dieresis.cap" horiz-adv-x="259" 
d="M201 771l27 130h154l-27 -130h-154zM-12 771l27 130h154l-27 -130h-154z" />
    <glyph glyph-name="macron.cap" horiz-adv-x="259" 
d="M-11 797l16 79h381l-16 -79h-381z" />
    <glyph glyph-name="breve.cap" horiz-adv-x="259" 
d="M87 910q2 -39 27 -54.5t61 -15.5q42 0 72.5 15.5t47.5 54.5h71q-15 -72 -60 -110t-132 -38q-35 0 -65.5 8.5t-52 26.5t-32 46t-6.5 67h69z" />
    <glyph glyph-name="ring.cap" horiz-adv-x="259" 
d="M247 748q-45 0 -76 29t-31 74q0 23 8.5 42t23 32.5t34 21t41.5 7.5q45 0 76 -28t31 -75q0 -23 -8.5 -42t-23 -32.5t-34 -21t-41.5 -7.5zM247 799q22 0 37 15.5t15 36.5q0 23 -15 37.5t-37 14.5t-37 -14.5t-15 -37.5q0 -21 15 -36.5t37 -15.5z" />
    <glyph glyph-name="hungarumlaut.cap" horiz-adv-x="259" 
d="M529 909l-179 -146h-113l107 146h185zM291 909l-179 -146h-113l107 146h185z" />
    <glyph glyph-name="dotaccent.cap" horiz-adv-x="259" 
d="M118 771l27 130h154l-27 -130h-154z" />
    <glyph glyph-name="commaaccent" horiz-adv-x="315" 
d="M48 -50h154l-17 -81q-9 -44 -36.5 -67t-56 -29.5t-68.5 -6.5l9 42q26 3 40 10.5t22 26.5h-69z" />
    <glyph glyph-name="commaaccent.alt" horiz-adv-x="315" 
d="M237 609h-154l17 81q9 45 37 67q28 23 56 29.5t68 6.5l-8 -42q-27 -3 -41 -10.5t-22 -26.5h69z" />
    <glyph glyph-name="commaaccenttwo" horiz-adv-x="315" 
d="M237 609h-154l17 81q9 44 37 67t56 29.5t68 6.5l-8 -42q-27 -3 -41 -10.5t-22 -26.5h69z" />
    <glyph glyph-name="carontwo" horiz-adv-x="259" 
d="M394 714l-115 -149h-104l66 149h153z" />
    </font>
</defs>
</svg>
